<?xml version="1.0" encoding="UTF-8" standalone="no"?>
<svg
   xmlns:dc="http://purl.org/dc/elements/1.1/"
   xmlns:cc="http://creativecommons.org/ns#"
   xmlns:rdf="http://www.w3.org/1999/02/22-rdf-syntax-ns#"
   xmlns:svg="http://www.w3.org/2000/svg"
   xmlns="http://www.w3.org/2000/svg"
   xmlns:xlink="http://www.w3.org/1999/xlink"
   xmlns:sodipodi="http://sodipodi.sourceforge.net/DTD/sodipodi-0.dtd"
   xmlns:inkscape="http://www.inkscape.org/namespaces/inkscape"
   width="175.78635mm"
   height="151.35803mm"
   viewBox="0 0 175.78635 151.35803"
   version="1.1"
   id="svg8"
   sodipodi:docname="term10.svg"
   inkscape:version="1.0.1 (3bc2e813f5, 2020-09-07)"
   inkscape:export-filename="/home/kirito/storage/iiserk/acm/solutions/term10.png"
   inkscape:export-xdpi="248.64"
   inkscape:export-ydpi="248.64">
  <defs
     id="defs2">
    <marker
       style="overflow:visible"
       id="marker2083"
       refX="0"
       refY="0"
       orient="auto"
       inkscape:stockid="EmptyTriangleOutL"
       inkscape:isstock="true">
      <path
         transform="matrix(0.8,0,0,0.8,-4.8,0)"
         style="fill:#ffffff;fill-rule:evenodd;stroke:#000000;stroke-width:1pt;stroke-opacity:1"
         d="M 5.77,0 -2.88,5 V -5 Z"
         id="path2081" />
    </marker>
    <marker
       style="overflow:visible"
       id="EmptyTriangleInL"
       refX="0"
       refY="0"
       orient="auto"
       inkscape:stockid="EmptyTriangleInL"
       inkscape:isstock="true">
      <path
         transform="matrix(-0.8,0,0,-0.8,4.8,0)"
         style="fill:#ffffff;fill-rule:evenodd;stroke:#000000;stroke-width:1pt;stroke-opacity:1"
         d="M 5.77,0 -2.88,5 V -5 Z"
         id="path1938" />
    </marker>
    <inkscape:path-effect
       effect="spiro"
       id="path-effect1779"
       is_visible="true"
       lpeversion="1" />
    <inkscape:path-effect
       effect="spiro"
       id="path-effect1777"
       is_visible="true"
       lpeversion="1" />
    <inkscape:path-effect
       effect="spiro"
       id="path-effect1753"
       is_visible="true"
       lpeversion="1" />
    <inkscape:path-effect
       effect="spiro"
       id="path-effect1734"
       is_visible="true"
       lpeversion="1" />
    <inkscape:path-effect
       effect="spiro"
       id="path-effect1730"
       is_visible="true"
       lpeversion="1" />
    <marker
       style="overflow:visible"
       id="marker2444"
       refX="0"
       refY="0"
       orient="auto"
       inkscape:stockid="EmptyTriangleOutL"
       inkscape:isstock="true"
       inkscape:collect="always">
      <path
         transform="matrix(0.8,0,0,0.8,-4.8,0)"
         style="fill:#ffffff;fill-rule:evenodd;stroke:#000000;stroke-width:1pt;stroke-opacity:1"
         d="M 5.77,0 -2.88,5 V -5 Z"
         id="path2442" />
    </marker>
    <inkscape:path-effect
       effect="spiro"
       id="path-effect2440"
       is_visible="true"
       lpeversion="1" />
    <marker
       style="overflow:visible"
       id="EmptyTriangleOutL-3"
       refX="0"
       refY="0"
       orient="auto"
       inkscape:stockid="EmptyTriangleOutL"
       inkscape:isstock="true">
      <path
         transform="matrix(0.8,0,0,0.8,-4.8,0)"
         style="fill:#ffffff;fill-rule:evenodd;stroke:#000000;stroke-width:1pt;stroke-opacity:1"
         d="M 5.77,0 -2.88,5 V -5 Z"
         id="path997-6" />
    </marker>
    <marker
       style="overflow:visible"
       id="EmptyTriangleOutL-5"
       refX="0"
       refY="0"
       orient="auto"
       inkscape:stockid="EmptyTriangleOutL"
       inkscape:isstock="true">
      <path
         transform="matrix(0.8,0,0,0.8,-4.8,0)"
         style="fill:#ffffff;fill-rule:evenodd;stroke:#000000;stroke-width:1pt;stroke-opacity:1"
         d="M 5.77,0 -2.88,5 V -5 Z"
         id="path997-3" />
    </marker>
    <g
       id="g8670">
      <symbol
         overflow="visible"
         id="symbol1253">
        <path
           style="stroke:none"
           d=""
           id="path7717" />
      </symbol>
      <symbol
         overflow="visible"
         id="symbol1401">
        <path
           style="stroke:none"
           d="M 4.828125,-4.203125 7.234375,-6.1875 c 0.21875,-0.1875 0.625,-0.1875 0.9375,-0.1875 h 0.15625 V -6.84375 C 7.9375,-6.8125 7.359375,-6.8125 7.3125,-6.8125 c -0.375,0 -1.09375,0 -1.453125,-0.03125 V -6.375 c 0.125,0 0.328125,0 0.578125,0.0625 0.15625,0.03125 0.046875,0.015625 0.125,0.046875 L 2.875,-3.1875 V -6.375 h 1.078125 v -0.46875 c -0.375,0.03125 -1.34375,0.03125 -1.78125,0.03125 -0.421875,0 -1.40625,0 -1.78125,-0.03125 V -6.375 H 1.46875 v 5.90625 H 0.390625 V 0 c 0.375,-0.03125 1.359375,-0.03125 1.78125,-0.03125 0.4375,0 1.40625,0 1.78125,0.03125 V -0.46875 H 2.875 V -2.5625 l 1,-0.828125 2.0625,2.703125 C 5.984375,-0.625 5.984375,-0.609375 6.015625,-0.546875 5.828125,-0.46875 5.625,-0.46875 5.28125,-0.46875 V 0 c 0.40625,-0.03125 1.3125,-0.03125 1.75,-0.03125 0.40625,0 1.09375,0 1.46875,0.03125 V -0.46875 H 8.203125 c -0.53125,0 -0.5625,-0.046875 -0.671875,-0.203125 z m 0,0"
           id="path4678" />
      </symbol>
    </g>
    <g
       id="g8799">
      <symbol
         overflow="visible"
         id="symbol4531">
        <path
           style="stroke:none"
           d=""
           id="path1667" />
      </symbol>
      <symbol
         overflow="visible"
         id="symbol4478">
        <path
           style="stroke:none"
           d="m 5.90625,-0.171875 c 1.625,-0.640625 2.0625,-2.125 2.0625,-3.203125 0,-2.15625 -1.453125,-3.578125 -3.65625,-3.578125 -2.28125,0 -3.671875,1.484375 -3.671875,3.578125 0,2.03125 1.359375,3.484375 3.671875,3.484375 0.21875,0 0.546875,-0.015625 0.9375,-0.09375 0.28125,1.125 0.484375,1.921875 1.40625,1.921875 1.015625,0 1.375,-1.1875 1.375,-1.859375 0,-0.078125 0,-0.25 -0.1875,-0.25 -0.140625,0 -0.171875,0.125 -0.171875,0.1875 -0.0625,0.390625 -0.6875,0.390625 -0.859375,0.390625 -0.21875,0 -0.515625,0 -0.90625,-0.578125 z m -2.546875,-0.34375 c -1.21875,-0.578125 -1.25,-2.09375 -1.25,-2.875 0,-0.390625 0,-1.34375 0.359375,-2.046875 0.515625,-0.96875 1.375,-1.109375 1.828125,-1.109375 0.53125,0 1.3125,0.203125 1.796875,1.046875 0.375,0.671875 0.40625,1.515625 0.40625,2.109375 0,0.5625 0,2.046875 -0.953125,2.703125 -0.21875,-0.328125 -0.578125,-0.859375 -1.25,-0.859375 -0.515625,0 -0.96875,0.34375 -0.96875,0.8125 0,0.0625 0.015625,0.171875 0.03125,0.21875 z m 1.765625,0.0625 c -0.25,0.109375 -0.546875,0.15625 -0.8125,0.15625 -0.546875,0 -0.625,-0.3125 -0.625,-0.4375 C 3.6875,-1 3.984375,-1.1875 4.3125,-1.1875 c 0.265625,0 0.609375,0.109375 0.8125,0.734375 z m 0,0"
           id="path6449" />
      </symbol>
    </g>
    <g
       id="g5236">
      <symbol
         overflow="visible"
         id="symbol4530">
        <path
           style="stroke:none"
           d=""
           id="path2804" />
      </symbol>
      <symbol
         overflow="visible"
         id="symbol8289">
        <path
           style="stroke:none"
           d="M 4.828125,-4.203125 7.234375,-6.1875 c 0.21875,-0.1875 0.625,-0.1875 0.9375,-0.1875 h 0.15625 V -6.84375 C 7.9375,-6.8125 7.359375,-6.8125 7.3125,-6.8125 c -0.375,0 -1.09375,0 -1.453125,-0.03125 V -6.375 c 0.125,0 0.328125,0 0.578125,0.0625 0.15625,0.03125 0.046875,0.015625 0.125,0.046875 L 2.875,-3.1875 V -6.375 h 1.078125 v -0.46875 c -0.375,0.03125 -1.34375,0.03125 -1.78125,0.03125 -0.421875,0 -1.40625,0 -1.78125,-0.03125 V -6.375 H 1.46875 v 5.90625 H 0.390625 V 0 c 0.375,-0.03125 1.359375,-0.03125 1.78125,-0.03125 0.4375,0 1.40625,0 1.78125,0.03125 V -0.46875 H 2.875 V -2.5625 l 1,-0.828125 2.0625,2.703125 C 5.984375,-0.625 5.984375,-0.609375 6.015625,-0.546875 5.828125,-0.46875 5.625,-0.46875 5.28125,-0.46875 V 0 c 0.40625,-0.03125 1.3125,-0.03125 1.75,-0.03125 0.40625,0 1.09375,0 1.46875,0.03125 V -0.46875 H 8.203125 c -0.53125,0 -0.5625,-0.046875 -0.671875,-0.203125 z m 0,0"
           id="path2909" />
      </symbol>
      <symbol
         overflow="visible"
         id="symbol7527">
        <path
           style="stroke:none"
           d="m 5.90625,-0.171875 c 1.625,-0.640625 2.0625,-2.125 2.0625,-3.203125 0,-2.15625 -1.453125,-3.578125 -3.65625,-3.578125 -2.28125,0 -3.671875,1.484375 -3.671875,3.578125 0,2.03125 1.359375,3.484375 3.671875,3.484375 0.21875,0 0.546875,-0.015625 0.9375,-0.09375 0.28125,1.125 0.484375,1.921875 1.40625,1.921875 1.015625,0 1.375,-1.1875 1.375,-1.859375 0,-0.078125 0,-0.25 -0.1875,-0.25 -0.140625,0 -0.171875,0.125 -0.171875,0.1875 -0.0625,0.390625 -0.6875,0.390625 -0.859375,0.390625 -0.21875,0 -0.515625,0 -0.90625,-0.578125 z m -2.546875,-0.34375 c -1.21875,-0.578125 -1.25,-2.09375 -1.25,-2.875 0,-0.390625 0,-1.34375 0.359375,-2.046875 0.515625,-0.96875 1.375,-1.109375 1.828125,-1.109375 0.53125,0 1.3125,0.203125 1.796875,1.046875 0.375,0.671875 0.40625,1.515625 0.40625,2.109375 0,0.5625 0,2.046875 -0.953125,2.703125 -0.21875,-0.328125 -0.578125,-0.859375 -1.25,-0.859375 -0.515625,0 -0.96875,0.34375 -0.96875,0.8125 0,0.0625 0.015625,0.171875 0.03125,0.21875 z m 1.765625,0.0625 c -0.25,0.109375 -0.546875,0.15625 -0.8125,0.15625 -0.546875,0 -0.625,-0.3125 -0.625,-0.4375 C 3.6875,-1 3.984375,-1.1875 4.3125,-1.1875 c 0.265625,0 0.609375,0.109375 0.8125,0.734375 z m 0,0"
           id="path6241" />
      </symbol>
      <symbol
         overflow="visible"
         id="symbol4597">
        <path
           style="stroke:none"
           d=""
           id="path3753" />
      </symbol>
      <symbol
         overflow="visible"
         id="symbol3886">
        <path
           style="stroke:none"
           d="m 4.078125,-2.296875 h 2.78125 C 7,-2.296875 7.1875,-2.296875 7.1875,-2.5 7.1875,-2.6875 7,-2.6875 6.859375,-2.6875 h -2.78125 v -2.796875 c 0,-0.140625 0,-0.328125 -0.203125,-0.328125 -0.203125,0 -0.203125,0.1875 -0.203125,0.328125 V -2.6875 h -2.78125 c -0.140625,0 -0.328125,0 -0.328125,0.1875 0,0.203125 0.1875,0.203125 0.328125,0.203125 h 2.78125 V 0.5 c 0,0.140625 0,0.328125 0.203125,0.328125 0.203125,0 0.203125,-0.1875 0.203125,-0.328125 z m 0,0"
           id="path2560" />
      </symbol>
    </g>
    <g
       id="g5186">
      <symbol
         overflow="visible"
         id="symbol3220">
        <path
           style="stroke:none"
           d=""
           id="path4416" />
      </symbol>
      <symbol
         overflow="visible"
         id="symbol8126">
        <path
           style="stroke:none"
           d="m 2.859375,-6.8125 c 0,0 0,-0.109375 -0.125,-0.109375 -0.234375,0 -0.953125,0.078125 -1.21875,0.109375 -0.078125,0 -0.1875,0.015625 -0.1875,0.1875 0,0.125 0.09375,0.125 0.234375,0.125 0.484375,0 0.5,0.0625 0.5,0.171875 L 2.03125,-6.125 0.59375,-0.390625 c -0.046875,0.140625 -0.046875,0.15625 -0.046875,0.21875 0,0.234375 0.203125,0.28125 0.296875,0.28125 0.125,0 0.265625,-0.09375 0.328125,-0.203125 0.046875,-0.09375 0.5,-1.9375 0.5625,-2.1875 0.34375,0.03125 1.15625,0.1875 1.15625,0.84375 0,0.078125 0,0.109375 -0.03125,0.21875 -0.015625,0.109375 -0.03125,0.234375 -0.03125,0.34375 0,0.578125 0.390625,0.984375 0.90625,0.984375 0.296875,0 0.578125,-0.15625 0.796875,-0.53125 0.25,-0.4375 0.359375,-0.984375 0.359375,-1 0,-0.109375 -0.09375,-0.109375 -0.125,-0.109375 -0.09375,0 -0.109375,0.046875 -0.140625,0.1875 -0.203125,0.71875 -0.421875,1.234375 -0.859375,1.234375 -0.203125,0 -0.328125,-0.109375 -0.328125,-0.46875 0,-0.171875 0.046875,-0.40625 0.078125,-0.5625 C 3.5625,-1.3125 3.5625,-1.34375 3.5625,-1.453125 3.5625,-2.09375 2.9375,-2.375 2.078125,-2.5 2.390625,-2.671875 2.71875,-2.984375 2.9375,-3.234375 3.421875,-3.765625 3.875,-4.1875 4.359375,-4.1875 c 0.0625,0 0.078125,0 0.09375,0.015625 0.125,0.015625 0.125,0.015625 0.21875,0.078125 0.015625,0 0.015625,0.015625 0.03125,0.03125 -0.46875,0.03125 -0.5625,0.421875 -0.5625,0.546875 0,0.15625 0.109375,0.34375 0.375,0.34375 0.265625,0 0.546875,-0.21875 0.546875,-0.609375 0,-0.296875 -0.234375,-0.625 -0.671875,-0.625 -0.28125,0 -0.734375,0.078125 -1.453125,0.875 -0.34375,0.375 -0.734375,0.78125 -1.109375,0.921875 z m 0,0"
           id="path6791" />
      </symbol>
      <symbol
         overflow="visible"
         id="symbol8366">
        <path
           style="stroke:none"
           d=""
           id="path4011" />
      </symbol>
      <symbol
         overflow="visible"
         id="symbol5320">
        <path
           style="stroke:none"
           d="M 2.390625,-2.25 H 3.125 c 0.53125,0 0.625,0.09375 0.625,0.3125 0,0.109375 0,0.125 -0.046875,0.328125 -0.015625,0.03125 -0.03125,0.0625 -0.03125,0.078125 0,0.0625 0.0625,0.109375 0.125,0.109375 0.09375,0 0.09375,-0.046875 0.140625,-0.171875 l 0.375,-1.46875 c 0,-0.03125 0.015625,-0.125 0.015625,-0.140625 0,-0.078125 -0.046875,-0.109375 -0.109375,-0.109375 -0.09375,0 -0.109375,0.046875 -0.140625,0.171875 C 3.9375,-2.59375 3.734375,-2.5 3.140625,-2.5 h -0.6875 l 0.4375,-1.75 c 0.046875,-0.203125 0.0625,-0.234375 0.34375,-0.234375 H 4.3125 c 0.921875,0 1.09375,0.21875 1.09375,0.8125 0,0.21875 -0.03125,0.375 -0.03125,0.421875 0,0.0625 0.03125,0.125 0.125,0.125 0.109375,0 0.109375,-0.0625 0.125,-0.1875 L 5.75,-4.515625 c 0.015625,-0.21875 -0.03125,-0.21875 -0.203125,-0.21875 h -3.71875 c -0.140625,0 -0.21875,0 -0.21875,0.15625 0,0.09375 0.078125,0.09375 0.21875,0.09375 0,0 0.140625,0 0.265625,0.015625 C 2.234375,-4.453125 2.25,-4.4375 2.25,-4.375 c 0,0.046875 -0.015625,0.125 -0.03125,0.15625 L 1.3125,-0.578125 C 1.234375,-0.296875 1.234375,-0.25 0.6875,-0.25 c -0.109375,0 -0.203125,0 -0.203125,0.140625 C 0.484375,-0.03125 0.53125,0 0.59375,0 0.796875,0 1.3125,-0.03125 1.515625,-0.03125 l 0.53125,0.015625 C 2.234375,-0.015625 2.421875,0 2.59375,0 2.640625,0 2.75,0 2.75,-0.15625 2.75,-0.25 2.671875,-0.25 2.515625,-0.25 c -0.015625,0 -0.1875,0 -0.375,-0.015625 C 2,-0.28125 1.9375,-0.28125 1.9375,-0.390625 c 0,-0.015625 0,-0.046875 0.015625,-0.125 z m 0,0"
           id="path1357" />
      </symbol>
    </g>
    <g
       id="g4108">
      <symbol
         overflow="visible"
         id="symbol3653">
        <path
           style="stroke:none"
           d=""
           id="path2034" />
      </symbol>
      <symbol
         overflow="visible"
         id="symbol7750">
        <path
           style="stroke:none"
           d="M 3.6875,-6.921875 C 3.625,-7.125 3.5625,-7.140625 3.453125,-7.140625 c -0.15625,0 -0.171875,0.046875 -0.21875,0.21875 L 1.3125,-1 c -0.09375,0.296875 -0.296875,0.6875 -1,0.6875 V 0 c 0.328125,-0.015625 0.84375,-0.03125 0.9375,-0.03125 0.28125,0 0.8125,0.015625 1.125,0.03125 v -0.3125 c -0.546875,0 -0.765625,-0.28125 -0.765625,-0.515625 0,-0.046875 0,-0.078125 0.046875,-0.21875 l 1.5,-4.640625 1.5625,4.90625 c 0.0625,0.140625 0.0625,0.15625 0.0625,0.171875 0,0.296875 -0.59375,0.296875 -0.859375,0.296875 V 0 c 0.359375,-0.03125 1.0625,-0.03125 1.4375,-0.03125 0.390625,0 0.84375,0.015625 1.234375,0.03125 v -0.3125 c -0.765625,0 -0.796875,-0.0625 -0.90625,-0.421875 z m 0,0"
           id="path980" />
      </symbol>
    </g>
    <g
       id="g3543">
      <symbol
         overflow="visible"
         id="symbol2524">
        <path
           style="stroke:none"
           d=""
           id="path674" />
      </symbol>
      <symbol
         overflow="visible"
         id="symbol6146">
        <path
           style="stroke:none"
           d="m 6.5625,-2.296875 c 0.171875,0 0.359375,0 0.359375,-0.203125 0,-0.1875 -0.1875,-0.1875 -0.359375,-0.1875 H 1.171875 c -0.171875,0 -0.34375,0 -0.34375,0.1875 0,0.203125 0.171875,0.203125 0.34375,0.203125 z m 0,0"
           id="path8408" />
      </symbol>
      <symbol
         overflow="visible"
         id="symbol5331">
        <path
           style="stroke:none"
           d=""
           id="path3046" />
      </symbol>
      <symbol
         overflow="visible"
         id="symbol4517">
        <path
           style="stroke:none"
           d="M 3.6875,-6.921875 C 3.625,-7.125 3.5625,-7.140625 3.453125,-7.140625 c -0.15625,0 -0.171875,0.046875 -0.21875,0.21875 L 1.3125,-1 c -0.09375,0.296875 -0.296875,0.6875 -1,0.6875 V 0 c 0.328125,-0.015625 0.84375,-0.03125 0.9375,-0.03125 0.28125,0 0.8125,0.015625 1.125,0.03125 v -0.3125 c -0.546875,0 -0.765625,-0.28125 -0.765625,-0.515625 0,-0.046875 0,-0.078125 0.046875,-0.21875 l 1.5,-4.640625 1.5625,4.90625 c 0.0625,0.140625 0.0625,0.15625 0.0625,0.171875 0,0.296875 -0.59375,0.296875 -0.859375,0.296875 V 0 c 0.359375,-0.03125 1.0625,-0.03125 1.4375,-0.03125 0.390625,0 0.84375,0.015625 1.234375,0.03125 v -0.3125 c -0.765625,0 -0.796875,-0.0625 -0.90625,-0.421875 z m 0,0"
           id="path6138" />
      </symbol>
    </g>
    <g
       id="g2050">
      <symbol
         overflow="visible"
         id="symbol3454">
        <path
           style="stroke:none"
           d=""
           id="path9575" />
      </symbol>
      <symbol
         overflow="visible"
         id="symbol9069">
        <path
           style="stroke:none"
           d="m 4.75,-2.359375 c 0,-1.5625 -0.921875,-2.046875 -1.65625,-2.046875 -1.375,0 -2.6875,1.421875 -2.6875,2.828125 0,0.9375 0.59375,1.6875 1.625,1.6875 0.625,0 1.34375,-0.234375 2.09375,-0.84375 0.125,0.53125 0.453125,0.84375 0.90625,0.84375 0.53125,0 0.84375,-0.546875 0.84375,-0.703125 0,-0.078125 -0.0625,-0.109375 -0.125,-0.109375 -0.0625,0 -0.09375,0.03125 -0.125,0.109375 -0.1875,0.484375 -0.546875,0.484375 -0.5625,0.484375 -0.3125,0 -0.3125,-0.78125 -0.3125,-1.015625 0,-0.203125 0,-0.234375 0.109375,-0.34375 C 5.796875,-2.65625 6,-3.8125 6,-3.8125 6,-3.84375 5.984375,-3.921875 5.875,-3.921875 c -0.09375,0 -0.09375,0.03125 -0.140625,0.21875 -0.1875,0.625 -0.515625,1.375 -0.984375,1.96875 z m -0.65625,1.375 c -0.890625,0.765625 -1.65625,0.875 -2.046875,0.875 -0.59375,0 -0.90625,-0.453125 -0.90625,-1.09375 0,-0.484375 0.265625,-1.5625 0.578125,-2.0625 C 2.1875,-4 2.734375,-4.1875 3.078125,-4.1875 c 0.984375,0 0.984375,1.3125 0.984375,2.078125 0,0.375 0,0.953125 0.03125,1.125 z m 0,0"
           id="path607" />
      </symbol>
    </g>
    <inkscape:path-effect
       effect="spiro"
       id="path-effect6986"
       is_visible="true"
       lpeversion="1" />
    <inkscape:path-effect
       effect="spiro"
       id="path-effect6984"
       is_visible="true"
       lpeversion="1" />
    <inkscape:path-effect
       effect="spiro"
       id="path-effect7165"
       is_visible="true"
       lpeversion="1" />
    <inkscape:path-effect
       effect="spiro"
       id="path-effect7163"
       is_visible="true"
       lpeversion="1" />
    <g
       id="g8409">
      <symbol
         overflow="visible"
         id="symbol6962">
        <path
           style="stroke:none"
           d=""
           id="path1856" />
      </symbol>
      <symbol
         overflow="visible"
         id="symbol6095">
        <path
           style="stroke:none"
           d="m 2.140625,-2.359375 v -4.5625 L 0.375,-6.84375 V -6.375 c 0.609375,0 0.6875,0 0.6875,0.390625 V -0.46875 H 0.375 V 0 c 0.359375,-0.015625 0.828125,-0.03125 1.1875,-0.03125 0.375,0 0.84375,0.015625 1.203125,0.03125 v -0.46875 h -0.6875 V -1.734375 C 2.375,-1.96875 2.453125,-2.03125 2.65625,-2.15625 l 1,1.25 c 0.09375,0.125 0.25,0.3125 0.25,0.34375 0,0.09375 -0.171875,0.09375 -0.3125,0.09375 V 0 c 0.296875,-0.015625 1.171875,-0.03125 1.21875,-0.03125 0.359375,0 0.703125,0.015625 1.046875,0.03125 V -0.46875 H 5.6875 c -0.4375,0 -0.46875,-0.046875 -0.59375,-0.203125 L 3.40625,-2.765625 4.703125,-3.78125 C 4.84375,-3.890625 4.9375,-3.953125 5.609375,-3.953125 v -0.46875 c -0.28125,0.03125 -0.53125,0.03125 -0.78125,0.03125 -0.265625,0 -0.921875,-0.03125 -1.15625,-0.03125 v 0.46875 c 0.234375,0 0.265625,0.03125 0.34375,0.109375 z m 0,0"
           id="path6005" />
      </symbol>
      <symbol
         overflow="visible"
         id="symbol6959">
        <path
           style="stroke:none"
           d=""
           id="path488" />
      </symbol>
      <symbol
         overflow="visible"
         id="symbol6133">
        <path
           style="stroke:none"
           d="m 2.78125,-4.328125 c 0,-0.25 -0.046875,-0.25 -0.34375,-0.25 C 2,-4.21875 1.4375,-4.125 0.875,-4.125 H 0.703125 v 0.390625 H 0.875 c 0.28125,0 0.703125,-0.046875 1,-0.140625 v 3.484375 H 0.78125 V 0 c 0.328125,-0.03125 1.171875,-0.03125 1.546875,-0.03125 0.25,0 0.5,0.015625 0.75,0.015625 0.21875,0 0.578125,0 0.78125,0.015625 V -0.390625 H 2.78125 Z m 0,0"
           id="path3162" />
      </symbol>
    </g>
    <g
       id="g4941">
      <symbol
         overflow="visible"
         id="symbol4235">
        <path
           style="stroke:none"
           d=""
           id="path65" />
      </symbol>
      <symbol
         overflow="visible"
         id="symbol5237">
        <path
           style="stroke:none"
           d="m 2.140625,-2.359375 v -4.5625 L 0.375,-6.84375 V -6.375 c 0.609375,0 0.6875,0 0.6875,0.390625 V -0.46875 H 0.375 V 0 c 0.359375,-0.015625 0.828125,-0.03125 1.1875,-0.03125 0.375,0 0.84375,0.015625 1.203125,0.03125 v -0.46875 h -0.6875 V -1.734375 C 2.375,-1.96875 2.453125,-2.03125 2.65625,-2.15625 l 1,1.25 c 0.09375,0.125 0.25,0.3125 0.25,0.34375 0,0.09375 -0.171875,0.09375 -0.3125,0.09375 V 0 c 0.296875,-0.015625 1.171875,-0.03125 1.21875,-0.03125 0.359375,0 0.703125,0.015625 1.046875,0.03125 V -0.46875 H 5.6875 c -0.4375,0 -0.46875,-0.046875 -0.59375,-0.203125 L 3.40625,-2.765625 4.703125,-3.78125 C 4.84375,-3.890625 4.9375,-3.953125 5.609375,-3.953125 v -0.46875 c -0.28125,0.03125 -0.53125,0.03125 -0.78125,0.03125 -0.265625,0 -0.921875,-0.03125 -1.15625,-0.03125 v 0.46875 c 0.234375,0 0.265625,0.03125 0.34375,0.109375 z m 0,0"
           id="path4256" />
      </symbol>
      <symbol
         overflow="visible"
         id="symbol9610">
        <path
           style="stroke:none"
           d=""
           id="path7527" />
      </symbol>
      <symbol
         overflow="visible"
         id="symbol8358">
        <path
           style="stroke:none"
           d="M 4.03125,-1.59375 H 3.59375 C 3.578125,-1.5 3.515625,-1.015625 3.390625,-0.984375 c -0.15625,0.03125 -0.5625,0.03125 -0.734375,0.03125 H 1.703125 c 0.390625,-0.28125 0.78125,-0.578125 1.1875,-0.828125 0.5625,-0.359375 1.140625,-0.734375 1.140625,-1.4375 0,-0.828125 -0.796875,-1.359375 -1.90625,-1.359375 -0.9375,0 -1.65625,0.375 -1.65625,1.03125 0,0.40625 0.328125,0.5625 0.546875,0.5625 0.25,0 0.53125,-0.171875 0.53125,-0.546875 0,-0.34375 -0.25,-0.46875 -0.265625,-0.484375 0.25,-0.15625 0.5625,-0.171875 0.65625,-0.171875 0.578125,0 1.046875,0.375 1.046875,0.984375 0,0.53125 -0.359375,0.984375 -0.765625,1.328125 L 0.5625,-0.390625 C 0.484375,-0.3125 0.46875,-0.3125 0.46875,-0.171875 V 0 h 3.328125 z m 0,0"
           id="path8067" />
      </symbol>
    </g>
    <g
       id="g2551">
      <symbol
         overflow="visible"
         id="symbol381">
        <path
           style="stroke:none"
           d=""
           id="path8030" />
      </symbol>
      <symbol
         overflow="visible"
         id="symbol6622">
        <path
           style="stroke:none"
           d="m 2.140625,-2.359375 v -4.5625 L 0.375,-6.84375 V -6.375 c 0.609375,0 0.6875,0 0.6875,0.390625 V -0.46875 H 0.375 V 0 c 0.359375,-0.015625 0.828125,-0.03125 1.1875,-0.03125 0.375,0 0.84375,0.015625 1.203125,0.03125 v -0.46875 h -0.6875 V -1.734375 C 2.375,-1.96875 2.453125,-2.03125 2.65625,-2.15625 l 1,1.25 c 0.09375,0.125 0.25,0.3125 0.25,0.34375 0,0.09375 -0.171875,0.09375 -0.3125,0.09375 V 0 c 0.296875,-0.015625 1.171875,-0.03125 1.21875,-0.03125 0.359375,0 0.703125,0.015625 1.046875,0.03125 V -0.46875 H 5.6875 c -0.4375,0 -0.46875,-0.046875 -0.59375,-0.203125 L 3.40625,-2.765625 4.703125,-3.78125 C 4.84375,-3.890625 4.9375,-3.953125 5.609375,-3.953125 v -0.46875 c -0.28125,0.03125 -0.53125,0.03125 -0.78125,0.03125 -0.265625,0 -0.921875,-0.03125 -1.15625,-0.03125 v 0.46875 c 0.234375,0 0.265625,0.03125 0.34375,0.109375 z m 0,0"
           id="path6012" />
      </symbol>
      <symbol
         overflow="visible"
         id="symbol3385">
        <path
           style="stroke:none"
           d=""
           id="path3897" />
      </symbol>
      <symbol
         overflow="visible"
         id="symbol2949">
        <path
           style="stroke:none"
           d="m 2.109375,-2.265625 c 0.828125,0 0.859375,0.625 0.859375,1 0,0.296875 0,1 -0.84375,1 C 1.9375,-0.265625 1.5,-0.3125 1.203125,-0.5 1.359375,-0.5625 1.53125,-0.71875 1.53125,-1.015625 c 0,-0.328125 -0.234375,-0.5625 -0.5625,-0.5625 -0.34375,0 -0.578125,0.234375 -0.578125,0.5625 0,0.71875 0.78125,1.09375 1.765625,1.09375 1.453125,0 1.953125,-0.75 1.953125,-1.34375 0,-0.53125 -0.4375,-1.015625 -1.21875,-1.1875 0.5,-0.1875 0.96875,-0.546875 0.96875,-1.125 0,-0.546875 -0.5625,-1 -1.671875,-1 -0.953125,0 -1.546875,0.46875 -1.546875,1.046875 0,0.359375 0.265625,0.546875 0.53125,0.546875 0.34375,0 0.53125,-0.265625 0.53125,-0.53125 0,-0.359375 -0.28125,-0.484375 -0.34375,-0.5 C 1.640625,-4.21875 2,-4.25 2.140625,-4.25 c 0.6875,0 0.6875,0.453125 0.6875,0.640625 0,0.328125 -0.140625,0.96875 -0.828125,1 -0.1875,0.015625 -0.359375,0.015625 -0.390625,0.03125 -0.09375,0.03125 -0.09375,0.109375 -0.09375,0.15625 0,0.15625 0.09375,0.15625 0.21875,0.15625 z m 0,0"
           id="path592" />
      </symbol>
    </g>
    <g
       id="g8254">
      <symbol
         overflow="visible"
         id="symbol3910">
        <path
           style="stroke:none"
           d=""
           id="path6059" />
      </symbol>
      <symbol
         overflow="visible"
         id="symbol8668">
        <path
           style="stroke:none"
           d="m 2.140625,-2.359375 v -4.5625 L 0.375,-6.84375 V -6.375 c 0.609375,0 0.6875,0 0.6875,0.390625 V -0.46875 H 0.375 V 0 c 0.359375,-0.015625 0.828125,-0.03125 1.1875,-0.03125 0.375,0 0.84375,0.015625 1.203125,0.03125 v -0.46875 h -0.6875 V -1.734375 C 2.375,-1.96875 2.453125,-2.03125 2.65625,-2.15625 l 1,1.25 c 0.09375,0.125 0.25,0.3125 0.25,0.34375 0,0.09375 -0.171875,0.09375 -0.3125,0.09375 V 0 c 0.296875,-0.015625 1.171875,-0.03125 1.21875,-0.03125 0.359375,0 0.703125,0.015625 1.046875,0.03125 V -0.46875 H 5.6875 c -0.4375,0 -0.46875,-0.046875 -0.59375,-0.203125 L 3.40625,-2.765625 4.703125,-3.78125 C 4.84375,-3.890625 4.9375,-3.953125 5.609375,-3.953125 v -0.46875 c -0.28125,0.03125 -0.53125,0.03125 -0.78125,0.03125 -0.265625,0 -0.921875,-0.03125 -1.15625,-0.03125 v 0.46875 c 0.234375,0 0.265625,0.03125 0.34375,0.109375 z m 0,0"
           id="path7348" />
      </symbol>
      <symbol
         overflow="visible"
         id="symbol8634">
        <path
           style="stroke:none"
           d=""
           id="path4596" />
      </symbol>
      <symbol
         overflow="visible"
         id="symbol7960">
        <path
           style="stroke:none"
           d="M 4.21875,-1.078125 V -1.46875 h -0.75 V -4.375 c 0,-0.203125 -0.046875,-0.234375 -0.25,-0.234375 H 3.109375 c -0.125,0 -0.1875,0 -0.265625,0.09375 l -2.5625,3.046875 v 0.390625 h 2.234375 v 0.6875 h -0.875 V 0 c 0.34375,-0.03125 0.96875,-0.03125 1.328125,-0.03125 0.15625,0 1.078125,0.015625 1.25,0.03125 v -0.390625 h -0.75 v -0.6875 z m -1.625,-2.578125 v 2.1875 H 0.765625 Z m 0,0"
           id="path1459" />
      </symbol>
    </g>
    <g
       id="g4464">
      <symbol
         overflow="visible"
         id="symbol9896">
        <path
           style="stroke:none"
           d=""
           id="path6863" />
      </symbol>
      <symbol
         overflow="visible"
         id="symbol1841">
        <path
           style="stroke:none"
           d="M 4.828125,-4.203125 7.234375,-6.1875 c 0.21875,-0.1875 0.625,-0.1875 0.9375,-0.1875 h 0.15625 V -6.84375 C 7.9375,-6.8125 7.359375,-6.8125 7.3125,-6.8125 c -0.375,0 -1.09375,0 -1.453125,-0.03125 V -6.375 c 0.125,0 0.328125,0 0.578125,0.0625 0.15625,0.03125 0.046875,0.015625 0.125,0.046875 L 2.875,-3.1875 V -6.375 h 1.078125 v -0.46875 c -0.375,0.03125 -1.34375,0.03125 -1.78125,0.03125 -0.421875,0 -1.40625,0 -1.78125,-0.03125 V -6.375 H 1.46875 v 5.90625 H 0.390625 V 0 c 0.375,-0.03125 1.359375,-0.03125 1.78125,-0.03125 0.4375,0 1.40625,0 1.78125,0.03125 V -0.46875 H 2.875 V -2.5625 l 1,-0.828125 2.0625,2.703125 C 5.984375,-0.625 5.984375,-0.609375 6.015625,-0.546875 5.828125,-0.46875 5.625,-0.46875 5.28125,-0.46875 V 0 c 0.40625,-0.03125 1.3125,-0.03125 1.75,-0.03125 0.40625,0 1.09375,0 1.46875,0.03125 V -0.46875 H 8.203125 c -0.53125,0 -0.5625,-0.046875 -0.671875,-0.203125 z m 0,0"
           id="path5678" />
      </symbol>
    </g>
    <g
       id="g1413">
      <symbol
         overflow="visible"
         id="symbol3494">
        <path
           style="stroke:none"
           d=""
           id="path2669" />
      </symbol>
      <symbol
         overflow="visible"
         id="symbol5886">
        <path
           style="stroke:none"
           d="m 2.875,-3.015625 h 1.765625 c 1.390625,0 2.546875,-0.71875 2.546875,-1.875 0,-1.09375 -0.984375,-1.953125 -2.640625,-1.953125 H 0.390625 V -6.375 H 1.46875 v 5.90625 H 0.390625 V 0 c 0.375,-0.03125 1.359375,-0.03125 1.78125,-0.03125 0.4375,0 1.40625,0 1.78125,0.03125 V -0.46875 H 2.875 Z m 1.28125,-0.40625 H 2.828125 V -6.375 h 1.34375 c 1.484375,0 1.484375,0.765625 1.484375,1.484375 0,0.703125 0,1.46875 -1.5,1.46875 z m 0,0"
           id="path7356" />
      </symbol>
      <symbol
         overflow="visible"
         id="symbol8938">
        <path
           style="stroke:none"
           d="M 4.828125,-4.203125 7.234375,-6.1875 c 0.21875,-0.1875 0.625,-0.1875 0.9375,-0.1875 h 0.15625 V -6.84375 C 7.9375,-6.8125 7.359375,-6.8125 7.3125,-6.8125 c -0.375,0 -1.09375,0 -1.453125,-0.03125 V -6.375 c 0.125,0 0.328125,0 0.578125,0.0625 0.15625,0.03125 0.046875,0.015625 0.125,0.046875 L 2.875,-3.1875 V -6.375 h 1.078125 v -0.46875 c -0.375,0.03125 -1.34375,0.03125 -1.78125,0.03125 -0.421875,0 -1.40625,0 -1.78125,-0.03125 V -6.375 H 1.46875 v 5.90625 H 0.390625 V 0 c 0.375,-0.03125 1.359375,-0.03125 1.78125,-0.03125 0.4375,0 1.40625,0 1.78125,0.03125 V -0.46875 H 2.875 V -2.5625 l 1,-0.828125 2.0625,2.703125 C 5.984375,-0.625 5.984375,-0.609375 6.015625,-0.546875 5.828125,-0.46875 5.625,-0.46875 5.28125,-0.46875 V 0 c 0.40625,-0.03125 1.3125,-0.03125 1.75,-0.03125 0.40625,0 1.09375,0 1.46875,0.03125 V -0.46875 H 8.203125 c -0.53125,0 -0.5625,-0.046875 -0.671875,-0.203125 z m 0,0"
           id="path7892" />
      </symbol>
      <symbol
         overflow="visible"
         id="symbol5948">
        <path
           style="stroke:none"
           d=""
           id="path9624" />
      </symbol>
      <symbol
         overflow="visible"
         id="symbol2462">
        <path
           style="stroke:none"
           d="m 6.5625,-2.296875 c 0.171875,0 0.359375,0 0.359375,-0.203125 0,-0.1875 -0.1875,-0.1875 -0.359375,-0.1875 H 1.171875 c -0.171875,0 -0.34375,0 -0.34375,0.1875 0,0.203125 0.171875,0.203125 0.34375,0.203125 z m 0,0"
           id="path3738" />
      </symbol>
    </g>
    <g
       id="g6288">
      <symbol
         overflow="visible"
         id="symbol1026">
        <path
           style="stroke:none"
           d=""
           id="path6073" />
      </symbol>
      <symbol
         overflow="visible"
         id="symbol4002">
        <path
           style="stroke:none"
           d="m 6.03125,-3.703125 c 0,-0.453125 -0.171875,-0.703125 -0.40625,-0.703125 -0.25,0 -0.515625,0.234375 -0.515625,0.46875 0,0.09375 0.046875,0.203125 0.140625,0.296875 0.171875,0.15625 0.359375,0.421875 0.359375,0.84375 0,0.390625 -0.203125,0.96875 -0.5,1.421875 C 4.8125,-0.953125 4.4375,-0.609375 3.96875,-0.609375 3.40625,-0.609375 3.09375,-0.96875 3,-1.5 c 0.109375,-0.265625 0.34375,-0.90625 0.34375,-1.1875 0,-0.109375 -0.046875,-0.21875 -0.1875,-0.21875 -0.078125,0 -0.1875,0.03125 -0.265625,0.171875 C 2.78125,-2.53125 2.65625,-1.890625 2.65625,-1.53125 2.328125,-1.0625 1.9375,-0.609375 1.3125,-0.609375 c -0.671875,0 -0.875,-0.59375 -0.875,-1.140625 0,-1.25 1.015625,-2.296875 1.015625,-2.421875 0,-0.109375 -0.078125,-0.1875 -0.1875,-0.1875 -0.125,0 -0.203125,0.125 -0.265625,0.21875 -0.5,0.734375 -0.875,1.921875 -0.875,2.828125 0,0.6875 0.21875,1.421875 1.046875,1.421875 0.703125,0 1.171875,-0.5 1.53125,-1.046875 0.09375,0.578125 0.484375,1.046875 1.09375,1.046875 0.78125,0 1.25,-0.609375 1.609375,-1.359375 0.25,-0.484375 0.625,-1.84375 0.625,-2.453125 z m 0,0"
           id="path9810" />
      </symbol>
    </g>
    <g
       id="g4783">
      <symbol
         overflow="visible"
         id="symbol283">
        <path
           style="stroke:none"
           d=""
           id="path6843" />
      </symbol>
      <symbol
         overflow="visible"
         id="symbol307">
        <path
           style="stroke:none"
           d="m 6.5625,-2.296875 c 0.171875,0 0.359375,0 0.359375,-0.203125 0,-0.1875 -0.1875,-0.1875 -0.359375,-0.1875 H 1.171875 c -0.171875,0 -0.34375,0 -0.34375,0.1875 0,0.203125 0.171875,0.203125 0.34375,0.203125 z m 0,0"
           id="path9132" />
      </symbol>
      <symbol
         overflow="visible"
         id="symbol7617">
        <path
           style="stroke:none"
           d=""
           id="path9330" />
      </symbol>
      <symbol
         overflow="visible"
         id="symbol1538">
        <path
           style="stroke:none"
           d="m 6.03125,-3.703125 c 0,-0.453125 -0.171875,-0.703125 -0.40625,-0.703125 -0.25,0 -0.515625,0.234375 -0.515625,0.46875 0,0.09375 0.046875,0.203125 0.140625,0.296875 0.171875,0.15625 0.359375,0.421875 0.359375,0.84375 0,0.390625 -0.203125,0.96875 -0.5,1.421875 C 4.8125,-0.953125 4.4375,-0.609375 3.96875,-0.609375 3.40625,-0.609375 3.09375,-0.96875 3,-1.5 c 0.109375,-0.265625 0.34375,-0.90625 0.34375,-1.1875 0,-0.109375 -0.046875,-0.21875 -0.1875,-0.21875 -0.078125,0 -0.1875,0.03125 -0.265625,0.171875 C 2.78125,-2.53125 2.65625,-1.890625 2.65625,-1.53125 2.328125,-1.0625 1.9375,-0.609375 1.3125,-0.609375 c -0.671875,0 -0.875,-0.59375 -0.875,-1.140625 0,-1.25 1.015625,-2.296875 1.015625,-2.421875 0,-0.109375 -0.078125,-0.1875 -0.1875,-0.1875 -0.125,0 -0.203125,0.125 -0.265625,0.21875 -0.5,0.734375 -0.875,1.921875 -0.875,2.828125 0,0.6875 0.21875,1.421875 1.046875,1.421875 0.703125,0 1.171875,-0.5 1.53125,-1.046875 0.09375,0.578125 0.484375,1.046875 1.09375,1.046875 0.78125,0 1.25,-0.609375 1.609375,-1.359375 0.25,-0.484375 0.625,-1.84375 0.625,-2.453125 z m 0,0"
           id="path8611" />
      </symbol>
    </g>
    <g
       id="g2041">
      <symbol
         overflow="visible"
         id="symbol5359">
        <path
           style="stroke:none"
           d=""
           id="path7733" />
      </symbol>
      <symbol
         overflow="visible"
         id="symbol9495">
        <path
           style="stroke:none"
           d="m 5.90625,-0.171875 c 1.625,-0.640625 2.0625,-2.125 2.0625,-3.203125 0,-2.15625 -1.453125,-3.578125 -3.65625,-3.578125 -2.28125,0 -3.671875,1.484375 -3.671875,3.578125 0,2.03125 1.359375,3.484375 3.671875,3.484375 0.21875,0 0.546875,-0.015625 0.9375,-0.09375 0.28125,1.125 0.484375,1.921875 1.40625,1.921875 1.015625,0 1.375,-1.1875 1.375,-1.859375 0,-0.078125 0,-0.25 -0.1875,-0.25 -0.140625,0 -0.171875,0.125 -0.171875,0.1875 -0.0625,0.390625 -0.6875,0.390625 -0.859375,0.390625 -0.21875,0 -0.515625,0 -0.90625,-0.578125 z m -2.546875,-0.34375 c -1.21875,-0.578125 -1.25,-2.09375 -1.25,-2.875 0,-0.390625 0,-1.34375 0.359375,-2.046875 0.515625,-0.96875 1.375,-1.109375 1.828125,-1.109375 0.53125,0 1.3125,0.203125 1.796875,1.046875 0.375,0.671875 0.40625,1.515625 0.40625,2.109375 0,0.5625 0,2.046875 -0.953125,2.703125 -0.21875,-0.328125 -0.578125,-0.859375 -1.25,-0.859375 -0.515625,0 -0.96875,0.34375 -0.96875,0.8125 0,0.0625 0.015625,0.171875 0.03125,0.21875 z m 1.765625,0.0625 c -0.25,0.109375 -0.546875,0.15625 -0.8125,0.15625 -0.546875,0 -0.625,-0.3125 -0.625,-0.4375 C 3.6875,-1 3.984375,-1.1875 4.3125,-1.1875 c 0.265625,0 0.609375,0.109375 0.8125,0.734375 z m 0,0"
           id="path2057" />
      </symbol>
      <symbol
         overflow="visible"
         id="symbol1211">
        <path
           style="stroke:none"
           d="M 4.828125,-4.203125 7.234375,-6.1875 c 0.21875,-0.1875 0.625,-0.1875 0.9375,-0.1875 h 0.15625 V -6.84375 C 7.9375,-6.8125 7.359375,-6.8125 7.3125,-6.8125 c -0.375,0 -1.09375,0 -1.453125,-0.03125 V -6.375 c 0.125,0 0.328125,0 0.578125,0.0625 0.15625,0.03125 0.046875,0.015625 0.125,0.046875 L 2.875,-3.1875 V -6.375 h 1.078125 v -0.46875 c -0.375,0.03125 -1.34375,0.03125 -1.78125,0.03125 -0.421875,0 -1.40625,0 -1.78125,-0.03125 V -6.375 H 1.46875 v 5.90625 H 0.390625 V 0 c 0.375,-0.03125 1.359375,-0.03125 1.78125,-0.03125 0.4375,0 1.40625,0 1.78125,0.03125 V -0.46875 H 2.875 V -2.5625 l 1,-0.828125 2.0625,2.703125 C 5.984375,-0.625 5.984375,-0.609375 6.015625,-0.546875 5.828125,-0.46875 5.625,-0.46875 5.28125,-0.46875 V 0 c 0.40625,-0.03125 1.3125,-0.03125 1.75,-0.03125 0.40625,0 1.09375,0 1.46875,0.03125 V -0.46875 H 8.203125 c -0.53125,0 -0.5625,-0.046875 -0.671875,-0.203125 z m 0,0"
           id="path2456" />
      </symbol>
      <symbol
         overflow="visible"
         id="symbol5155">
        <path
           style="stroke:none"
           d=""
           id="path6828" />
      </symbol>
      <symbol
         overflow="visible"
         id="symbol1815">
        <path
           style="stroke:none"
           d="m 6.5625,-2.296875 c 0.171875,0 0.359375,0 0.359375,-0.203125 0,-0.1875 -0.1875,-0.1875 -0.359375,-0.1875 H 1.171875 c -0.171875,0 -0.34375,0 -0.34375,0.1875 0,0.203125 0.171875,0.203125 0.34375,0.203125 z m 0,0"
           id="path8563" />
      </symbol>
    </g>
    <g
       id="g3416">
      <symbol
         overflow="visible"
         id="symbol6498">
        <path
           style="stroke:none"
           d=""
           id="path8555" />
      </symbol>
      <symbol
         overflow="visible"
         id="symbol421">
        <path
           style="stroke:none"
           d="m 6.5625,-2.296875 c 0.171875,0 0.359375,0 0.359375,-0.203125 0,-0.1875 -0.1875,-0.1875 -0.359375,-0.1875 H 1.171875 c -0.171875,0 -0.34375,0 -0.34375,0.1875 0,0.203125 0.171875,0.203125 0.34375,0.203125 z m 0,0"
           id="path2370" />
      </symbol>
      <symbol
         overflow="visible"
         id="symbol8808">
        <path
           style="stroke:none"
           d=""
           id="path4769" />
      </symbol>
      <symbol
         overflow="visible"
         id="symbol6248">
        <path
           style="stroke:none"
           d="M 4.828125,-4.203125 7.234375,-6.1875 c 0.21875,-0.1875 0.625,-0.1875 0.9375,-0.1875 h 0.15625 V -6.84375 C 7.9375,-6.8125 7.359375,-6.8125 7.3125,-6.8125 c -0.375,0 -1.09375,0 -1.453125,-0.03125 V -6.375 c 0.125,0 0.328125,0 0.578125,0.0625 0.15625,0.03125 0.046875,0.015625 0.125,0.046875 L 2.875,-3.1875 V -6.375 h 1.078125 v -0.46875 c -0.375,0.03125 -1.34375,0.03125 -1.78125,0.03125 -0.421875,0 -1.40625,0 -1.78125,-0.03125 V -6.375 H 1.46875 v 5.90625 H 0.390625 V 0 c 0.375,-0.03125 1.359375,-0.03125 1.78125,-0.03125 0.4375,0 1.40625,0 1.78125,0.03125 V -0.46875 H 2.875 V -2.5625 l 1,-0.828125 2.0625,2.703125 C 5.984375,-0.625 5.984375,-0.609375 6.015625,-0.546875 5.828125,-0.46875 5.625,-0.46875 5.28125,-0.46875 V 0 c 0.40625,-0.03125 1.3125,-0.03125 1.75,-0.03125 0.40625,0 1.09375,0 1.46875,0.03125 V -0.46875 H 8.203125 c -0.53125,0 -0.5625,-0.046875 -0.671875,-0.203125 z m 0,0"
           id="path2766" />
      </symbol>
    </g>
    <g
       id="g2468">
      <symbol
         overflow="visible"
         id="symbol2754">
        <path
           style="stroke:none"
           d=""
           id="path1723" />
      </symbol>
      <symbol
         overflow="visible"
         id="symbol3107">
        <path
           style="stroke:none"
           d="m 6.5625,-2.296875 c 0.171875,0 0.359375,0 0.359375,-0.203125 0,-0.1875 -0.1875,-0.1875 -0.359375,-0.1875 H 1.171875 c -0.171875,0 -0.34375,0 -0.34375,0.1875 0,0.203125 0.171875,0.203125 0.34375,0.203125 z m 0,0"
           id="path6008" />
      </symbol>
      <symbol
         overflow="visible"
         id="symbol7847">
        <path
           style="stroke:none"
           d=""
           id="path9838" />
      </symbol>
      <symbol
         overflow="visible"
         id="symbol1487">
        <path
           style="stroke:none"
           d="m 2.140625,-2.359375 v -4.5625 L 0.375,-6.84375 V -6.375 c 0.609375,0 0.6875,0 0.6875,0.390625 V -0.46875 H 0.375 V 0 c 0.359375,-0.015625 0.828125,-0.03125 1.1875,-0.03125 0.375,0 0.84375,0.015625 1.203125,0.03125 v -0.46875 h -0.6875 V -1.734375 C 2.375,-1.96875 2.453125,-2.03125 2.65625,-2.15625 l 1,1.25 c 0.09375,0.125 0.25,0.3125 0.25,0.34375 0,0.09375 -0.171875,0.09375 -0.3125,0.09375 V 0 c 0.296875,-0.015625 1.171875,-0.03125 1.21875,-0.03125 0.359375,0 0.703125,0.015625 1.046875,0.03125 V -0.46875 H 5.6875 c -0.4375,0 -0.46875,-0.046875 -0.59375,-0.203125 L 3.40625,-2.765625 4.703125,-3.78125 C 4.84375,-3.890625 4.9375,-3.953125 5.609375,-3.953125 v -0.46875 c -0.28125,0.03125 -0.53125,0.03125 -0.78125,0.03125 -0.265625,0 -0.921875,-0.03125 -1.15625,-0.03125 v 0.46875 c 0.234375,0 0.265625,0.03125 0.34375,0.109375 z m 0,0"
           id="path6176" />
      </symbol>
      <symbol
         overflow="visible"
         id="symbol803">
        <path
           style="stroke:none"
           d=""
           id="path8483" />
      </symbol>
      <symbol
         overflow="visible"
         id="symbol5779">
        <path
           style="stroke:none"
           d="m 2.78125,-4.328125 c 0,-0.25 -0.046875,-0.25 -0.34375,-0.25 C 2,-4.21875 1.4375,-4.125 0.875,-4.125 H 0.703125 v 0.390625 H 0.875 c 0.28125,0 0.703125,-0.046875 1,-0.140625 v 3.484375 H 0.78125 V 0 c 0.328125,-0.03125 1.171875,-0.03125 1.546875,-0.03125 0.25,0 0.5,0.015625 0.75,0.015625 0.21875,0 0.578125,0 0.78125,0.015625 V -0.390625 H 2.78125 Z m 0,0"
           id="path166" />
      </symbol>
    </g>
    <g
       id="g362">
      <symbol
         overflow="visible"
         id="symbol7722">
        <path
           style="stroke:none"
           d=""
           id="path9597" />
      </symbol>
      <symbol
         overflow="visible"
         id="symbol7597">
        <path
           style="stroke:none"
           d="m 6.5625,-2.296875 c 0.171875,0 0.359375,0 0.359375,-0.203125 0,-0.1875 -0.1875,-0.1875 -0.359375,-0.1875 H 1.171875 c -0.171875,0 -0.34375,0 -0.34375,0.1875 0,0.203125 0.171875,0.203125 0.34375,0.203125 z m 0,0"
           id="path157" />
      </symbol>
      <symbol
         overflow="visible"
         id="symbol5862">
        <path
           style="stroke:none"
           d=""
           id="path4814" />
      </symbol>
      <symbol
         overflow="visible"
         id="symbol483">
        <path
           style="stroke:none"
           d="m 2.140625,-2.359375 v -4.5625 L 0.375,-6.84375 V -6.375 c 0.609375,0 0.6875,0 0.6875,0.390625 V -0.46875 H 0.375 V 0 c 0.359375,-0.015625 0.828125,-0.03125 1.1875,-0.03125 0.375,0 0.84375,0.015625 1.203125,0.03125 v -0.46875 h -0.6875 V -1.734375 C 2.375,-1.96875 2.453125,-2.03125 2.65625,-2.15625 l 1,1.25 c 0.09375,0.125 0.25,0.3125 0.25,0.34375 0,0.09375 -0.171875,0.09375 -0.3125,0.09375 V 0 c 0.296875,-0.015625 1.171875,-0.03125 1.21875,-0.03125 0.359375,0 0.703125,0.015625 1.046875,0.03125 V -0.46875 H 5.6875 c -0.4375,0 -0.46875,-0.046875 -0.59375,-0.203125 L 3.40625,-2.765625 4.703125,-3.78125 C 4.84375,-3.890625 4.9375,-3.953125 5.609375,-3.953125 v -0.46875 c -0.28125,0.03125 -0.53125,0.03125 -0.78125,0.03125 -0.265625,0 -0.921875,-0.03125 -1.15625,-0.03125 v 0.46875 c 0.234375,0 0.265625,0.03125 0.34375,0.109375 z m 0,0"
           id="path3126" />
      </symbol>
      <symbol
         overflow="visible"
         id="symbol13405">
        <path
           style="stroke:none"
           d=""
           id="path7626" />
      </symbol>
      <symbol
         overflow="visible"
         id="symbol2251">
        <path
           style="stroke:none"
           d="m 2.109375,-2.265625 c 0.828125,0 0.859375,0.625 0.859375,1 0,0.296875 0,1 -0.84375,1 C 1.9375,-0.265625 1.5,-0.3125 1.203125,-0.5 1.359375,-0.5625 1.53125,-0.71875 1.53125,-1.015625 c 0,-0.328125 -0.234375,-0.5625 -0.5625,-0.5625 -0.34375,0 -0.578125,0.234375 -0.578125,0.5625 0,0.71875 0.78125,1.09375 1.765625,1.09375 1.453125,0 1.953125,-0.75 1.953125,-1.34375 0,-0.53125 -0.4375,-1.015625 -1.21875,-1.1875 0.5,-0.1875 0.96875,-0.546875 0.96875,-1.125 0,-0.546875 -0.5625,-1 -1.671875,-1 -0.953125,0 -1.546875,0.46875 -1.546875,1.046875 0,0.359375 0.265625,0.546875 0.53125,0.546875 0.34375,0 0.53125,-0.265625 0.53125,-0.53125 0,-0.359375 -0.28125,-0.484375 -0.34375,-0.5 C 1.640625,-4.21875 2,-4.25 2.140625,-4.25 c 0.6875,0 0.6875,0.453125 0.6875,0.640625 0,0.328125 -0.140625,0.96875 -0.828125,1 -0.1875,0.015625 -0.359375,0.015625 -0.390625,0.03125 -0.09375,0.03125 -0.09375,0.109375 -0.09375,0.15625 0,0.15625 0.09375,0.15625 0.21875,0.15625 z m 0,0"
           id="path600" />
      </symbol>
    </g>
    <g
       id="g4068">
      <symbol
         overflow="visible"
         id="symbol3924">
        <path
           style="stroke:none"
           d=""
           id="path9902" />
      </symbol>
      <symbol
         overflow="visible"
         id="symbol4214">
        <path
           style="stroke:none"
           d="m 6.03125,-3.703125 c 0,-0.453125 -0.171875,-0.703125 -0.40625,-0.703125 -0.25,0 -0.515625,0.234375 -0.515625,0.46875 0,0.09375 0.046875,0.203125 0.140625,0.296875 0.171875,0.15625 0.359375,0.421875 0.359375,0.84375 0,0.390625 -0.203125,0.96875 -0.5,1.421875 C 4.8125,-0.953125 4.4375,-0.609375 3.96875,-0.609375 3.40625,-0.609375 3.09375,-0.96875 3,-1.5 c 0.109375,-0.265625 0.34375,-0.90625 0.34375,-1.1875 0,-0.109375 -0.046875,-0.21875 -0.1875,-0.21875 -0.078125,0 -0.1875,0.03125 -0.265625,0.171875 C 2.78125,-2.53125 2.65625,-1.890625 2.65625,-1.53125 2.328125,-1.0625 1.9375,-0.609375 1.3125,-0.609375 c -0.671875,0 -0.875,-0.59375 -0.875,-1.140625 0,-1.25 1.015625,-2.296875 1.015625,-2.421875 0,-0.109375 -0.078125,-0.1875 -0.1875,-0.1875 -0.125,0 -0.203125,0.125 -0.265625,0.21875 -0.5,0.734375 -0.875,1.921875 -0.875,2.828125 0,0.6875 0.21875,1.421875 1.046875,1.421875 0.703125,0 1.171875,-0.5 1.53125,-1.046875 0.09375,0.578125 0.484375,1.046875 1.09375,1.046875 0.78125,0 1.25,-0.609375 1.609375,-1.359375 0.25,-0.484375 0.625,-1.84375 0.625,-2.453125 z m 0,0"
           id="path957" />
      </symbol>
    </g>
    <g
       id="g2171">
      <symbol
         overflow="visible"
         id="symbol9885">
        <path
           style="stroke:none"
           d=""
           id="path6593" />
      </symbol>
      <symbol
         overflow="visible"
         id="symbol3110">
        <path
           style="stroke:none"
           d="m 6.5625,-2.296875 c 0.171875,0 0.359375,0 0.359375,-0.203125 0,-0.1875 -0.1875,-0.1875 -0.359375,-0.1875 H 1.171875 c -0.171875,0 -0.34375,0 -0.34375,0.1875 0,0.203125 0.171875,0.203125 0.34375,0.203125 z m 0,0"
           id="path1770" />
      </symbol>
      <symbol
         overflow="visible"
         id="symbol4981">
        <path
           style="stroke:none"
           d=""
           id="path609" />
      </symbol>
      <symbol
         overflow="visible"
         id="symbol2752">
        <path
           style="stroke:none"
           d="m 6.03125,-3.703125 c 0,-0.453125 -0.171875,-0.703125 -0.40625,-0.703125 -0.25,0 -0.515625,0.234375 -0.515625,0.46875 0,0.09375 0.046875,0.203125 0.140625,0.296875 0.171875,0.15625 0.359375,0.421875 0.359375,0.84375 0,0.390625 -0.203125,0.96875 -0.5,1.421875 C 4.8125,-0.953125 4.4375,-0.609375 3.96875,-0.609375 3.40625,-0.609375 3.09375,-0.96875 3,-1.5 c 0.109375,-0.265625 0.34375,-0.90625 0.34375,-1.1875 0,-0.109375 -0.046875,-0.21875 -0.1875,-0.21875 -0.078125,0 -0.1875,0.03125 -0.265625,0.171875 C 2.78125,-2.53125 2.65625,-1.890625 2.65625,-1.53125 2.328125,-1.0625 1.9375,-0.609375 1.3125,-0.609375 c -0.671875,0 -0.875,-0.59375 -0.875,-1.140625 0,-1.25 1.015625,-2.296875 1.015625,-2.421875 0,-0.109375 -0.078125,-0.1875 -0.1875,-0.1875 -0.125,0 -0.203125,0.125 -0.265625,0.21875 -0.5,0.734375 -0.875,1.921875 -0.875,2.828125 0,0.6875 0.21875,1.421875 1.046875,1.421875 0.703125,0 1.171875,-0.5 1.53125,-1.046875 0.09375,0.578125 0.484375,1.046875 1.09375,1.046875 0.78125,0 1.25,-0.609375 1.609375,-1.359375 0.25,-0.484375 0.625,-1.84375 0.625,-2.453125 z m 0,0"
           id="path8502" />
      </symbol>
    </g>
    <g
       id="g8541">
      <symbol
         overflow="visible"
         id="symbol1055">
        <path
           style="stroke:none"
           d=""
           id="path269" />
      </symbol>
      <symbol
         overflow="visible"
         id="symbol5952">
        <path
           style="stroke:none"
           d="m 2.140625,-2.359375 v -4.5625 L 0.375,-6.84375 V -6.375 c 0.609375,0 0.6875,0 0.6875,0.390625 V -0.46875 H 0.375 V 0 c 0.359375,-0.015625 0.828125,-0.03125 1.1875,-0.03125 0.375,0 0.84375,0.015625 1.203125,0.03125 v -0.46875 h -0.6875 V -1.734375 C 2.375,-1.96875 2.453125,-2.03125 2.65625,-2.15625 l 1,1.25 c 0.09375,0.125 0.25,0.3125 0.25,0.34375 0,0.09375 -0.171875,0.09375 -0.3125,0.09375 V 0 c 0.296875,-0.015625 1.171875,-0.03125 1.21875,-0.03125 0.359375,0 0.703125,0.015625 1.046875,0.03125 V -0.46875 H 5.6875 c -0.4375,0 -0.46875,-0.046875 -0.59375,-0.203125 L 3.40625,-2.765625 4.703125,-3.78125 C 4.84375,-3.890625 4.9375,-3.953125 5.609375,-3.953125 v -0.46875 c -0.28125,0.03125 -0.53125,0.03125 -0.78125,0.03125 -0.265625,0 -0.921875,-0.03125 -1.15625,-0.03125 v 0.46875 c 0.234375,0 0.265625,0.03125 0.34375,0.109375 z m 0,0"
           id="path4635" />
      </symbol>
    </g>
    <g
       id="g4420">
      <symbol
         overflow="visible"
         id="symbol6069">
        <path
           style="stroke:none"
           d=""
           id="path8877" />
      </symbol>
      <symbol
         overflow="visible"
         id="symbol5966">
        <path
           style="stroke:none"
           d="m 2.140625,-2.359375 v -4.5625 L 0.375,-6.84375 V -6.375 c 0.609375,0 0.6875,0 0.6875,0.390625 V -0.46875 H 0.375 V 0 c 0.359375,-0.015625 0.828125,-0.03125 1.1875,-0.03125 0.375,0 0.84375,0.015625 1.203125,0.03125 v -0.46875 h -0.6875 V -1.734375 C 2.375,-1.96875 2.453125,-2.03125 2.65625,-2.15625 l 1,1.25 c 0.09375,0.125 0.25,0.3125 0.25,0.34375 0,0.09375 -0.171875,0.09375 -0.3125,0.09375 V 0 c 0.296875,-0.015625 1.171875,-0.03125 1.21875,-0.03125 0.359375,0 0.703125,0.015625 1.046875,0.03125 V -0.46875 H 5.6875 c -0.4375,0 -0.46875,-0.046875 -0.59375,-0.203125 L 3.40625,-2.765625 4.703125,-3.78125 C 4.84375,-3.890625 4.9375,-3.953125 5.609375,-3.953125 v -0.46875 c -0.28125,0.03125 -0.53125,0.03125 -0.78125,0.03125 -0.265625,0 -0.921875,-0.03125 -1.15625,-0.03125 v 0.46875 c 0.234375,0 0.265625,0.03125 0.34375,0.109375 z m 0,0"
           id="path6269" />
      </symbol>
      <symbol
         overflow="visible"
         id="symbol6019">
        <path
           style="stroke:none"
           d="m 4.234375,-1.421875 c 0,0.1875 0,0.21875 -0.15625,0.421875 -0.40625,0.59375 -0.90625,0.703125 -1.203125,0.703125 -0.625,0 -1.21875,-0.578125 -1.21875,-1.90625 0,-1.421875 0.734375,-1.890625 1.328125,-1.890625 0.765625,0 1.25,0.796875 1.25,1.296875 z m 0.125,-2.28125 c -0.34375,-0.484375 -0.90625,-0.78125 -1.5,-0.78125 -1.453125,0 -2.484375,0.890625 -2.484375,2.265625 0,1.40625 1.015625,2.28125 2.390625,2.28125 0.5,0 0.9375,-0.140625 1.40625,-0.546875 V 1.46875 h -0.6875 V 1.9375 c 0.28125,-0.015625 0.875,-0.03125 1.25,-0.03125 0.390625,0 0.984375,0.015625 1.25,0.03125 V 1.46875 h -0.6875 v -5.953125 h -0.40625 z m 0,0"
           id="path4671" />
      </symbol>
      <symbol
         overflow="visible"
         id="symbol6782">
        <path
           style="stroke:none"
           d=""
           id="path4000" />
      </symbol>
      <symbol
         overflow="visible"
         id="symbol6643">
        <path
           style="stroke:none"
           d="m 4.078125,-2.296875 h 2.78125 C 7,-2.296875 7.1875,-2.296875 7.1875,-2.5 7.1875,-2.6875 7,-2.6875 6.859375,-2.6875 h -2.78125 v -2.796875 c 0,-0.140625 0,-0.328125 -0.203125,-0.328125 -0.203125,0 -0.203125,0.1875 -0.203125,0.328125 V -2.6875 h -2.78125 c -0.140625,0 -0.328125,0 -0.328125,0.1875 0,0.203125 0.1875,0.203125 0.328125,0.203125 h 2.78125 V 0.5 c 0,0.140625 0,0.328125 0.203125,0.328125 0.203125,0 0.203125,-0.1875 0.203125,-0.328125 z m 0,0"
           id="path7085" />
      </symbol>
    </g>
    <g
       id="g889">
      <symbol
         overflow="visible"
         id="symbol9020">
        <path
           style="stroke:none"
           d=""
           id="path4257" />
      </symbol>
      <symbol
         overflow="visible"
         id="symbol1360">
        <path
           style="stroke:none"
           d="m 2.140625,-2.359375 v -4.5625 L 0.375,-6.84375 V -6.375 c 0.609375,0 0.6875,0 0.6875,0.390625 V -0.46875 H 0.375 V 0 c 0.359375,-0.015625 0.828125,-0.03125 1.1875,-0.03125 0.375,0 0.84375,0.015625 1.203125,0.03125 v -0.46875 h -0.6875 V -1.734375 C 2.375,-1.96875 2.453125,-2.03125 2.65625,-2.15625 l 1,1.25 c 0.09375,0.125 0.25,0.3125 0.25,0.34375 0,0.09375 -0.171875,0.09375 -0.3125,0.09375 V 0 c 0.296875,-0.015625 1.171875,-0.03125 1.21875,-0.03125 0.359375,0 0.703125,0.015625 1.046875,0.03125 V -0.46875 H 5.6875 c -0.4375,0 -0.46875,-0.046875 -0.59375,-0.203125 L 3.40625,-2.765625 4.703125,-3.78125 C 4.84375,-3.890625 4.9375,-3.953125 5.609375,-3.953125 v -0.46875 c -0.28125,0.03125 -0.53125,0.03125 -0.78125,0.03125 -0.265625,0 -0.921875,-0.03125 -1.15625,-0.03125 v 0.46875 c 0.234375,0 0.265625,0.03125 0.34375,0.109375 z m 0,0"
           id="path9146" />
      </symbol>
      <symbol
         overflow="visible"
         id="symbol6022">
        <path
           style="stroke:none"
           d="m 4.234375,-1.421875 c 0,0.1875 0,0.21875 -0.15625,0.421875 -0.40625,0.59375 -0.90625,0.703125 -1.203125,0.703125 -0.625,0 -1.21875,-0.578125 -1.21875,-1.90625 0,-1.421875 0.734375,-1.890625 1.328125,-1.890625 0.765625,0 1.25,0.796875 1.25,1.296875 z m 0.125,-2.28125 c -0.34375,-0.484375 -0.90625,-0.78125 -1.5,-0.78125 -1.453125,0 -2.484375,0.890625 -2.484375,2.265625 0,1.40625 1.015625,2.28125 2.390625,2.28125 0.5,0 0.9375,-0.140625 1.40625,-0.546875 V 1.46875 h -0.6875 V 1.9375 c 0.28125,-0.015625 0.875,-0.03125 1.25,-0.03125 0.390625,0 0.984375,0.015625 1.25,0.03125 V 1.46875 h -0.6875 v -5.953125 h -0.40625 z m 0,0"
           id="path113" />
      </symbol>
      <symbol
         overflow="visible"
         id="symbol3683">
        <path
           style="stroke:none"
           d=""
           id="path664" />
      </symbol>
      <symbol
         overflow="visible"
         id="symbol5600">
        <path
           style="stroke:none"
           d="m 4.078125,-2.296875 h 2.78125 C 7,-2.296875 7.1875,-2.296875 7.1875,-2.5 7.1875,-2.6875 7,-2.6875 6.859375,-2.6875 h -2.78125 v -2.796875 c 0,-0.140625 0,-0.328125 -0.203125,-0.328125 -0.203125,0 -0.203125,0.1875 -0.203125,0.328125 V -2.6875 h -2.78125 c -0.140625,0 -0.328125,0 -0.328125,0.1875 0,0.203125 0.1875,0.203125 0.328125,0.203125 h 2.78125 V 0.5 c 0,0.140625 0,0.328125 0.203125,0.328125 0.203125,0 0.203125,-0.1875 0.203125,-0.328125 z m 0,0"
           id="path7073" />
      </symbol>
    </g>
    <g
       id="g4608">
      <symbol
         overflow="visible"
         id="symbol3408">
        <path
           style="stroke:none"
           d=""
           id="path7232" />
      </symbol>
      <symbol
         overflow="visible"
         id="symbol5477">
        <path
           style="stroke:none"
           d="m 4.234375,-1.421875 c 0,0.1875 0,0.21875 -0.15625,0.421875 -0.40625,0.59375 -0.90625,0.703125 -1.203125,0.703125 -0.625,0 -1.21875,-0.578125 -1.21875,-1.90625 0,-1.421875 0.734375,-1.890625 1.328125,-1.890625 0.765625,0 1.25,0.796875 1.25,1.296875 z m 0.125,-2.28125 c -0.34375,-0.484375 -0.90625,-0.78125 -1.5,-0.78125 -1.453125,0 -2.484375,0.890625 -2.484375,2.265625 0,1.40625 1.015625,2.28125 2.390625,2.28125 0.5,0 0.9375,-0.140625 1.40625,-0.546875 V 1.46875 h -0.6875 V 1.9375 c 0.28125,-0.015625 0.875,-0.03125 1.25,-0.03125 0.390625,0 0.984375,0.015625 1.25,0.03125 V 1.46875 h -0.6875 v -5.953125 h -0.40625 z m 0,0"
           id="path9996" />
      </symbol>
    </g>
    <g
       id="g1251">
      <symbol
         overflow="visible"
         id="symbol8517">
        <path
           style="stroke:none"
           d=""
           id="path9400" />
      </symbol>
      <symbol
         overflow="visible"
         id="symbol4199">
        <path
           style="stroke:none"
           d="m 6.5625,-2.296875 c 0.171875,0 0.359375,0 0.359375,-0.203125 0,-0.1875 -0.1875,-0.1875 -0.359375,-0.1875 H 1.171875 c -0.171875,0 -0.34375,0 -0.34375,0.1875 0,0.203125 0.171875,0.203125 0.34375,0.203125 z m 0,0"
           id="path523" />
      </symbol>
      <symbol
         overflow="visible"
         id="symbol5408">
        <path
           style="stroke:none"
           d=""
           id="path7577" />
      </symbol>
      <symbol
         overflow="visible"
         id="symbol6750">
        <path
           style="stroke:none"
           d="m 4.234375,-1.421875 c 0,0.1875 0,0.21875 -0.15625,0.421875 -0.40625,0.59375 -0.90625,0.703125 -1.203125,0.703125 -0.625,0 -1.21875,-0.578125 -1.21875,-1.90625 0,-1.421875 0.734375,-1.890625 1.328125,-1.890625 0.765625,0 1.25,0.796875 1.25,1.296875 z m 0.125,-2.28125 c -0.34375,-0.484375 -0.90625,-0.78125 -1.5,-0.78125 -1.453125,0 -2.484375,0.890625 -2.484375,2.265625 0,1.40625 1.015625,2.28125 2.390625,2.28125 0.5,0 0.9375,-0.140625 1.40625,-0.546875 V 1.46875 h -0.6875 V 1.9375 c 0.28125,-0.015625 0.875,-0.03125 1.25,-0.03125 0.390625,0 0.984375,0.015625 1.25,0.03125 V 1.46875 h -0.6875 v -5.953125 h -0.40625 z m 0,0"
           id="path8574" />
      </symbol>
    </g>
  </defs>
  <sodipodi:namedview
     id="base"
     pagecolor="#ffffff"
     bordercolor="#666666"
     borderopacity="1.0"
     inkscape:pageopacity="0.0"
     inkscape:pageshadow="2"
     inkscape:zoom="0.37852798"
     inkscape:cx="509.39662"
     inkscape:cy="452.40822"
     inkscape:document-units="mm"
     inkscape:current-layer="layer1"
     inkscape:document-rotation="0"
     showgrid="false"
     inkscape:snap-object-midpoints="true" />
  <metadata
     id="metadata5">
    <rdf:RDF>
      <cc:Work
         rdf:about="">
        <dc:format>image/svg+xml</dc:format>
        <dc:type
           rdf:resource="http://purl.org/dc/dcmitype/StillImage" />
        <dc:title />
      </cc:Work>
    </rdf:RDF>
  </metadata>
  <g
     inkscape:label="Layer 1"
     inkscape:groupmode="layer"
     id="layer1"
     transform="translate(-147.83307,-326.77491)">
    <path
       style="fill:none;stroke:#000000;stroke-width:1.2;stroke-linecap:butt;stroke-linejoin:miter;stroke-miterlimit:4;stroke-dasharray:none;stroke-opacity:1;marker-end:url(#marker2444)"
       d="m 148.36529,401.60846 c 4.27336,-8.20934 9.47645,-15.93426 15.47787,-22.97967 6.40428,-7.51835 13.74606,-14.28351 22.04552,-19.63694 14.70415,-9.48466 32.35154,-14.33347 49.83756,-13.69339"
       id="path1732"
       inkscape:path-effect="#path-effect1734"
       inkscape:original-d="m 148.36529,401.60846 c 5.15955,-7.65963 10.31884,-15.31952 15.47787,-22.97967 5.15903,-7.66016 14.69728,-13.09103 22.04552,-19.63694 7.34825,-6.54591 33.22531,-9.12866 49.83756,-13.69339"
       inkscape:export-xdpi="248.64"
       inkscape:export-ydpi="248.64" />
    <path
       style="fill:none;stroke:#000000;stroke-width:1.2;stroke-linecap:butt;stroke-linejoin:miter;stroke-miterlimit:4;stroke-dasharray:none;stroke-opacity:1"
       d="m 323.0872,401.60846 c -4.27336,-8.20934 -9.47646,-15.93426 -15.47788,-22.97967 -6.40428,-7.51835 -13.74606,-14.28351 -22.04552,-19.63694 -14.70415,-9.48466 -32.35154,-14.33347 -49.83756,-13.69339"
       id="path1732-3"
       inkscape:path-effect="#path-effect1753"
       inkscape:original-d="m 323.0872,401.60846 c -5.15955,-7.65963 -10.31885,-15.31952 -15.47788,-22.97967 -5.15903,-7.66016 -14.69728,-13.09103 -22.04552,-19.63694 -7.34825,-6.54591 -33.2253,-9.12866 -49.83756,-13.69339"
       inkscape:export-xdpi="248.64"
       inkscape:export-ydpi="248.64" />
    <path
       style="fill:none;stroke:#000000;stroke-width:1.2;stroke-linecap:butt;stroke-linejoin:miter;stroke-miterlimit:4;stroke-dasharray:none;stroke-opacity:1;marker-end:url(#EmptyTriangleInL)"
       d="m 148.36528,401.60846 c 4.27336,8.20934 9.47646,15.93426 15.47788,22.97967 6.40428,7.51835 13.74606,14.28351 22.04552,19.63694 14.70415,9.48466 32.35154,14.33347 49.83756,13.69339"
       id="path1732-6"
       inkscape:path-effect="#path-effect1779"
       inkscape:original-d="m 148.36528,401.60846 c 5.15955,7.65963 10.31885,15.31952 15.47788,22.97967 5.15903,7.66016 14.69728,13.09103 22.04552,19.63694 7.34825,6.54591 33.2253,9.12866 49.83756,13.69339"
       inkscape:export-xdpi="248.64"
       inkscape:export-ydpi="248.64" />
    <path
       style="fill:none;stroke:#000000;stroke-width:1.2;stroke-linecap:butt;stroke-linejoin:miter;stroke-miterlimit:4;stroke-dasharray:none;stroke-opacity:1"
       d="m 323.0872,401.60846 c -4.27336,8.20934 -9.47646,15.93426 -15.47788,22.97967 -6.40428,7.51835 -13.74606,14.28351 -22.04552,19.63694 -14.70415,9.48466 -32.35154,14.33347 -49.83756,13.69339"
       id="path1732-3-7"
       inkscape:path-effect="#path-effect1777"
       inkscape:original-d="m 323.0872,401.60846 c -5.15955,7.65963 -10.31885,15.31952 -15.47788,22.97967 -5.15903,7.66016 -14.69728,13.09103 -22.04552,19.63694 -7.34825,6.54591 -33.2253,9.12866 -49.83756,13.69339"
       inkscape:export-xdpi="248.64"
       inkscape:export-ydpi="248.64" />
    <g
       inkscape:label=""
       transform="matrix(1.6014907,0,0,1.6014907,84.134165,202.69362)"
       id="g3128"
       inkscape:export-xdpi="248.64"
       inkscape:export-ydpi="248.64">
      <g
         id="g2723">
        <g
           style="fill:#000000;fill-opacity:1"
           id="g1892">
          <use
             xlink:href="#symbol5477"
             x="91.925003"
             y="81.962997"
             id="use1855"
             width="100%"
             height="100%" />
        </g>
      </g>
    </g>
    <g
       inkscape:label=""
       transform="matrix(1.6014907,0,0,1.6014907,77.027215,343.76708)"
       id="g3393"
       inkscape:export-xdpi="248.64"
       inkscape:export-ydpi="248.64">
      <g
         id="g4970">
        <g
           style="fill:#000000;fill-opacity:1"
           id="g3194">
          <use
             xlink:href="#symbol4199"
             x="91.925003"
             y="81.962997"
             id="use5858"
             width="100%"
             height="100%" />
        </g>
        <g
           style="fill:#000000;fill-opacity:1"
           id="g3516">
          <use
             xlink:href="#symbol6750"
             x="99.674004"
             y="81.962997"
             id="use881"
             width="100%"
             height="100%" />
        </g>
      </g>
    </g>
  </g>
</svg>
