<?xml version="1.0" encoding="UTF-8" standalone="no"?>
<!-- Created with Inkscape (http://www.inkscape.org/) -->

<svg
   inkscape:version="1.2.1 (9c6d41e410, 2022-07-14, custom)"
   sodipodi:docname="overlap_survive.svg"
   id="svg21975"
   version="1.1"
   viewBox="0 0 172.00409 122.56512"
   height="122.56512mm"
   width="172.00409mm"
   xmlns:inkscape="http://www.inkscape.org/namespaces/inkscape"
   xmlns:sodipodi="http://sodipodi.sourceforge.net/DTD/sodipodi-0.dtd"
   xmlns="http://www.w3.org/2000/svg"
   xmlns:svg="http://www.w3.org/2000/svg"
   xmlns:ns3="http://www.iki.fi/pav/software/textext/">
  <sodipodi:namedview
     id="namedview21977"
     pagecolor="#505050"
     bordercolor="#eeeeee"
     borderopacity="1"
     inkscape:pageshadow="0"
     inkscape:pageopacity="0"
     inkscape:pagecheckerboard="0"
     inkscape:document-units="mm"
     showgrid="false"
     inkscape:snap-smooth-nodes="true"
     inkscape:snap-object-midpoints="true"
     inkscape:zoom="1.0469406"
     inkscape:cx="274.60965"
     inkscape:cy="233.06002"
     inkscape:window-width="1920"
     inkscape:window-height="1019"
     inkscape:window-x="1920"
     inkscape:window-y="151"
     inkscape:window-maximized="1"
     inkscape:current-layer="layer1"
     inkscape:snap-global="true"
     inkscape:showpageshadow="0"
     inkscape:deskcolor="#505050" />
  <defs
     id="defs21972">
    <marker
       style="overflow:visible"
       id="TriangleInL"
       refX="0"
       refY="0"
       orient="auto"
       inkscape:stockid="TriangleInL"
       inkscape:isstock="true">
      <path
         transform="scale(-0.8)"
         style="fill:context-stroke;fill-rule:evenodd;stroke:context-stroke;stroke-width:1pt"
         d="M 5.77,0 -2.88,5 V -5 Z"
         id="path22761" />
    </marker>
    <marker
       style="overflow:visible"
       id="TriangleOutL"
       refX="0"
       refY="0"
       orient="auto"
       inkscape:stockid="TriangleOutL"
       inkscape:isstock="true">
      <path
         transform="scale(0.8)"
         style="fill:context-stroke;fill-rule:evenodd;stroke:context-stroke;stroke-width:1pt"
         d="M 5.77,0 -2.88,5 V -5 Z"
         id="path22770" />
    </marker>
    <marker
       style="overflow:visible"
       id="EmptyTriangleOutL"
       refX="0"
       refY="0"
       orient="auto"
       inkscape:stockid="EmptyTriangleOutL"
       inkscape:isstock="true">
      <path
         transform="matrix(0.8,0,0,0.8,-4.8,0)"
         style="fill:context-fill;fill-rule:evenodd;stroke:context-stroke;stroke-width:1pt"
         d="M 5.77,0 -2.88,5 V -5 Z"
         id="path22788" />
    </marker>
    <g
       id="g4949">
      <symbol
         overflow="visible"
         id="symbol3964">
        <path
           style="stroke:none"
           d=""
           id="path3253" />
      </symbol>
      <symbol
         overflow="visible"
         id="symbol6740">
        <path
           style="stroke:none"
           d="M 5.078125,-4.03125 C 5.0625,-4.0625 5.03125,-4.140625 5.03125,-4.171875 c 0,0 0.171875,-0.140625 0.28125,-0.21875 l 1.75,-1.34375 C 8,-6.4375 8.390625,-6.46875 8.6875,-6.5 8.765625,-6.515625 8.859375,-6.515625 8.859375,-6.703125 8.859375,-6.734375 8.828125,-6.8125 8.75,-6.8125 c -0.21875,0 -0.46875,0.03125 -0.703125,0.03125 -0.359375,0 -0.75,-0.03125 -1.109375,-0.03125 -0.0625,0 -0.1875,0 -0.1875,0.203125 0,0.0625 0.046875,0.09375 0.125,0.109375 0.21875,0.015625 0.296875,0.0625 0.296875,0.203125 0,0.1875 -0.296875,0.421875 -0.359375,0.46875 L 2.9375,-2.84375 3.734375,-6.046875 C 3.8125,-6.40625 3.84375,-6.5 4.5625,-6.5 c 0.25,0 0.34375,0 0.34375,-0.203125 0,-0.078125 -0.078125,-0.109375 -0.140625,-0.109375 -0.28125,0 -1,0.03125 -1.28125,0.03125 C 3.203125,-6.78125 2.5,-6.8125 2.203125,-6.8125 2.140625,-6.8125 2,-6.8125 2,-6.625 2,-6.5 2.09375,-6.5 2.296875,-6.5 c 0.125,0 0.3125,0.015625 0.421875,0.015625 0.15625,0.03125 0.21875,0.046875 0.21875,0.171875 0,0.03125 0,0.0625 -0.03125,0.1875 L 1.5625,-0.78125 c -0.09375,0.390625 -0.109375,0.46875 -0.90625,0.46875 -0.171875,0 -0.28125,0 -0.28125,0.1875 C 0.375,0 0.5,0 0.53125,0 0.8125,0 1.515625,-0.03125 1.796875,-0.03125 2,-0.03125 2.21875,-0.015625 2.4375,-0.015625 2.65625,-0.015625 2.875,0 3.078125,0 3.15625,0 3.28125,0 3.28125,-0.203125 3.28125,-0.3125 3.1875,-0.3125 3,-0.3125 c -0.375,0 -0.640625,0 -0.640625,-0.171875 0,-0.078125 0.046875,-0.296875 0.078125,-0.4375 C 2.578125,-1.453125 2.71875,-1.96875 2.84375,-2.5 l 1.484375,-1.15625 1.15625,2.6875 c 0.125,0.265625 0.125,0.296875 0.125,0.34375 0,0.3125 -0.4375,0.3125 -0.53125,0.3125 -0.109375,0 -0.21875,0 -0.21875,0.203125 C 4.859375,0 4.984375,0 5,0 5.40625,0 5.828125,-0.03125 6.21875,-0.03125 6.4375,-0.03125 6.984375,0 7.203125,0 7.25,0 7.375,0 7.375,-0.203125 7.375,-0.3125 7.265625,-0.3125 7.171875,-0.3125 c -0.40625,0 -0.53125,-0.09375 -0.6875,-0.4375 z m 0,0"
           id="path3448" />
      </symbol>
    </g>
    <marker
       style="overflow:visible"
       id="TriangleOutL-5"
       refX="0"
       refY="0"
       orient="auto"
       inkscape:stockid="TriangleOutL"
       inkscape:isstock="true">
      <path
         transform="scale(0.8)"
         style="fill:context-stroke;fill-rule:evenodd;stroke:context-stroke;stroke-width:1pt"
         d="M 5.77,0 -2.88,5 V -5 Z"
         id="path22770-6" />
    </marker>
    <g
       id="g4758">
      <symbol
         overflow="visible"
         id="symbol9633">
        <path
           style="stroke:none"
           d=""
           id="path7939" />
      </symbol>
      <symbol
         overflow="visible"
         id="symbol8182">
        <path
           style="stroke:none"
           d="M 5.078125,-4.03125 C 5.0625,-4.0625 5.03125,-4.140625 5.03125,-4.171875 c 0,0 0.171875,-0.140625 0.28125,-0.21875 l 1.75,-1.34375 C 8,-6.4375 8.390625,-6.46875 8.6875,-6.5 8.765625,-6.515625 8.859375,-6.515625 8.859375,-6.703125 8.859375,-6.734375 8.828125,-6.8125 8.75,-6.8125 c -0.21875,0 -0.46875,0.03125 -0.703125,0.03125 -0.359375,0 -0.75,-0.03125 -1.109375,-0.03125 -0.0625,0 -0.1875,0 -0.1875,0.203125 0,0.0625 0.046875,0.09375 0.125,0.109375 0.21875,0.015625 0.296875,0.0625 0.296875,0.203125 0,0.1875 -0.296875,0.421875 -0.359375,0.46875 L 2.9375,-2.84375 3.734375,-6.046875 C 3.8125,-6.40625 3.84375,-6.5 4.5625,-6.5 c 0.25,0 0.34375,0 0.34375,-0.203125 0,-0.078125 -0.078125,-0.109375 -0.140625,-0.109375 -0.28125,0 -1,0.03125 -1.28125,0.03125 C 3.203125,-6.78125 2.5,-6.8125 2.203125,-6.8125 2.140625,-6.8125 2,-6.8125 2,-6.625 2,-6.5 2.09375,-6.5 2.296875,-6.5 c 0.125,0 0.3125,0.015625 0.421875,0.015625 0.15625,0.03125 0.21875,0.046875 0.21875,0.171875 0,0.03125 0,0.0625 -0.03125,0.1875 L 1.5625,-0.78125 c -0.09375,0.390625 -0.109375,0.46875 -0.90625,0.46875 -0.171875,0 -0.28125,0 -0.28125,0.1875 C 0.375,0 0.5,0 0.53125,0 0.8125,0 1.515625,-0.03125 1.796875,-0.03125 2,-0.03125 2.21875,-0.015625 2.4375,-0.015625 2.65625,-0.015625 2.875,0 3.078125,0 3.15625,0 3.28125,0 3.28125,-0.203125 3.28125,-0.3125 3.1875,-0.3125 3,-0.3125 c -0.375,0 -0.640625,0 -0.640625,-0.171875 0,-0.078125 0.046875,-0.296875 0.078125,-0.4375 C 2.578125,-1.453125 2.71875,-1.96875 2.84375,-2.5 l 1.484375,-1.15625 1.15625,2.6875 c 0.125,0.265625 0.125,0.296875 0.125,0.34375 0,0.3125 -0.4375,0.3125 -0.53125,0.3125 -0.109375,0 -0.21875,0 -0.21875,0.203125 C 4.859375,0 4.984375,0 5,0 5.40625,0 5.828125,-0.03125 6.21875,-0.03125 6.4375,-0.03125 6.984375,0 7.203125,0 7.25,0 7.375,0 7.375,-0.203125 7.375,-0.3125 7.265625,-0.3125 7.171875,-0.3125 c -0.40625,0 -0.53125,-0.09375 -0.6875,-0.4375 z m 0,0"
           id="path2162" />
      </symbol>
      <symbol
         overflow="visible"
         id="symbol7619">
        <path
           style="stroke:none"
           d="M 4.359375,-0.0625 C 5.90625,-0.640625 7.375,-2.421875 7.375,-4.34375 c 0,-1.609375 -1.0625,-2.6875 -2.546875,-2.6875 -2.140625,0 -4.34375,2.265625 -4.34375,4.59375 0,1.65625 1.125,2.65625 2.5625,2.65625 0.25,0 0.578125,-0.046875 0.96875,-0.15625 -0.03125,0.625 -0.03125,0.640625 -0.03125,0.78125 0,0.3125 0,1.09375 0.828125,1.09375 1.171875,0 1.65625,-1.828125 1.65625,-1.9375 0,-0.0625 -0.0625,-0.09375 -0.109375,-0.09375 -0.078125,0 -0.09375,0.046875 -0.125,0.109375 C 6,0.71875 5.421875,0.96875 5.078125,0.96875 c -0.46875,0 -0.609375,-0.265625 -0.71875,-1.03125 z m -1.875,-0.078125 c -0.78125,-0.3125 -1.125,-1.078125 -1.125,-1.984375 0,-0.6875 0.265625,-2.109375 1.015625,-3.171875 C 3.109375,-6.3125 4.046875,-6.78125 4.78125,-6.78125 5.765625,-6.78125 6.5,-6 6.5,-4.671875 c 0,1 -0.515625,3.34375 -2.1875,4.265625 -0.046875,-0.34375 -0.140625,-1.0625 -0.875,-1.0625 -0.53125,0 -1.015625,0.484375 -1.015625,1.015625 0,0.1875 0.0625,0.296875 0.0625,0.3125 z M 3.09375,-0.03125 c -0.140625,0 -0.453125,0 -0.453125,-0.421875 0,-0.40625 0.375,-0.796875 0.796875,-0.796875 0.421875,0 0.609375,0.234375 0.609375,0.84375 0,0.140625 -0.015625,0.15625 -0.109375,0.203125 C 3.671875,-0.09375 3.375,-0.03125 3.09375,-0.03125 Z m 0,0"
           id="path8837" />
      </symbol>
      <symbol
         overflow="visible"
         id="symbol9815">
        <path
           style="stroke:none"
           d=""
           id="path5387" />
      </symbol>
      <symbol
         overflow="visible"
         id="symbol3015">
        <path
           style="stroke:none"
           d="m 4.078125,-2.296875 h 2.78125 C 7,-2.296875 7.1875,-2.296875 7.1875,-2.5 7.1875,-2.6875 7,-2.6875 6.859375,-2.6875 h -2.78125 v -2.796875 c 0,-0.140625 0,-0.328125 -0.203125,-0.328125 -0.203125,0 -0.203125,0.1875 -0.203125,0.328125 V -2.6875 h -2.78125 c -0.140625,0 -0.328125,0 -0.328125,0.1875 0,0.203125 0.1875,0.203125 0.328125,0.203125 h 2.78125 V 0.5 c 0,0.140625 0,0.328125 0.203125,0.328125 0.203125,0 0.203125,-0.1875 0.203125,-0.328125 z m 0,0"
           id="path7394" />
      </symbol>
    </g>
    <g
       id="g2961">
      <symbol
         overflow="visible"
         id="symbol9977">
        <path
           style="stroke:none"
           d=""
           id="path9428" />
      </symbol>
      <symbol
         overflow="visible"
         id="symbol6733">
        <path
           style="stroke:none"
           d="M 5.078125,-4.03125 C 5.0625,-4.0625 5.03125,-4.140625 5.03125,-4.171875 c 0,0 0.171875,-0.140625 0.28125,-0.21875 l 1.75,-1.34375 C 8,-6.4375 8.390625,-6.46875 8.6875,-6.5 8.765625,-6.515625 8.859375,-6.515625 8.859375,-6.703125 8.859375,-6.734375 8.828125,-6.8125 8.75,-6.8125 c -0.21875,0 -0.46875,0.03125 -0.703125,0.03125 -0.359375,0 -0.75,-0.03125 -1.109375,-0.03125 -0.0625,0 -0.1875,0 -0.1875,0.203125 0,0.0625 0.046875,0.09375 0.125,0.109375 0.21875,0.015625 0.296875,0.0625 0.296875,0.203125 0,0.1875 -0.296875,0.421875 -0.359375,0.46875 L 2.9375,-2.84375 3.734375,-6.046875 C 3.8125,-6.40625 3.84375,-6.5 4.5625,-6.5 c 0.25,0 0.34375,0 0.34375,-0.203125 0,-0.078125 -0.078125,-0.109375 -0.140625,-0.109375 -0.28125,0 -1,0.03125 -1.28125,0.03125 C 3.203125,-6.78125 2.5,-6.8125 2.203125,-6.8125 2.140625,-6.8125 2,-6.8125 2,-6.625 2,-6.5 2.09375,-6.5 2.296875,-6.5 c 0.125,0 0.3125,0.015625 0.421875,0.015625 0.15625,0.03125 0.21875,0.046875 0.21875,0.171875 0,0.03125 0,0.0625 -0.03125,0.1875 L 1.5625,-0.78125 c -0.09375,0.390625 -0.109375,0.46875 -0.90625,0.46875 -0.171875,0 -0.28125,0 -0.28125,0.1875 C 0.375,0 0.5,0 0.53125,0 0.8125,0 1.515625,-0.03125 1.796875,-0.03125 2,-0.03125 2.21875,-0.015625 2.4375,-0.015625 2.65625,-0.015625 2.875,0 3.078125,0 3.15625,0 3.28125,0 3.28125,-0.203125 3.28125,-0.3125 3.1875,-0.3125 3,-0.3125 c -0.375,0 -0.640625,0 -0.640625,-0.171875 0,-0.078125 0.046875,-0.296875 0.078125,-0.4375 C 2.578125,-1.453125 2.71875,-1.96875 2.84375,-2.5 l 1.484375,-1.15625 1.15625,2.6875 c 0.125,0.265625 0.125,0.296875 0.125,0.34375 0,0.3125 -0.4375,0.3125 -0.53125,0.3125 -0.109375,0 -0.21875,0 -0.21875,0.203125 C 4.859375,0 4.984375,0 5,0 5.40625,0 5.828125,-0.03125 6.21875,-0.03125 6.4375,-0.03125 6.984375,0 7.203125,0 7.25,0 7.375,0 7.375,-0.203125 7.375,-0.3125 7.265625,-0.3125 7.171875,-0.3125 c -0.40625,0 -0.53125,-0.09375 -0.6875,-0.4375 z m 0,0"
           id="path8756" />
      </symbol>
    </g>
    <g
       id="g2784">
      <symbol
         overflow="visible"
         id="symbol6760">
        <path
           style="stroke:none"
           d=""
           id="path6017" />
      </symbol>
      <symbol
         overflow="visible"
         id="symbol9718">
        <path
           style="stroke:none"
           d="M 4.359375,-0.0625 C 5.90625,-0.640625 7.375,-2.421875 7.375,-4.34375 c 0,-1.609375 -1.0625,-2.6875 -2.546875,-2.6875 -2.140625,0 -4.34375,2.265625 -4.34375,4.59375 0,1.65625 1.125,2.65625 2.5625,2.65625 0.25,0 0.578125,-0.046875 0.96875,-0.15625 -0.03125,0.625 -0.03125,0.640625 -0.03125,0.78125 0,0.3125 0,1.09375 0.828125,1.09375 1.171875,0 1.65625,-1.828125 1.65625,-1.9375 0,-0.0625 -0.0625,-0.09375 -0.109375,-0.09375 -0.078125,0 -0.09375,0.046875 -0.125,0.109375 C 6,0.71875 5.421875,0.96875 5.078125,0.96875 c -0.46875,0 -0.609375,-0.265625 -0.71875,-1.03125 z m -1.875,-0.078125 c -0.78125,-0.3125 -1.125,-1.078125 -1.125,-1.984375 0,-0.6875 0.265625,-2.109375 1.015625,-3.171875 C 3.109375,-6.3125 4.046875,-6.78125 4.78125,-6.78125 5.765625,-6.78125 6.5,-6 6.5,-4.671875 c 0,1 -0.515625,3.34375 -2.1875,4.265625 -0.046875,-0.34375 -0.140625,-1.0625 -0.875,-1.0625 -0.53125,0 -1.015625,0.484375 -1.015625,1.015625 0,0.1875 0.0625,0.296875 0.0625,0.3125 z M 3.09375,-0.03125 c -0.140625,0 -0.453125,0 -0.453125,-0.421875 0,-0.40625 0.375,-0.796875 0.796875,-0.796875 0.421875,0 0.609375,0.234375 0.609375,0.84375 0,0.140625 -0.015625,0.15625 -0.109375,0.203125 C 3.671875,-0.09375 3.375,-0.03125 3.09375,-0.03125 Z m 0,0"
           id="path5572" />
      </symbol>
    </g>
    <g
       id="id-3f0310b2-2f1b-4997-a81a-14a814640c79">
      <g
         id="id-fa0e6e23-0c96-464e-8abc-39562408d777">
        <path
           d="m 5.4375,-6.4375 v 5.890625 H 1.34375 V -6.4375 Z m 0.546875,-0.546875 h -5.1875 V 0 h 5.1875 z m -2.75,4.953125 c -0.21875,0 -0.40625,0.1875 -0.40625,0.421875 0,0.21875 0.1875,0.40625 0.40625,0.40625 0.25,0 0.421875,-0.1875 0.421875,-0.40625 0,-0.234375 -0.171875,-0.421875 -0.421875,-0.421875 z M 3.4375,-5.453125 c -0.5,0 -0.90625,0.1875 -1.25,0.59375 l 0.390625,0.28125 C 2.828125,-4.875 3.09375,-5 3.40625,-5 3.765625,-5 4,-4.8125 4,-4.484375 4,-3.84375 2.953125,-3.953125 2.953125,-2.9375 v 0.296875 H 3.5 V -2.90625 c 0,-0.796875 1.078125,-0.65625 1.078125,-1.625 0,-0.46875 -0.375,-0.921875 -1.140625,-0.921875 z m 0,0"
           id="id-3f6ed407-d964-439b-a597-6fa57987c92f" />
      </g>
      <g
         id="id-3c5e1cb0-5a1f-4180-b806-822c258dcfd0">
        <path
           d="m -1.421875,-8.203125 -0.375,0.34375 0.5,0.546875 h -2.59375 v 0.609375 h 2.59375 l -0.5,0.546875 0.375,0.34375 1.125,-1.1875 z m 0,0"
           id="id-851b1b32-8680-4d48-b0a1-ef41d26d1238" />
      </g>
      <g
         id="id-4aae2a15-fff2-4d54-a38c-401dba709786">
        <path
           d="M 4.328125,0 H 5.4375 L 3.1875,-3.640625 6.234375,-6.875 H 5.140625 L 2.125,-3.671875 Z M 0.625,0 H 1.5625 L 2.53125,-6.875 H 1.578125 Z m 0,0"
           id="id-327e2944-e6f3-4d8b-bd6c-a023e09bb8c3" />
      </g>
    </g>
    <marker
       style="overflow:visible"
       id="marker20563"
       refX="0"
       refY="0"
       orient="auto-start-reverse"
       inkscape:stockid="RoundedArrow"
       markerWidth="4.1350002"
       markerHeight="3.9973249"
       viewBox="0 0 6.1347524 5.9304951"
       inkscape:isstock="true"
       inkscape:collect="always"
       preserveAspectRatio="xMidYMid">
      <path
         transform="scale(0.7)"
         d="m -0.21114562,-4.1055728 6.42229122,3.21114561 a 1,1 90 0 1 0,1.78885438 L -0.21114562,4.1055728 A 1.236068,1.236068 31.717474 0 1 -2,3 v -6 a 1.236068,1.236068 148.28253 0 1 1.78885438,-1.1055728 z"
         style="fill:context-stroke;fill-rule:evenodd;stroke:none"
         id="path20561" />
    </marker>
    <marker
       style="overflow:visible"
       id="marker20691"
       refX="0"
       refY="0"
       orient="auto-start-reverse"
       inkscape:stockid="RoundedArrow"
       markerWidth="4.1350002"
       markerHeight="3.9973247"
       viewBox="0 0 6.1347524 5.9304951"
       inkscape:isstock="true"
       inkscape:collect="always"
       preserveAspectRatio="xMidYMid">
      <path
         transform="scale(0.7)"
         d="m -0.21114562,-4.1055728 6.42229122,3.21114561 a 1,1 90 0 1 0,1.78885438 L -0.21114562,4.1055728 A 1.236068,1.236068 31.717474 0 1 -2,3 v -6 a 1.236068,1.236068 148.28253 0 1 1.78885438,-1.1055728 z"
         style="fill:context-stroke;fill-rule:evenodd;stroke:none"
         id="path20689" />
    </marker>
    <marker
       style="overflow:visible"
       id="RoundedArrow-7"
       refX="0"
       refY="0"
       orient="auto-start-reverse"
       inkscape:stockid="RoundedArrow"
       markerWidth="4.1350002"
       markerHeight="3.9973247"
       viewBox="0 0 6.1347524 5.9304951"
       inkscape:isstock="true"
       inkscape:collect="always"
       preserveAspectRatio="xMidYMid">
      <path
         transform="scale(0.7)"
         d="m -0.21114562,-4.1055728 6.42229122,3.21114561 a 1,1 90 0 1 0,1.78885438 L -0.21114562,4.1055728 A 1.236068,1.236068 31.717474 0 1 -2,3 v -6 a 1.236068,1.236068 148.28253 0 1 1.78885438,-1.1055728 z"
         style="fill:context-stroke;fill-rule:evenodd;stroke:none"
         id="path1367-9" />
    </marker>
  </defs>
  <g
     inkscape:label="Layer 1"
     inkscape:groupmode="layer"
     id="layer1"
     transform="translate(83.718428,-30.596957)">
    <circle
       style="fill:none;stroke:#505050;stroke-width:2;stroke-miterlimit:4;stroke-dasharray:none;stroke-opacity:1"
       id="path22081-5"
       cx="-23.745291"
       cy="91.902763"
       r="60"
       transform="rotate(-0.6393255)" />
    <circle
       style="fill:none;stroke:#505050;stroke-width:2;stroke-miterlimit:4;stroke-dasharray:none;stroke-opacity:1"
       id="path22081-5-3"
       cx="-23.745291"
       cy="91.902763"
       r="40"
       transform="rotate(-0.6393255)" />
    <circle
       style="fill:none;stroke:#505050;stroke-width:2;stroke-miterlimit:4;stroke-dasharray:none;stroke-opacity:1"
       id="path22081-5-9"
       cx="39.927879"
       cy="86.840034"
       r="60"
       transform="rotate(8.1094703)" />
    <circle
       style="fill:none;stroke:#505050;stroke-width:2;stroke-miterlimit:4;stroke-dasharray:none;stroke-opacity:1"
       id="path22081-5-3-1"
       cx="39.927879"
       cy="86.840034"
       r="40"
       transform="rotate(8.1094703)" />
    <g
       transform="matrix(1.41111,0,0,1.41111,-22.122399,66.501353)"
       ns3:version="1.8.1"
       ns3:texconverter="xelatex"
       ns3:pdfconverter="inkscape"
       ns3:text="$\\vec K$"
       ns3:preamble="/home/kirito/.config/textext/beamer_preamble.tex"
       ns3:scale="4.0"
       ns3:alignment="middle center"
       ns3:stroke-to-path="0"
       ns3:inkscapeversion="1.2.1"
       ns3:jacobian_sqrt="1.41111"
       id="g22799">
      <defs
         id="id-eb80ea9f-417d-4d68-8686-dfe8d86fa1ac">
        <g
           id="g33380">
          <g
             id="g33370">
            <path
               d="m 5.4375,-6.4375 v 5.890625 H 1.34375 V -6.4375 Z m 0.546875,-0.546875 h -5.1875 V 0 h 5.1875 z m -2.75,4.953125 c -0.21875,0 -0.40625,0.1875 -0.40625,0.421875 0,0.21875 0.1875,0.40625 0.40625,0.40625 0.25,0 0.421875,-0.1875 0.421875,-0.40625 0,-0.234375 -0.171875,-0.421875 -0.421875,-0.421875 z M 3.4375,-5.453125 c -0.5,0 -0.90625,0.1875 -1.25,0.59375 l 0.390625,0.28125 C 2.828125,-4.875 3.09375,-5 3.40625,-5 3.765625,-5 4,-4.8125 4,-4.484375 4,-3.84375 2.953125,-3.953125 2.953125,-2.9375 v 0.296875 H 3.5 V -2.90625 c 0,-0.796875 1.078125,-0.65625 1.078125,-1.625 0,-0.46875 -0.375,-0.921875 -1.140625,-0.921875 z m 0,0"
               id="path33368" />
          </g>
          <g
             id="g33374">
            <path
               d="m -1.421875,-8.203125 -0.375,0.34375 0.5,0.546875 h -2.59375 v 0.609375 h 2.59375 l -0.5,0.546875 0.375,0.34375 1.125,-1.1875 z m 0,0"
               id="path33372" />
          </g>
          <g
             id="g33378">
            <path
               d="M 4.328125,0 H 5.4375 L 3.1875,-3.640625 6.234375,-6.875 H 5.140625 L 2.125,-3.671875 Z M 0.625,0 H 1.5625 L 2.53125,-6.875 H 1.578125 Z m 0,0"
               id="path33376" />
          </g>
        </g>
      </defs>
      <g
         fill="#000000"
         fill-opacity="1"
         id="id-60c0dc6a-61fa-4c3c-9d98-a0aa9e3f77a8"
         transform="translate(-149.337,-124.948)">
        <g
           transform="translate(154.63,133.151)"
           id="g23848">
          <path
             d="m -1.421875,-8.203125 -0.375,0.34375 0.5,0.546875 h -2.59375 v 0.609375 h 2.59375 l -0.5,0.546875 0.375,0.34375 1.125,-1.1875 z m 0,0"
             id="id-9fd7831f-8a1f-46ea-ba83-11ca634b7d17" />
        </g>
      </g>
      <g
         fill="#000000"
         fill-opacity="1"
         id="id-a5abbb80-35ca-488b-b0e4-80edce0195d6"
         transform="translate(-149.337,-124.948)">
        <g
           transform="translate(148.712,134.765)"
           id="g23852">
          <path
             d="M 4.328125,0 H 5.4375 L 3.1875,-3.640625 6.234375,-6.875 H 5.140625 L 2.125,-3.671875 Z M 0.625,0 H 1.5625 L 2.53125,-6.875 H 1.578125 Z m 0,0"
             id="id-08979938-004c-4f55-9dd7-b80e35e613f0" />
        </g>
      </g>
    </g>
    <g
       transform="matrix(1.41111,0,0,1.41111,19.340444,65.689)"
       ns3:version="1.8.1"
       ns3:texconverter="xelatex"
       ns3:pdfconverter="inkscape"
       ns3:text="$\\vec K + \\vec Q$"
       ns3:preamble="/home/kirito/.config/textext/beamer_preamble.tex"
       ns3:scale="4.0"
       ns3:alignment="middle center"
       ns3:stroke-to-path="0"
       ns3:inkscapeversion="1.2.1"
       ns3:jacobian_sqrt="1.41111"
       id="g35359">
      <defs
         id="id-f3c29c4d-1a3f-43bb-a631-8f6a55428825">
        <g
           id="id-5a59a24a-8785-4161-bf3c-7c8bc0827870">
          <g
             id="id-d1c8770f-c87b-4657-bc16-521dc9b2f9b9">
            <path
               d="m 5.4375,-6.4375 v 5.890625 H 1.34375 V -6.4375 Z m 0.546875,-0.546875 h -5.1875 V 0 h 5.1875 z m -2.75,4.953125 c -0.21875,0 -0.40625,0.1875 -0.40625,0.421875 0,0.21875 0.1875,0.40625 0.40625,0.40625 0.25,0 0.421875,-0.1875 0.421875,-0.40625 0,-0.234375 -0.171875,-0.421875 -0.421875,-0.421875 z M 3.4375,-5.453125 c -0.5,0 -0.90625,0.1875 -1.25,0.59375 l 0.390625,0.28125 C 2.828125,-4.875 3.09375,-5 3.40625,-5 3.765625,-5 4,-4.8125 4,-4.484375 4,-3.84375 2.953125,-3.953125 2.953125,-2.9375 v 0.296875 H 3.5 V -2.90625 c 0,-0.796875 1.078125,-0.65625 1.078125,-1.625 0,-0.46875 -0.375,-0.921875 -1.140625,-0.921875 z m 0,0"
               id="id-8150aae4-95ee-4af0-8abb-094fdda89f1b" />
          </g>
          <g
             id="id-f661e2ad-fb31-4c25-925c-c6bec1a4a9e2">
            <path
               d="m -1.421875,-8.203125 -0.375,0.34375 0.5,0.546875 h -2.59375 v 0.609375 h 2.59375 l -0.5,0.546875 0.375,0.34375 1.125,-1.1875 z m 0,0"
               id="id-3ce742a3-bd8f-4d52-92dc-e8a1119ffbe2" />
          </g>
          <g
             id="id-b41b7193-69a1-4e58-9ea9-2706d0ef3ecb">
            <path
               d="M 4.328125,0 H 5.4375 L 3.1875,-3.640625 6.234375,-6.875 H 5.140625 L 2.125,-3.671875 Z M 0.625,0 H 1.5625 L 2.53125,-6.875 H 1.578125 Z m 0,0"
               id="id-f74a2062-028b-49a9-b070-2ebead9cf5d6" />
          </g>
          <g
             id="id-28da0c14-fc8d-4df8-b911-858c3fc0616c">
            <path
               d="M 2.90625,-4.671875 H 2.078125 v 1.5 H 0.625 v 0.765625 h 1.453125 v 1.484375 H 2.90625 V -2.40625 H 4.359375 V -3.171875 H 2.90625 Z m 0,0"
               id="id-ad143e53-a2ca-41a4-8b98-592d11422cb2" />
          </g>
          <g
             id="id-06bb7eaf-03f8-418d-b2c0-233d4dd67226">
            <path
               d="m 1.578125,-2.546875 c 0,-1.46875 0.53125,-3.65625 2.390625,-3.65625 0.953125,0 1.515625,0.5625 1.515625,1.84375 0,1.484375 -0.5,3.703125 -2.390625,3.703125 -0.90625,0 -1.515625,-0.546875 -1.515625,-1.890625 z m 4.875,-1.65625 C 6.453125,-6.015625 5.5,-6.984375 4,-6.984375 c -2.53125,0 -3.390625,2.59375 -3.390625,4.34375 0,1.796875 0.96875,2.765625 2.46875,2.765625 1.234375,0 1.75,0.203125 2.421875,0.90625 L 6.203125,0.265625 C 5.765625,-0.0625 5.25,-0.34375 4.5,-0.375 5.953125,-1 6.453125,-2.796875 6.453125,-4.203125 Z m 0,0"
               id="id-aa5e68ae-ae1e-427a-a37c-025a45d977fb" />
          </g>
        </g>
      </defs>
      <g
         fill="#000000"
         fill-opacity="1"
         id="id-2e632534-2d74-474e-9206-5781d5c6c280"
         transform="translate(-149.337,-124.828)">
        <g
           transform="translate(154.63,133.151)"
           id="g35549">
          <path
             d="m -1.421875,-8.203125 -0.375,0.34375 0.5,0.546875 h -2.59375 v 0.609375 h 2.59375 l -0.5,0.546875 0.375,0.34375 1.125,-1.1875 z m 0,0"
             id="id-6bd129cf-f292-4ce0-b575-259495aae4db" />
        </g>
      </g>
      <g
         fill="#000000"
         fill-opacity="1"
         id="id-d2ded096-37a4-4ed2-b777-846fba6cfefa"
         transform="translate(-149.337,-124.828)">
        <g
           transform="translate(148.712,134.765)"
           id="g35553">
          <path
             d="M 4.328125,0 H 5.4375 L 3.1875,-3.640625 6.234375,-6.875 H 5.140625 L 2.125,-3.671875 Z M 0.625,0 H 1.5625 L 2.53125,-6.875 H 1.578125 Z m 0,0"
             id="id-b04d2213-0f0c-4ee7-9f5b-cc76155393a3" />
        </g>
      </g>
      <g
         fill="#000000"
         fill-opacity="1"
         id="id-14c2904f-7119-4ac7-bf0c-a419c6514e59"
         transform="translate(-149.337,-124.828)">
        <g
           transform="translate(157.529,134.765)"
           id="g35557">
          <path
             d="M 2.90625,-4.671875 H 2.078125 v 1.5 H 0.625 v 0.765625 h 1.453125 v 1.484375 H 2.90625 V -2.40625 H 4.359375 V -3.171875 H 2.90625 Z m 0,0"
             id="id-ac70ac8f-6c38-4f94-baed-6eb46e1ec26f" />
        </g>
      </g>
      <g
         fill="#000000"
         fill-opacity="1"
         id="id-a9fbe273-2e86-4165-92a5-4628bd3ec64e"
         transform="translate(-149.337,-124.828)">
        <g
           transform="translate(170.974,133.031)"
           id="g35561">
          <path
             d="m -1.421875,-8.203125 -0.375,0.34375 0.5,0.546875 h -2.59375 v 0.609375 h 2.59375 l -0.5,0.546875 0.375,0.34375 1.125,-1.1875 z m 0,0"
             id="id-11aeb42c-cd6f-4d83-87e3-3df05c39815a" />
        </g>
      </g>
      <g
         fill="#000000"
         fill-opacity="1"
         id="id-5bfa7b3a-d50c-4587-9bf6-e55c13e11788"
         transform="translate(-149.337,-124.828)">
        <g
           transform="translate(164.727,134.765)"
           id="g35565">
          <path
             d="m 1.578125,-2.546875 c 0,-1.46875 0.53125,-3.65625 2.390625,-3.65625 0.953125,0 1.515625,0.5625 1.515625,1.84375 0,1.484375 -0.5,3.703125 -2.390625,3.703125 -0.90625,0 -1.515625,-0.546875 -1.515625,-1.890625 z m 4.875,-1.65625 C 6.453125,-6.015625 5.5,-6.984375 4,-6.984375 c -2.53125,0 -3.390625,2.59375 -3.390625,4.34375 0,1.796875 0.96875,2.765625 2.46875,2.765625 1.234375,0 1.75,0.203125 2.421875,0.90625 L 6.203125,0.265625 C 5.765625,-0.0625 5.25,-0.34375 4.5,-0.375 5.953125,-1 6.453125,-2.796875 6.453125,-4.203125 Z m 0,0"
             id="id-758654a0-b0a8-49b4-b58d-ae2faa701309" />
        </g>
      </g>
    </g>
    <g
       transform="matrix(1.41111,0,0,1.41111,-1.12115,97.438767)"
       ns3:version="1.8.1"
       ns3:texconverter="xelatex"
       ns3:pdfconverter="inkscape"
       ns3:text="$\\vec Q$"
       ns3:preamble="/home/kirito/.config/textext/beamer_preamble.tex"
       ns3:scale="4.0"
       ns3:alignment="middle center"
       ns3:stroke-to-path="0"
       ns3:inkscapeversion="1.2.1"
       ns3:jacobian_sqrt="1.41111"
       id="g35695">
      <defs
         id="id-392f196a-1b4c-4cab-8d4a-f1c2ffe29600">
        <g
           id="id-5346fb22-09f4-4d0d-ac4f-a793179e895a">
          <g
             id="id-e730fd7f-eb43-4547-acc9-6ad96f1e4a71">
            <path
               d="m 5.4375,-6.4375 v 5.890625 H 1.34375 V -6.4375 Z m 0.546875,-0.546875 h -5.1875 V 0 h 5.1875 z m -2.75,4.953125 c -0.21875,0 -0.40625,0.1875 -0.40625,0.421875 0,0.21875 0.1875,0.40625 0.40625,0.40625 0.25,0 0.421875,-0.1875 0.421875,-0.40625 0,-0.234375 -0.171875,-0.421875 -0.421875,-0.421875 z M 3.4375,-5.453125 c -0.5,0 -0.90625,0.1875 -1.25,0.59375 l 0.390625,0.28125 C 2.828125,-4.875 3.09375,-5 3.40625,-5 3.765625,-5 4,-4.8125 4,-4.484375 4,-3.84375 2.953125,-3.953125 2.953125,-2.9375 v 0.296875 H 3.5 V -2.90625 c 0,-0.796875 1.078125,-0.65625 1.078125,-1.625 0,-0.46875 -0.375,-0.921875 -1.140625,-0.921875 z m 0,0"
               id="id-3bb20388-abf7-4cee-97f3-efc192f424ec" />
          </g>
          <g
             id="id-0d7339f2-bc72-4da5-81f2-84588fee66e7">
            <path
               d="m -1.421875,-8.203125 -0.375,0.34375 0.5,0.546875 h -2.59375 v 0.609375 h 2.59375 l -0.5,0.546875 0.375,0.34375 1.125,-1.1875 z m 0,0"
               id="id-241334ca-9088-4829-b059-4012748b3890" />
          </g>
          <g
             id="id-8034e75a-52e9-44d0-909c-240988e5c65b">
            <path
               d="m 1.578125,-2.546875 c 0,-1.46875 0.53125,-3.65625 2.390625,-3.65625 0.953125,0 1.515625,0.5625 1.515625,1.84375 0,1.484375 -0.5,3.703125 -2.390625,3.703125 -0.90625,0 -1.515625,-0.546875 -1.515625,-1.890625 z m 4.875,-1.65625 C 6.453125,-6.015625 5.5,-6.984375 4,-6.984375 c -2.53125,0 -3.390625,2.59375 -3.390625,4.34375 0,1.796875 0.96875,2.765625 2.46875,2.765625 1.234375,0 1.75,0.203125 2.421875,0.90625 L 6.203125,0.265625 C 5.765625,-0.0625 5.25,-0.34375 4.5,-0.375 5.953125,-1 6.453125,-2.796875 6.453125,-4.203125 Z m 0,0"
               id="id-396574eb-d304-4d8a-a77d-d02ba46f8a6c" />
          </g>
        </g>
      </defs>
      <g
         fill="#000000"
         fill-opacity="1"
         id="id-60b28e90-2738-4b08-8014-facd7f64ea39"
         transform="translate(-149.321,-124.828)">
        <g
           transform="translate(154.959,133.031)"
           id="g35950">
          <path
             d="m -1.421875,-8.203125 -0.375,0.34375 0.5,0.546875 h -2.59375 v 0.609375 h 2.59375 l -0.5,0.546875 0.375,0.34375 1.125,-1.1875 z m 0,0"
             id="id-2082fbbf-5c01-47a7-932c-a92938dfa681" />
        </g>
      </g>
      <g
         fill="#000000"
         fill-opacity="1"
         id="id-4c81c348-25c9-4dca-912a-49ce4ec2a8b0"
         transform="translate(-149.321,-124.828)">
        <g
           transform="translate(148.712,134.765)"
           id="g35954">
          <path
             d="m 1.578125,-2.546875 c 0,-1.46875 0.53125,-3.65625 2.390625,-3.65625 0.953125,0 1.515625,0.5625 1.515625,1.84375 0,1.484375 -0.5,3.703125 -2.390625,3.703125 -0.90625,0 -1.515625,-0.546875 -1.515625,-1.890625 z m 4.875,-1.65625 C 6.453125,-6.015625 5.5,-6.984375 4,-6.984375 c -2.53125,0 -3.390625,2.59375 -3.390625,4.34375 0,1.796875 0.96875,2.765625 2.46875,2.765625 1.234375,0 1.75,0.203125 2.421875,0.90625 L 6.203125,0.265625 C 5.765625,-0.0625 5.25,-0.34375 4.5,-0.375 5.953125,-1 6.453125,-2.796875 6.453125,-4.203125 Z m 0,0"
             id="id-2a02d0d0-e1c4-4c33-85ee-551fa621507a" />
        </g>
      </g>
    </g>
    <path
       style="fill:none;stroke:#d04000;stroke-width:1.60365;stroke-linecap:butt;stroke-linejoin:miter;stroke-miterlimit:4;stroke-dasharray:none;stroke-opacity:1;marker-end:url(#marker20563)"
       d="M -32.300773,93.69868 C -0.49995979,64.43803 -0.49995979,64.43803 -0.49995979,64.43803"
       id="path22546-20" />
    <path
       style="fill:none;stroke:#0070ff;stroke-width:1.60365;stroke-linecap:butt;stroke-linejoin:miter;stroke-miterlimit:4;stroke-dasharray:none;stroke-opacity:1;marker-end:url(#marker20691)"
       d="M 37.232694,94.58523 5.7584309,64.83717"
       id="path22546-2-2"
       sodipodi:nodetypes="cc" />
    <path
       style="fill:none;stroke:#00a000;stroke-width:1.60365;stroke-linecap:butt;stroke-linejoin:miter;stroke-miterlimit:4;stroke-dasharray:none;stroke-opacity:1;marker-start:url(#RoundedArrow-7)"
       d="m -27.278363,93.69868 c 64.511055,0.88656 64.511055,0.88656 64.511055,0.88656"
       id="path24486-3" />
    <circle
       style="fill:none;stroke:#ff9b33;stroke-width:2;stroke-miterlimit:4;stroke-dasharray:none;stroke-opacity:1"
       id="path25782"
       cx="2.0576408"
       cy="61.082489"
       r="5" />
    <circle
       style="fill:none;stroke:#ff9b33;stroke-width:2;stroke-miterlimit:4;stroke-dasharray:none;stroke-opacity:1"
       id="path25782-2"
       cx="-18.164677"
       cy="52.164486"
       r="5" />
    <circle
       style="fill:none;stroke:#ff9b33;stroke-width:2;stroke-miterlimit:4;stroke-dasharray:none;stroke-opacity:1"
       id="path25782-0"
       cx="1.3796452"
       cy="37.276672"
       r="5" />
    <circle
       style="fill:none;stroke:#ff9b33;stroke-width:2;stroke-miterlimit:4;stroke-dasharray:none;stroke-opacity:1"
       id="path25782-23"
       cx="20.194221"
       cy="51.697304"
       r="5" />
    <circle
       style="fill:none;stroke:#ff9b33;stroke-width:2;stroke-miterlimit:4;stroke-dasharray:none;stroke-opacity:1"
       id="path25782-97"
       cx="3.1270378"
       cy="-122.3354"
       r="5"
       transform="scale(1,-1)" />
    <circle
       style="fill:none;stroke:#ff9b33;stroke-width:2;stroke-miterlimit:4;stroke-dasharray:none;stroke-opacity:1"
       id="path25782-2-3"
       cx="-17.095284"
       cy="-131.25339"
       r="5"
       transform="scale(1,-1)" />
    <circle
       style="fill:none;stroke:#ff9b33;stroke-width:2;stroke-miterlimit:4;stroke-dasharray:none;stroke-opacity:1"
       id="path25782-0-6"
       cx="2.449044"
       cy="-146.1412"
       r="5"
       transform="scale(1,-1)" />
    <circle
       style="fill:none;stroke:#ff9b33;stroke-width:2;stroke-miterlimit:4;stroke-dasharray:none;stroke-opacity:1"
       id="path25782-23-1"
       cx="21.263618"
       cy="-131.72057"
       r="5"
       transform="scale(1,-1)" />
  </g>
</svg>
