<?xml version="1.0" encoding="UTF-8" standalone="no"?>
<!-- Created with Inkscape (http://www.inkscape.org/) -->

<svg
   width="205.23172mm"
   height="123.18166mm"
   viewBox="0 0 205.23172 123.18166"
   version="1.1"
   id="svg21975"
   sodipodi:docname="overlap.svg"
   inkscape:version="1.2.1 (9c6d41e410, 2022-07-14, custom)"
   xmlns:inkscape="http://www.inkscape.org/namespaces/inkscape"
   xmlns:sodipodi="http://sodipodi.sourceforge.net/DTD/sodipodi-0.dtd"
   xmlns="http://www.w3.org/2000/svg"
   xmlns:svg="http://www.w3.org/2000/svg"
   xmlns:ns3="http://www.iki.fi/pav/software/textext/">
  <sodipodi:namedview
     id="namedview21977"
     pagecolor="#ffffff"
     bordercolor="#000000"
     borderopacity="1"
     inkscape:pageshadow="0"
     inkscape:pageopacity="0"
     inkscape:pagecheckerboard="false"
     inkscape:document-units="mm"
     showgrid="false"
     inkscape:snap-smooth-nodes="true"
     inkscape:snap-object-midpoints="true"
     inkscape:zoom="0.74029882"
     inkscape:cx="381.60266"
     inkscape:cy="255.30231"
     inkscape:window-width="1920"
     inkscape:window-height="1019"
     inkscape:window-x="1920"
     inkscape:window-y="151"
     inkscape:window-maximized="1"
     inkscape:current-layer="layer1"
     inkscape:snap-global="true"
     inkscape:showpageshadow="false"
     inkscape:deskcolor="#e0e0e0"
     showborder="true"
     borderlayer="true" />
  <defs
     id="defs21972">
    <marker
       style="overflow:visible"
       id="marker20691"
       refX="0"
       refY="0"
       orient="auto-start-reverse"
       inkscape:stockid="RoundedArrow"
       markerWidth="4.1350002"
       markerHeight="3.9973247"
       viewBox="0 0 6.1347524 5.9304951"
       inkscape:isstock="true"
       inkscape:collect="always"
       preserveAspectRatio="xMidYMid">
      <path
         transform="scale(0.7)"
         d="m -0.21114562,-4.1055728 6.42229122,3.21114561 a 1,1 90 0 1 0,1.78885438 L -0.21114562,4.1055728 A 1.236068,1.236068 31.717474 0 1 -2,3 v -6 a 1.236068,1.236068 148.28253 0 1 1.78885438,-1.1055728 z"
         style="fill:context-stroke;fill-rule:evenodd;stroke:none"
         id="path20689" />
    </marker>
    <marker
       style="overflow:visible"
       id="marker20563"
       refX="0"
       refY="0"
       orient="auto-start-reverse"
       inkscape:stockid="RoundedArrow"
       markerWidth="4.1350002"
       markerHeight="3.9973249"
       viewBox="0 0 6.1347524 5.9304951"
       inkscape:isstock="true"
       inkscape:collect="always"
       preserveAspectRatio="xMidYMid">
      <path
         transform="scale(0.7)"
         d="m -0.21114562,-4.1055728 6.42229122,3.21114561 a 1,1 90 0 1 0,1.78885438 L -0.21114562,4.1055728 A 1.236068,1.236068 31.717474 0 1 -2,3 v -6 a 1.236068,1.236068 148.28253 0 1 1.78885438,-1.1055728 z"
         style="fill:context-stroke;fill-rule:evenodd;stroke:none"
         id="path20561" />
    </marker>
    <marker
       style="overflow:visible"
       id="RoundedArrow"
       refX="0"
       refY="0"
       orient="auto-start-reverse"
       inkscape:stockid="RoundedArrow"
       markerWidth="4.1350002"
       markerHeight="3.9973247"
       viewBox="0 0 6.1347524 5.9304951"
       inkscape:isstock="true"
       inkscape:collect="always"
       preserveAspectRatio="xMidYMid">
      <path
         transform="scale(0.7)"
         d="m -0.21114562,-4.1055728 6.42229122,3.21114561 a 1,1 90 0 1 0,1.78885438 L -0.21114562,4.1055728 A 1.236068,1.236068 31.717474 0 1 -2,3 v -6 a 1.236068,1.236068 148.28253 0 1 1.78885438,-1.1055728 z"
         style="fill:context-stroke;fill-rule:evenodd;stroke:none"
         id="path1367" />
    </marker>
    <marker
       style="overflow:visible"
       id="TriangleInL"
       refX="0"
       refY="0"
       orient="auto"
       inkscape:stockid="TriangleInL"
       inkscape:isstock="true">
      <path
         transform="scale(-0.8)"
         style="fill:context-stroke;fill-rule:evenodd;stroke:context-stroke;stroke-width:1pt"
         d="M 5.77,0 -2.88,5 V -5 Z"
         id="path22761" />
    </marker>
    <marker
       style="overflow:visible"
       id="TriangleOutL"
       refX="0"
       refY="0"
       orient="auto"
       inkscape:stockid="TriangleOutL"
       inkscape:isstock="true">
      <path
         transform="scale(0.8)"
         style="fill:context-stroke;fill-rule:evenodd;stroke:context-stroke;stroke-width:1pt"
         d="M 5.77,0 -2.88,5 V -5 Z"
         id="path22770" />
    </marker>
    <marker
       style="overflow:visible"
       id="EmptyTriangleOutL"
       refX="0"
       refY="0"
       orient="auto"
       inkscape:stockid="EmptyTriangleOutL"
       inkscape:isstock="true">
      <path
         transform="matrix(0.8,0,0,0.8,-4.8,0)"
         style="fill:context-fill;fill-rule:evenodd;stroke:context-stroke;stroke-width:1pt"
         d="M 5.77,0 -2.88,5 V -5 Z"
         id="path22788" />
    </marker>
    <g
       id="g4949">
      <symbol
         overflow="visible"
         id="symbol3964">
        <path
           style="stroke:none"
           d=""
           id="path3253" />
      </symbol>
      <symbol
         overflow="visible"
         id="symbol6740">
        <path
           style="stroke:none"
           d="M 5.078125,-4.03125 C 5.0625,-4.0625 5.03125,-4.140625 5.03125,-4.171875 c 0,0 0.171875,-0.140625 0.28125,-0.21875 l 1.75,-1.34375 C 8,-6.4375 8.390625,-6.46875 8.6875,-6.5 8.765625,-6.515625 8.859375,-6.515625 8.859375,-6.703125 8.859375,-6.734375 8.828125,-6.8125 8.75,-6.8125 c -0.21875,0 -0.46875,0.03125 -0.703125,0.03125 -0.359375,0 -0.75,-0.03125 -1.109375,-0.03125 -0.0625,0 -0.1875,0 -0.1875,0.203125 0,0.0625 0.046875,0.09375 0.125,0.109375 0.21875,0.015625 0.296875,0.0625 0.296875,0.203125 0,0.1875 -0.296875,0.421875 -0.359375,0.46875 L 2.9375,-2.84375 3.734375,-6.046875 C 3.8125,-6.40625 3.84375,-6.5 4.5625,-6.5 c 0.25,0 0.34375,0 0.34375,-0.203125 0,-0.078125 -0.078125,-0.109375 -0.140625,-0.109375 -0.28125,0 -1,0.03125 -1.28125,0.03125 C 3.203125,-6.78125 2.5,-6.8125 2.203125,-6.8125 2.140625,-6.8125 2,-6.8125 2,-6.625 2,-6.5 2.09375,-6.5 2.296875,-6.5 c 0.125,0 0.3125,0.015625 0.421875,0.015625 0.15625,0.03125 0.21875,0.046875 0.21875,0.171875 0,0.03125 0,0.0625 -0.03125,0.1875 L 1.5625,-0.78125 c -0.09375,0.390625 -0.109375,0.46875 -0.90625,0.46875 -0.171875,0 -0.28125,0 -0.28125,0.1875 C 0.375,0 0.5,0 0.53125,0 0.8125,0 1.515625,-0.03125 1.796875,-0.03125 2,-0.03125 2.21875,-0.015625 2.4375,-0.015625 2.65625,-0.015625 2.875,0 3.078125,0 3.15625,0 3.28125,0 3.28125,-0.203125 3.28125,-0.3125 3.1875,-0.3125 3,-0.3125 c -0.375,0 -0.640625,0 -0.640625,-0.171875 0,-0.078125 0.046875,-0.296875 0.078125,-0.4375 C 2.578125,-1.453125 2.71875,-1.96875 2.84375,-2.5 l 1.484375,-1.15625 1.15625,2.6875 c 0.125,0.265625 0.125,0.296875 0.125,0.34375 0,0.3125 -0.4375,0.3125 -0.53125,0.3125 -0.109375,0 -0.21875,0 -0.21875,0.203125 C 4.859375,0 4.984375,0 5,0 5.40625,0 5.828125,-0.03125 6.21875,-0.03125 6.4375,-0.03125 6.984375,0 7.203125,0 7.25,0 7.375,0 7.375,-0.203125 7.375,-0.3125 7.265625,-0.3125 7.171875,-0.3125 c -0.40625,0 -0.53125,-0.09375 -0.6875,-0.4375 z m 0,0"
           id="path3448" />
      </symbol>
    </g>
    <marker
       style="overflow:visible"
       id="TriangleOutL-5"
       refX="0"
       refY="0"
       orient="auto"
       inkscape:stockid="TriangleOutL"
       inkscape:isstock="true">
      <path
         transform="scale(0.8)"
         style="fill:context-stroke;fill-rule:evenodd;stroke:context-stroke;stroke-width:1pt"
         d="M 5.77,0 -2.88,5 V -5 Z"
         id="path22770-6" />
    </marker>
    <g
       id="g4758">
      <symbol
         overflow="visible"
         id="symbol9633">
        <path
           style="stroke:none"
           d=""
           id="path7939" />
      </symbol>
      <symbol
         overflow="visible"
         id="symbol8182">
        <path
           style="stroke:none"
           d="M 5.078125,-4.03125 C 5.0625,-4.0625 5.03125,-4.140625 5.03125,-4.171875 c 0,0 0.171875,-0.140625 0.28125,-0.21875 l 1.75,-1.34375 C 8,-6.4375 8.390625,-6.46875 8.6875,-6.5 8.765625,-6.515625 8.859375,-6.515625 8.859375,-6.703125 8.859375,-6.734375 8.828125,-6.8125 8.75,-6.8125 c -0.21875,0 -0.46875,0.03125 -0.703125,0.03125 -0.359375,0 -0.75,-0.03125 -1.109375,-0.03125 -0.0625,0 -0.1875,0 -0.1875,0.203125 0,0.0625 0.046875,0.09375 0.125,0.109375 0.21875,0.015625 0.296875,0.0625 0.296875,0.203125 0,0.1875 -0.296875,0.421875 -0.359375,0.46875 L 2.9375,-2.84375 3.734375,-6.046875 C 3.8125,-6.40625 3.84375,-6.5 4.5625,-6.5 c 0.25,0 0.34375,0 0.34375,-0.203125 0,-0.078125 -0.078125,-0.109375 -0.140625,-0.109375 -0.28125,0 -1,0.03125 -1.28125,0.03125 C 3.203125,-6.78125 2.5,-6.8125 2.203125,-6.8125 2.140625,-6.8125 2,-6.8125 2,-6.625 2,-6.5 2.09375,-6.5 2.296875,-6.5 c 0.125,0 0.3125,0.015625 0.421875,0.015625 0.15625,0.03125 0.21875,0.046875 0.21875,0.171875 0,0.03125 0,0.0625 -0.03125,0.1875 L 1.5625,-0.78125 c -0.09375,0.390625 -0.109375,0.46875 -0.90625,0.46875 -0.171875,0 -0.28125,0 -0.28125,0.1875 C 0.375,0 0.5,0 0.53125,0 0.8125,0 1.515625,-0.03125 1.796875,-0.03125 2,-0.03125 2.21875,-0.015625 2.4375,-0.015625 2.65625,-0.015625 2.875,0 3.078125,0 3.15625,0 3.28125,0 3.28125,-0.203125 3.28125,-0.3125 3.1875,-0.3125 3,-0.3125 c -0.375,0 -0.640625,0 -0.640625,-0.171875 0,-0.078125 0.046875,-0.296875 0.078125,-0.4375 C 2.578125,-1.453125 2.71875,-1.96875 2.84375,-2.5 l 1.484375,-1.15625 1.15625,2.6875 c 0.125,0.265625 0.125,0.296875 0.125,0.34375 0,0.3125 -0.4375,0.3125 -0.53125,0.3125 -0.109375,0 -0.21875,0 -0.21875,0.203125 C 4.859375,0 4.984375,0 5,0 5.40625,0 5.828125,-0.03125 6.21875,-0.03125 6.4375,-0.03125 6.984375,0 7.203125,0 7.25,0 7.375,0 7.375,-0.203125 7.375,-0.3125 7.265625,-0.3125 7.171875,-0.3125 c -0.40625,0 -0.53125,-0.09375 -0.6875,-0.4375 z m 0,0"
           id="path2162" />
      </symbol>
      <symbol
         overflow="visible"
         id="symbol7619">
        <path
           style="stroke:none"
           d="M 4.359375,-0.0625 C 5.90625,-0.640625 7.375,-2.421875 7.375,-4.34375 c 0,-1.609375 -1.0625,-2.6875 -2.546875,-2.6875 -2.140625,0 -4.34375,2.265625 -4.34375,4.59375 0,1.65625 1.125,2.65625 2.5625,2.65625 0.25,0 0.578125,-0.046875 0.96875,-0.15625 -0.03125,0.625 -0.03125,0.640625 -0.03125,0.78125 0,0.3125 0,1.09375 0.828125,1.09375 1.171875,0 1.65625,-1.828125 1.65625,-1.9375 0,-0.0625 -0.0625,-0.09375 -0.109375,-0.09375 -0.078125,0 -0.09375,0.046875 -0.125,0.109375 C 6,0.71875 5.421875,0.96875 5.078125,0.96875 c -0.46875,0 -0.609375,-0.265625 -0.71875,-1.03125 z m -1.875,-0.078125 c -0.78125,-0.3125 -1.125,-1.078125 -1.125,-1.984375 0,-0.6875 0.265625,-2.109375 1.015625,-3.171875 C 3.109375,-6.3125 4.046875,-6.78125 4.78125,-6.78125 5.765625,-6.78125 6.5,-6 6.5,-4.671875 c 0,1 -0.515625,3.34375 -2.1875,4.265625 -0.046875,-0.34375 -0.140625,-1.0625 -0.875,-1.0625 -0.53125,0 -1.015625,0.484375 -1.015625,1.015625 0,0.1875 0.0625,0.296875 0.0625,0.3125 z M 3.09375,-0.03125 c -0.140625,0 -0.453125,0 -0.453125,-0.421875 0,-0.40625 0.375,-0.796875 0.796875,-0.796875 0.421875,0 0.609375,0.234375 0.609375,0.84375 0,0.140625 -0.015625,0.15625 -0.109375,0.203125 C 3.671875,-0.09375 3.375,-0.03125 3.09375,-0.03125 Z m 0,0"
           id="path8837" />
      </symbol>
      <symbol
         overflow="visible"
         id="symbol9815">
        <path
           style="stroke:none"
           d=""
           id="path5387" />
      </symbol>
      <symbol
         overflow="visible"
         id="symbol3015">
        <path
           style="stroke:none"
           d="m 4.078125,-2.296875 h 2.78125 C 7,-2.296875 7.1875,-2.296875 7.1875,-2.5 7.1875,-2.6875 7,-2.6875 6.859375,-2.6875 h -2.78125 v -2.796875 c 0,-0.140625 0,-0.328125 -0.203125,-0.328125 -0.203125,0 -0.203125,0.1875 -0.203125,0.328125 V -2.6875 h -2.78125 c -0.140625,0 -0.328125,0 -0.328125,0.1875 0,0.203125 0.1875,0.203125 0.328125,0.203125 h 2.78125 V 0.5 c 0,0.140625 0,0.328125 0.203125,0.328125 0.203125,0 0.203125,-0.1875 0.203125,-0.328125 z m 0,0"
           id="path7394" />
      </symbol>
    </g>
    <g
       id="g2961">
      <symbol
         overflow="visible"
         id="symbol9977">
        <path
           style="stroke:none"
           d=""
           id="path9428" />
      </symbol>
      <symbol
         overflow="visible"
         id="symbol6733">
        <path
           style="stroke:none"
           d="M 5.078125,-4.03125 C 5.0625,-4.0625 5.03125,-4.140625 5.03125,-4.171875 c 0,0 0.171875,-0.140625 0.28125,-0.21875 l 1.75,-1.34375 C 8,-6.4375 8.390625,-6.46875 8.6875,-6.5 8.765625,-6.515625 8.859375,-6.515625 8.859375,-6.703125 8.859375,-6.734375 8.828125,-6.8125 8.75,-6.8125 c -0.21875,0 -0.46875,0.03125 -0.703125,0.03125 -0.359375,0 -0.75,-0.03125 -1.109375,-0.03125 -0.0625,0 -0.1875,0 -0.1875,0.203125 0,0.0625 0.046875,0.09375 0.125,0.109375 0.21875,0.015625 0.296875,0.0625 0.296875,0.203125 0,0.1875 -0.296875,0.421875 -0.359375,0.46875 L 2.9375,-2.84375 3.734375,-6.046875 C 3.8125,-6.40625 3.84375,-6.5 4.5625,-6.5 c 0.25,0 0.34375,0 0.34375,-0.203125 0,-0.078125 -0.078125,-0.109375 -0.140625,-0.109375 -0.28125,0 -1,0.03125 -1.28125,0.03125 C 3.203125,-6.78125 2.5,-6.8125 2.203125,-6.8125 2.140625,-6.8125 2,-6.8125 2,-6.625 2,-6.5 2.09375,-6.5 2.296875,-6.5 c 0.125,0 0.3125,0.015625 0.421875,0.015625 0.15625,0.03125 0.21875,0.046875 0.21875,0.171875 0,0.03125 0,0.0625 -0.03125,0.1875 L 1.5625,-0.78125 c -0.09375,0.390625 -0.109375,0.46875 -0.90625,0.46875 -0.171875,0 -0.28125,0 -0.28125,0.1875 C 0.375,0 0.5,0 0.53125,0 0.8125,0 1.515625,-0.03125 1.796875,-0.03125 2,-0.03125 2.21875,-0.015625 2.4375,-0.015625 2.65625,-0.015625 2.875,0 3.078125,0 3.15625,0 3.28125,0 3.28125,-0.203125 3.28125,-0.3125 3.1875,-0.3125 3,-0.3125 c -0.375,0 -0.640625,0 -0.640625,-0.171875 0,-0.078125 0.046875,-0.296875 0.078125,-0.4375 C 2.578125,-1.453125 2.71875,-1.96875 2.84375,-2.5 l 1.484375,-1.15625 1.15625,2.6875 c 0.125,0.265625 0.125,0.296875 0.125,0.34375 0,0.3125 -0.4375,0.3125 -0.53125,0.3125 -0.109375,0 -0.21875,0 -0.21875,0.203125 C 4.859375,0 4.984375,0 5,0 5.40625,0 5.828125,-0.03125 6.21875,-0.03125 6.4375,-0.03125 6.984375,0 7.203125,0 7.25,0 7.375,0 7.375,-0.203125 7.375,-0.3125 7.265625,-0.3125 7.171875,-0.3125 c -0.40625,0 -0.53125,-0.09375 -0.6875,-0.4375 z m 0,0"
           id="path8756" />
      </symbol>
    </g>
    <g
       id="g2784">
      <symbol
         overflow="visible"
         id="symbol6760">
        <path
           style="stroke:none"
           d=""
           id="path6017" />
      </symbol>
      <symbol
         overflow="visible"
         id="symbol9718">
        <path
           style="stroke:none"
           d="M 4.359375,-0.0625 C 5.90625,-0.640625 7.375,-2.421875 7.375,-4.34375 c 0,-1.609375 -1.0625,-2.6875 -2.546875,-2.6875 -2.140625,0 -4.34375,2.265625 -4.34375,4.59375 0,1.65625 1.125,2.65625 2.5625,2.65625 0.25,0 0.578125,-0.046875 0.96875,-0.15625 -0.03125,0.625 -0.03125,0.640625 -0.03125,0.78125 0,0.3125 0,1.09375 0.828125,1.09375 1.171875,0 1.65625,-1.828125 1.65625,-1.9375 0,-0.0625 -0.0625,-0.09375 -0.109375,-0.09375 -0.078125,0 -0.09375,0.046875 -0.125,0.109375 C 6,0.71875 5.421875,0.96875 5.078125,0.96875 c -0.46875,0 -0.609375,-0.265625 -0.71875,-1.03125 z m -1.875,-0.078125 c -0.78125,-0.3125 -1.125,-1.078125 -1.125,-1.984375 0,-0.6875 0.265625,-2.109375 1.015625,-3.171875 C 3.109375,-6.3125 4.046875,-6.78125 4.78125,-6.78125 5.765625,-6.78125 6.5,-6 6.5,-4.671875 c 0,1 -0.515625,3.34375 -2.1875,4.265625 -0.046875,-0.34375 -0.140625,-1.0625 -0.875,-1.0625 -0.53125,0 -1.015625,0.484375 -1.015625,1.015625 0,0.1875 0.0625,0.296875 0.0625,0.3125 z M 3.09375,-0.03125 c -0.140625,0 -0.453125,0 -0.453125,-0.421875 0,-0.40625 0.375,-0.796875 0.796875,-0.796875 0.421875,0 0.609375,0.234375 0.609375,0.84375 0,0.140625 -0.015625,0.15625 -0.109375,0.203125 C 3.671875,-0.09375 3.375,-0.03125 3.09375,-0.03125 Z m 0,0"
           id="path5572" />
      </symbol>
    </g>
  </defs>
  <g
     inkscape:label="Layer 1"
     inkscape:groupmode="layer"
     id="layer1"
     transform="translate(83.725481,-31.154864)">
    <circle
       style="fill:none;stroke:#505050;stroke-width:2;stroke-miterlimit:4;stroke-dasharray:12,4;stroke-opacity:1;stroke-dashoffset:0"
       id="path22081"
       cx="-9.4903564"
       cy="94.445168"
       r="50"
       transform="rotate(8.1094703)" />
    <circle
       style="fill:none;stroke:#505050;stroke-width:2;stroke-miterlimit:4;stroke-dasharray:none;stroke-opacity:1"
       id="path22081-5"
       cx="-9.4903564"
       cy="94.445168"
       r="60"
       transform="rotate(8.1094703)" />
    <circle
       style="fill:none;stroke:#505050;stroke-width:2;stroke-miterlimit:4;stroke-dasharray:none;stroke-opacity:1"
       id="path22081-5-3"
       cx="-9.4903564"
       cy="94.445168"
       r="40"
       transform="rotate(8.1094703)" />
    <circle
       style="fill:none;stroke:#505050;stroke-width:2;stroke-miterlimit:4;stroke-dasharray:12,4;stroke-opacity:1;stroke-dashoffset:0"
       id="path22081-2"
       cx="73.059647"
       cy="83.861839"
       r="50"
       transform="rotate(8.1094703)" />
    <circle
       style="fill:none;stroke:#505050;stroke-width:2;stroke-miterlimit:4;stroke-dasharray:none;stroke-opacity:1"
       id="path22081-5-9"
       cx="73.059647"
       cy="83.861839"
       r="60"
       transform="rotate(8.1094703)" />
    <path
       style="fill:none;stroke:#d04000;stroke-width:2;stroke-linecap:butt;stroke-linejoin:miter;stroke-miterlimit:4;stroke-dasharray:none;stroke-opacity:1;marker-end:url(#marker20563)"
       d="M -22.746675,92.17758 C 15.325407,54.162082 15.325407,54.162082 15.325407,54.162082"
       id="path22546" />
    <circle
       style="fill:none;stroke:#505050;stroke-width:2;stroke-miterlimit:4;stroke-dasharray:none;stroke-opacity:1"
       id="path22081-5-3-1"
       cx="73.059647"
       cy="83.861839"
       r="40"
       transform="rotate(8.1094703)" />
    <path
       style="fill:none;stroke:#0070ff;stroke-width:2;stroke-linecap:butt;stroke-linejoin:miter;stroke-miterlimit:4;stroke-dasharray:none;stroke-opacity:1;marker-end:url(#marker20691)"
       d="M 60.499117,93.329393 22.817982,54.680639"
       id="path22546-2"
       sodipodi:nodetypes="cc" />
    <path
       style="fill:none;stroke:#00a000;stroke-width:2;stroke-linecap:butt;stroke-linejoin:miter;stroke-miterlimit:4;stroke-dasharray:none;stroke-opacity:1;marker-start:url(#RoundedArrow)"
       d="M -16.733822,92.177579 C 60.499114,93.3294 60.499114,93.3294 60.499114,93.3294"
       id="path24486" />
    <g
       transform="matrix(1.41111,0,0,1.41111,-17.3177,60.837167)"
       ns3:version="1.8.1"
       ns3:texconverter="xelatex"
       ns3:pdfconverter="inkscape"
       ns3:text="$\\vec K$"
       ns3:preamble="/home/kirito/.config/textext/beamer_preamble.tex"
       ns3:scale="4.0"
       ns3:alignment="middle center"
       ns3:stroke-to-path="0"
       ns3:inkscapeversion="1.2.1"
       ns3:jacobian_sqrt="1.41111"
       id="g22799">
      <defs
         id="id-eb80ea9f-417d-4d68-8686-dfe8d86fa1ac">
        <g
           id="id-3f0310b2-2f1b-4997-a81a-14a814640c79">
          <g
             id="id-fa0e6e23-0c96-464e-8abc-39562408d777">
            <path
               d="m 5.4375,-6.4375 v 5.890625 H 1.34375 V -6.4375 Z m 0.546875,-0.546875 h -5.1875 V 0 h 5.1875 z m -2.75,4.953125 c -0.21875,0 -0.40625,0.1875 -0.40625,0.421875 0,0.21875 0.1875,0.40625 0.40625,0.40625 0.25,0 0.421875,-0.1875 0.421875,-0.40625 0,-0.234375 -0.171875,-0.421875 -0.421875,-0.421875 z M 3.4375,-5.453125 c -0.5,0 -0.90625,0.1875 -1.25,0.59375 l 0.390625,0.28125 C 2.828125,-4.875 3.09375,-5 3.40625,-5 3.765625,-5 4,-4.8125 4,-4.484375 4,-3.84375 2.953125,-3.953125 2.953125,-2.9375 v 0.296875 H 3.5 V -2.90625 c 0,-0.796875 1.078125,-0.65625 1.078125,-1.625 0,-0.46875 -0.375,-0.921875 -1.140625,-0.921875 z m 0,0"
               id="id-3f6ed407-d964-439b-a597-6fa57987c92f" />
          </g>
          <g
             id="id-3c5e1cb0-5a1f-4180-b806-822c258dcfd0">
            <path
               d="m -1.421875,-8.203125 -0.375,0.34375 0.5,0.546875 h -2.59375 v 0.609375 h 2.59375 l -0.5,0.546875 0.375,0.34375 1.125,-1.1875 z m 0,0"
               id="id-851b1b32-8680-4d48-b0a1-ef41d26d1238" />
          </g>
          <g
             id="id-4aae2a15-fff2-4d54-a38c-401dba709786">
            <path
               d="M 4.328125,0 H 5.4375 L 3.1875,-3.640625 6.234375,-6.875 H 5.140625 L 2.125,-3.671875 Z M 0.625,0 H 1.5625 L 2.53125,-6.875 H 1.578125 Z m 0,0"
               id="id-327e2944-e6f3-4d8b-bd6c-a023e09bb8c3" />
          </g>
        </g>
      </defs>
      <g
         fill="#000000"
         fill-opacity="1"
         id="id-60c0dc6a-61fa-4c3c-9d98-a0aa9e3f77a8"
         transform="translate(-149.337,-124.948)">
        <g
           transform="translate(154.63,133.151)"
           id="g23848">
          <path
             d="m -1.421875,-8.203125 -0.375,0.34375 0.5,0.546875 h -2.59375 v 0.609375 h 2.59375 l -0.5,0.546875 0.375,0.34375 1.125,-1.1875 z m 0,0"
             id="id-9fd7831f-8a1f-46ea-ba83-11ca634b7d17" />
        </g>
      </g>
      <g
         fill="#000000"
         fill-opacity="1"
         id="id-a5abbb80-35ca-488b-b0e4-80edce0195d6"
         transform="translate(-149.337,-124.948)">
        <g
           transform="translate(148.712,134.765)"
           id="g23852">
          <path
             d="M 4.328125,0 H 5.4375 L 3.1875,-3.640625 6.234375,-6.875 H 5.140625 L 2.125,-3.671875 Z M 0.625,0 H 1.5625 L 2.53125,-6.875 H 1.578125 Z m 0,0"
             id="id-08979938-004c-4f55-9dd7-b80e35e613f0" />
        </g>
      </g>
    </g>
    <g
       transform="matrix(1.41111,0,0,1.41111,40.020134,60.024767)"
       ns3:version="1.8.1"
       ns3:texconverter="xelatex"
       ns3:pdfconverter="inkscape"
       ns3:text="$\\vec K + \\vec Q$"
       ns3:preamble="/home/kirito/.config/textext/beamer_preamble.tex"
       ns3:scale="4.0"
       ns3:alignment="middle center"
       ns3:stroke-to-path="0"
       ns3:inkscapeversion="1.2.1"
       ns3:jacobian_sqrt="1.41111"
       id="g23943">
      <defs
         id="id-1b92cded-761d-4a57-90c1-80fb49db64e7">
        <g
           id="id-f5d97f36-e70d-4308-a104-7500ea5326b1">
          <g
             id="id-1ce55eaf-4f22-47cf-a270-c14b305c43a7">
            <path
               d="m 5.4375,-6.4375 v 5.890625 H 1.34375 V -6.4375 Z m 0.546875,-0.546875 h -5.1875 V 0 h 5.1875 z m -2.75,4.953125 c -0.21875,0 -0.40625,0.1875 -0.40625,0.421875 0,0.21875 0.1875,0.40625 0.40625,0.40625 0.25,0 0.421875,-0.1875 0.421875,-0.40625 0,-0.234375 -0.171875,-0.421875 -0.421875,-0.421875 z M 3.4375,-5.453125 c -0.5,0 -0.90625,0.1875 -1.25,0.59375 l 0.390625,0.28125 C 2.828125,-4.875 3.09375,-5 3.40625,-5 3.765625,-5 4,-4.8125 4,-4.484375 4,-3.84375 2.953125,-3.953125 2.953125,-2.9375 v 0.296875 H 3.5 V -2.90625 c 0,-0.796875 1.078125,-0.65625 1.078125,-1.625 0,-0.46875 -0.375,-0.921875 -1.140625,-0.921875 z m 0,0"
               id="id-5bc9c228-63df-4288-99ea-26e4daa47921" />
          </g>
          <g
             id="id-b29ff94a-7b68-4bf4-96f5-79f6549c5fa8">
            <path
               d="m -1.421875,-8.203125 -0.375,0.34375 0.5,0.546875 h -2.59375 v 0.609375 h 2.59375 l -0.5,0.546875 0.375,0.34375 1.125,-1.1875 z m 0,0"
               id="id-7f75b5b8-fd96-4cf7-8e62-c47a7ee91401" />
          </g>
          <g
             id="id-f5c888cc-547b-4943-b79a-dfbb9fba78c5">
            <path
               d="M 4.328125,0 H 5.4375 L 3.1875,-3.640625 6.234375,-6.875 H 5.140625 L 2.125,-3.671875 Z M 0.625,0 H 1.5625 L 2.53125,-6.875 H 1.578125 Z m 0,0"
               id="id-c681d8f4-dcf9-48af-9fc9-d32571b0ccb4" />
          </g>
          <g
             id="id-1ef5bb1b-d36c-4411-b8ef-565b2001ff2b">
            <path
               d="M 2.90625,-4.671875 H 2.078125 v 1.5 H 0.625 v 0.765625 h 1.453125 v 1.484375 H 2.90625 V -2.40625 H 4.359375 V -3.171875 H 2.90625 Z m 0,0"
               id="id-9f7a0342-bbbf-4813-aaa6-546b286ea157" />
          </g>
          <g
             id="id-9370a912-77b9-4967-a62b-3bca3708cc46">
            <path
               d="m 1.578125,-2.546875 c 0,-1.46875 0.53125,-3.65625 2.390625,-3.65625 0.953125,0 1.515625,0.5625 1.515625,1.84375 0,1.484375 -0.5,3.703125 -2.390625,3.703125 -0.90625,0 -1.515625,-0.546875 -1.515625,-1.890625 z m 4.875,-1.65625 C 6.453125,-6.015625 5.5,-6.984375 4,-6.984375 c -2.53125,0 -3.390625,2.59375 -3.390625,4.34375 0,1.796875 0.96875,2.765625 2.46875,2.765625 1.234375,0 1.75,0.203125 2.421875,0.90625 L 6.203125,0.265625 C 5.765625,-0.0625 5.25,-0.34375 4.5,-0.375 5.953125,-1 6.453125,-2.796875 6.453125,-4.203125 Z m 0,0"
               id="id-ba4a737a-fa07-485f-9777-b4351a2528e9" />
          </g>
        </g>
      </defs>
      <g
         fill="#000000"
         fill-opacity="1"
         id="id-9680e531-4760-424f-99f5-b47ab34ebbd1"
         transform="translate(-149.337,-124.828)">
        <g
           transform="translate(154.63,133.151)"
           id="g24115">
          <path
             d="m -1.421875,-8.203125 -0.375,0.34375 0.5,0.546875 h -2.59375 v 0.609375 h 2.59375 l -0.5,0.546875 0.375,0.34375 1.125,-1.1875 z m 0,0"
             id="id-5d030dba-737a-49c4-9fbd-6ccc7f669e26" />
        </g>
      </g>
      <g
         fill="#000000"
         fill-opacity="1"
         id="id-66f881bc-5a08-4ac1-86b2-5254abe847b5"
         transform="translate(-149.337,-124.828)">
        <g
           transform="translate(148.712,134.765)"
           id="g24119">
          <path
             d="M 4.328125,0 H 5.4375 L 3.1875,-3.640625 6.234375,-6.875 H 5.140625 L 2.125,-3.671875 Z M 0.625,0 H 1.5625 L 2.53125,-6.875 H 1.578125 Z m 0,0"
             id="id-be14a88d-9864-4c1f-9e39-7db6918d6ce4" />
        </g>
      </g>
      <g
         fill="#000000"
         fill-opacity="1"
         id="id-d901050d-44e5-4c68-957e-152a52473698"
         transform="translate(-149.337,-124.828)">
        <g
           transform="translate(157.529,134.765)"
           id="g24123">
          <path
             d="M 2.90625,-4.671875 H 2.078125 v 1.5 H 0.625 v 0.765625 h 1.453125 v 1.484375 H 2.90625 V -2.40625 H 4.359375 V -3.171875 H 2.90625 Z m 0,0"
             id="id-364ddab6-d369-4706-8ffb-c97ff01a4170" />
        </g>
      </g>
      <g
         fill="#000000"
         fill-opacity="1"
         id="id-733adebc-b633-4d9e-bdbb-c974cc8c8f97"
         transform="translate(-149.337,-124.828)">
        <g
           transform="translate(170.974,133.031)"
           id="g24127">
          <path
             d="m -1.421875,-8.203125 -0.375,0.34375 0.5,0.546875 h -2.59375 v 0.609375 h 2.59375 l -0.5,0.546875 0.375,0.34375 1.125,-1.1875 z m 0,0"
             id="id-84cafea0-7634-4860-bd43-e69e370a5796" />
        </g>
      </g>
      <g
         fill="#000000"
         fill-opacity="1"
         id="id-48f21b28-df7d-4a61-8f20-fb0e40621fa1"
         transform="translate(-149.337,-124.828)">
        <g
           transform="translate(164.727,134.765)"
           id="g24131">
          <path
             d="m 1.578125,-2.546875 c 0,-1.46875 0.53125,-3.65625 2.390625,-3.65625 0.953125,0 1.515625,0.5625 1.515625,1.84375 0,1.484375 -0.5,3.703125 -2.390625,3.703125 -0.90625,0 -1.515625,-0.546875 -1.515625,-1.890625 z m 4.875,-1.65625 C 6.453125,-6.015625 5.5,-6.984375 4,-6.984375 c -2.53125,0 -3.390625,2.59375 -3.390625,4.34375 0,1.796875 0.96875,2.765625 2.46875,2.765625 1.234375,0 1.75,0.203125 2.421875,0.90625 L 6.203125,0.265625 C 5.765625,-0.0625 5.25,-0.34375 4.5,-0.375 5.953125,-1 6.453125,-2.796875 6.453125,-4.203125 Z m 0,0"
             id="id-8326f835-9094-4c66-8e73-73a8740e696f" />
        </g>
      </g>
    </g>
    <g
       transform="matrix(1.41111,0,0,1.41111,43.977327,96.389077)"
       ns3:version="1.8.1"
       ns3:texconverter="xelatex"
       ns3:pdfconverter="inkscape"
       ns3:text="$\\vec Q$"
       ns3:preamble="/home/kirito/.config/textext/beamer_preamble.tex"
       ns3:scale="4.0"
       ns3:alignment="middle center"
       ns3:stroke-to-path="0"
       ns3:inkscapeversion="1.2.1"
       ns3:jacobian_sqrt="1.41111"
       id="g24235">
      <defs
         id="id-b2d55413-e4da-45b3-9d61-011ba2b4b934">
        <g
           id="id-b4a765a9-d456-4357-816e-ff6ee6a97633">
          <g
             id="id-0041413f-d81d-4c2c-9745-3225bd9c4b0f">
            <path
               d="m 5.4375,-6.4375 v 5.890625 H 1.34375 V -6.4375 Z m 0.546875,-0.546875 h -5.1875 V 0 h 5.1875 z m -2.75,4.953125 c -0.21875,0 -0.40625,0.1875 -0.40625,0.421875 0,0.21875 0.1875,0.40625 0.40625,0.40625 0.25,0 0.421875,-0.1875 0.421875,-0.40625 0,-0.234375 -0.171875,-0.421875 -0.421875,-0.421875 z M 3.4375,-5.453125 c -0.5,0 -0.90625,0.1875 -1.25,0.59375 l 0.390625,0.28125 C 2.828125,-4.875 3.09375,-5 3.40625,-5 3.765625,-5 4,-4.8125 4,-4.484375 4,-3.84375 2.953125,-3.953125 2.953125,-2.9375 v 0.296875 H 3.5 V -2.90625 c 0,-0.796875 1.078125,-0.65625 1.078125,-1.625 0,-0.46875 -0.375,-0.921875 -1.140625,-0.921875 z m 0,0"
               id="id-981e3879-ae26-4b29-a391-1b0d054c7339" />
          </g>
          <g
             id="id-f9cfd4ff-5c11-4838-adb6-5bab0a6da089">
            <path
               d="m -1.421875,-8.203125 -0.375,0.34375 0.5,0.546875 h -2.59375 v 0.609375 h 2.59375 l -0.5,0.546875 0.375,0.34375 1.125,-1.1875 z m 0,0"
               id="id-214bc27b-cfaf-4869-9d15-63d430d3b7cd" />
          </g>
          <g
             id="id-dc21e56b-5eee-4741-a121-234b6ba54934">
            <path
               d="m 1.578125,-2.546875 c 0,-1.46875 0.53125,-3.65625 2.390625,-3.65625 0.953125,0 1.515625,0.5625 1.515625,1.84375 0,1.484375 -0.5,3.703125 -2.390625,3.703125 -0.90625,0 -1.515625,-0.546875 -1.515625,-1.890625 z m 4.875,-1.65625 C 6.453125,-6.015625 5.5,-6.984375 4,-6.984375 c -2.53125,0 -3.390625,2.59375 -3.390625,4.34375 0,1.796875 0.96875,2.765625 2.46875,2.765625 1.234375,0 1.75,0.203125 2.421875,0.90625 L 6.203125,0.265625 C 5.765625,-0.0625 5.25,-0.34375 4.5,-0.375 5.953125,-1 6.453125,-2.796875 6.453125,-4.203125 Z m 0,0"
               id="id-14e75503-0180-4bc7-a427-8033e9c4db65" />
          </g>
        </g>
      </defs>
      <g
         fill="#000000"
         fill-opacity="1"
         id="id-e0cdfa75-7f08-4507-9f48-a0ef318bb0c2"
         transform="translate(-149.321,-124.828)">
        <g
           transform="translate(154.959,133.031)"
           id="g24451">
          <path
             d="m -1.421875,-8.203125 -0.375,0.34375 0.5,0.546875 h -2.59375 v 0.609375 h 2.59375 l -0.5,0.546875 0.375,0.34375 1.125,-1.1875 z m 0,0"
             id="id-d5240ce0-3a3c-42e7-9818-639be757a259" />
        </g>
      </g>
      <g
         fill="#000000"
         fill-opacity="1"
         id="id-111d58e8-35b5-4b69-886d-50eb5d753b45"
         transform="translate(-149.321,-124.828)">
        <g
           transform="translate(148.712,134.765)"
           id="g24455">
          <path
             d="m 1.578125,-2.546875 c 0,-1.46875 0.53125,-3.65625 2.390625,-3.65625 0.953125,0 1.515625,0.5625 1.515625,1.84375 0,1.484375 -0.5,3.703125 -2.390625,3.703125 -0.90625,0 -1.515625,-0.546875 -1.515625,-1.890625 z m 4.875,-1.65625 C 6.453125,-6.015625 5.5,-6.984375 4,-6.984375 c -2.53125,0 -3.390625,2.59375 -3.390625,4.34375 0,1.796875 0.96875,2.765625 2.46875,2.765625 1.234375,0 1.75,0.203125 2.421875,0.90625 L 6.203125,0.265625 C 5.765625,-0.0625 5.25,-0.34375 4.5,-0.375 5.953125,-1 6.453125,-2.796875 6.453125,-4.203125 Z m 0,0"
             id="id-77f6430a-814d-4aeb-9f8b-e2a53f0d55b5" />
        </g>
      </g>
    </g>
  </g>
</svg>
