<?xml version="1.0" encoding="UTF-8" standalone="no"?>
<svg
   xmlns:dc="http://purl.org/dc/elements/1.1/"
   xmlns:cc="http://creativecommons.org/ns#"
   xmlns:rdf="http://www.w3.org/1999/02/22-rdf-syntax-ns#"
   xmlns:svg="http://www.w3.org/2000/svg"
   xmlns="http://www.w3.org/2000/svg"
   xmlns:xlink="http://www.w3.org/1999/xlink"
   xmlns:sodipodi="http://sodipodi.sourceforge.net/DTD/sodipodi-0.dtd"
   xmlns:inkscape="http://www.inkscape.org/namespaces/inkscape"
   width="255.84077mm"
   height="255.84077mm"
   viewBox="0 0 255.84078 255.84077"
   version="1.1"
   id="svg8"
   sodipodi:docname="term5.svg"
   inkscape:version="1.0.1 (3bc2e813f5, 2020-09-07)">
  <defs
     id="defs2">
    <marker
       style="overflow:visible"
       id="marker2444"
       refX="0"
       refY="0"
       orient="auto"
       inkscape:stockid="EmptyTriangleOutL"
       inkscape:isstock="true">
      <path
         transform="matrix(0.8,0,0,0.8,-4.8,0)"
         style="fill:#ffffff;fill-rule:evenodd;stroke:#000000;stroke-width:1pt;stroke-opacity:1"
         d="M 5.77,0 -2.88,5 V -5 Z"
         id="path2442" />
    </marker>
    <inkscape:path-effect
       effect="spiro"
       id="path-effect2440"
       is_visible="true"
       lpeversion="1" />
    <marker
       style="overflow:visible"
       id="EmptyTriangleOutL"
       refX="0"
       refY="0"
       orient="auto"
       inkscape:stockid="EmptyTriangleOutL"
       inkscape:isstock="true"
       inkscape:collect="always">
      <path
         transform="matrix(0.8,0,0,0.8,-4.8,0)"
         style="fill:#ffffff;fill-rule:evenodd;stroke:#000000;stroke-width:1pt;stroke-opacity:1"
         d="M 5.77,0 -2.88,5 V -5 Z"
         id="path997" />
    </marker>
    <marker
       style="overflow:visible"
       id="EmptyTriangleOutL-3"
       refX="0"
       refY="0"
       orient="auto"
       inkscape:stockid="EmptyTriangleOutL"
       inkscape:isstock="true">
      <path
         transform="matrix(0.8,0,0,0.8,-4.8,0)"
         style="fill:#ffffff;fill-rule:evenodd;stroke:#000000;stroke-width:1pt;stroke-opacity:1"
         d="M 5.77,0 -2.88,5 V -5 Z"
         id="path997-6" />
    </marker>
    <marker
       style="overflow:visible"
       id="EmptyTriangleOutL-5"
       refX="0"
       refY="0"
       orient="auto"
       inkscape:stockid="EmptyTriangleOutL"
       inkscape:isstock="true">
      <path
         transform="matrix(0.8,0,0,0.8,-4.8,0)"
         style="fill:#ffffff;fill-rule:evenodd;stroke:#000000;stroke-width:1pt;stroke-opacity:1"
         d="M 5.77,0 -2.88,5 V -5 Z"
         id="path997-3" />
    </marker>
    <g
       id="g8670">
      <symbol
         overflow="visible"
         id="symbol1253">
        <path
           style="stroke:none"
           d=""
           id="path7717" />
      </symbol>
      <symbol
         overflow="visible"
         id="symbol1401">
        <path
           style="stroke:none"
           d="M 4.828125,-4.203125 7.234375,-6.1875 c 0.21875,-0.1875 0.625,-0.1875 0.9375,-0.1875 h 0.15625 V -6.84375 C 7.9375,-6.8125 7.359375,-6.8125 7.3125,-6.8125 c -0.375,0 -1.09375,0 -1.453125,-0.03125 V -6.375 c 0.125,0 0.328125,0 0.578125,0.0625 0.15625,0.03125 0.046875,0.015625 0.125,0.046875 L 2.875,-3.1875 V -6.375 h 1.078125 v -0.46875 c -0.375,0.03125 -1.34375,0.03125 -1.78125,0.03125 -0.421875,0 -1.40625,0 -1.78125,-0.03125 V -6.375 H 1.46875 v 5.90625 H 0.390625 V 0 c 0.375,-0.03125 1.359375,-0.03125 1.78125,-0.03125 0.4375,0 1.40625,0 1.78125,0.03125 V -0.46875 H 2.875 V -2.5625 l 1,-0.828125 2.0625,2.703125 C 5.984375,-0.625 5.984375,-0.609375 6.015625,-0.546875 5.828125,-0.46875 5.625,-0.46875 5.28125,-0.46875 V 0 c 0.40625,-0.03125 1.3125,-0.03125 1.75,-0.03125 0.40625,0 1.09375,0 1.46875,0.03125 V -0.46875 H 8.203125 c -0.53125,0 -0.5625,-0.046875 -0.671875,-0.203125 z m 0,0"
           id="path4678" />
      </symbol>
    </g>
    <g
       id="g8799">
      <symbol
         overflow="visible"
         id="symbol4531">
        <path
           style="stroke:none"
           d=""
           id="path1667" />
      </symbol>
      <symbol
         overflow="visible"
         id="symbol4478">
        <path
           style="stroke:none"
           d="m 5.90625,-0.171875 c 1.625,-0.640625 2.0625,-2.125 2.0625,-3.203125 0,-2.15625 -1.453125,-3.578125 -3.65625,-3.578125 -2.28125,0 -3.671875,1.484375 -3.671875,3.578125 0,2.03125 1.359375,3.484375 3.671875,3.484375 0.21875,0 0.546875,-0.015625 0.9375,-0.09375 0.28125,1.125 0.484375,1.921875 1.40625,1.921875 1.015625,0 1.375,-1.1875 1.375,-1.859375 0,-0.078125 0,-0.25 -0.1875,-0.25 -0.140625,0 -0.171875,0.125 -0.171875,0.1875 -0.0625,0.390625 -0.6875,0.390625 -0.859375,0.390625 -0.21875,0 -0.515625,0 -0.90625,-0.578125 z m -2.546875,-0.34375 c -1.21875,-0.578125 -1.25,-2.09375 -1.25,-2.875 0,-0.390625 0,-1.34375 0.359375,-2.046875 0.515625,-0.96875 1.375,-1.109375 1.828125,-1.109375 0.53125,0 1.3125,0.203125 1.796875,1.046875 0.375,0.671875 0.40625,1.515625 0.40625,2.109375 0,0.5625 0,2.046875 -0.953125,2.703125 -0.21875,-0.328125 -0.578125,-0.859375 -1.25,-0.859375 -0.515625,0 -0.96875,0.34375 -0.96875,0.8125 0,0.0625 0.015625,0.171875 0.03125,0.21875 z m 1.765625,0.0625 c -0.25,0.109375 -0.546875,0.15625 -0.8125,0.15625 -0.546875,0 -0.625,-0.3125 -0.625,-0.4375 C 3.6875,-1 3.984375,-1.1875 4.3125,-1.1875 c 0.265625,0 0.609375,0.109375 0.8125,0.734375 z m 0,0"
           id="path6449" />
      </symbol>
    </g>
    <g
       id="g5236">
      <symbol
         overflow="visible"
         id="symbol4530">
        <path
           style="stroke:none"
           d=""
           id="path2804" />
      </symbol>
      <symbol
         overflow="visible"
         id="symbol8289">
        <path
           style="stroke:none"
           d="M 4.828125,-4.203125 7.234375,-6.1875 c 0.21875,-0.1875 0.625,-0.1875 0.9375,-0.1875 h 0.15625 V -6.84375 C 7.9375,-6.8125 7.359375,-6.8125 7.3125,-6.8125 c -0.375,0 -1.09375,0 -1.453125,-0.03125 V -6.375 c 0.125,0 0.328125,0 0.578125,0.0625 0.15625,0.03125 0.046875,0.015625 0.125,0.046875 L 2.875,-3.1875 V -6.375 h 1.078125 v -0.46875 c -0.375,0.03125 -1.34375,0.03125 -1.78125,0.03125 -0.421875,0 -1.40625,0 -1.78125,-0.03125 V -6.375 H 1.46875 v 5.90625 H 0.390625 V 0 c 0.375,-0.03125 1.359375,-0.03125 1.78125,-0.03125 0.4375,0 1.40625,0 1.78125,0.03125 V -0.46875 H 2.875 V -2.5625 l 1,-0.828125 2.0625,2.703125 C 5.984375,-0.625 5.984375,-0.609375 6.015625,-0.546875 5.828125,-0.46875 5.625,-0.46875 5.28125,-0.46875 V 0 c 0.40625,-0.03125 1.3125,-0.03125 1.75,-0.03125 0.40625,0 1.09375,0 1.46875,0.03125 V -0.46875 H 8.203125 c -0.53125,0 -0.5625,-0.046875 -0.671875,-0.203125 z m 0,0"
           id="path2909" />
      </symbol>
      <symbol
         overflow="visible"
         id="symbol7527">
        <path
           style="stroke:none"
           d="m 5.90625,-0.171875 c 1.625,-0.640625 2.0625,-2.125 2.0625,-3.203125 0,-2.15625 -1.453125,-3.578125 -3.65625,-3.578125 -2.28125,0 -3.671875,1.484375 -3.671875,3.578125 0,2.03125 1.359375,3.484375 3.671875,3.484375 0.21875,0 0.546875,-0.015625 0.9375,-0.09375 0.28125,1.125 0.484375,1.921875 1.40625,1.921875 1.015625,0 1.375,-1.1875 1.375,-1.859375 0,-0.078125 0,-0.25 -0.1875,-0.25 -0.140625,0 -0.171875,0.125 -0.171875,0.1875 -0.0625,0.390625 -0.6875,0.390625 -0.859375,0.390625 -0.21875,0 -0.515625,0 -0.90625,-0.578125 z m -2.546875,-0.34375 c -1.21875,-0.578125 -1.25,-2.09375 -1.25,-2.875 0,-0.390625 0,-1.34375 0.359375,-2.046875 0.515625,-0.96875 1.375,-1.109375 1.828125,-1.109375 0.53125,0 1.3125,0.203125 1.796875,1.046875 0.375,0.671875 0.40625,1.515625 0.40625,2.109375 0,0.5625 0,2.046875 -0.953125,2.703125 -0.21875,-0.328125 -0.578125,-0.859375 -1.25,-0.859375 -0.515625,0 -0.96875,0.34375 -0.96875,0.8125 0,0.0625 0.015625,0.171875 0.03125,0.21875 z m 1.765625,0.0625 c -0.25,0.109375 -0.546875,0.15625 -0.8125,0.15625 -0.546875,0 -0.625,-0.3125 -0.625,-0.4375 C 3.6875,-1 3.984375,-1.1875 4.3125,-1.1875 c 0.265625,0 0.609375,0.109375 0.8125,0.734375 z m 0,0"
           id="path6241" />
      </symbol>
      <symbol
         overflow="visible"
         id="symbol4597">
        <path
           style="stroke:none"
           d=""
           id="path3753" />
      </symbol>
      <symbol
         overflow="visible"
         id="symbol3886">
        <path
           style="stroke:none"
           d="m 4.078125,-2.296875 h 2.78125 C 7,-2.296875 7.1875,-2.296875 7.1875,-2.5 7.1875,-2.6875 7,-2.6875 6.859375,-2.6875 h -2.78125 v -2.796875 c 0,-0.140625 0,-0.328125 -0.203125,-0.328125 -0.203125,0 -0.203125,0.1875 -0.203125,0.328125 V -2.6875 h -2.78125 c -0.140625,0 -0.328125,0 -0.328125,0.1875 0,0.203125 0.1875,0.203125 0.328125,0.203125 h 2.78125 V 0.5 c 0,0.140625 0,0.328125 0.203125,0.328125 0.203125,0 0.203125,-0.1875 0.203125,-0.328125 z m 0,0"
           id="path2560" />
      </symbol>
    </g>
    <g
       id="g5186">
      <symbol
         overflow="visible"
         id="symbol3220">
        <path
           style="stroke:none"
           d=""
           id="path4416" />
      </symbol>
      <symbol
         overflow="visible"
         id="symbol8126">
        <path
           style="stroke:none"
           d="m 2.859375,-6.8125 c 0,0 0,-0.109375 -0.125,-0.109375 -0.234375,0 -0.953125,0.078125 -1.21875,0.109375 -0.078125,0 -0.1875,0.015625 -0.1875,0.1875 0,0.125 0.09375,0.125 0.234375,0.125 0.484375,0 0.5,0.0625 0.5,0.171875 L 2.03125,-6.125 0.59375,-0.390625 c -0.046875,0.140625 -0.046875,0.15625 -0.046875,0.21875 0,0.234375 0.203125,0.28125 0.296875,0.28125 0.125,0 0.265625,-0.09375 0.328125,-0.203125 0.046875,-0.09375 0.5,-1.9375 0.5625,-2.1875 0.34375,0.03125 1.15625,0.1875 1.15625,0.84375 0,0.078125 0,0.109375 -0.03125,0.21875 -0.015625,0.109375 -0.03125,0.234375 -0.03125,0.34375 0,0.578125 0.390625,0.984375 0.90625,0.984375 0.296875,0 0.578125,-0.15625 0.796875,-0.53125 0.25,-0.4375 0.359375,-0.984375 0.359375,-1 0,-0.109375 -0.09375,-0.109375 -0.125,-0.109375 -0.09375,0 -0.109375,0.046875 -0.140625,0.1875 -0.203125,0.71875 -0.421875,1.234375 -0.859375,1.234375 -0.203125,0 -0.328125,-0.109375 -0.328125,-0.46875 0,-0.171875 0.046875,-0.40625 0.078125,-0.5625 C 3.5625,-1.3125 3.5625,-1.34375 3.5625,-1.453125 3.5625,-2.09375 2.9375,-2.375 2.078125,-2.5 2.390625,-2.671875 2.71875,-2.984375 2.9375,-3.234375 3.421875,-3.765625 3.875,-4.1875 4.359375,-4.1875 c 0.0625,0 0.078125,0 0.09375,0.015625 0.125,0.015625 0.125,0.015625 0.21875,0.078125 0.015625,0 0.015625,0.015625 0.03125,0.03125 -0.46875,0.03125 -0.5625,0.421875 -0.5625,0.546875 0,0.15625 0.109375,0.34375 0.375,0.34375 0.265625,0 0.546875,-0.21875 0.546875,-0.609375 0,-0.296875 -0.234375,-0.625 -0.671875,-0.625 -0.28125,0 -0.734375,0.078125 -1.453125,0.875 -0.34375,0.375 -0.734375,0.78125 -1.109375,0.921875 z m 0,0"
           id="path6791" />
      </symbol>
      <symbol
         overflow="visible"
         id="symbol8366">
        <path
           style="stroke:none"
           d=""
           id="path4011" />
      </symbol>
      <symbol
         overflow="visible"
         id="symbol5320">
        <path
           style="stroke:none"
           d="M 2.390625,-2.25 H 3.125 c 0.53125,0 0.625,0.09375 0.625,0.3125 0,0.109375 0,0.125 -0.046875,0.328125 -0.015625,0.03125 -0.03125,0.0625 -0.03125,0.078125 0,0.0625 0.0625,0.109375 0.125,0.109375 0.09375,0 0.09375,-0.046875 0.140625,-0.171875 l 0.375,-1.46875 c 0,-0.03125 0.015625,-0.125 0.015625,-0.140625 0,-0.078125 -0.046875,-0.109375 -0.109375,-0.109375 -0.09375,0 -0.109375,0.046875 -0.140625,0.171875 C 3.9375,-2.59375 3.734375,-2.5 3.140625,-2.5 h -0.6875 l 0.4375,-1.75 c 0.046875,-0.203125 0.0625,-0.234375 0.34375,-0.234375 H 4.3125 c 0.921875,0 1.09375,0.21875 1.09375,0.8125 0,0.21875 -0.03125,0.375 -0.03125,0.421875 0,0.0625 0.03125,0.125 0.125,0.125 0.109375,0 0.109375,-0.0625 0.125,-0.1875 L 5.75,-4.515625 c 0.015625,-0.21875 -0.03125,-0.21875 -0.203125,-0.21875 h -3.71875 c -0.140625,0 -0.21875,0 -0.21875,0.15625 0,0.09375 0.078125,0.09375 0.21875,0.09375 0,0 0.140625,0 0.265625,0.015625 C 2.234375,-4.453125 2.25,-4.4375 2.25,-4.375 c 0,0.046875 -0.015625,0.125 -0.03125,0.15625 L 1.3125,-0.578125 C 1.234375,-0.296875 1.234375,-0.25 0.6875,-0.25 c -0.109375,0 -0.203125,0 -0.203125,0.140625 C 0.484375,-0.03125 0.53125,0 0.59375,0 0.796875,0 1.3125,-0.03125 1.515625,-0.03125 l 0.53125,0.015625 C 2.234375,-0.015625 2.421875,0 2.59375,0 2.640625,0 2.75,0 2.75,-0.15625 2.75,-0.25 2.671875,-0.25 2.515625,-0.25 c -0.015625,0 -0.1875,0 -0.375,-0.015625 C 2,-0.28125 1.9375,-0.28125 1.9375,-0.390625 c 0,-0.015625 0,-0.046875 0.015625,-0.125 z m 0,0"
           id="path1357" />
      </symbol>
    </g>
    <g
       id="g4108">
      <symbol
         overflow="visible"
         id="symbol3653">
        <path
           style="stroke:none"
           d=""
           id="path2034" />
      </symbol>
      <symbol
         overflow="visible"
         id="symbol7750">
        <path
           style="stroke:none"
           d="M 3.6875,-6.921875 C 3.625,-7.125 3.5625,-7.140625 3.453125,-7.140625 c -0.15625,0 -0.171875,0.046875 -0.21875,0.21875 L 1.3125,-1 c -0.09375,0.296875 -0.296875,0.6875 -1,0.6875 V 0 c 0.328125,-0.015625 0.84375,-0.03125 0.9375,-0.03125 0.28125,0 0.8125,0.015625 1.125,0.03125 v -0.3125 c -0.546875,0 -0.765625,-0.28125 -0.765625,-0.515625 0,-0.046875 0,-0.078125 0.046875,-0.21875 l 1.5,-4.640625 1.5625,4.90625 c 0.0625,0.140625 0.0625,0.15625 0.0625,0.171875 0,0.296875 -0.59375,0.296875 -0.859375,0.296875 V 0 c 0.359375,-0.03125 1.0625,-0.03125 1.4375,-0.03125 0.390625,0 0.84375,0.015625 1.234375,0.03125 v -0.3125 c -0.765625,0 -0.796875,-0.0625 -0.90625,-0.421875 z m 0,0"
           id="path980" />
      </symbol>
    </g>
    <g
       id="g3543">
      <symbol
         overflow="visible"
         id="symbol2524">
        <path
           style="stroke:none"
           d=""
           id="path674" />
      </symbol>
      <symbol
         overflow="visible"
         id="symbol6146">
        <path
           style="stroke:none"
           d="m 6.5625,-2.296875 c 0.171875,0 0.359375,0 0.359375,-0.203125 0,-0.1875 -0.1875,-0.1875 -0.359375,-0.1875 H 1.171875 c -0.171875,0 -0.34375,0 -0.34375,0.1875 0,0.203125 0.171875,0.203125 0.34375,0.203125 z m 0,0"
           id="path8408" />
      </symbol>
      <symbol
         overflow="visible"
         id="symbol5331">
        <path
           style="stroke:none"
           d=""
           id="path3046" />
      </symbol>
      <symbol
         overflow="visible"
         id="symbol4517">
        <path
           style="stroke:none"
           d="M 3.6875,-6.921875 C 3.625,-7.125 3.5625,-7.140625 3.453125,-7.140625 c -0.15625,0 -0.171875,0.046875 -0.21875,0.21875 L 1.3125,-1 c -0.09375,0.296875 -0.296875,0.6875 -1,0.6875 V 0 c 0.328125,-0.015625 0.84375,-0.03125 0.9375,-0.03125 0.28125,0 0.8125,0.015625 1.125,0.03125 v -0.3125 c -0.546875,0 -0.765625,-0.28125 -0.765625,-0.515625 0,-0.046875 0,-0.078125 0.046875,-0.21875 l 1.5,-4.640625 1.5625,4.90625 c 0.0625,0.140625 0.0625,0.15625 0.0625,0.171875 0,0.296875 -0.59375,0.296875 -0.859375,0.296875 V 0 c 0.359375,-0.03125 1.0625,-0.03125 1.4375,-0.03125 0.390625,0 0.84375,0.015625 1.234375,0.03125 v -0.3125 c -0.765625,0 -0.796875,-0.0625 -0.90625,-0.421875 z m 0,0"
           id="path6138" />
      </symbol>
    </g>
    <g
       id="g2050">
      <symbol
         overflow="visible"
         id="symbol3454">
        <path
           style="stroke:none"
           d=""
           id="path9575" />
      </symbol>
      <symbol
         overflow="visible"
         id="symbol9069">
        <path
           style="stroke:none"
           d="m 4.75,-2.359375 c 0,-1.5625 -0.921875,-2.046875 -1.65625,-2.046875 -1.375,0 -2.6875,1.421875 -2.6875,2.828125 0,0.9375 0.59375,1.6875 1.625,1.6875 0.625,0 1.34375,-0.234375 2.09375,-0.84375 0.125,0.53125 0.453125,0.84375 0.90625,0.84375 0.53125,0 0.84375,-0.546875 0.84375,-0.703125 0,-0.078125 -0.0625,-0.109375 -0.125,-0.109375 -0.0625,0 -0.09375,0.03125 -0.125,0.109375 -0.1875,0.484375 -0.546875,0.484375 -0.5625,0.484375 -0.3125,0 -0.3125,-0.78125 -0.3125,-1.015625 0,-0.203125 0,-0.234375 0.109375,-0.34375 C 5.796875,-2.65625 6,-3.8125 6,-3.8125 6,-3.84375 5.984375,-3.921875 5.875,-3.921875 c -0.09375,0 -0.09375,0.03125 -0.140625,0.21875 -0.1875,0.625 -0.515625,1.375 -0.984375,1.96875 z m -0.65625,1.375 c -0.890625,0.765625 -1.65625,0.875 -2.046875,0.875 -0.59375,0 -0.90625,-0.453125 -0.90625,-1.09375 0,-0.484375 0.265625,-1.5625 0.578125,-2.0625 C 2.1875,-4 2.734375,-4.1875 3.078125,-4.1875 c 0.984375,0 0.984375,1.3125 0.984375,2.078125 0,0.375 0,0.953125 0.03125,1.125 z m 0,0"
           id="path607" />
      </symbol>
    </g>
  </defs>
  <sodipodi:namedview
     id="base"
     pagecolor="#ffffff"
     bordercolor="#666666"
     borderopacity="1.0"
     inkscape:pageopacity="0.0"
     inkscape:pageshadow="2"
     inkscape:zoom="0.37852798"
     inkscape:cx="855.20654"
     inkscape:cy="711.64082"
     inkscape:document-units="mm"
     inkscape:current-layer="layer1"
     inkscape:document-rotation="0"
     showgrid="false"
     inkscape:snap-object-midpoints="true" />
  <metadata
     id="metadata5">
    <rdf:RDF>
      <cc:Work
         rdf:about="">
        <dc:format>image/svg+xml</dc:format>
        <dc:type
           rdf:resource="http://purl.org/dc/dcmitype/StillImage" />
        <dc:title />
      </cc:Work>
    </rdf:RDF>
  </metadata>
  <g
     inkscape:label="Layer 1"
     inkscape:groupmode="layer"
     id="layer1"
     transform="translate(120.44006,72.9554)">
    <circle
       style="fill:none;stroke:#001300;stroke-width:1.2;stroke-linecap:round;stroke-linejoin:round;stroke-miterlimit:4;stroke-dasharray:none;paint-order:markers stroke fill"
       id="path833"
       cx="7.4803276"
       cy="54.964989"
       r="93.111557"
       inkscape:export-xdpi="248.64"
       inkscape:export-ydpi="248.64" />
    <path
       style="fill:none;stroke:#000000;stroke-width:1.2;stroke-linecap:butt;stroke-linejoin:miter;stroke-miterlimit:4;stroke-dasharray:none;stroke-opacity:1;marker-end:url(#EmptyTriangleOutL)"
       d="M 7.4803264,54.964987 C 52.785965,-23.50668 52.785965,-23.50668 52.785965,-23.50668"
       id="path835"
       inkscape:export-xdpi="248.64"
       inkscape:export-ydpi="248.64" />
    <path
       style="fill:none;stroke:#000000;stroke-width:1.2;stroke-linecap:butt;stroke-linejoin:miter;stroke-miterlimit:4;stroke-dasharray:none;stroke-opacity:1;marker-end:url(#EmptyTriangleOutL-3)"
       d="m 7.4803276,54.964989 c -109.0331576,-1e-6 -109.0331576,-1e-6 -109.0331576,-1e-6"
       id="path835-7"
       inkscape:export-xdpi="248.64"
       inkscape:export-ydpi="248.64" />
    <path
       style="fill:none;stroke:#000000;stroke-width:1.2;stroke-linecap:butt;stroke-linejoin:miter;stroke-miterlimit:4;stroke-dasharray:none;stroke-opacity:1;marker-end:url(#EmptyTriangleOutL-5)"
       d="M 7.6488345,55.107977 C 88.71292,149.35003 88.71292,149.35003 88.71292,149.35003"
       id="path835-5"
       inkscape:export-xdpi="248.64"
       inkscape:export-ydpi="248.64" />
    <g
       inkscape:label=""
       transform="matrix(1.607938,0,0,1.607938,-123.11495,-135.59242)"
       id="g1276"
       style="stroke-width:0.746297;stroke-miterlimit:4;stroke-dasharray:none"
       inkscape:export-xdpi="248.64"
       inkscape:export-ydpi="248.64">
      <g
         id="g5819"
         style="stroke-width:0.746297;stroke-miterlimit:4;stroke-dasharray:none">
        <g
           style="fill:#000000;fill-opacity:1;stroke-width:0.746297;stroke-miterlimit:4;stroke-dasharray:none"
           id="g505">
          <use
             xlink:href="#symbol1401"
             x="91.925003"
             y="81.962997"
             id="use1640"
             width="100%"
             height="100%"
             style="stroke-width:0.746297;stroke-miterlimit:4;stroke-dasharray:none" />
        </g>
      </g>
    </g>
    <g
       inkscape:label=""
       transform="matrix(1.607938,0,0,1.607938,-216.49779,-82.975346)"
       id="g1319"
       style="stroke-width:0.746297;stroke-miterlimit:4;stroke-dasharray:none"
       inkscape:export-xdpi="248.64"
       inkscape:export-ydpi="248.64">
      <g
         id="g2369"
         style="stroke-width:0.746297;stroke-miterlimit:4;stroke-dasharray:none">
        <g
           style="fill:#000000;fill-opacity:1;stroke-width:0.746297;stroke-miterlimit:4;stroke-dasharray:none"
           id="g3347">
          <use
             xlink:href="#symbol4478"
             x="91.925003"
             y="81.962997"
             id="use9080"
             width="100%"
             height="100%"
             style="stroke-width:0.746297;stroke-miterlimit:4;stroke-dasharray:none" />
        </g>
      </g>
    </g>
    <g
       inkscape:label=""
       transform="matrix(1.607938,0,0,1.607938,-108.06595,-43.606578)"
       id="g1381"
       style="stroke-width:0.746297;stroke-miterlimit:4;stroke-dasharray:none"
       inkscape:export-xdpi="248.64"
       inkscape:export-ydpi="248.64">
      <g
         id="g9350"
         style="stroke-width:0.746297;stroke-miterlimit:4;stroke-dasharray:none">
        <g
           style="fill:#000000;fill-opacity:1;stroke-width:0.746297;stroke-miterlimit:4;stroke-dasharray:none"
           id="g6075">
          <use
             xlink:href="#symbol8289"
             x="91.925003"
             y="81.962997"
             id="use2292"
             width="100%"
             height="100%"
             style="stroke-width:0.746297;stroke-miterlimit:4;stroke-dasharray:none" />
        </g>
        <g
           style="fill:#000000;fill-opacity:1;stroke-width:0.746297;stroke-miterlimit:4;stroke-dasharray:none"
           id="g9346">
          <use
             xlink:href="#symbol3886"
             x="103.119"
             y="81.962997"
             id="use862"
             width="100%"
             height="100%"
             style="stroke-width:0.746297;stroke-miterlimit:4;stroke-dasharray:none" />
        </g>
        <g
           style="fill:#000000;fill-opacity:1;stroke-width:0.746297;stroke-miterlimit:4;stroke-dasharray:none"
           id="g6340">
          <use
             xlink:href="#symbol7527"
             x="113.082"
             y="81.962997"
             id="use3072"
             width="100%"
             height="100%"
             style="stroke-width:0.746297;stroke-miterlimit:4;stroke-dasharray:none" />
        </g>
      </g>
    </g>
    <circle
       style="fill:none;stroke:#001300;stroke-width:1.2;stroke-linecap:round;stroke-linejoin:round;stroke-miterlimit:4;stroke-dasharray:none;paint-order:markers stroke fill"
       id="path833-6"
       cx="7.4803276"
       cy="54.964989"
       r="127.32039"
       inkscape:export-xdpi="248.64"
       inkscape:export-ydpi="248.64" />
    <circle
       style="fill:none;stroke:#001300;stroke-width:1.2;stroke-linecap:round;stroke-linejoin:round;stroke-miterlimit:4;stroke-dasharray:2.4, 4.8;stroke-dashoffset:0;paint-order:markers stroke fill"
       id="path833-2"
       cx="7.4803276"
       cy="54.964989"
       r="110.83404"
       inkscape:export-xdpi="248.64"
       inkscape:export-ydpi="248.64" />
    <g
       inkscape:label=""
       transform="matrix(2.2021136,0,0,2.2021136,-313.93428,-9.491408)"
       id="g1608"
       inkscape:export-xdpi="248.64"
       inkscape:export-ydpi="248.64">
      <g
         id="g2547">
        <g
           style="fill:#000000;fill-opacity:1"
           id="g4124">
          <use
             xlink:href="#symbol8126"
             x="91.925003"
             y="81.962997"
             id="use2004"
             width="100%"
             height="100%" />
        </g>
        <g
           style="fill:#000000;fill-opacity:1"
           id="g6745">
          <use
             xlink:href="#symbol5320"
             x="97.112"
             y="83.457001"
             id="use4114"
             width="100%"
             height="100%" />
        </g>
      </g>
    </g>
    <g
       inkscape:label=""
       transform="matrix(2.2021136,0,0,2.2021136,-297.48876,-225.72039)"
       id="g1702"
       inkscape:export-xdpi="248.64"
       inkscape:export-ydpi="248.64">
      <g
         id="g5755">
        <g
           style="fill:#000000;fill-opacity:1"
           id="g8543">
          <use
             xlink:href="#symbol7750"
             x="91.925003"
             y="81.962997"
             id="use8949"
             width="100%"
             height="100%" />
        </g>
      </g>
    </g>
    <g
       inkscape:label=""
       transform="matrix(2.2021136,0,0,2.2021136,-254.9239,-186.08855)"
       id="g1805"
       style="fill:#000000;fill-opacity:1;stroke:#000000;stroke-opacity:1"
       inkscape:export-xdpi="248.64"
       inkscape:export-ydpi="248.64">
      <g
         id="g4402"
         style="fill:#000000;fill-opacity:1;stroke:#000000;stroke-opacity:1">
        <g
           style="fill:#000000;fill-opacity:1;stroke:#000000;stroke-opacity:1"
           id="g399">
          <use
             xlink:href="#symbol6146"
             x="91.925003"
             y="81.962997"
             id="use4552"
             width="100%"
             height="100%"
             style="fill:#000000;fill-opacity:1;stroke:#000000;stroke-opacity:1" />
        </g>
        <g
           style="fill:#000000;fill-opacity:1;stroke:#000000;stroke-opacity:1"
           id="g3077">
          <use
             xlink:href="#symbol4517"
             x="99.674004"
             y="81.962997"
             id="use2840"
             width="100%"
             height="100%"
             style="fill:#000000;fill-opacity:1;stroke:#000000;stroke-opacity:1" />
        </g>
      </g>
    </g>
    <path
       style="fill:none;stroke:#000000;stroke-width:1.1;stroke-linecap:butt;stroke-linejoin:miter;stroke-miterlimit:3.9;stroke-dasharray:none;stroke-opacity:1;marker-end:url(#marker2444)"
       d="m -99.510412,159.67579 c -0.731368,-4.15938 -0.615218,-8.46593 0.339293,-12.57984 2.055527,-8.85926 8.149644,-16.69712 16.229007,-20.87271"
       id="path2438"
       inkscape:path-effect="#path-effect2440"
       inkscape:original-d="m -99.510412,159.67579 c 0.113362,-4.19301 0.22646,-8.38629 0.339293,-12.57984 0.112834,-4.19354 10.819601,-13.91488 16.229007,-20.87271"
       inkscape:export-xdpi="248.64"
       inkscape:export-ydpi="248.64" />
    <g
       inkscape:label=""
       transform="matrix(2.9143334,0,0,2.9143334,-275.91195,-190.41999)"
       id="g2603"
       inkscape:export-xdpi="248.64"
       inkscape:export-ydpi="248.64">
      <g
         id="g1494">
        <g
           style="fill:#000000;fill-opacity:1"
           id="g5749">
          <use
             xlink:href="#symbol9069"
             x="91.925003"
             y="81.962997"
             id="use9745"
             width="100%"
             height="100%" />
        </g>
      </g>
    </g>
  </g>
</svg>
