<?xml version="1.0" encoding="UTF-8" standalone="no"?>
<svg
   width="229.04575mm"
   height="229.04575mm"
   viewBox="0 0 229.04574 229.04574"
   version="1.1"
   id="svg8"
   sodipodi:docname="term2.svg"
   inkscape:version="1.2.1 (9c6d41e410, 2022-07-14, custom)"
   inkscape:export-filename="/home/kirito/storage/iiserk/acm/solutions/term2.png"
   inkscape:export-xdpi="248.64"
   inkscape:export-ydpi="248.64"
   xmlns:inkscape="http://www.inkscape.org/namespaces/inkscape"
   xmlns:sodipodi="http://sodipodi.sourceforge.net/DTD/sodipodi-0.dtd"
   xmlns="http://www.w3.org/2000/svg"
   xmlns:svg="http://www.w3.org/2000/svg"
   xmlns:rdf="http://www.w3.org/1999/02/22-rdf-syntax-ns#"
   xmlns:cc="http://creativecommons.org/ns#"
   xmlns:dc="http://purl.org/dc/elements/1.1/"
   xmlns:ns3="http://www.iki.fi/pav/software/textext/">
  <defs
     id="defs2">
    <marker
       style="overflow:visible"
       id="marker141660"
       refX="0"
       refY="0"
       orient="auto-start-reverse"
       inkscape:stockid="RoundedArrow"
       markerWidth="4.1350002"
       markerHeight="3.9973249"
       viewBox="0 0 6.1347524 5.9304951"
       inkscape:isstock="true"
       inkscape:collect="always"
       preserveAspectRatio="xMidYMid">
      <path
         transform="scale(0.7)"
         d="m -0.21114562,-4.1055728 6.42229122,3.21114561 a 1,1 90 0 1 0,1.78885438 L -0.21114562,4.1055728 A 1.236068,1.236068 31.717474 0 1 -2,3 v -6 a 1.236068,1.236068 148.28253 0 1 1.78885438,-1.1055728 z"
         style="fill:context-stroke;fill-rule:evenodd;stroke:none"
         id="path141658" />
    </marker>
    <marker
       style="overflow:visible"
       id="RoundedArrow"
       refX="0"
       refY="0"
       orient="auto-start-reverse"
       inkscape:stockid="RoundedArrow"
       markerWidth="4.1350002"
       markerHeight="3.9973249"
       viewBox="0 0 6.1347524 5.9304951"
       inkscape:isstock="true"
       inkscape:collect="always"
       preserveAspectRatio="xMidYMid">
      <path
         transform="scale(0.7)"
         d="m -0.21114562,-4.1055728 6.42229122,3.21114561 a 1,1 90 0 1 0,1.78885438 L -0.21114562,4.1055728 A 1.236068,1.236068 31.717474 0 1 -2,3 v -6 a 1.236068,1.236068 148.28253 0 1 1.78885438,-1.1055728 z"
         style="fill:context-stroke;fill-rule:evenodd;stroke:none"
         id="path1367" />
    </marker>
    <inkscape:path-effect
       effect="spiro"
       id="path-effect2883"
       is_visible="true"
       lpeversion="1" />
    <inkscape:path-effect
       effect="spiro"
       id="path-effect2810"
       is_visible="true"
       lpeversion="1" />
    <marker
       style="overflow:visible"
       id="EmptyTriangleOutL"
       refX="0"
       refY="0"
       orient="auto"
       inkscape:stockid="EmptyTriangleOutL"
       inkscape:isstock="true">
      <path
         transform="matrix(0.8,0,0,0.8,-4.8,0)"
         style="fill:#ffffff;fill-rule:evenodd;stroke:#000000;stroke-width:1pt;stroke-opacity:1"
         d="M 5.77,0 -2.88,5 V -5 Z"
         id="path2649" />
    </marker>
    <inkscape:path-effect
       effect="spiro"
       id="path-effect2487"
       is_visible="true"
       lpeversion="1" />
    <inkscape:path-effect
       effect="spiro"
       id="path-effect2222"
       is_visible="true"
       lpeversion="1" />
    <inkscape:path-effect
       effect="spiro"
       id="path-effect2203"
       is_visible="true"
       lpeversion="1" />
    <g
       id="g8407">
      <symbol
         overflow="visible"
         id="symbol5313">
        <path
           style="stroke:none"
           d=""
           id="path7925" />
      </symbol>
      <symbol
         overflow="visible"
         id="symbol1996">
        <path
           style="stroke:none"
           d="M 3.484375,-0.5625 C 3.59375,-0.15625 3.953125,0.109375 4.375,0.109375 4.71875,0.109375 4.953125,-0.125 5.109375,-0.4375 5.28125,-0.796875 5.40625,-1.40625 5.40625,-1.421875 c 0,-0.109375 -0.078125,-0.109375 -0.109375,-0.109375 -0.109375,0 -0.109375,0.046875 -0.140625,0.1875 -0.140625,0.5625 -0.328125,1.234375 -0.75,1.234375 -0.203125,0 -0.3125,-0.125 -0.3125,-0.453125 0,-0.21875 0.125,-0.6875 0.203125,-1.046875 L 4.578125,-2.6875 C 4.609375,-2.828125 4.703125,-3.203125 4.75,-3.359375 4.796875,-3.59375 4.890625,-3.96875 4.890625,-4.03125 c 0,-0.171875 -0.140625,-0.265625 -0.28125,-0.265625 -0.046875,0 -0.3125,0.015625 -0.390625,0.34375 -0.1875,0.734375 -0.625,2.484375 -0.75,3 -0.015625,0.046875 -0.40625,0.84375 -1.140625,0.84375 -0.515625,0 -0.609375,-0.453125 -0.609375,-0.8125 0,-0.5625 0.28125,-1.34375 0.53125,-2.03125 0.125,-0.3125 0.171875,-0.453125 0.171875,-0.640625 0,-0.4375 -0.3125,-0.8125 -0.8125,-0.8125 -0.953125,0 -1.3125,1.453125 -1.3125,1.53125 0,0.109375 0.09375,0.109375 0.109375,0.109375 0.109375,0 0.109375,-0.03125 0.15625,-0.1875 0.25,-0.859375 0.640625,-1.234375 1.015625,-1.234375 0.09375,0 0.25,0.015625 0.25,0.328125 0,0.234375 -0.109375,0.53125 -0.171875,0.671875 -0.375,1 -0.578125,1.609375 -0.578125,2.09375 0,0.953125 0.6875,1.203125 1.21875,1.203125 0.65625,0 1.015625,-0.453125 1.1875,-0.671875 z m 0,0"
           id="path468" />
      </symbol>
      <symbol
         overflow="visible"
         id="symbol7092">
        <path
           style="stroke:none"
           d="m 2.859375,-6.8125 c 0,0 0,-0.109375 -0.125,-0.109375 -0.234375,0 -0.953125,0.078125 -1.21875,0.109375 -0.078125,0 -0.1875,0.015625 -0.1875,0.1875 0,0.125 0.09375,0.125 0.234375,0.125 0.484375,0 0.5,0.0625 0.5,0.171875 L 2.03125,-6.125 0.59375,-0.390625 c -0.046875,0.140625 -0.046875,0.15625 -0.046875,0.21875 0,0.234375 0.203125,0.28125 0.296875,0.28125 0.125,0 0.265625,-0.09375 0.328125,-0.203125 0.046875,-0.09375 0.5,-1.9375 0.5625,-2.1875 0.34375,0.03125 1.15625,0.1875 1.15625,0.84375 0,0.078125 0,0.109375 -0.03125,0.21875 -0.015625,0.109375 -0.03125,0.234375 -0.03125,0.34375 0,0.578125 0.390625,0.984375 0.90625,0.984375 0.296875,0 0.578125,-0.15625 0.796875,-0.53125 0.25,-0.4375 0.359375,-0.984375 0.359375,-1 0,-0.109375 -0.09375,-0.109375 -0.125,-0.109375 -0.09375,0 -0.109375,0.046875 -0.140625,0.1875 -0.203125,0.71875 -0.421875,1.234375 -0.859375,1.234375 -0.203125,0 -0.328125,-0.109375 -0.328125,-0.46875 0,-0.171875 0.046875,-0.40625 0.078125,-0.5625 C 3.5625,-1.3125 3.5625,-1.34375 3.5625,-1.453125 3.5625,-2.09375 2.9375,-2.375 2.078125,-2.5 2.390625,-2.671875 2.71875,-2.984375 2.9375,-3.234375 3.421875,-3.765625 3.875,-4.1875 4.359375,-4.1875 c 0.0625,0 0.078125,0 0.09375,0.015625 0.125,0.015625 0.125,0.015625 0.21875,0.078125 0.015625,0 0.015625,0.015625 0.03125,0.03125 -0.46875,0.03125 -0.5625,0.421875 -0.5625,0.546875 0,0.15625 0.109375,0.34375 0.375,0.34375 0.265625,0 0.546875,-0.21875 0.546875,-0.609375 0,-0.296875 -0.234375,-0.625 -0.671875,-0.625 -0.28125,0 -0.734375,0.078125 -1.453125,0.875 -0.34375,0.375 -0.734375,0.78125 -1.109375,0.921875 z m 0,0"
           id="path5135" />
      </symbol>
      <symbol
         overflow="visible"
         id="symbol7780">
        <path
           style="stroke:none"
           d=""
           id="path8302" />
      </symbol>
      <symbol
         overflow="visible"
         id="symbol2691">
        <path
           style="stroke:none"
           d="m 3.296875,2.390625 c 0,-0.03125 0,-0.046875 -0.171875,-0.21875 C 1.890625,0.921875 1.5625,-0.96875 1.5625,-2.5 c 0,-1.734375 0.375,-3.46875 1.609375,-4.703125 0.125,-0.125 0.125,-0.140625 0.125,-0.171875 0,-0.078125 -0.03125,-0.109375 -0.09375,-0.109375 -0.109375,0 -1,0.6875 -1.59375,1.953125 -0.5,1.09375 -0.625,2.203125 -0.625,3.03125 0,0.78125 0.109375,1.984375 0.65625,3.125 C 2.25,1.84375 3.09375,2.5 3.203125,2.5 c 0.0625,0 0.09375,-0.03125 0.09375,-0.109375 z m 0,0"
           id="path6243" />
      </symbol>
      <symbol
         overflow="visible"
         id="symbol1452">
        <path
           style="stroke:none"
           d="m 2.875,-2.5 c 0,-0.765625 -0.109375,-1.96875 -0.65625,-3.109375 -0.59375,-1.21875 -1.453125,-1.875 -1.546875,-1.875 -0.0625,0 -0.109375,0.046875 -0.109375,0.109375 0,0.03125 0,0.046875 0.1875,0.234375 0.984375,0.984375 1.546875,2.5625 1.546875,4.640625 0,1.71875 -0.359375,3.46875 -1.59375,4.71875 C 0.5625,2.34375 0.5625,2.359375 0.5625,2.390625 0.5625,2.453125 0.609375,2.5 0.671875,2.5 0.765625,2.5 1.671875,1.8125 2.25,0.546875 2.765625,-0.546875 2.875,-1.65625 2.875,-2.5 Z m 0,0"
           id="path9479" />
      </symbol>
      <symbol
         overflow="visible"
         id="symbol3518">
        <path
           style="stroke:none"
           d=""
           id="path2932" />
      </symbol>
      <symbol
         overflow="visible"
         id="symbol6208">
        <path
           style="stroke:none"
           d="m 2.828125,-6.15625 c 0,-0.390625 0.25,-1.03125 1.34375,-1.09375 C 4.21875,-7.265625 4.25,-7.3125 4.25,-7.359375 c 0,-0.125 -0.078125,-0.125 -0.1875,-0.125 -0.984375,0 -1.90625,0.515625 -1.90625,1.25 v 2.28125 c 0,0.390625 0,0.703125 -0.40625,1.03125 -0.34375,0.296875 -0.71875,0.3125 -0.9375,0.3125 C 0.75,-2.59375 0.71875,-2.546875 0.71875,-2.5 c 0,0.109375 0.0625,0.109375 0.15625,0.125 0.65625,0.03125 1.140625,0.390625 1.25,0.875 0.03125,0.109375 0.03125,0.140625 0.03125,0.5 v 1.96875 c 0,0.421875 0,0.734375 0.46875,1.109375 C 3.015625,2.375 3.671875,2.5 4.0625,2.5 4.171875,2.5 4.25,2.5 4.25,2.375 4.25,2.28125 4.203125,2.28125 4.09375,2.265625 3.46875,2.234375 2.984375,1.90625 2.84375,1.40625 2.828125,1.3125 2.828125,1.296875 2.828125,0.9375 v -2.09375 c 0,-0.453125 -0.09375,-0.625 -0.40625,-0.953125 C 2.21875,-2.3125 1.921875,-2.40625 1.640625,-2.5 c 0.828125,-0.21875 1.1875,-0.6875 1.1875,-1.265625 z m 0,0"
           id="path4659" />
      </symbol>
      <symbol
         overflow="visible"
         id="symbol7518">
        <path
           style="stroke:none"
           d="m 2.15625,1.171875 c 0,0.390625 -0.265625,1.03125 -1.34375,1.09375 C 0.75,2.28125 0.71875,2.328125 0.71875,2.375 0.71875,2.5 0.828125,2.5 0.921875,2.5 1.890625,2.5 2.8125,2 2.828125,1.25 v -2.28125 c 0,-0.390625 0,-0.703125 0.390625,-1.03125 C 3.5625,-2.359375 3.953125,-2.375 4.171875,-2.375 4.21875,-2.390625 4.25,-2.4375 4.25,-2.5 4.25,-2.59375 4.203125,-2.59375 4.09375,-2.609375 3.4375,-2.640625 2.953125,-3 2.84375,-3.484375 2.828125,-3.59375 2.828125,-3.625 2.828125,-3.984375 v -1.96875 c 0,-0.421875 0,-0.734375 -0.484375,-1.109375 C 1.9375,-7.375 1.25,-7.484375 0.921875,-7.484375 c -0.09375,0 -0.203125,0 -0.203125,0.125 0,0.09375 0.0625,0.09375 0.15625,0.109375 0.625,0.03125 1.125,0.359375 1.25,0.859375 0.03125,0.09375 0.03125,0.109375 0.03125,0.46875 v 2.09375 c 0,0.453125 0.078125,0.625 0.390625,0.953125 0.21875,0.203125 0.5,0.296875 0.78125,0.375 -0.8125,0.234375 -1.171875,0.703125 -1.171875,1.28125 z m 0,0"
           id="path521" />
      </symbol>
      <symbol
         overflow="visible"
         id="symbol9361">
        <path
           style="stroke:none"
           d=""
           id="path7785" />
      </symbol>
      <symbol
         overflow="visible"
         id="symbol2466">
        <path
           style="stroke:none"
           d="m 2.265625,-4.359375 c 0,-0.109375 -0.09375,-0.265625 -0.28125,-0.265625 -0.1875,0 -0.390625,0.1875 -0.390625,0.390625 0,0.109375 0.078125,0.265625 0.28125,0.265625 0.1875,0 0.390625,-0.203125 0.390625,-0.390625 z M 0.84375,-0.8125 c -0.03125,0.09375 -0.0625,0.171875 -0.0625,0.296875 0,0.328125 0.265625,0.578125 0.65625,0.578125 0.6875,0 1,-0.953125 1,-1.0625 0,-0.09375 -0.09375,-0.09375 -0.109375,-0.09375 -0.09375,0 -0.109375,0.046875 -0.140625,0.125 -0.15625,0.5625 -0.453125,0.84375 -0.734375,0.84375 -0.140625,0 -0.171875,-0.09375 -0.171875,-0.25 0,-0.15625 0.046875,-0.28125 0.109375,-0.4375 C 1.46875,-1 1.546875,-1.1875 1.609375,-1.375 1.671875,-1.546875 1.9375,-2.171875 1.953125,-2.265625 1.984375,-2.328125 2,-2.40625 2,-2.484375 2,-2.8125 1.71875,-3.078125 1.34375,-3.078125 0.640625,-3.078125 0.328125,-2.125 0.328125,-2 c 0,0.078125 0.09375,0.078125 0.125,0.078125 0.09375,0 0.09375,-0.03125 0.125,-0.109375 C 0.75,-2.625 1.0625,-2.875 1.3125,-2.875 c 0.109375,0 0.171875,0.046875 0.171875,0.234375 0,0.171875 -0.03125,0.265625 -0.203125,0.703125 z m 0,0"
           id="path767" />
      </symbol>
    </g>
    <g
       id="g8881">
      <symbol
         overflow="visible"
         id="symbol4329">
        <path
           style="stroke:none"
           d=""
           id="path4574" />
      </symbol>
      <symbol
         overflow="visible"
         id="symbol9981">
        <path
           style="stroke:none"
           d="m 2.140625,-2.359375 v -4.5625 L 0.375,-6.84375 V -6.375 c 0.609375,0 0.6875,0 0.6875,0.390625 V -0.46875 H 0.375 V 0 c 0.359375,-0.015625 0.828125,-0.03125 1.1875,-0.03125 0.375,0 0.84375,0.015625 1.203125,0.03125 v -0.46875 h -0.6875 V -1.734375 C 2.375,-1.96875 2.453125,-2.03125 2.65625,-2.15625 l 1,1.25 c 0.09375,0.125 0.25,0.3125 0.25,0.34375 0,0.09375 -0.171875,0.09375 -0.3125,0.09375 V 0 c 0.296875,-0.015625 1.171875,-0.03125 1.21875,-0.03125 0.359375,0 0.703125,0.015625 1.046875,0.03125 V -0.46875 H 5.6875 c -0.4375,0 -0.46875,-0.046875 -0.59375,-0.203125 L 3.40625,-2.765625 4.703125,-3.78125 C 4.84375,-3.890625 4.9375,-3.953125 5.609375,-3.953125 v -0.46875 c -0.28125,0.03125 -0.53125,0.03125 -0.78125,0.03125 -0.265625,0 -0.921875,-0.03125 -1.15625,-0.03125 v 0.46875 c 0.234375,0 0.265625,0.03125 0.34375,0.109375 z m 0,0"
           id="path4984" />
      </symbol>
      <symbol
         overflow="visible"
         id="symbol4223">
        <path
           style="stroke:none"
           d=""
           id="path4380" />
      </symbol>
      <symbol
         overflow="visible"
         id="symbol4017">
        <path
           style="stroke:none"
           d="m 2.78125,-4.328125 c 0,-0.25 -0.046875,-0.25 -0.34375,-0.25 C 2,-4.21875 1.4375,-4.125 0.875,-4.125 H 0.703125 v 0.390625 H 0.875 c 0.28125,0 0.703125,-0.046875 1,-0.140625 v 3.484375 H 0.78125 V 0 c 0.328125,-0.03125 1.171875,-0.03125 1.546875,-0.03125 0.25,0 0.5,0.015625 0.75,0.015625 0.21875,0 0.578125,0 0.78125,0.015625 V -0.390625 H 2.78125 Z m 0,0"
           id="path717" />
      </symbol>
    </g>
    <g
       id="g1178">
      <symbol
         overflow="visible"
         id="symbol2668">
        <path
           style="stroke:none"
           d=""
           id="path7650" />
      </symbol>
      <symbol
         overflow="visible"
         id="symbol2327">
        <path
           style="stroke:none"
           d="m 2.140625,-2.359375 v -4.5625 L 0.375,-6.84375 V -6.375 c 0.609375,0 0.6875,0 0.6875,0.390625 V -0.46875 H 0.375 V 0 c 0.359375,-0.015625 0.828125,-0.03125 1.1875,-0.03125 0.375,0 0.84375,0.015625 1.203125,0.03125 v -0.46875 h -0.6875 V -1.734375 C 2.375,-1.96875 2.453125,-2.03125 2.65625,-2.15625 l 1,1.25 c 0.09375,0.125 0.25,0.3125 0.25,0.34375 0,0.09375 -0.171875,0.09375 -0.3125,0.09375 V 0 c 0.296875,-0.015625 1.171875,-0.03125 1.21875,-0.03125 0.359375,0 0.703125,0.015625 1.046875,0.03125 V -0.46875 H 5.6875 c -0.4375,0 -0.46875,-0.046875 -0.59375,-0.203125 L 3.40625,-2.765625 4.703125,-3.78125 C 4.84375,-3.890625 4.9375,-3.953125 5.609375,-3.953125 v -0.46875 c -0.28125,0.03125 -0.53125,0.03125 -0.78125,0.03125 -0.265625,0 -0.921875,-0.03125 -1.15625,-0.03125 v 0.46875 c 0.234375,0 0.265625,0.03125 0.34375,0.109375 z m 0,0"
           id="path5953" />
      </symbol>
      <symbol
         overflow="visible"
         id="symbol9679">
        <path
           style="stroke:none"
           d=""
           id="path5392" />
      </symbol>
      <symbol
         overflow="visible"
         id="symbol1888">
        <path
           style="stroke:none"
           d="M 4.03125,-1.59375 H 3.59375 C 3.578125,-1.5 3.515625,-1.015625 3.390625,-0.984375 c -0.15625,0.03125 -0.5625,0.03125 -0.734375,0.03125 H 1.703125 c 0.390625,-0.28125 0.78125,-0.578125 1.1875,-0.828125 0.5625,-0.359375 1.140625,-0.734375 1.140625,-1.4375 0,-0.828125 -0.796875,-1.359375 -1.90625,-1.359375 -0.9375,0 -1.65625,0.375 -1.65625,1.03125 0,0.40625 0.328125,0.5625 0.546875,0.5625 0.25,0 0.53125,-0.171875 0.53125,-0.546875 0,-0.34375 -0.25,-0.46875 -0.265625,-0.484375 0.25,-0.15625 0.5625,-0.171875 0.65625,-0.171875 0.578125,0 1.046875,0.375 1.046875,0.984375 0,0.53125 -0.359375,0.984375 -0.765625,1.328125 L 0.5625,-0.390625 C 0.484375,-0.3125 0.46875,-0.3125 0.46875,-0.171875 V 0 h 3.328125 z m 0,0"
           id="path2149" />
      </symbol>
    </g>
    <g
       id="g8821">
      <symbol
         overflow="visible"
         id="symbol8001">
        <path
           style="stroke:none"
           d=""
           id="path4233" />
      </symbol>
      <symbol
         overflow="visible"
         id="symbol4544">
        <path
           style="stroke:none"
           d="m 2.140625,-2.359375 v -4.5625 L 0.375,-6.84375 V -6.375 c 0.609375,0 0.6875,0 0.6875,0.390625 V -0.46875 H 0.375 V 0 c 0.359375,-0.015625 0.828125,-0.03125 1.1875,-0.03125 0.375,0 0.84375,0.015625 1.203125,0.03125 v -0.46875 h -0.6875 V -1.734375 C 2.375,-1.96875 2.453125,-2.03125 2.65625,-2.15625 l 1,1.25 c 0.09375,0.125 0.25,0.3125 0.25,0.34375 0,0.09375 -0.171875,0.09375 -0.3125,0.09375 V 0 c 0.296875,-0.015625 1.171875,-0.03125 1.21875,-0.03125 0.359375,0 0.703125,0.015625 1.046875,0.03125 V -0.46875 H 5.6875 c -0.4375,0 -0.46875,-0.046875 -0.59375,-0.203125 L 3.40625,-2.765625 4.703125,-3.78125 C 4.84375,-3.890625 4.9375,-3.953125 5.609375,-3.953125 v -0.46875 c -0.28125,0.03125 -0.53125,0.03125 -0.78125,0.03125 -0.265625,0 -0.921875,-0.03125 -1.15625,-0.03125 v 0.46875 c 0.234375,0 0.265625,0.03125 0.34375,0.109375 z m 0,0"
           id="path6849" />
      </symbol>
      <symbol
         overflow="visible"
         id="symbol1366">
        <path
           style="stroke:none"
           d=""
           id="path1698" />
      </symbol>
      <symbol
         overflow="visible"
         id="symbol8555">
        <path
           style="stroke:none"
           d="m 2.109375,-2.265625 c 0.828125,0 0.859375,0.625 0.859375,1 0,0.296875 0,1 -0.84375,1 C 1.9375,-0.265625 1.5,-0.3125 1.203125,-0.5 1.359375,-0.5625 1.53125,-0.71875 1.53125,-1.015625 c 0,-0.328125 -0.234375,-0.5625 -0.5625,-0.5625 -0.34375,0 -0.578125,0.234375 -0.578125,0.5625 0,0.71875 0.78125,1.09375 1.765625,1.09375 1.453125,0 1.953125,-0.75 1.953125,-1.34375 0,-0.53125 -0.4375,-1.015625 -1.21875,-1.1875 0.5,-0.1875 0.96875,-0.546875 0.96875,-1.125 0,-0.546875 -0.5625,-1 -1.671875,-1 -0.953125,0 -1.546875,0.46875 -1.546875,1.046875 0,0.359375 0.265625,0.546875 0.53125,0.546875 0.34375,0 0.53125,-0.265625 0.53125,-0.53125 0,-0.359375 -0.28125,-0.484375 -0.34375,-0.5 C 1.640625,-4.21875 2,-4.25 2.140625,-4.25 c 0.6875,0 0.6875,0.453125 0.6875,0.640625 0,0.328125 -0.140625,0.96875 -0.828125,1 -0.1875,0.015625 -0.359375,0.015625 -0.390625,0.03125 -0.09375,0.03125 -0.09375,0.109375 -0.09375,0.15625 0,0.15625 0.09375,0.15625 0.21875,0.15625 z m 0,0"
           id="path150" />
      </symbol>
    </g>
    <g
       id="g9683">
      <symbol
         overflow="visible"
         id="symbol8724">
        <path
           style="stroke:none"
           d=""
           id="path4834" />
      </symbol>
      <symbol
         overflow="visible"
         id="symbol4130">
        <path
           style="stroke:none"
           d="m 2.140625,-2.359375 v -4.5625 L 0.375,-6.84375 V -6.375 c 0.609375,0 0.6875,0 0.6875,0.390625 V -0.46875 H 0.375 V 0 c 0.359375,-0.015625 0.828125,-0.03125 1.1875,-0.03125 0.375,0 0.84375,0.015625 1.203125,0.03125 v -0.46875 h -0.6875 V -1.734375 C 2.375,-1.96875 2.453125,-2.03125 2.65625,-2.15625 l 1,1.25 c 0.09375,0.125 0.25,0.3125 0.25,0.34375 0,0.09375 -0.171875,0.09375 -0.3125,0.09375 V 0 c 0.296875,-0.015625 1.171875,-0.03125 1.21875,-0.03125 0.359375,0 0.703125,0.015625 1.046875,0.03125 V -0.46875 H 5.6875 c -0.4375,0 -0.46875,-0.046875 -0.59375,-0.203125 L 3.40625,-2.765625 4.703125,-3.78125 C 4.84375,-3.890625 4.9375,-3.953125 5.609375,-3.953125 v -0.46875 c -0.28125,0.03125 -0.53125,0.03125 -0.78125,0.03125 -0.265625,0 -0.921875,-0.03125 -1.15625,-0.03125 v 0.46875 c 0.234375,0 0.265625,0.03125 0.34375,0.109375 z m 0,0"
           id="path1218" />
      </symbol>
      <symbol
         overflow="visible"
         id="symbol8131">
        <path
           style="stroke:none"
           d=""
           id="path7606" />
      </symbol>
      <symbol
         overflow="visible"
         id="symbol3620">
        <path
           style="stroke:none"
           d="M 4.21875,-1.078125 V -1.46875 h -0.75 V -4.375 c 0,-0.203125 -0.046875,-0.234375 -0.25,-0.234375 H 3.109375 c -0.125,0 -0.1875,0 -0.265625,0.09375 l -2.5625,3.046875 v 0.390625 h 2.234375 v 0.6875 h -0.875 V 0 c 0.34375,-0.03125 0.96875,-0.03125 1.328125,-0.03125 0.15625,0 1.078125,0.015625 1.25,0.03125 v -0.390625 h -0.75 v -0.6875 z m -1.625,-2.578125 v 2.1875 H 0.765625 Z m 0,0"
           id="path9363" />
      </symbol>
    </g>
    <g
       id="g3037">
      <symbol
         overflow="visible"
         id="symbol3682">
        <path
           style="stroke:none"
           d=""
           id="path5447" />
      </symbol>
      <symbol
         overflow="visible"
         id="symbol4195">
        <path
           style="stroke:none"
           d="M 6.265625,-5.671875 C 6.75,-6.453125 7.171875,-6.484375 7.53125,-6.5 c 0.125,-0.015625 0.140625,-0.171875 0.140625,-0.1875 0,-0.078125 -0.0625,-0.125 -0.140625,-0.125 -0.25,0 -0.546875,0.03125 -0.8125,0.03125 -0.328125,0 -0.671875,-0.03125 -0.984375,-0.03125 -0.0625,0 -0.1875,0 -0.1875,0.1875 0,0.109375 0.078125,0.125 0.15625,0.125 0.265625,0.015625 0.453125,0.125 0.453125,0.328125 0,0.15625 -0.140625,0.375 -0.140625,0.375 l -3.0625,4.875 -0.6875,-5.28125 C 2.265625,-6.375 2.5,-6.5 2.953125,-6.5 c 0.140625,0 0.25,0 0.25,-0.203125 0,-0.078125 -0.078125,-0.109375 -0.125,-0.109375 -0.40625,0 -0.828125,0.03125 -1.25,0.03125 -0.171875,0 -0.359375,0 -0.546875,0 -0.171875,0 -0.359375,-0.03125 -0.53125,-0.03125 -0.078125,0 -0.1875,0 -0.1875,0.1875 0,0.125 0.078125,0.125 0.25,0.125 0.546875,0 0.5625,0.09375 0.59375,0.34375 L 2.1875,-0.015625 C 2.21875,0.1875 2.265625,0.21875 2.390625,0.21875 c 0.15625,0 0.203125,-0.046875 0.28125,-0.171875 z m 0,0"
           id="path3575" />
      </symbol>
      <symbol
         overflow="visible"
         id="symbol1298">
        <path
           style="stroke:none"
           d=""
           id="path9679" />
      </symbol>
      <symbol
         overflow="visible"
         id="symbol1782">
        <path
           style="stroke:none"
           d="m 3.296875,2.390625 c 0,-0.03125 0,-0.046875 -0.171875,-0.21875 C 1.890625,0.921875 1.5625,-0.96875 1.5625,-2.5 c 0,-1.734375 0.375,-3.46875 1.609375,-4.703125 0.125,-0.125 0.125,-0.140625 0.125,-0.171875 0,-0.078125 -0.03125,-0.109375 -0.09375,-0.109375 -0.109375,0 -1,0.6875 -1.59375,1.953125 -0.5,1.09375 -0.625,2.203125 -0.625,3.03125 0,0.78125 0.109375,1.984375 0.65625,3.125 C 2.25,1.84375 3.09375,2.5 3.203125,2.5 c 0.0625,0 0.09375,-0.03125 0.09375,-0.109375 z m 0,0"
           id="path4665" />
      </symbol>
      <symbol
         overflow="visible"
         id="symbol1943">
        <path
           style="stroke:none"
           d=""
           id="path2408" />
      </symbol>
      <symbol
         overflow="visible"
         id="symbol1478">
        <path
           style="stroke:none"
           d="m 2.828125,-6.15625 c 0,-0.390625 0.25,-1.03125 1.34375,-1.09375 C 4.21875,-7.265625 4.25,-7.3125 4.25,-7.359375 c 0,-0.125 -0.078125,-0.125 -0.1875,-0.125 -0.984375,0 -1.90625,0.515625 -1.90625,1.25 v 2.28125 c 0,0.390625 0,0.703125 -0.40625,1.03125 -0.34375,0.296875 -0.71875,0.3125 -0.9375,0.3125 C 0.75,-2.59375 0.71875,-2.546875 0.71875,-2.5 c 0,0.109375 0.0625,0.109375 0.15625,0.125 0.65625,0.03125 1.140625,0.390625 1.25,0.875 0.03125,0.109375 0.03125,0.140625 0.03125,0.5 v 1.96875 c 0,0.421875 0,0.734375 0.46875,1.109375 C 3.015625,2.375 3.671875,2.5 4.0625,2.5 4.171875,2.5 4.25,2.5 4.25,2.375 4.25,2.28125 4.203125,2.28125 4.09375,2.265625 3.46875,2.234375 2.984375,1.90625 2.84375,1.40625 2.828125,1.3125 2.828125,1.296875 2.828125,0.9375 v -2.09375 c 0,-0.453125 -0.09375,-0.625 -0.40625,-0.953125 C 2.21875,-2.3125 1.921875,-2.40625 1.640625,-2.5 c 0.828125,-0.21875 1.1875,-0.6875 1.1875,-1.265625 z m 0,0"
           id="path4155" />
      </symbol>
      <symbol
         overflow="visible"
         id="symbol9102">
        <path
           style="stroke:none"
           d="m 2.15625,1.171875 c 0,0.390625 -0.265625,1.03125 -1.34375,1.09375 C 0.75,2.28125 0.71875,2.328125 0.71875,2.375 0.71875,2.5 0.828125,2.5 0.921875,2.5 1.890625,2.5 2.8125,2 2.828125,1.25 v -2.28125 c 0,-0.390625 0,-0.703125 0.390625,-1.03125 C 3.5625,-2.359375 3.953125,-2.375 4.171875,-2.375 4.21875,-2.390625 4.25,-2.4375 4.25,-2.5 4.25,-2.59375 4.203125,-2.59375 4.09375,-2.609375 3.4375,-2.640625 2.953125,-3 2.84375,-3.484375 2.828125,-3.59375 2.828125,-3.625 2.828125,-3.984375 v -1.96875 c 0,-0.421875 0,-0.734375 -0.484375,-1.109375 C 1.9375,-7.375 1.25,-7.484375 0.921875,-7.484375 c -0.09375,0 -0.203125,0 -0.203125,0.125 0,0.09375 0.0625,0.09375 0.15625,0.109375 0.625,0.03125 1.125,0.359375 1.25,0.859375 0.03125,0.09375 0.03125,0.109375 0.03125,0.46875 v 2.09375 c 0,0.453125 0.078125,0.625 0.390625,0.953125 0.21875,0.203125 0.5,0.296875 0.78125,0.375 -0.8125,0.234375 -1.171875,0.703125 -1.171875,1.28125 z m 0,0"
           id="path7583" />
      </symbol>
      <symbol
         overflow="visible"
         id="symbol972">
        <path
           style="stroke:none"
           d=""
           id="path6606" />
      </symbol>
      <symbol
         overflow="visible"
         id="symbol454">
        <path
           style="stroke:none"
           d="m 2.140625,-2.359375 v -4.5625 L 0.375,-6.84375 V -6.375 c 0.609375,0 0.6875,0 0.6875,0.390625 V -0.46875 H 0.375 V 0 c 0.359375,-0.015625 0.828125,-0.03125 1.1875,-0.03125 0.375,0 0.84375,0.015625 1.203125,0.03125 v -0.46875 h -0.6875 V -1.734375 C 2.375,-1.96875 2.453125,-2.03125 2.65625,-2.15625 l 1,1.25 c 0.09375,0.125 0.25,0.3125 0.25,0.34375 0,0.09375 -0.171875,0.09375 -0.3125,0.09375 V 0 c 0.296875,-0.015625 1.171875,-0.03125 1.21875,-0.03125 0.359375,0 0.703125,0.015625 1.046875,0.03125 V -0.46875 H 5.6875 c -0.4375,0 -0.46875,-0.046875 -0.59375,-0.203125 L 3.40625,-2.765625 4.703125,-3.78125 C 4.84375,-3.890625 4.9375,-3.953125 5.609375,-3.953125 v -0.46875 c -0.28125,0.03125 -0.53125,0.03125 -0.78125,0.03125 -0.265625,0 -0.921875,-0.03125 -1.15625,-0.03125 v 0.46875 c 0.234375,0 0.265625,0.03125 0.34375,0.109375 z m 0,0"
           id="path8742" />
      </symbol>
      <symbol
         overflow="visible"
         id="symbol4269">
        <path
           style="stroke:none"
           d=""
           id="path9086" />
      </symbol>
      <symbol
         overflow="visible"
         id="symbol5983">
        <path
           style="stroke:none"
           d="m 1.828125,-4.265625 c 0,-0.34375 -0.28125,-0.578125 -0.5625,-0.578125 -0.34375,0 -0.578125,0.265625 -0.578125,0.5625 0,0.34375 0.28125,0.578125 0.5625,0.578125 0.34375,0 0.578125,-0.28125 0.578125,-0.5625 z m -1.34375,1.1875 V -2.6875 c 0.40625,0 0.453125,0 0.453125,0.265625 v 2.03125 H 0.46875 V 0 c 0.015625,0 0.5625,-0.03125 0.875,-0.03125 0.28125,0 0.5625,0.015625 0.84375,0.03125 V -0.390625 H 1.765625 v -2.75 z m 0,0"
           id="path3769" />
      </symbol>
    </g>
    <g
       id="g9571">
      <symbol
         overflow="visible"
         id="symbol6789">
        <path
           style="stroke:none"
           d=""
           id="path6417" />
      </symbol>
      <symbol
         overflow="visible"
         id="symbol9473">
        <path
           style="stroke:none"
           d="M 6.265625,-5.671875 C 6.75,-6.453125 7.171875,-6.484375 7.53125,-6.5 c 0.125,-0.015625 0.140625,-0.171875 0.140625,-0.1875 0,-0.078125 -0.0625,-0.125 -0.140625,-0.125 -0.25,0 -0.546875,0.03125 -0.8125,0.03125 -0.328125,0 -0.671875,-0.03125 -0.984375,-0.03125 -0.0625,0 -0.1875,0 -0.1875,0.1875 0,0.109375 0.078125,0.125 0.15625,0.125 0.265625,0.015625 0.453125,0.125 0.453125,0.328125 0,0.15625 -0.140625,0.375 -0.140625,0.375 l -3.0625,4.875 -0.6875,-5.28125 C 2.265625,-6.375 2.5,-6.5 2.953125,-6.5 c 0.140625,0 0.25,0 0.25,-0.203125 0,-0.078125 -0.078125,-0.109375 -0.125,-0.109375 -0.40625,0 -0.828125,0.03125 -1.25,0.03125 -0.171875,0 -0.359375,0 -0.546875,0 -0.171875,0 -0.359375,-0.03125 -0.53125,-0.03125 -0.078125,0 -0.1875,0 -0.1875,0.1875 0,0.125 0.078125,0.125 0.25,0.125 0.546875,0 0.5625,0.09375 0.59375,0.34375 L 2.1875,-0.015625 C 2.21875,0.1875 2.265625,0.21875 2.390625,0.21875 c 0.15625,0 0.203125,-0.046875 0.28125,-0.171875 z m 0,0"
           id="path8555" />
      </symbol>
      <symbol
         overflow="visible"
         id="symbol96">
        <path
           style="stroke:none"
           d=""
           id="path4641" />
      </symbol>
      <symbol
         overflow="visible"
         id="symbol3419">
        <path
           style="stroke:none"
           d="m 3.296875,2.390625 c 0,-0.03125 0,-0.046875 -0.171875,-0.21875 C 1.890625,0.921875 1.5625,-0.96875 1.5625,-2.5 c 0,-1.734375 0.375,-3.46875 1.609375,-4.703125 0.125,-0.125 0.125,-0.140625 0.125,-0.171875 0,-0.078125 -0.03125,-0.109375 -0.09375,-0.109375 -0.109375,0 -1,0.6875 -1.59375,1.953125 -0.5,1.09375 -0.625,2.203125 -0.625,3.03125 0,0.78125 0.109375,1.984375 0.65625,3.125 C 2.25,1.84375 3.09375,2.5 3.203125,2.5 c 0.0625,0 0.09375,-0.03125 0.09375,-0.109375 z m 0,0"
           id="path6751" />
      </symbol>
      <symbol
         overflow="visible"
         id="symbol6948">
        <path
           style="stroke:none"
           d="m 2.875,-2.5 c 0,-0.765625 -0.109375,-1.96875 -0.65625,-3.109375 -0.59375,-1.21875 -1.453125,-1.875 -1.546875,-1.875 -0.0625,0 -0.109375,0.046875 -0.109375,0.109375 0,0.03125 0,0.046875 0.1875,0.234375 0.984375,0.984375 1.546875,2.5625 1.546875,4.640625 0,1.71875 -0.359375,3.46875 -1.59375,4.71875 C 0.5625,2.34375 0.5625,2.359375 0.5625,2.390625 0.5625,2.453125 0.609375,2.5 0.671875,2.5 0.765625,2.5 1.671875,1.8125 2.25,0.546875 2.765625,-0.546875 2.875,-1.65625 2.875,-2.5 Z m 0,0"
           id="path5960" />
      </symbol>
      <symbol
         overflow="visible"
         id="symbol5561">
        <path
           style="stroke:none"
           d=""
           id="path9492" />
      </symbol>
      <symbol
         overflow="visible"
         id="symbol6663">
        <path
           style="stroke:none"
           d="m 2.828125,-6.15625 c 0,-0.390625 0.25,-1.03125 1.34375,-1.09375 C 4.21875,-7.265625 4.25,-7.3125 4.25,-7.359375 c 0,-0.125 -0.078125,-0.125 -0.1875,-0.125 -0.984375,0 -1.90625,0.515625 -1.90625,1.25 v 2.28125 c 0,0.390625 0,0.703125 -0.40625,1.03125 -0.34375,0.296875 -0.71875,0.3125 -0.9375,0.3125 C 0.75,-2.59375 0.71875,-2.546875 0.71875,-2.5 c 0,0.109375 0.0625,0.109375 0.15625,0.125 0.65625,0.03125 1.140625,0.390625 1.25,0.875 0.03125,0.109375 0.03125,0.140625 0.03125,0.5 v 1.96875 c 0,0.421875 0,0.734375 0.46875,1.109375 C 3.015625,2.375 3.671875,2.5 4.0625,2.5 4.171875,2.5 4.25,2.5 4.25,2.375 4.25,2.28125 4.203125,2.28125 4.09375,2.265625 3.46875,2.234375 2.984375,1.90625 2.84375,1.40625 2.828125,1.3125 2.828125,1.296875 2.828125,0.9375 v -2.09375 c 0,-0.453125 -0.09375,-0.625 -0.40625,-0.953125 C 2.21875,-2.3125 1.921875,-2.40625 1.640625,-2.5 c 0.828125,-0.21875 1.1875,-0.6875 1.1875,-1.265625 z m 0,0"
           id="path2245" />
      </symbol>
      <symbol
         overflow="visible"
         id="symbol8159">
        <path
           style="stroke:none"
           d="m 2.15625,1.171875 c 0,0.390625 -0.265625,1.03125 -1.34375,1.09375 C 0.75,2.28125 0.71875,2.328125 0.71875,2.375 0.71875,2.5 0.828125,2.5 0.921875,2.5 1.890625,2.5 2.8125,2 2.828125,1.25 v -2.28125 c 0,-0.390625 0,-0.703125 0.390625,-1.03125 C 3.5625,-2.359375 3.953125,-2.375 4.171875,-2.375 4.21875,-2.390625 4.25,-2.4375 4.25,-2.5 4.25,-2.59375 4.203125,-2.59375 4.09375,-2.609375 3.4375,-2.640625 2.953125,-3 2.84375,-3.484375 2.828125,-3.59375 2.828125,-3.625 2.828125,-3.984375 v -1.96875 c 0,-0.421875 0,-0.734375 -0.484375,-1.109375 C 1.9375,-7.375 1.25,-7.484375 0.921875,-7.484375 c -0.09375,0 -0.203125,0 -0.203125,0.125 0,0.09375 0.0625,0.09375 0.15625,0.109375 0.625,0.03125 1.125,0.359375 1.25,0.859375 0.03125,0.09375 0.03125,0.109375 0.03125,0.46875 v 2.09375 c 0,0.453125 0.078125,0.625 0.390625,0.953125 0.21875,0.203125 0.5,0.296875 0.78125,0.375 -0.8125,0.234375 -1.171875,0.703125 -1.171875,1.28125 z m 0,0"
           id="path3553" />
      </symbol>
      <symbol
         overflow="visible"
         id="symbol8592">
        <path
           style="stroke:none"
           d=""
           id="path4443" />
      </symbol>
      <symbol
         overflow="visible"
         id="symbol4060">
        <path
           style="stroke:none"
           d="m 2.140625,-2.359375 v -4.5625 L 0.375,-6.84375 V -6.375 c 0.609375,0 0.6875,0 0.6875,0.390625 V -0.46875 H 0.375 V 0 c 0.359375,-0.015625 0.828125,-0.03125 1.1875,-0.03125 0.375,0 0.84375,0.015625 1.203125,0.03125 v -0.46875 h -0.6875 V -1.734375 C 2.375,-1.96875 2.453125,-2.03125 2.65625,-2.15625 l 1,1.25 c 0.09375,0.125 0.25,0.3125 0.25,0.34375 0,0.09375 -0.171875,0.09375 -0.3125,0.09375 V 0 c 0.296875,-0.015625 1.171875,-0.03125 1.21875,-0.03125 0.359375,0 0.703125,0.015625 1.046875,0.03125 V -0.46875 H 5.6875 c -0.4375,0 -0.46875,-0.046875 -0.59375,-0.203125 L 3.40625,-2.765625 4.703125,-3.78125 C 4.84375,-3.890625 4.9375,-3.953125 5.609375,-3.953125 v -0.46875 c -0.28125,0.03125 -0.53125,0.03125 -0.78125,0.03125 -0.265625,0 -0.921875,-0.03125 -1.15625,-0.03125 v 0.46875 c 0.234375,0 0.265625,0.03125 0.34375,0.109375 z m 0,0"
           id="path8609" />
      </symbol>
      <symbol
         overflow="visible"
         id="symbol3848">
        <path
           style="stroke:none"
           d=""
           id="path3293" />
      </symbol>
      <symbol
         overflow="visible"
         id="symbol4177">
        <path
           style="stroke:none"
           d="m 1.828125,-4.265625 c 0,-0.34375 -0.28125,-0.578125 -0.5625,-0.578125 -0.34375,0 -0.578125,0.265625 -0.578125,0.5625 0,0.34375 0.28125,0.578125 0.5625,0.578125 0.34375,0 0.578125,-0.28125 0.578125,-0.5625 z m -1.34375,1.1875 V -2.6875 c 0.40625,0 0.453125,0 0.453125,0.265625 v 2.03125 H 0.46875 V 0 c 0.015625,0 0.5625,-0.03125 0.875,-0.03125 0.28125,0 0.5625,0.015625 0.84375,0.03125 V -0.390625 H 1.765625 v -2.75 z m 0,0"
           id="path6216" />
      </symbol>
    </g>
    <g
       id="g8405">
      <symbol
         overflow="visible"
         id="symbol1569">
        <path
           style="stroke:none"
           d=""
           id="path5641" />
      </symbol>
      <symbol
         overflow="visible"
         id="symbol3511">
        <path
           style="stroke:none"
           d="M 4.828125,-4.203125 7.234375,-6.1875 c 0.21875,-0.1875 0.625,-0.1875 0.9375,-0.1875 h 0.15625 V -6.84375 C 7.9375,-6.8125 7.359375,-6.8125 7.3125,-6.8125 c -0.375,0 -1.09375,0 -1.453125,-0.03125 V -6.375 c 0.125,0 0.328125,0 0.578125,0.0625 0.15625,0.03125 0.046875,0.015625 0.125,0.046875 L 2.875,-3.1875 V -6.375 h 1.078125 v -0.46875 c -0.375,0.03125 -1.34375,0.03125 -1.78125,0.03125 -0.421875,0 -1.40625,0 -1.78125,-0.03125 V -6.375 H 1.46875 v 5.90625 H 0.390625 V 0 c 0.375,-0.03125 1.359375,-0.03125 1.78125,-0.03125 0.4375,0 1.40625,0 1.78125,0.03125 V -0.46875 H 2.875 V -2.5625 l 1,-0.828125 2.0625,2.703125 C 5.984375,-0.625 5.984375,-0.609375 6.015625,-0.546875 5.828125,-0.46875 5.625,-0.46875 5.28125,-0.46875 V 0 c 0.40625,-0.03125 1.3125,-0.03125 1.75,-0.03125 0.40625,0 1.09375,0 1.46875,0.03125 V -0.46875 H 8.203125 c -0.53125,0 -0.5625,-0.046875 -0.671875,-0.203125 z m 0,0"
           id="path6316" />
      </symbol>
      <symbol
         overflow="visible"
         id="symbol5691">
        <path
           style="stroke:none"
           d=""
           id="path7357" />
      </symbol>
      <symbol
         overflow="visible"
         id="symbol7106">
        <path
           style="stroke:none"
           d="m 2.03125,-0.015625 c 0,-0.65625 -0.25,-1.046875 -0.640625,-1.046875 -0.328125,0 -0.53125,0.25 -0.53125,0.53125 C 0.859375,-0.265625 1.0625,0 1.390625,0 1.5,0 1.640625,-0.046875 1.734375,-0.125 1.765625,-0.15625 1.78125,-0.15625 1.78125,-0.15625 c 0.015625,0 0.015625,0 0.015625,0.140625 0,0.75 -0.34375,1.34375 -0.671875,1.671875 -0.109375,0.109375 -0.109375,0.125 -0.109375,0.15625 0,0.078125 0.046875,0.109375 0.09375,0.109375 0.109375,0 0.921875,-0.765625 0.921875,-1.9375 z m 0,0"
           id="path6733" />
      </symbol>
      <symbol
         overflow="visible"
         id="symbol4304">
        <path
           style="stroke:none"
           d="m 6.03125,-3.703125 c 0,-0.453125 -0.171875,-0.703125 -0.40625,-0.703125 -0.25,0 -0.515625,0.234375 -0.515625,0.46875 0,0.09375 0.046875,0.203125 0.140625,0.296875 0.171875,0.15625 0.359375,0.421875 0.359375,0.84375 0,0.390625 -0.203125,0.96875 -0.5,1.421875 C 4.8125,-0.953125 4.4375,-0.609375 3.96875,-0.609375 3.40625,-0.609375 3.09375,-0.96875 3,-1.5 c 0.109375,-0.265625 0.34375,-0.90625 0.34375,-1.1875 0,-0.109375 -0.046875,-0.21875 -0.1875,-0.21875 -0.078125,0 -0.1875,0.03125 -0.265625,0.171875 C 2.78125,-2.53125 2.65625,-1.890625 2.65625,-1.53125 2.328125,-1.0625 1.9375,-0.609375 1.3125,-0.609375 c -0.671875,0 -0.875,-0.59375 -0.875,-1.140625 0,-1.25 1.015625,-2.296875 1.015625,-2.421875 0,-0.109375 -0.078125,-0.1875 -0.1875,-0.1875 -0.125,0 -0.203125,0.125 -0.265625,0.21875 -0.5,0.734375 -0.875,1.921875 -0.875,2.828125 0,0.6875 0.21875,1.421875 1.046875,1.421875 0.703125,0 1.171875,-0.5 1.53125,-1.046875 0.09375,0.578125 0.484375,1.046875 1.09375,1.046875 0.78125,0 1.25,-0.609375 1.609375,-1.359375 0.25,-0.484375 0.625,-1.84375 0.625,-2.453125 z m 0,0"
           id="path5672" />
      </symbol>
    </g>
    <marker
       style="overflow:visible"
       id="EmptyTriangleOutL-0"
       refX="0"
       refY="0"
       orient="auto"
       inkscape:stockid="EmptyTriangleOutL"
       inkscape:isstock="true">
      <path
         transform="matrix(0.8,0,0,0.8,-4.8,0)"
         style="fill:#ffffff;fill-rule:evenodd;stroke:#000000;stroke-width:1pt;stroke-opacity:1"
         d="M 5.77,0 -2.88,5 V -5 Z"
         id="path2649-6" />
    </marker>
    <marker
       style="overflow:visible"
       id="EmptyTriangleOutL-0-6"
       refX="0"
       refY="0"
       orient="auto"
       inkscape:stockid="EmptyTriangleOutL"
       inkscape:isstock="true">
      <path
         transform="matrix(0.8,0,0,0.8,-4.8,0)"
         style="fill:#ffffff;fill-rule:evenodd;stroke:#000000;stroke-width:1pt;stroke-opacity:1"
         d="M 5.77,0 -2.88,5 V -5 Z"
         id="path2649-6-1" />
    </marker>
    <g
       id="g1040">
      <symbol
         overflow="visible"
         id="symbol8515">
        <path
           style="stroke:none"
           d=""
           id="path3669" />
      </symbol>
      <symbol
         overflow="visible"
         id="symbol276">
        <path
           style="stroke:none"
           d="m 2.140625,-2.359375 v -4.5625 L 0.375,-6.84375 V -6.375 c 0.609375,0 0.6875,0 0.6875,0.390625 V -0.46875 H 0.375 V 0 c 0.359375,-0.015625 0.828125,-0.03125 1.1875,-0.03125 0.375,0 0.84375,0.015625 1.203125,0.03125 v -0.46875 h -0.6875 V -1.734375 C 2.375,-1.96875 2.453125,-2.03125 2.65625,-2.15625 l 1,1.25 c 0.09375,0.125 0.25,0.3125 0.25,0.34375 0,0.09375 -0.171875,0.09375 -0.3125,0.09375 V 0 c 0.296875,-0.015625 1.171875,-0.03125 1.21875,-0.03125 0.359375,0 0.703125,0.015625 1.046875,0.03125 V -0.46875 H 5.6875 c -0.4375,0 -0.46875,-0.046875 -0.59375,-0.203125 L 3.40625,-2.765625 4.703125,-3.78125 C 4.84375,-3.890625 4.9375,-3.953125 5.609375,-3.953125 v -0.46875 c -0.28125,0.03125 -0.53125,0.03125 -0.78125,0.03125 -0.265625,0 -0.921875,-0.03125 -1.15625,-0.03125 v 0.46875 c 0.234375,0 0.265625,0.03125 0.34375,0.109375 z m 0,0"
           id="path9056" />
      </symbol>
      <symbol
         overflow="visible"
         id="symbol2860">
        <path
           style="stroke:none"
           d=""
           id="path6013" />
      </symbol>
      <symbol
         overflow="visible"
         id="symbol2867">
        <path
           style="stroke:none"
           d="m 2.78125,-4.328125 c 0,-0.25 -0.046875,-0.25 -0.34375,-0.25 C 2,-4.21875 1.4375,-4.125 0.875,-4.125 H 0.703125 v 0.390625 H 0.875 c 0.28125,0 0.703125,-0.046875 1,-0.140625 v 3.484375 H 0.78125 V 0 c 0.328125,-0.03125 1.171875,-0.03125 1.546875,-0.03125 0.25,0 0.5,0.015625 0.75,0.015625 0.21875,0 0.578125,0 0.78125,0.015625 V -0.390625 H 2.78125 Z m 0,0"
           id="path5286" />
      </symbol>
    </g>
    <g
       id="g8848">
      <symbol
         overflow="visible"
         id="symbol2322">
        <path
           style="stroke:none"
           d=""
           id="path567" />
      </symbol>
      <symbol
         overflow="visible"
         id="symbol8734">
        <path
           style="stroke:none"
           d="m 2.140625,-2.359375 v -4.5625 L 0.375,-6.84375 V -6.375 c 0.609375,0 0.6875,0 0.6875,0.390625 V -0.46875 H 0.375 V 0 c 0.359375,-0.015625 0.828125,-0.03125 1.1875,-0.03125 0.375,0 0.84375,0.015625 1.203125,0.03125 v -0.46875 h -0.6875 V -1.734375 C 2.375,-1.96875 2.453125,-2.03125 2.65625,-2.15625 l 1,1.25 c 0.09375,0.125 0.25,0.3125 0.25,0.34375 0,0.09375 -0.171875,0.09375 -0.3125,0.09375 V 0 c 0.296875,-0.015625 1.171875,-0.03125 1.21875,-0.03125 0.359375,0 0.703125,0.015625 1.046875,0.03125 V -0.46875 H 5.6875 c -0.4375,0 -0.46875,-0.046875 -0.59375,-0.203125 L 3.40625,-2.765625 4.703125,-3.78125 C 4.84375,-3.890625 4.9375,-3.953125 5.609375,-3.953125 v -0.46875 c -0.28125,0.03125 -0.53125,0.03125 -0.78125,0.03125 -0.265625,0 -0.921875,-0.03125 -1.15625,-0.03125 v 0.46875 c 0.234375,0 0.265625,0.03125 0.34375,0.109375 z m 0,0"
           id="path9887" />
      </symbol>
      <symbol
         overflow="visible"
         id="symbol6017">
        <path
           style="stroke:none"
           d=""
           id="path9312" />
      </symbol>
      <symbol
         overflow="visible"
         id="symbol7952">
        <path
           style="stroke:none"
           d="M 4.03125,-1.59375 H 3.59375 C 3.578125,-1.5 3.515625,-1.015625 3.390625,-0.984375 c -0.15625,0.03125 -0.5625,0.03125 -0.734375,0.03125 H 1.703125 c 0.390625,-0.28125 0.78125,-0.578125 1.1875,-0.828125 0.5625,-0.359375 1.140625,-0.734375 1.140625,-1.4375 0,-0.828125 -0.796875,-1.359375 -1.90625,-1.359375 -0.9375,0 -1.65625,0.375 -1.65625,1.03125 0,0.40625 0.328125,0.5625 0.546875,0.5625 0.25,0 0.53125,-0.171875 0.53125,-0.546875 0,-0.34375 -0.25,-0.46875 -0.265625,-0.484375 0.25,-0.15625 0.5625,-0.171875 0.65625,-0.171875 0.578125,0 1.046875,0.375 1.046875,0.984375 0,0.53125 -0.359375,0.984375 -0.765625,1.328125 L 0.5625,-0.390625 C 0.484375,-0.3125 0.46875,-0.3125 0.46875,-0.171875 V 0 h 3.328125 z m 0,0"
           id="path1910" />
      </symbol>
    </g>
    <g
       id="g7636">
      <symbol
         overflow="visible"
         id="symbol7344">
        <path
           style="stroke:none"
           d=""
           id="path9774" />
      </symbol>
      <symbol
         overflow="visible"
         id="symbol9902">
        <path
           style="stroke:none"
           d="m 2.140625,-2.359375 v -4.5625 L 0.375,-6.84375 V -6.375 c 0.609375,0 0.6875,0 0.6875,0.390625 V -0.46875 H 0.375 V 0 c 0.359375,-0.015625 0.828125,-0.03125 1.1875,-0.03125 0.375,0 0.84375,0.015625 1.203125,0.03125 v -0.46875 h -0.6875 V -1.734375 C 2.375,-1.96875 2.453125,-2.03125 2.65625,-2.15625 l 1,1.25 c 0.09375,0.125 0.25,0.3125 0.25,0.34375 0,0.09375 -0.171875,0.09375 -0.3125,0.09375 V 0 c 0.296875,-0.015625 1.171875,-0.03125 1.21875,-0.03125 0.359375,0 0.703125,0.015625 1.046875,0.03125 V -0.46875 H 5.6875 c -0.4375,0 -0.46875,-0.046875 -0.59375,-0.203125 L 3.40625,-2.765625 4.703125,-3.78125 C 4.84375,-3.890625 4.9375,-3.953125 5.609375,-3.953125 v -0.46875 c -0.28125,0.03125 -0.53125,0.03125 -0.78125,0.03125 -0.265625,0 -0.921875,-0.03125 -1.15625,-0.03125 v 0.46875 c 0.234375,0 0.265625,0.03125 0.34375,0.109375 z m 0,0"
           id="path6036" />
      </symbol>
      <symbol
         overflow="visible"
         id="symbol5288">
        <path
           style="stroke:none"
           d=""
           id="path2867" />
      </symbol>
      <symbol
         overflow="visible"
         id="symbol3082">
        <path
           style="stroke:none"
           d="m 2.109375,-2.265625 c 0.828125,0 0.859375,0.625 0.859375,1 0,0.296875 0,1 -0.84375,1 C 1.9375,-0.265625 1.5,-0.3125 1.203125,-0.5 1.359375,-0.5625 1.53125,-0.71875 1.53125,-1.015625 c 0,-0.328125 -0.234375,-0.5625 -0.5625,-0.5625 -0.34375,0 -0.578125,0.234375 -0.578125,0.5625 0,0.71875 0.78125,1.09375 1.765625,1.09375 1.453125,0 1.953125,-0.75 1.953125,-1.34375 0,-0.53125 -0.4375,-1.015625 -1.21875,-1.1875 0.5,-0.1875 0.96875,-0.546875 0.96875,-1.125 0,-0.546875 -0.5625,-1 -1.671875,-1 -0.953125,0 -1.546875,0.46875 -1.546875,1.046875 0,0.359375 0.265625,0.546875 0.53125,0.546875 0.34375,0 0.53125,-0.265625 0.53125,-0.53125 0,-0.359375 -0.28125,-0.484375 -0.34375,-0.5 C 1.640625,-4.21875 2,-4.25 2.140625,-4.25 c 0.6875,0 0.6875,0.453125 0.6875,0.640625 0,0.328125 -0.140625,0.96875 -0.828125,1 -0.1875,0.015625 -0.359375,0.015625 -0.390625,0.03125 -0.09375,0.03125 -0.09375,0.109375 -0.09375,0.15625 0,0.15625 0.09375,0.15625 0.21875,0.15625 z m 0,0"
           id="path3902" />
      </symbol>
    </g>
    <g
       id="g2501">
      <symbol
         overflow="visible"
         id="symbol5366">
        <path
           style="stroke:none"
           d=""
           id="path6070" />
      </symbol>
      <symbol
         overflow="visible"
         id="symbol6741">
        <path
           style="stroke:none"
           d="m 4.53125,-4.984375 c 0,-0.65625 -0.171875,-2.046875 -1.1875,-2.046875 -1.390625,0 -2.921875,2.8125 -2.921875,5.09375 0,0.9375 0.28125,2.046875 1.1875,2.046875 1.40625,0 2.921875,-2.859375 2.921875,-5.09375 z M 1.46875,-3.625 C 1.640625,-4.25 1.84375,-5.046875 2.25,-5.765625 2.515625,-6.25 2.875,-6.8125 3.328125,-6.8125 c 0.484375,0 0.546875,0.640625 0.546875,1.203125 0,0.5 -0.078125,1 -0.3125,1.984375 z m 2,0.328125 C 3.359375,-2.84375 3.15625,-2 2.765625,-1.28125 c -0.34375,0.6875 -0.71875,1.171875 -1.15625,1.171875 -0.328125,0 -0.53125,-0.296875 -0.53125,-1.21875 0,-0.421875 0.0625,-1 0.3125,-1.96875 z m 0,0"
           id="path7436" />
      </symbol>
      <symbol
         overflow="visible"
         id="symbol7131">
        <path
           style="stroke:none"
           d=""
           id="path3195" />
      </symbol>
      <symbol
         overflow="visible"
         id="symbol7037">
        <path
           style="stroke:none"
           d="m 2.328125,-4.4375 c 0,-0.1875 0,-0.1875 -0.203125,-0.1875 -0.453125,0.4375 -1.078125,0.4375 -1.359375,0.4375 v 0.25 c 0.15625,0 0.625,0 1,-0.1875 v 3.546875 c 0,0.234375 0,0.328125 -0.6875,0.328125 H 0.8125 V 0 c 0.125,0 0.984375,-0.03125 1.234375,-0.03125 0.21875,0 1.09375,0.03125 1.25,0.03125 V -0.25 H 3.03125 c -0.703125,0 -0.703125,-0.09375 -0.703125,-0.328125 z m 0,0"
           id="path6727" />
      </symbol>
    </g>
    <g
       id="g9394">
      <symbol
         overflow="visible"
         id="symbol6222">
        <path
           style="stroke:none"
           d=""
           id="path684" />
      </symbol>
      <symbol
         overflow="visible"
         id="symbol5432">
        <path
           style="stroke:none"
           d="m 4.53125,-4.984375 c 0,-0.65625 -0.171875,-2.046875 -1.1875,-2.046875 -1.390625,0 -2.921875,2.8125 -2.921875,5.09375 0,0.9375 0.28125,2.046875 1.1875,2.046875 1.40625,0 2.921875,-2.859375 2.921875,-5.09375 z M 1.46875,-3.625 C 1.640625,-4.25 1.84375,-5.046875 2.25,-5.765625 2.515625,-6.25 2.875,-6.8125 3.328125,-6.8125 c 0.484375,0 0.546875,0.640625 0.546875,1.203125 0,0.5 -0.078125,1 -0.3125,1.984375 z m 2,0.328125 C 3.359375,-2.84375 3.15625,-2 2.765625,-1.28125 c -0.34375,0.6875 -0.71875,1.171875 -1.15625,1.171875 -0.328125,0 -0.53125,-0.296875 -0.53125,-1.21875 0,-0.421875 0.0625,-1 0.3125,-1.96875 z m 0,0"
           id="path8129" />
      </symbol>
      <symbol
         overflow="visible"
         id="symbol197">
        <path
           style="stroke:none"
           d=""
           id="path8447" />
      </symbol>
      <symbol
         overflow="visible"
         id="symbol6016">
        <path
           style="stroke:none"
           d="M 3.515625,-1.265625 H 3.28125 c -0.015625,0.15625 -0.09375,0.5625 -0.1875,0.625 C 3.046875,-0.59375 2.515625,-0.59375 2.40625,-0.59375 H 1.125 c 0.734375,-0.640625 0.984375,-0.84375 1.390625,-1.171875 0.515625,-0.40625 1,-0.84375 1,-1.5 0,-0.84375 -0.734375,-1.359375 -1.625,-1.359375 -0.859375,0 -1.453125,0.609375 -1.453125,1.25 0,0.34375 0.296875,0.390625 0.375,0.390625 0.15625,0 0.359375,-0.125 0.359375,-0.375 0,-0.125 -0.046875,-0.375 -0.40625,-0.375 C 0.984375,-4.21875 1.453125,-4.375 1.78125,-4.375 c 0.703125,0 1.0625,0.546875 1.0625,1.109375 0,0.609375 -0.4375,1.078125 -0.65625,1.328125 L 0.515625,-0.265625 C 0.4375,-0.203125 0.4375,-0.1875 0.4375,0 h 2.875 z m 0,0"
           id="path1037" />
      </symbol>
    </g>
    <g
       id="g6994">
      <symbol
         overflow="visible"
         id="symbol8850">
        <path
           style="stroke:none"
           d=""
           id="path1115" />
      </symbol>
      <symbol
         overflow="visible"
         id="symbol6864">
        <path
           style="stroke:none"
           d="m 2.859375,-6.921875 -1.5625,1.265625 0.28125,0.375 1.28125,-0.8125 1.28125,0.8125 0.28125,-0.375 z m 0,0"
           id="path4763" />
      </symbol>
      <symbol
         overflow="visible"
         id="symbol7347">
        <path
           style="stroke:none"
           d="m 2.140625,-2.359375 v -4.5625 L 0.375,-6.84375 V -6.375 c 0.609375,0 0.6875,0 0.6875,0.390625 V -0.46875 H 0.375 V 0 c 0.359375,-0.015625 0.828125,-0.03125 1.1875,-0.03125 0.375,0 0.84375,0.015625 1.203125,0.03125 v -0.46875 h -0.6875 V -1.734375 C 2.375,-1.96875 2.453125,-2.03125 2.65625,-2.15625 l 1,1.25 c 0.09375,0.125 0.25,0.3125 0.25,0.34375 0,0.09375 -0.171875,0.09375 -0.3125,0.09375 V 0 c 0.296875,-0.015625 1.171875,-0.03125 1.21875,-0.03125 0.359375,0 0.703125,0.015625 1.046875,0.03125 V -0.46875 H 5.6875 c -0.4375,0 -0.46875,-0.046875 -0.59375,-0.203125 L 3.40625,-2.765625 4.703125,-3.78125 C 4.84375,-3.890625 4.9375,-3.953125 5.609375,-3.953125 v -0.46875 c -0.28125,0.03125 -0.53125,0.03125 -0.78125,0.03125 -0.265625,0 -0.921875,-0.03125 -1.15625,-0.03125 v 0.46875 c 0.234375,0 0.265625,0.03125 0.34375,0.109375 z m 0,0"
           id="path5542" />
      </symbol>
      <symbol
         overflow="visible"
         id="symbol9451">
        <path
           style="stroke:none"
           d=""
           id="path1429" />
      </symbol>
      <symbol
         overflow="visible"
         id="symbol5498">
        <path
           style="stroke:none"
           d="m 2.78125,-4.328125 c 0,-0.25 -0.046875,-0.25 -0.34375,-0.25 C 2,-4.21875 1.4375,-4.125 0.875,-4.125 H 0.703125 v 0.390625 H 0.875 c 0.28125,0 0.703125,-0.046875 1,-0.140625 v 3.484375 H 0.78125 V 0 c 0.328125,-0.03125 1.171875,-0.03125 1.546875,-0.03125 0.25,0 0.5,0.015625 0.75,0.015625 0.21875,0 0.578125,0 0.78125,0.015625 V -0.390625 H 2.78125 Z m 0,0"
           id="path6382" />
      </symbol>
    </g>
    <g
       id="g9132">
      <symbol
         overflow="visible"
         id="symbol4040">
        <path
           style="stroke:none"
           d=""
           id="path1207" />
      </symbol>
      <symbol
         overflow="visible"
         id="symbol5333">
        <path
           style="stroke:none"
           d="M 2.5,-6.921875 1.15625,-5.5625 1.328125,-5.390625 2.5,-6.40625 3.640625,-5.390625 3.8125,-5.5625 Z m 0,0"
           id="path7708" />
      </symbol>
      <symbol
         overflow="visible"
         id="symbol4324">
        <path
           style="stroke:none"
           d=""
           id="path9141" />
      </symbol>
      <symbol
         overflow="visible"
         id="symbol1719">
        <path
           style="stroke:none"
           d="m 2.859375,-6.8125 c 0,0 0,-0.109375 -0.125,-0.109375 -0.234375,0 -0.953125,0.078125 -1.21875,0.109375 -0.078125,0 -0.1875,0.015625 -0.1875,0.1875 0,0.125 0.09375,0.125 0.234375,0.125 0.484375,0 0.5,0.0625 0.5,0.171875 L 2.03125,-6.125 0.59375,-0.390625 c -0.046875,0.140625 -0.046875,0.15625 -0.046875,0.21875 0,0.234375 0.203125,0.28125 0.296875,0.28125 0.125,0 0.265625,-0.09375 0.328125,-0.203125 0.046875,-0.09375 0.5,-1.9375 0.5625,-2.1875 0.34375,0.03125 1.15625,0.1875 1.15625,0.84375 0,0.078125 0,0.109375 -0.03125,0.21875 -0.015625,0.109375 -0.03125,0.234375 -0.03125,0.34375 0,0.578125 0.390625,0.984375 0.90625,0.984375 0.296875,0 0.578125,-0.15625 0.796875,-0.53125 0.25,-0.4375 0.359375,-0.984375 0.359375,-1 0,-0.109375 -0.09375,-0.109375 -0.125,-0.109375 -0.09375,0 -0.109375,0.046875 -0.140625,0.1875 -0.203125,0.71875 -0.421875,1.234375 -0.859375,1.234375 -0.203125,0 -0.328125,-0.109375 -0.328125,-0.46875 0,-0.171875 0.046875,-0.40625 0.078125,-0.5625 C 3.5625,-1.3125 3.5625,-1.34375 3.5625,-1.453125 3.5625,-2.09375 2.9375,-2.375 2.078125,-2.5 2.390625,-2.671875 2.71875,-2.984375 2.9375,-3.234375 3.421875,-3.765625 3.875,-4.1875 4.359375,-4.1875 c 0.0625,0 0.078125,0 0.09375,0.015625 0.125,0.015625 0.125,0.015625 0.21875,0.078125 0.015625,0 0.015625,0.015625 0.03125,0.03125 -0.46875,0.03125 -0.5625,0.421875 -0.5625,0.546875 0,0.15625 0.109375,0.34375 0.375,0.34375 0.265625,0 0.546875,-0.21875 0.546875,-0.609375 0,-0.296875 -0.234375,-0.625 -0.671875,-0.625 -0.28125,0 -0.734375,0.078125 -1.453125,0.875 -0.34375,0.375 -0.734375,0.78125 -1.109375,0.921875 z m 0,0"
           id="path6435" />
      </symbol>
      <symbol
         overflow="visible"
         id="symbol9156">
        <path
           style="stroke:none"
           d=""
           id="path6772" />
      </symbol>
      <symbol
         overflow="visible"
         id="symbol4361">
        <path
           style="stroke:none"
           d="m 2.328125,-4.4375 c 0,-0.1875 0,-0.1875 -0.203125,-0.1875 -0.453125,0.4375 -1.078125,0.4375 -1.359375,0.4375 v 0.25 c 0.15625,0 0.625,0 1,-0.1875 v 3.546875 c 0,0.234375 0,0.328125 -0.6875,0.328125 H 0.8125 V 0 c 0.125,0 0.984375,-0.03125 1.234375,-0.03125 0.21875,0 1.09375,0.03125 1.25,0.03125 V -0.25 H 3.03125 c -0.703125,0 -0.703125,-0.09375 -0.703125,-0.328125 z m 0,0"
           id="path1532" />
      </symbol>
    </g>
    <g
       id="g4306">
      <symbol
         overflow="visible"
         id="symbol4634">
        <path
           style="stroke:none"
           d=""
           id="path1784" />
      </symbol>
      <symbol
         overflow="visible"
         id="symbol2518">
        <path
           style="stroke:none"
           d="M 2.5,-6.921875 1.15625,-5.5625 1.328125,-5.390625 2.5,-6.40625 3.640625,-5.390625 3.8125,-5.5625 Z m 0,0"
           id="path645" />
      </symbol>
      <symbol
         overflow="visible"
         id="symbol5637">
        <path
           style="stroke:none"
           d=""
           id="path6284" />
      </symbol>
      <symbol
         overflow="visible"
         id="symbol1503">
        <path
           style="stroke:none"
           d="m 2.859375,-6.8125 c 0,0 0,-0.109375 -0.125,-0.109375 -0.234375,0 -0.953125,0.078125 -1.21875,0.109375 -0.078125,0 -0.1875,0.015625 -0.1875,0.1875 0,0.125 0.09375,0.125 0.234375,0.125 0.484375,0 0.5,0.0625 0.5,0.171875 L 2.03125,-6.125 0.59375,-0.390625 c -0.046875,0.140625 -0.046875,0.15625 -0.046875,0.21875 0,0.234375 0.203125,0.28125 0.296875,0.28125 0.125,0 0.265625,-0.09375 0.328125,-0.203125 0.046875,-0.09375 0.5,-1.9375 0.5625,-2.1875 0.34375,0.03125 1.15625,0.1875 1.15625,0.84375 0,0.078125 0,0.109375 -0.03125,0.21875 -0.015625,0.109375 -0.03125,0.234375 -0.03125,0.34375 0,0.578125 0.390625,0.984375 0.90625,0.984375 0.296875,0 0.578125,-0.15625 0.796875,-0.53125 0.25,-0.4375 0.359375,-0.984375 0.359375,-1 0,-0.109375 -0.09375,-0.109375 -0.125,-0.109375 -0.09375,0 -0.109375,0.046875 -0.140625,0.1875 -0.203125,0.71875 -0.421875,1.234375 -0.859375,1.234375 -0.203125,0 -0.328125,-0.109375 -0.328125,-0.46875 0,-0.171875 0.046875,-0.40625 0.078125,-0.5625 C 3.5625,-1.3125 3.5625,-1.34375 3.5625,-1.453125 3.5625,-2.09375 2.9375,-2.375 2.078125,-2.5 2.390625,-2.671875 2.71875,-2.984375 2.9375,-3.234375 3.421875,-3.765625 3.875,-4.1875 4.359375,-4.1875 c 0.0625,0 0.078125,0 0.09375,0.015625 0.125,0.015625 0.125,0.015625 0.21875,0.078125 0.015625,0 0.015625,0.015625 0.03125,0.03125 -0.46875,0.03125 -0.5625,0.421875 -0.5625,0.546875 0,0.15625 0.109375,0.34375 0.375,0.34375 0.265625,0 0.546875,-0.21875 0.546875,-0.609375 0,-0.296875 -0.234375,-0.625 -0.671875,-0.625 -0.28125,0 -0.734375,0.078125 -1.453125,0.875 -0.34375,0.375 -0.734375,0.78125 -1.109375,0.921875 z m 0,0"
           id="path7903" />
      </symbol>
      <symbol
         overflow="visible"
         id="symbol8596">
        <path
           style="stroke:none"
           d=""
           id="path6576" />
      </symbol>
      <symbol
         overflow="visible"
         id="symbol3311">
        <path
           style="stroke:none"
           d="M 3.515625,-1.265625 H 3.28125 c -0.015625,0.15625 -0.09375,0.5625 -0.1875,0.625 C 3.046875,-0.59375 2.515625,-0.59375 2.40625,-0.59375 H 1.125 c 0.734375,-0.640625 0.984375,-0.84375 1.390625,-1.171875 0.515625,-0.40625 1,-0.84375 1,-1.5 0,-0.84375 -0.734375,-1.359375 -1.625,-1.359375 -0.859375,0 -1.453125,0.609375 -1.453125,1.25 0,0.34375 0.296875,0.390625 0.375,0.390625 0.15625,0 0.359375,-0.125 0.359375,-0.375 0,-0.125 -0.046875,-0.375 -0.40625,-0.375 C 0.984375,-4.21875 1.453125,-4.375 1.78125,-4.375 c 0.703125,0 1.0625,0.546875 1.0625,1.109375 0,0.609375 -0.4375,1.078125 -0.65625,1.328125 L 0.515625,-0.265625 C 0.4375,-0.203125 0.4375,-0.1875 0.4375,0 h 2.875 z m 0,0"
           id="path1940" />
      </symbol>
    </g>
    <g
       id="g3071">
      <symbol
         overflow="visible"
         id="symbol2658">
        <path
           style="stroke:none"
           d=""
           id="path8258" />
      </symbol>
      <symbol
         overflow="visible"
         id="symbol1157">
        <path
           style="stroke:none"
           d="M 2.5,-6.921875 1.15625,-5.5625 1.328125,-5.390625 2.5,-6.40625 3.640625,-5.390625 3.8125,-5.5625 Z m 0,0"
           id="path7627" />
      </symbol>
      <symbol
         overflow="visible"
         id="symbol6326">
        <path
           style="stroke:none"
           d=""
           id="path5680" />
      </symbol>
      <symbol
         overflow="visible"
         id="symbol2791">
        <path
           style="stroke:none"
           d="m 2.859375,-6.8125 c 0,0 0,-0.109375 -0.125,-0.109375 -0.234375,0 -0.953125,0.078125 -1.21875,0.109375 -0.078125,0 -0.1875,0.015625 -0.1875,0.1875 0,0.125 0.09375,0.125 0.234375,0.125 0.484375,0 0.5,0.0625 0.5,0.171875 L 2.03125,-6.125 0.59375,-0.390625 c -0.046875,0.140625 -0.046875,0.15625 -0.046875,0.21875 0,0.234375 0.203125,0.28125 0.296875,0.28125 0.125,0 0.265625,-0.09375 0.328125,-0.203125 0.046875,-0.09375 0.5,-1.9375 0.5625,-2.1875 0.34375,0.03125 1.15625,0.1875 1.15625,0.84375 0,0.078125 0,0.109375 -0.03125,0.21875 -0.015625,0.109375 -0.03125,0.234375 -0.03125,0.34375 0,0.578125 0.390625,0.984375 0.90625,0.984375 0.296875,0 0.578125,-0.15625 0.796875,-0.53125 0.25,-0.4375 0.359375,-0.984375 0.359375,-1 0,-0.109375 -0.09375,-0.109375 -0.125,-0.109375 -0.09375,0 -0.109375,0.046875 -0.140625,0.1875 -0.203125,0.71875 -0.421875,1.234375 -0.859375,1.234375 -0.203125,0 -0.328125,-0.109375 -0.328125,-0.46875 0,-0.171875 0.046875,-0.40625 0.078125,-0.5625 C 3.5625,-1.3125 3.5625,-1.34375 3.5625,-1.453125 3.5625,-2.09375 2.9375,-2.375 2.078125,-2.5 2.390625,-2.671875 2.71875,-2.984375 2.9375,-3.234375 3.421875,-3.765625 3.875,-4.1875 4.359375,-4.1875 c 0.0625,0 0.078125,0 0.09375,0.015625 0.125,0.015625 0.125,0.015625 0.21875,0.078125 0.015625,0 0.015625,0.015625 0.03125,0.03125 -0.46875,0.03125 -0.5625,0.421875 -0.5625,0.546875 0,0.15625 0.109375,0.34375 0.375,0.34375 0.265625,0 0.546875,-0.21875 0.546875,-0.609375 0,-0.296875 -0.234375,-0.625 -0.671875,-0.625 -0.28125,0 -0.734375,0.078125 -1.453125,0.875 -0.34375,0.375 -0.734375,0.78125 -1.109375,0.921875 z m 0,0"
           id="path9081" />
      </symbol>
      <symbol
         overflow="visible"
         id="symbol6273">
        <path
           style="stroke:none"
           d=""
           id="path4531" />
      </symbol>
      <symbol
         overflow="visible"
         id="symbol8478">
        <path
           style="stroke:none"
           d="m 1.90625,-2.328125 c 0.546875,0 0.9375,0.375 0.9375,1.125 0,0.859375 -0.515625,1.125 -0.90625,1.125 -0.28125,0 -0.90625,-0.078125 -1.1875,-0.5 0.328125,0 0.40625,-0.234375 0.40625,-0.390625 0,-0.21875 -0.171875,-0.375 -0.390625,-0.375 -0.1875,0 -0.390625,0.125 -0.390625,0.40625 0,0.65625 0.71875,1.078125 1.5625,1.078125 0.96875,0 1.640625,-0.65625 1.640625,-1.34375 0,-0.546875 -0.4375,-1.09375 -1.203125,-1.25 0.71875,-0.265625 0.984375,-0.78125 0.984375,-1.21875 0,-0.546875 -0.625,-0.953125 -1.40625,-0.953125 -0.765625,0 -1.359375,0.375 -1.359375,0.9375 0,0.234375 0.15625,0.359375 0.359375,0.359375 0.21875,0 0.359375,-0.15625 0.359375,-0.34375 0,-0.203125 -0.140625,-0.359375 -0.359375,-0.375 0.25,-0.296875 0.71875,-0.375 0.984375,-0.375 0.3125,0 0.75,0.15625 0.75,0.75 0,0.296875 -0.09375,0.625 -0.28125,0.828125 -0.21875,0.265625 -0.421875,0.28125 -0.765625,0.3125 -0.171875,0.015625 -0.1875,0.015625 -0.21875,0.015625 -0.015625,0 -0.078125,0.015625 -0.078125,0.09375 0,0.09375 0.0625,0.09375 0.1875,0.09375 z m 0,0"
           id="path5803" />
      </symbol>
    </g>
    <g
       id="g7259">
      <symbol
         overflow="visible"
         id="symbol7622">
        <path
           style="stroke:none"
           d=""
           id="path8828" />
      </symbol>
      <symbol
         overflow="visible"
         id="symbol8999">
        <path
           style="stroke:none"
           d="M 2.5,-6.921875 1.15625,-5.5625 1.328125,-5.390625 2.5,-6.40625 3.640625,-5.390625 3.8125,-5.5625 Z m 0,0"
           id="path892" />
      </symbol>
      <symbol
         overflow="visible"
         id="symbol3635">
        <path
           style="stroke:none"
           d=""
           id="path5762" />
      </symbol>
      <symbol
         overflow="visible"
         id="symbol4767">
        <path
           style="stroke:none"
           d="m 2.859375,-6.8125 c 0,0 0,-0.109375 -0.125,-0.109375 -0.234375,0 -0.953125,0.078125 -1.21875,0.109375 -0.078125,0 -0.1875,0.015625 -0.1875,0.1875 0,0.125 0.09375,0.125 0.234375,0.125 0.484375,0 0.5,0.0625 0.5,0.171875 L 2.03125,-6.125 0.59375,-0.390625 c -0.046875,0.140625 -0.046875,0.15625 -0.046875,0.21875 0,0.234375 0.203125,0.28125 0.296875,0.28125 0.125,0 0.265625,-0.09375 0.328125,-0.203125 0.046875,-0.09375 0.5,-1.9375 0.5625,-2.1875 0.34375,0.03125 1.15625,0.1875 1.15625,0.84375 0,0.078125 0,0.109375 -0.03125,0.21875 -0.015625,0.109375 -0.03125,0.234375 -0.03125,0.34375 0,0.578125 0.390625,0.984375 0.90625,0.984375 0.296875,0 0.578125,-0.15625 0.796875,-0.53125 0.25,-0.4375 0.359375,-0.984375 0.359375,-1 0,-0.109375 -0.09375,-0.109375 -0.125,-0.109375 -0.09375,0 -0.109375,0.046875 -0.140625,0.1875 -0.203125,0.71875 -0.421875,1.234375 -0.859375,1.234375 -0.203125,0 -0.328125,-0.109375 -0.328125,-0.46875 0,-0.171875 0.046875,-0.40625 0.078125,-0.5625 C 3.5625,-1.3125 3.5625,-1.34375 3.5625,-1.453125 3.5625,-2.09375 2.9375,-2.375 2.078125,-2.5 2.390625,-2.671875 2.71875,-2.984375 2.9375,-3.234375 3.421875,-3.765625 3.875,-4.1875 4.359375,-4.1875 c 0.0625,0 0.078125,0 0.09375,0.015625 0.125,0.015625 0.125,0.015625 0.21875,0.078125 0.015625,0 0.015625,0.015625 0.03125,0.03125 -0.46875,0.03125 -0.5625,0.421875 -0.5625,0.546875 0,0.15625 0.109375,0.34375 0.375,0.34375 0.265625,0 0.546875,-0.21875 0.546875,-0.609375 0,-0.296875 -0.234375,-0.625 -0.671875,-0.625 -0.28125,0 -0.734375,0.078125 -1.453125,0.875 -0.34375,0.375 -0.734375,0.78125 -1.109375,0.921875 z m 0,0"
           id="path8086" />
      </symbol>
      <symbol
         overflow="visible"
         id="symbol1121">
        <path
           style="stroke:none"
           d=""
           id="path448" />
      </symbol>
      <symbol
         overflow="visible"
         id="symbol5826">
        <path
           style="stroke:none"
           d="m 2.328125,-4.4375 c 0,-0.1875 0,-0.1875 -0.203125,-0.1875 -0.453125,0.4375 -1.078125,0.4375 -1.359375,0.4375 v 0.25 c 0.15625,0 0.625,0 1,-0.1875 v 3.546875 c 0,0.234375 0,0.328125 -0.6875,0.328125 H 0.8125 V 0 c 0.125,0 0.984375,-0.03125 1.234375,-0.03125 0.21875,0 1.09375,0.03125 1.25,0.03125 V -0.25 H 3.03125 c -0.703125,0 -0.703125,-0.09375 -0.703125,-0.328125 z m 0,0"
           id="path2585" />
      </symbol>
    </g>
  </defs>
  <sodipodi:namedview
     id="base"
     pagecolor="#ffffff"
     bordercolor="#666666"
     borderopacity="1.0"
     inkscape:pageopacity="0.0"
     inkscape:pageshadow="2"
     inkscape:zoom="0.37852798"
     inkscape:cx="505.90712"
     inkscape:cy="710.6476"
     inkscape:document-units="mm"
     inkscape:current-layer="layer1"
     inkscape:document-rotation="0"
     showgrid="false"
     inkscape:snap-object-midpoints="true"
     inkscape:snap-global="true"
     inkscape:showpageshadow="0"
     inkscape:pagecheckerboard="0"
     inkscape:deskcolor="#d1d1d1"
     inkscape:window-width="1920"
     inkscape:window-height="1019"
     inkscape:window-x="1920"
     inkscape:window-y="151"
     inkscape:window-maximized="1" />
  <metadata
     id="metadata5">
    <rdf:RDF>
      <cc:Work
         rdf:about="">
        <dc:format>image/svg+xml</dc:format>
        <dc:type
           rdf:resource="http://purl.org/dc/dcmitype/StillImage" />
        <dc:title />
      </cc:Work>
    </rdf:RDF>
  </metadata>
  <g
     inkscape:label="Layer 1"
     inkscape:groupmode="layer"
     id="layer1"
     transform="translate(27.3705, -16.118)">
    <circle
       style="fill:none;fill-opacity:1;stroke:#0090c0;stroke-width:4;stroke-linecap:round;stroke-linejoin:round;stroke-miterlimit:4;stroke-dasharray:none;stroke-opacity:1;paint-order:markers stroke fill"
       id="path2483"
       cx="87.152344"
       cy="130.64088"
       r="112.52287" />
    <path
       style="fill:none;stroke:#606060;stroke-width:3;stroke-linecap:butt;stroke-linejoin:miter;stroke-miterlimit:4;stroke-dasharray:none;stroke-opacity:1;marker-end:url(#marker141660)"
       d="M 87.110359,130.36508 H 191.28741"
       id="path2485"
       inkscape:path-effect="#path-effect2487"
       inkscape:original-d="m 87.110359,130.36508 c 34.725931,2.5e-4 69.451611,2.5e-4 104.177051,0" />
    <path
       style="fill:none;stroke:#606060;stroke-width:3;stroke-linecap:butt;stroke-linejoin:miter;stroke-miterlimit:4;stroke-dasharray:none;stroke-opacity:1;marker-end:url(#RoundedArrow)"
       d="M 87.121617,130.67161 161.94457,55.848643"
       id="path2485-2"
       inkscape:path-effect="#path-effect2810"
       inkscape:original-d="M 87.121617,130.67161 C 112.0629,105.73065 137.00388,80.789659 161.94457,55.848643" />
    <path
       style="fill:none;stroke:#606060;stroke-width:3;stroke-linecap:butt;stroke-linejoin:miter;stroke-miterlimit:4;stroke-dasharray:none;stroke-opacity:1;marker-end:url(#marker141660)"
       d="m 87.110359,130.36508 45.254891,95.00791"
       id="path2485-2-8"
       inkscape:path-effect="#path-effect2883"
       inkscape:original-d="m 87.110359,130.36508 c 15.084831,31.66957 30.169801,63.33887 45.254891,95.00791" />
    <g
       transform="matrix(2.46945,0,0,2.46945,120.66528,41.410873)"
       ns3:version="1.8.1"
       ns3:texconverter="xelatex"
       ns3:pdfconverter="inkscape"
       ns3:text="$\\hat k_1$"
       ns3:preamble="/home/kirito/.config/textext/beamer_preamble.tex"
       ns3:scale="7.0"
       ns3:alignment="middle center"
       ns3:stroke-to-path="0"
       ns3:inkscapeversion="1.0.1"
       ns3:jacobian_sqrt="2.46945"
       id="g137816">
      <defs
         id="id-298a608f-74cd-45af-8c96-d4c33b22ce82">
        <g
           id="id-8d854469-472f-4a41-aeb9-4a230a1cba85">
          <g
             id="id-c87a4fe6-d01d-44f1-9901-4f9d5e92862f">
            <path
               d="m 5.4375,-6.4375 v 5.890625 H 1.34375 V -6.4375 Z m 0.546875,-0.546875 h -5.1875 V 0 h 5.1875 z m -2.75,4.953125 c -0.21875,0 -0.40625,0.1875 -0.40625,0.421875 0,0.21875 0.1875,0.40625 0.40625,0.40625 0.25,0 0.421875,-0.1875 0.421875,-0.40625 0,-0.234375 -0.171875,-0.421875 -0.421875,-0.421875 z M 3.4375,-5.453125 c -0.5,0 -0.90625,0.1875 -1.25,0.59375 l 0.390625,0.28125 C 2.828125,-4.875 3.09375,-5 3.40625,-5 3.765625,-5 4,-4.8125 4,-4.484375 4,-3.84375 2.953125,-3.953125 2.953125,-2.9375 v 0.296875 H 3.5 V -2.90625 c 0,-0.796875 1.078125,-0.65625 1.078125,-1.625 0,-0.46875 -0.375,-0.921875 -1.140625,-0.921875 z m 0,0"
               id="id-592f0a06-3b1a-4b11-9336-a9aa58f2c73e" />
          </g>
          <g
             id="id-af470f58-80d7-4c3e-95d5-6692e59c0045">
            <path
               d="m -3.21875,-6.3125 1.265625,-0.84375 1.25,0.84375 0.40625,-0.453125 -1.359375,-1.125 h -0.609375 l -1.34375,1.125 z m 0,0"
               id="id-195bc796-3de5-4678-a538-3cff8960561f" />
          </g>
          <g
             id="id-6034feb5-79c1-4837-af75-358dcf664a00">
            <path
               d="m 2.515625,-7.484375 -0.90625,0.125 L 0.5625,0 h 0.90625 l 0.4375,-3.15625 C 2.359375,-4.171875 3.0625,-4.640625 3.625,-4.640625 c 0.359375,0 0.5625,0.1875 0.5625,0.5625 0,0.734375 -0.515625,1.171875 -1.75,1.515625 L 3.703125,0 H 4.71875 l -1.1875,-2.328125 c 1.09375,-0.34375 1.625,-1.015625 1.625,-1.84375 C 5.15625,-4.875 4.625,-5.375 3.875,-5.375 c -0.65625,0 -1.296875,0.328125 -1.796875,1.03125 z m 0,0"
               id="id-0c8ccd16-12bd-4004-a5e3-f67d59a0f97a" />
          </g>
          <g
             id="id-267a31d0-47cf-4648-8160-3fae63718a33">
            <path
               d="m 3.90625,-4.625 v 4.234375 H 0.96875 V -4.625 Z M 4.296875,-5.015625 H 0.578125 V 0 h 3.71875 z m -1.96875,3.5625 c -0.15625,0 -0.296875,0.125 -0.296875,0.296875 0,0.15625 0.140625,0.296875 0.296875,0.296875 C 2.5,-0.859375 2.625,-1 2.625,-1.15625 2.625,-1.328125 2.5,-1.453125 2.328125,-1.453125 Z m 0.140625,-2.46875 c -0.359375,0 -0.640625,0.140625 -0.890625,0.421875 L 1.84375,-3.296875 C 2.03125,-3.5 2.234375,-3.59375 2.453125,-3.59375 c 0.265625,0 0.4375,0.125 0.4375,0.359375 0,0.46875 -0.765625,0.390625 -0.765625,1.125 v 0.203125 h 0.390625 v -0.1875 c 0,-0.5625 0.78125,-0.46875 0.78125,-1.15625 0,-0.34375 -0.28125,-0.671875 -0.828125,-0.671875 z m 0,0"
               id="id-ac58df57-60fd-4fa3-bf5b-2a3c30a2a39f" />
          </g>
          <g
             id="id-cc102727-8c7f-4e74-81b3-50a52deb1ba5">
            <path
               d="m 1.984375,0 h 0.65625 V -4.9375 H 2.0625 l -1.484375,0.921875 0.28125,0.453125 1.125,-0.671875 z m 0,0"
               id="id-33a3abd7-56bc-4d5d-bd08-9751a0e736d8" />
          </g>
        </g>
      </defs>
      <g
         fill="#000000"
         fill-opacity="1"
         id="id-9f2975af-435d-456c-9f47-b4cc2fdee773"
         transform="translate(-149.118,-124.801)">
        <g
           transform="translate(152.727,132.692)"
           id="g138498">
          <path
             d="m -3.21875,-6.3125 1.265625,-0.84375 1.25,0.84375 0.40625,-0.453125 -1.359375,-1.125 h -0.609375 l -1.34375,1.125 z m 0,0"
             id="id-2a134672-fe9c-4f20-9fc8-746486ff2629" />
        </g>
      </g>
      <g
         fill="#000000"
         fill-opacity="1"
         id="id-221a98cd-7c52-4377-b806-4d57403e6740"
         transform="translate(-149.118,-124.801)">
        <g
           transform="translate(148.712,134.914)"
           id="g138502">
          <path
             d="m 2.515625,-7.484375 -0.90625,0.125 L 0.5625,0 h 0.90625 l 0.4375,-3.15625 C 2.359375,-4.171875 3.0625,-4.640625 3.625,-4.640625 c 0.359375,0 0.5625,0.1875 0.5625,0.5625 0,0.734375 -0.515625,1.171875 -1.75,1.515625 L 3.703125,0 H 4.71875 l -1.1875,-2.328125 c 1.09375,-0.34375 1.625,-1.015625 1.625,-1.84375 C 5.15625,-4.875 4.625,-5.375 3.875,-5.375 c -0.65625,0 -1.296875,0.328125 -1.796875,1.03125 z m 0,0"
             id="id-c926ce99-4754-4491-9e0c-18d2f4192320" />
        </g>
      </g>
      <g
         fill="#000000"
         fill-opacity="1"
         id="id-c9930c91-e046-4279-9334-b7a875902d65"
         transform="translate(-149.118,-124.801)">
        <g
           transform="translate(154.142,138.401)"
           id="g138506">
          <path
             d="m 1.984375,0 h 0.65625 V -4.9375 H 2.0625 l -1.484375,0.921875 0.28125,0.453125 1.125,-0.671875 z m 0,0"
             id="id-f8fa3be4-8b2d-4e3d-ba71-b8839525a37a" />
        </g>
      </g>
    </g>
    <g
       transform="matrix(2.46945,0,0,2.46945,128.54314,176.85937)"
       ns3:version="1.8.1"
       ns3:texconverter="xelatex"
       ns3:pdfconverter="inkscape"
       ns3:text="$\\hat k_2$"
       ns3:preamble="/home/kirito/.config/textext/beamer_preamble.tex"
       ns3:scale="7.0"
       ns3:alignment="middle center"
       ns3:stroke-to-path="0"
       ns3:inkscapeversion="1.0.1"
       ns3:jacobian_sqrt="2.46945"
       id="g138594">
      <defs
         id="id-730029fa-b89e-43dc-9f28-78489e084aaf">
        <g
           id="id-877f31c0-2518-484d-999d-ad15b49c3ef9">
          <g
             id="id-8155c589-cea3-47bd-8a35-c210800e32b3">
            <path
               d="m 5.4375,-6.4375 v 5.890625 H 1.34375 V -6.4375 Z m 0.546875,-0.546875 h -5.1875 V 0 h 5.1875 z m -2.75,4.953125 c -0.21875,0 -0.40625,0.1875 -0.40625,0.421875 0,0.21875 0.1875,0.40625 0.40625,0.40625 0.25,0 0.421875,-0.1875 0.421875,-0.40625 0,-0.234375 -0.171875,-0.421875 -0.421875,-0.421875 z M 3.4375,-5.453125 c -0.5,0 -0.90625,0.1875 -1.25,0.59375 l 0.390625,0.28125 C 2.828125,-4.875 3.09375,-5 3.40625,-5 3.765625,-5 4,-4.8125 4,-4.484375 4,-3.84375 2.953125,-3.953125 2.953125,-2.9375 v 0.296875 H 3.5 V -2.90625 c 0,-0.796875 1.078125,-0.65625 1.078125,-1.625 0,-0.46875 -0.375,-0.921875 -1.140625,-0.921875 z m 0,0"
               id="id-d0ef3041-f814-4e9c-ae0a-faf4927f1fae" />
          </g>
          <g
             id="id-f699a8dc-3d56-4e1f-9bcf-864e2836eae8">
            <path
               d="m -3.21875,-6.3125 1.265625,-0.84375 1.25,0.84375 0.40625,-0.453125 -1.359375,-1.125 h -0.609375 l -1.34375,1.125 z m 0,0"
               id="id-8387b361-ecbb-4f3a-9ad3-da5e15032719" />
          </g>
          <g
             id="id-ebd725a2-2797-4ee6-9691-448d7cfb84bf">
            <path
               d="m 2.515625,-7.484375 -0.90625,0.125 L 0.5625,0 h 0.90625 l 0.4375,-3.15625 C 2.359375,-4.171875 3.0625,-4.640625 3.625,-4.640625 c 0.359375,0 0.5625,0.1875 0.5625,0.5625 0,0.734375 -0.515625,1.171875 -1.75,1.515625 L 3.703125,0 H 4.71875 l -1.1875,-2.328125 c 1.09375,-0.34375 1.625,-1.015625 1.625,-1.84375 C 5.15625,-4.875 4.625,-5.375 3.875,-5.375 c -0.65625,0 -1.296875,0.328125 -1.796875,1.03125 z m 0,0"
               id="id-75a87f39-4b35-4418-a61e-0f8eac6aaec7" />
          </g>
          <g
             id="id-9299e67f-dd2e-4a26-b992-579cff7c97f8">
            <path
               d="m 3.90625,-4.625 v 4.234375 H 0.96875 V -4.625 Z M 4.296875,-5.015625 H 0.578125 V 0 h 3.71875 z m -1.96875,3.5625 c -0.15625,0 -0.296875,0.125 -0.296875,0.296875 0,0.15625 0.140625,0.296875 0.296875,0.296875 C 2.5,-0.859375 2.625,-1 2.625,-1.15625 2.625,-1.328125 2.5,-1.453125 2.328125,-1.453125 Z m 0.140625,-2.46875 c -0.359375,0 -0.640625,0.140625 -0.890625,0.421875 L 1.84375,-3.296875 C 2.03125,-3.5 2.234375,-3.59375 2.453125,-3.59375 c 0.265625,0 0.4375,0.125 0.4375,0.359375 0,0.46875 -0.765625,0.390625 -0.765625,1.125 v 0.203125 h 0.390625 v -0.1875 c 0,-0.5625 0.78125,-0.46875 0.78125,-1.15625 0,-0.34375 -0.28125,-0.671875 -0.828125,-0.671875 z m 0,0"
               id="id-37e4fa24-ec80-46b2-8ca7-f781c058b1ac" />
          </g>
          <g
             id="id-6198a789-81e4-4eaa-96fe-4331ee159e75">
            <path
               d="m 1.84375,-5.03125 c -0.671875,0 -1.140625,0.25 -1.515625,0.734375 l 0.4375,0.34375 c 0.3125,-0.375 0.578125,-0.53125 1.046875,-0.53125 0.546875,0 0.859375,0.328125 0.859375,0.875 0,0.78125 -0.40625,1.328125 -2.25,3.078125 V 0 H 3.40625 l 0.078125,-0.546875 h -2.3125 c 1.625,-1.46875 2.1875,-2.203125 2.1875,-3.09375 0,-0.78125 -0.5625,-1.390625 -1.515625,-1.390625 z m 0,0"
               id="id-8741474b-dce4-4170-9667-5b299039a437" />
          </g>
        </g>
      </defs>
      <g
         fill="#000000"
         fill-opacity="1"
         id="id-1126905a-a342-4bc3-8783-817f5f1268b8"
         transform="translate(-149.118,-124.801)">
        <g
           transform="translate(152.727,132.692)"
           id="g139325">
          <path
             d="m -3.21875,-6.3125 1.265625,-0.84375 1.25,0.84375 0.40625,-0.453125 -1.359375,-1.125 h -0.609375 l -1.34375,1.125 z m 0,0"
             id="id-45441ac0-8db2-410a-b155-7e8e2199eec8" />
        </g>
      </g>
      <g
         fill="#000000"
         fill-opacity="1"
         id="id-43102143-54cc-4274-946c-fd41a870426a"
         transform="translate(-149.118,-124.801)">
        <g
           transform="translate(148.712,134.914)"
           id="g139329">
          <path
             d="m 2.515625,-7.484375 -0.90625,0.125 L 0.5625,0 h 0.90625 l 0.4375,-3.15625 C 2.359375,-4.171875 3.0625,-4.640625 3.625,-4.640625 c 0.359375,0 0.5625,0.1875 0.5625,0.5625 0,0.734375 -0.515625,1.171875 -1.75,1.515625 L 3.703125,0 H 4.71875 l -1.1875,-2.328125 c 1.09375,-0.34375 1.625,-1.015625 1.625,-1.84375 C 5.15625,-4.875 4.625,-5.375 3.875,-5.375 c -0.65625,0 -1.296875,0.328125 -1.796875,1.03125 z m 0,0"
             id="id-444bbf89-c9dc-427d-acb5-d100578d85f7" />
        </g>
      </g>
      <g
         fill="#000000"
         fill-opacity="1"
         id="id-840a9807-ecb8-46eb-a57a-357fc03ad0de"
         transform="translate(-149.118,-124.801)">
        <g
           transform="translate(154.142,138.401)"
           id="g139333">
          <path
             d="m 1.84375,-5.03125 c -0.671875,0 -1.140625,0.25 -1.515625,0.734375 l 0.4375,0.34375 c 0.3125,-0.375 0.578125,-0.53125 1.046875,-0.53125 0.546875,0 0.859375,0.328125 0.859375,0.875 0,0.78125 -0.40625,1.328125 -2.25,3.078125 V 0 H 3.40625 l 0.078125,-0.546875 h -2.3125 c 1.625,-1.46875 2.1875,-2.203125 2.1875,-3.09375 0,-0.78125 -0.5625,-1.390625 -1.515625,-1.390625 z m 0,0"
             id="id-25a48924-6628-4480-b225-ba4d573f42e0" />
        </g>
      </g>
    </g>
    <g
       transform="matrix(2.46945,0,0,2.46945,162.70025,94.810605)"
       ns3:version="1.8.1"
       ns3:texconverter="xelatex"
       ns3:pdfconverter="inkscape"
       ns3:text="$\\hat k_3$"
       ns3:preamble="/home/kirito/.config/textext/beamer_preamble.tex"
       ns3:scale="7.0"
       ns3:alignment="middle center"
       ns3:stroke-to-path="0"
       ns3:inkscapeversion="1.0.1"
       ns3:jacobian_sqrt="2.46945"
       id="g138638">
      <defs
         id="id-a6c78f13-9bc6-446d-83e5-3811d9eb415d">
        <g
           id="id-951e8368-3e1b-4673-9d16-6f93573c7b6e">
          <g
             id="id-ea716291-871c-45aa-a0c6-f5e176cac172">
            <path
               d="m 5.4375,-6.4375 v 5.890625 H 1.34375 V -6.4375 Z m 0.546875,-0.546875 h -5.1875 V 0 h 5.1875 z m -2.75,4.953125 c -0.21875,0 -0.40625,0.1875 -0.40625,0.421875 0,0.21875 0.1875,0.40625 0.40625,0.40625 0.25,0 0.421875,-0.1875 0.421875,-0.40625 0,-0.234375 -0.171875,-0.421875 -0.421875,-0.421875 z M 3.4375,-5.453125 c -0.5,0 -0.90625,0.1875 -1.25,0.59375 l 0.390625,0.28125 C 2.828125,-4.875 3.09375,-5 3.40625,-5 3.765625,-5 4,-4.8125 4,-4.484375 4,-3.84375 2.953125,-3.953125 2.953125,-2.9375 v 0.296875 H 3.5 V -2.90625 c 0,-0.796875 1.078125,-0.65625 1.078125,-1.625 0,-0.46875 -0.375,-0.921875 -1.140625,-0.921875 z m 0,0"
               id="id-6e1b39de-6d94-4928-a168-7a3903dc3b68" />
          </g>
          <g
             id="id-96dfffcf-a08b-476f-9aed-96cdf841386a">
            <path
               d="m -3.21875,-6.3125 1.265625,-0.84375 1.25,0.84375 0.40625,-0.453125 -1.359375,-1.125 h -0.609375 l -1.34375,1.125 z m 0,0"
               id="id-eff12441-3de6-493b-924c-74cdec67f15b" />
          </g>
          <g
             id="id-32588e9f-bd76-47fa-bf00-a599521409a4">
            <path
               d="m 2.515625,-7.484375 -0.90625,0.125 L 0.5625,0 h 0.90625 l 0.4375,-3.15625 C 2.359375,-4.171875 3.0625,-4.640625 3.625,-4.640625 c 0.359375,0 0.5625,0.1875 0.5625,0.5625 0,0.734375 -0.515625,1.171875 -1.75,1.515625 L 3.703125,0 H 4.71875 l -1.1875,-2.328125 c 1.09375,-0.34375 1.625,-1.015625 1.625,-1.84375 C 5.15625,-4.875 4.625,-5.375 3.875,-5.375 c -0.65625,0 -1.296875,0.328125 -1.796875,1.03125 z m 0,0"
               id="id-8adb9c0f-66d5-4a1c-8584-de0f459025ae" />
          </g>
          <g
             id="id-db7eda06-fedd-4931-b2e7-ce05e7ab3267">
            <path
               d="m 3.90625,-4.625 v 4.234375 H 0.96875 V -4.625 Z M 4.296875,-5.015625 H 0.578125 V 0 h 3.71875 z m -1.96875,3.5625 c -0.15625,0 -0.296875,0.125 -0.296875,0.296875 0,0.15625 0.140625,0.296875 0.296875,0.296875 C 2.5,-0.859375 2.625,-1 2.625,-1.15625 2.625,-1.328125 2.5,-1.453125 2.328125,-1.453125 Z m 0.140625,-2.46875 c -0.359375,0 -0.640625,0.140625 -0.890625,0.421875 L 1.84375,-3.296875 C 2.03125,-3.5 2.234375,-3.59375 2.453125,-3.59375 c 0.265625,0 0.4375,0.125 0.4375,0.359375 0,0.46875 -0.765625,0.390625 -0.765625,1.125 v 0.203125 h 0.390625 v -0.1875 c 0,-0.5625 0.78125,-0.46875 0.78125,-1.15625 0,-0.34375 -0.28125,-0.671875 -0.828125,-0.671875 z m 0,0"
               id="id-ae60681c-4c7c-4121-8e23-9e2d527368e0" />
          </g>
          <g
             id="id-7cb3a639-0604-44ed-b9b6-e8a96a2e2c88">
            <path
               d="m 1.796875,-5.03125 c -0.515625,0 -1.015625,0.1875 -1.4375,0.578125 l 0.359375,0.40625 C 1.046875,-4.359375 1.34375,-4.5 1.765625,-4.5 c 0.515625,0 0.90625,0.28125 0.90625,0.8125 0,0.5625 -0.4375,0.828125 -0.921875,0.828125 H 1.46875 L 1.390625,-2.34375 h 0.40625 c 0.578125,0 1,0.234375 1,0.921875 0,0.59375 -0.390625,0.96875 -1.0625,0.96875 -0.40625,0 -0.796875,-0.15625 -1.109375,-0.484375 L 0.21875,-0.578125 C 0.59375,-0.125 1.1875,0.09375 1.75,0.09375 c 1.046875,0 1.75,-0.65625 1.75,-1.515625 0,-0.75 -0.5625,-1.1875 -1.140625,-1.21875 0.546875,-0.125 0.96875,-0.53125 0.96875,-1.140625 0,-0.671875 -0.578125,-1.25 -1.53125,-1.25 z m 0,0"
               id="id-292de5f2-738f-4f34-94e2-668760010cf1" />
          </g>
        </g>
      </defs>
      <g
         fill="#000000"
         fill-opacity="1"
         id="id-d0d10eb6-8250-466a-ae1e-dfa52b33c2a5"
         transform="translate(-149.118,-124.801)">
        <g
           transform="translate(152.727,132.692)"
           id="g140064">
          <path
             d="m -3.21875,-6.3125 1.265625,-0.84375 1.25,0.84375 0.40625,-0.453125 -1.359375,-1.125 h -0.609375 l -1.34375,1.125 z m 0,0"
             id="id-1de06b9d-cd0e-433a-b903-ec3960955fa4" />
        </g>
      </g>
      <g
         fill="#000000"
         fill-opacity="1"
         id="id-064b8ee4-2bd4-4b1f-b7d6-2fa01a008bf8"
         transform="translate(-149.118,-124.801)">
        <g
           transform="translate(148.712,134.914)"
           id="g140068">
          <path
             d="m 2.515625,-7.484375 -0.90625,0.125 L 0.5625,0 h 0.90625 l 0.4375,-3.15625 C 2.359375,-4.171875 3.0625,-4.640625 3.625,-4.640625 c 0.359375,0 0.5625,0.1875 0.5625,0.5625 0,0.734375 -0.515625,1.171875 -1.75,1.515625 L 3.703125,0 H 4.71875 l -1.1875,-2.328125 c 1.09375,-0.34375 1.625,-1.015625 1.625,-1.84375 C 5.15625,-4.875 4.625,-5.375 3.875,-5.375 c -0.65625,0 -1.296875,0.328125 -1.796875,1.03125 z m 0,0"
             id="id-49355df8-92ae-4fa3-951c-4448311b0787" />
        </g>
      </g>
      <g
         fill="#000000"
         fill-opacity="1"
         id="id-a4c1d218-825e-47cf-b4ef-aedd6beb3e94"
         transform="translate(-149.118,-124.801)">
        <g
           transform="translate(154.142,138.401)"
           id="g140072">
          <path
             d="m 1.796875,-5.03125 c -0.515625,0 -1.015625,0.1875 -1.4375,0.578125 l 0.359375,0.40625 C 1.046875,-4.359375 1.34375,-4.5 1.765625,-4.5 c 0.515625,0 0.90625,0.28125 0.90625,0.8125 0,0.5625 -0.4375,0.828125 -0.921875,0.828125 H 1.46875 L 1.390625,-2.34375 h 0.40625 c 0.578125,0 1,0.234375 1,0.921875 0,0.59375 -0.390625,0.96875 -1.0625,0.96875 -0.40625,0 -0.796875,-0.15625 -1.109375,-0.484375 L 0.21875,-0.578125 C 0.59375,-0.125 1.1875,0.09375 1.75,0.09375 c 1.046875,0 1.75,-0.65625 1.75,-1.515625 0,-0.75 -0.5625,-1.1875 -1.140625,-1.21875 0.546875,-0.125 0.96875,-0.53125 0.96875,-1.140625 0,-0.671875 -0.578125,-1.25 -1.53125,-1.25 z m 0,0"
             id="id-c27b4e30-3fc7-4967-88b0-f3682db5ffef" />
        </g>
      </g>
    </g>
    <g
       transform="matrix(2.46945,0,0,2.46945,113.15305,103.0568)"
       ns3:version="1.8.1"
       ns3:texconverter="xelatex"
       ns3:pdfconverter="inkscape"
       ns3:text="$\\theta_1$"
       ns3:preamble="/home/kirito/.config/textext/beamer_preamble.tex"
       ns3:scale="7.0"
       ns3:alignment="middle center"
       ns3:stroke-to-path="0"
       ns3:inkscapeversion="1.0.1"
       ns3:jacobian_sqrt="2.46945"
       id="g140758">
      <defs
         id="id-1f9ca1ee-0b7e-4b1a-ae0b-66d77929baad">
        <g
           id="id-7ab5d225-050e-41dd-9f54-54a0334a4be0">
          <g
             id="id-ec039a32-bb3c-4a4c-9c44-26118bab3169">
            <path
               d="m 5.4375,-6.4375 v 5.890625 H 1.34375 V -6.4375 Z m 0.546875,-0.546875 h -5.1875 V 0 h 5.1875 z m -2.75,4.953125 c -0.21875,0 -0.40625,0.1875 -0.40625,0.421875 0,0.21875 0.1875,0.40625 0.40625,0.40625 0.25,0 0.421875,-0.1875 0.421875,-0.40625 0,-0.234375 -0.171875,-0.421875 -0.421875,-0.421875 z M 3.4375,-5.453125 c -0.5,0 -0.90625,0.1875 -1.25,0.59375 l 0.390625,0.28125 C 2.828125,-4.875 3.09375,-5 3.40625,-5 3.765625,-5 4,-4.8125 4,-4.484375 4,-3.84375 2.953125,-3.953125 2.953125,-2.9375 v 0.296875 H 3.5 V -2.90625 c 0,-0.796875 1.078125,-0.65625 1.078125,-1.625 0,-0.46875 -0.375,-0.921875 -1.140625,-0.921875 z m 0,0"
               id="id-f6b77859-2919-4a78-8b04-d00b0f6d1db0" />
          </g>
          <g
             id="id-be2d78c8-7ef6-4408-a701-87fa4c508049">
            <path
               d="M 4.328125,-3.359375 C 4.0625,-1.484375 3.4375,-0.625 2.5625,-0.625 c -0.671875,0 -1.015625,-0.4375 -1.015625,-1.78125 0,-0.328125 0.015625,-0.609375 0.046875,-0.953125 z m -0.890625,-3.375 c 0.6875,0 1.03125,0.46875 1.03125,1.78125 0,0.3125 -0.015625,0.578125 -0.046875,0.890625 H 1.6875 C 2,-5.953125 2.59375,-6.734375 3.4375,-6.734375 Z m 0.0625,-0.75 c -1.96875,0 -2.859375,2.5 -2.859375,4.9375 C 0.640625,-0.875 1.28125,0.125 2.5,0.125 c 1.953125,0 2.859375,-2.421875 2.859375,-4.953125 0,-1.6875 -0.609375,-2.65625 -1.859375,-2.65625 z m 0,0"
               id="id-c96d4cc3-6cd3-4906-a314-454735905e4a" />
          </g>
          <g
             id="id-cbbe7e66-2c24-499d-b254-8cde9a67d68b">
            <path
               d="m 3.90625,-4.625 v 4.234375 H 0.96875 V -4.625 Z M 4.296875,-5.015625 H 0.578125 V 0 h 3.71875 z m -1.96875,3.5625 c -0.15625,0 -0.296875,0.125 -0.296875,0.296875 0,0.15625 0.140625,0.296875 0.296875,0.296875 C 2.5,-0.859375 2.625,-1 2.625,-1.15625 2.625,-1.328125 2.5,-1.453125 2.328125,-1.453125 Z m 0.140625,-2.46875 c -0.359375,0 -0.640625,0.140625 -0.890625,0.421875 L 1.84375,-3.296875 C 2.03125,-3.5 2.234375,-3.59375 2.453125,-3.59375 c 0.265625,0 0.4375,0.125 0.4375,0.359375 0,0.46875 -0.765625,0.390625 -0.765625,1.125 v 0.203125 h 0.390625 v -0.1875 c 0,-0.5625 0.78125,-0.46875 0.78125,-1.15625 0,-0.34375 -0.28125,-0.671875 -0.828125,-0.671875 z m 0,0"
               id="id-185c5bdb-4f3e-481a-853f-4f837ba01795" />
          </g>
          <g
             id="id-6f6754f4-b613-4848-af6b-d25aa969da88">
            <path
               d="m 1.984375,0 h 0.65625 V -4.9375 H 2.0625 l -1.484375,0.921875 0.28125,0.453125 1.125,-0.671875 z m 0,0"
               id="id-9f1f8ba3-65f7-4cb4-a419-4542e6839afa" />
          </g>
        </g>
      </defs>
      <g
         fill="#000000"
         fill-opacity="1"
         id="id-75e1e1ef-183f-4078-afde-ae9efbdbde10"
         transform="translate(-149.353,-127.281)">
        <g
           transform="translate(148.712,134.765)"
           id="g140751">
          <path
             d="M 4.328125,-3.359375 C 4.0625,-1.484375 3.4375,-0.625 2.5625,-0.625 c -0.671875,0 -1.015625,-0.4375 -1.015625,-1.78125 0,-0.328125 0.015625,-0.609375 0.046875,-0.953125 z m -0.890625,-3.375 c 0.6875,0 1.03125,0.46875 1.03125,1.78125 0,0.3125 -0.015625,0.578125 -0.046875,0.890625 H 1.6875 C 2,-5.953125 2.59375,-6.734375 3.4375,-6.734375 Z m 0.0625,-0.75 c -1.96875,0 -2.859375,2.5 -2.859375,4.9375 C 0.640625,-0.875 1.28125,0.125 2.5,0.125 c 1.953125,0 2.859375,-2.421875 2.859375,-4.953125 0,-1.6875 -0.609375,-2.65625 -1.859375,-2.65625 z m 0,0"
             id="id-58e017b3-877b-408d-95e5-3b8703863b33" />
        </g>
      </g>
      <g
         fill="#000000"
         fill-opacity="1"
         id="id-3b8d8220-026f-4ac5-8bf5-bde624302fe0"
         transform="translate(-149.353,-127.281)">
        <g
           transform="translate(154.421,138.252)"
           id="g140755">
          <path
             d="m 1.984375,0 h 0.65625 V -4.9375 H 2.0625 l -1.484375,0.921875 0.28125,0.453125 1.125,-0.671875 z m 0,0"
             id="id-02e9cffa-2f28-41a4-8e75-7bdf691cbb36" />
        </g>
      </g>
    </g>
    <g
       transform="matrix(2.46945 0 0 2.46945 101.527 134.806)"
       ns3:version="1.8.1"
       ns3:texconverter="xelatex"
       ns3:pdfconverter="inkscape"
       ns3:text="$\\theta_2$"
       ns3:preamble="/home/kirito/.config/textext/beamer_preamble.tex"
       ns3:scale="7.0"
       ns3:alignment="middle center"
       ns3:stroke-to-path="0"
       ns3:inkscapeversion="1.0.1"
       ns3:jacobian_sqrt="2.46945"
       id="g140829">
      <defs
         id="id-573b0733-a862-482a-a5d7-5ab6f8ed8a63">
        <g
           id="id-95264457-95d4-4317-a1a8-97ff0668847d">
          <g
             id="id-58a62e24-8e82-4008-bba9-b6d41a3ee7e0">
            <path
               d="m 5.4375,-6.4375 v 5.890625 H 1.34375 V -6.4375 Z m 0.546875,-0.546875 h -5.1875 V 0 h 5.1875 z m -2.75,4.953125 c -0.21875,0 -0.40625,0.1875 -0.40625,0.421875 0,0.21875 0.1875,0.40625 0.40625,0.40625 0.25,0 0.421875,-0.1875 0.421875,-0.40625 0,-0.234375 -0.171875,-0.421875 -0.421875,-0.421875 z M 3.4375,-5.453125 c -0.5,0 -0.90625,0.1875 -1.25,0.59375 l 0.390625,0.28125 C 2.828125,-4.875 3.09375,-5 3.40625,-5 3.765625,-5 4,-4.8125 4,-4.484375 4,-3.84375 2.953125,-3.953125 2.953125,-2.9375 v 0.296875 H 3.5 V -2.90625 c 0,-0.796875 1.078125,-0.65625 1.078125,-1.625 0,-0.46875 -0.375,-0.921875 -1.140625,-0.921875 z m 0,0"
               id="id-bfca36c0-657d-49cf-99f4-bb7d99562907" />
          </g>
          <g
             id="id-e283173e-a542-43f7-83e9-85facbfe6bea">
            <path
               d="M 4.328125,-3.359375 C 4.0625,-1.484375 3.4375,-0.625 2.5625,-0.625 c -0.671875,0 -1.015625,-0.4375 -1.015625,-1.78125 0,-0.328125 0.015625,-0.609375 0.046875,-0.953125 z m -0.890625,-3.375 c 0.6875,0 1.03125,0.46875 1.03125,1.78125 0,0.3125 -0.015625,0.578125 -0.046875,0.890625 H 1.6875 C 2,-5.953125 2.59375,-6.734375 3.4375,-6.734375 Z m 0.0625,-0.75 c -1.96875,0 -2.859375,2.5 -2.859375,4.9375 C 0.640625,-0.875 1.28125,0.125 2.5,0.125 c 1.953125,0 2.859375,-2.421875 2.859375,-4.953125 0,-1.6875 -0.609375,-2.65625 -1.859375,-2.65625 z m 0,0"
               id="id-7cb88317-d034-4f62-8a29-b39c79478a8a" />
          </g>
          <g
             id="id-f4cd024d-0d66-4754-ac03-90eb460e0de7">
            <path
               d="m 3.90625,-4.625 v 4.234375 H 0.96875 V -4.625 Z M 4.296875,-5.015625 H 0.578125 V 0 h 3.71875 z m -1.96875,3.5625 c -0.15625,0 -0.296875,0.125 -0.296875,0.296875 0,0.15625 0.140625,0.296875 0.296875,0.296875 C 2.5,-0.859375 2.625,-1 2.625,-1.15625 2.625,-1.328125 2.5,-1.453125 2.328125,-1.453125 Z m 0.140625,-2.46875 c -0.359375,0 -0.640625,0.140625 -0.890625,0.421875 L 1.84375,-3.296875 C 2.03125,-3.5 2.234375,-3.59375 2.453125,-3.59375 c 0.265625,0 0.4375,0.125 0.4375,0.359375 0,0.46875 -0.765625,0.390625 -0.765625,1.125 v 0.203125 h 0.390625 v -0.1875 c 0,-0.5625 0.78125,-0.46875 0.78125,-1.15625 0,-0.34375 -0.28125,-0.671875 -0.828125,-0.671875 z m 0,0"
               id="id-49b307f1-3c84-45ae-bc6a-634776bca569" />
          </g>
          <g
             id="id-33765735-dcf9-4c23-9c7a-cb02ac91ac94">
            <path
               d="m 1.84375,-5.03125 c -0.671875,0 -1.140625,0.25 -1.515625,0.734375 l 0.4375,0.34375 c 0.3125,-0.375 0.578125,-0.53125 1.046875,-0.53125 0.546875,0 0.859375,0.328125 0.859375,0.875 0,0.78125 -0.40625,1.328125 -2.25,3.078125 V 0 H 3.40625 l 0.078125,-0.546875 h -2.3125 c 1.625,-1.46875 2.1875,-2.203125 2.1875,-3.09375 0,-0.78125 -0.5625,-1.390625 -1.515625,-1.390625 z m 0,0"
               id="id-d4806bcb-62c5-44c5-b0eb-2ab70c645e38" />
          </g>
        </g>
      </defs>
      <g
         fill="#000000"
         fill-opacity="1"
         id="id-c72cb5ca-b852-4043-a5ff-2425e4dfa365"
         transform="translate(-149.353, -127.281)">
        <g
           transform="translate(148.712, 134.765)"
           id="g141515">
          <path
             d="M 4.328125,-3.359375 C 4.0625,-1.484375 3.4375,-0.625 2.5625,-0.625 c -0.671875,0 -1.015625,-0.4375 -1.015625,-1.78125 0,-0.328125 0.015625,-0.609375 0.046875,-0.953125 z m -0.890625,-3.375 c 0.6875,0 1.03125,0.46875 1.03125,1.78125 0,0.3125 -0.015625,0.578125 -0.046875,0.890625 H 1.6875 C 2,-5.953125 2.59375,-6.734375 3.4375,-6.734375 Z m 0.0625,-0.75 c -1.96875,0 -2.859375,2.5 -2.859375,4.9375 C 0.640625,-0.875 1.28125,0.125 2.5,0.125 c 1.953125,0 2.859375,-2.421875 2.859375,-4.953125 0,-1.6875 -0.609375,-2.65625 -1.859375,-2.65625 z m 0,0"
             id="id-caf89954-c2ab-476a-819b-cc36e8baf423" />
        </g>
      </g>
      <g
         fill="#000000"
         fill-opacity="1"
         id="id-cdb0aabe-05e9-403c-99b1-2359116f1ab8"
         transform="translate(-149.353, -127.281)">
        <g
           transform="translate(154.421, 138.252)"
           id="g141519">
          <path
             d="m 1.84375,-5.03125 c -0.671875,0 -1.140625,0.25 -1.515625,0.734375 l 0.4375,0.34375 c 0.3125,-0.375 0.578125,-0.53125 1.046875,-0.53125 0.546875,0 0.859375,0.328125 0.859375,0.875 0,0.78125 -0.40625,1.328125 -2.25,3.078125 V 0 H 3.40625 l 0.078125,-0.546875 h -2.3125 c 1.625,-1.46875 2.1875,-2.203125 2.1875,-3.09375 0,-0.78125 -0.5625,-1.390625 -1.515625,-1.390625 z m 0,0"
             id="id-1bedc44a-2858-4f9f-9357-19e7421f30c8" />
        </g>
      </g>
    </g>
  </g>
</svg>
