<?xml version="1.0" encoding="UTF-8" standalone="no"?>
<svg
   width="129.24059mm"
   height="112.36403mm"
   viewBox="0 0 129.24058 112.36403"
   version="1.1"
   id="svg8"
   sodipodi:docname="term.svg"
   inkscape:version="1.2.1 (9c6d41e410, 2022-07-14, custom)"
   inkscape:export-filename="/home/kirito/storage/iiserk/acm/solutions/term.png"
   inkscape:export-xdpi="248.64"
   inkscape:export-ydpi="248.64"
   xmlns:inkscape="http://www.inkscape.org/namespaces/inkscape"
   xmlns:sodipodi="http://sodipodi.sourceforge.net/DTD/sodipodi-0.dtd"
   xmlns="http://www.w3.org/2000/svg"
   xmlns:svg="http://www.w3.org/2000/svg"
   xmlns:rdf="http://www.w3.org/1999/02/22-rdf-syntax-ns#"
   xmlns:cc="http://creativecommons.org/ns#"
   xmlns:dc="http://purl.org/dc/elements/1.1/"
   xmlns:ns3="http://www.iki.fi/pav/software/textext/">
  <defs
     id="defs2">
    <inkscape:path-effect
       effect="spiro"
       id="path-effect9655"
       is_visible="true"
       lpeversion="1" />
    <inkscape:path-effect
       effect="spiro"
       id="path-effect9005"
       is_visible="true"
       lpeversion="1" />
    <marker
       style="overflow:visible"
       id="RoundedArrow"
       refX="0"
       refY="0"
       orient="auto-start-reverse"
       inkscape:stockid="RoundedArrow"
       markerWidth="6.1347523"
       markerHeight="5.9304953"
       viewBox="0 0 6.1347524 5.9304951"
       inkscape:isstock="true"
       inkscape:collect="always"
       preserveAspectRatio="xMidYMid">
      <path
         transform="scale(0.7)"
         d="m -0.21114562,-4.1055728 6.42229122,3.21114561 a 1,1 90 0 1 0,1.78885438 L -0.21114562,4.1055728 A 1.236068,1.236068 31.717474 0 1 -2,3 v -6 a 1.236068,1.236068 148.28253 0 1 1.78885438,-1.1055728 z"
         style="fill:context-stroke;fill-rule:evenodd;stroke:none"
         id="path1367" />
    </marker>
    <inkscape:path-effect
       effect="spiro"
       id="path-effect8280"
       is_visible="true"
       lpeversion="1" />
    <g
       id="g8407">
      <symbol
         overflow="visible"
         id="symbol5313">
        <path
           style="stroke:none"
           d=""
           id="path7925" />
      </symbol>
      <symbol
         overflow="visible"
         id="symbol1996">
        <path
           style="stroke:none"
           d="M 3.484375,-0.5625 C 3.59375,-0.15625 3.953125,0.109375 4.375,0.109375 4.71875,0.109375 4.953125,-0.125 5.109375,-0.4375 5.28125,-0.796875 5.40625,-1.40625 5.40625,-1.421875 c 0,-0.109375 -0.078125,-0.109375 -0.109375,-0.109375 -0.109375,0 -0.109375,0.046875 -0.140625,0.1875 -0.140625,0.5625 -0.328125,1.234375 -0.75,1.234375 -0.203125,0 -0.3125,-0.125 -0.3125,-0.453125 0,-0.21875 0.125,-0.6875 0.203125,-1.046875 L 4.578125,-2.6875 C 4.609375,-2.828125 4.703125,-3.203125 4.75,-3.359375 4.796875,-3.59375 4.890625,-3.96875 4.890625,-4.03125 c 0,-0.171875 -0.140625,-0.265625 -0.28125,-0.265625 -0.046875,0 -0.3125,0.015625 -0.390625,0.34375 -0.1875,0.734375 -0.625,2.484375 -0.75,3 -0.015625,0.046875 -0.40625,0.84375 -1.140625,0.84375 -0.515625,0 -0.609375,-0.453125 -0.609375,-0.8125 0,-0.5625 0.28125,-1.34375 0.53125,-2.03125 0.125,-0.3125 0.171875,-0.453125 0.171875,-0.640625 0,-0.4375 -0.3125,-0.8125 -0.8125,-0.8125 -0.953125,0 -1.3125,1.453125 -1.3125,1.53125 0,0.109375 0.09375,0.109375 0.109375,0.109375 0.109375,0 0.109375,-0.03125 0.15625,-0.1875 0.25,-0.859375 0.640625,-1.234375 1.015625,-1.234375 0.09375,0 0.25,0.015625 0.25,0.328125 0,0.234375 -0.109375,0.53125 -0.171875,0.671875 -0.375,1 -0.578125,1.609375 -0.578125,2.09375 0,0.953125 0.6875,1.203125 1.21875,1.203125 0.65625,0 1.015625,-0.453125 1.1875,-0.671875 z m 0,0"
           id="path468" />
      </symbol>
      <symbol
         overflow="visible"
         id="symbol7092">
        <path
           style="stroke:none"
           d="m 2.859375,-6.8125 c 0,0 0,-0.109375 -0.125,-0.109375 -0.234375,0 -0.953125,0.078125 -1.21875,0.109375 -0.078125,0 -0.1875,0.015625 -0.1875,0.1875 0,0.125 0.09375,0.125 0.234375,0.125 0.484375,0 0.5,0.0625 0.5,0.171875 L 2.03125,-6.125 0.59375,-0.390625 c -0.046875,0.140625 -0.046875,0.15625 -0.046875,0.21875 0,0.234375 0.203125,0.28125 0.296875,0.28125 0.125,0 0.265625,-0.09375 0.328125,-0.203125 0.046875,-0.09375 0.5,-1.9375 0.5625,-2.1875 0.34375,0.03125 1.15625,0.1875 1.15625,0.84375 0,0.078125 0,0.109375 -0.03125,0.21875 -0.015625,0.109375 -0.03125,0.234375 -0.03125,0.34375 0,0.578125 0.390625,0.984375 0.90625,0.984375 0.296875,0 0.578125,-0.15625 0.796875,-0.53125 0.25,-0.4375 0.359375,-0.984375 0.359375,-1 0,-0.109375 -0.09375,-0.109375 -0.125,-0.109375 -0.09375,0 -0.109375,0.046875 -0.140625,0.1875 -0.203125,0.71875 -0.421875,1.234375 -0.859375,1.234375 -0.203125,0 -0.328125,-0.109375 -0.328125,-0.46875 0,-0.171875 0.046875,-0.40625 0.078125,-0.5625 C 3.5625,-1.3125 3.5625,-1.34375 3.5625,-1.453125 3.5625,-2.09375 2.9375,-2.375 2.078125,-2.5 2.390625,-2.671875 2.71875,-2.984375 2.9375,-3.234375 3.421875,-3.765625 3.875,-4.1875 4.359375,-4.1875 c 0.0625,0 0.078125,0 0.09375,0.015625 0.125,0.015625 0.125,0.015625 0.21875,0.078125 0.015625,0 0.015625,0.015625 0.03125,0.03125 -0.46875,0.03125 -0.5625,0.421875 -0.5625,0.546875 0,0.15625 0.109375,0.34375 0.375,0.34375 0.265625,0 0.546875,-0.21875 0.546875,-0.609375 0,-0.296875 -0.234375,-0.625 -0.671875,-0.625 -0.28125,0 -0.734375,0.078125 -1.453125,0.875 -0.34375,0.375 -0.734375,0.78125 -1.109375,0.921875 z m 0,0"
           id="path5135" />
      </symbol>
      <symbol
         overflow="visible"
         id="symbol7780">
        <path
           style="stroke:none"
           d=""
           id="path8302" />
      </symbol>
      <symbol
         overflow="visible"
         id="symbol2691">
        <path
           style="stroke:none"
           d="m 3.296875,2.390625 c 0,-0.03125 0,-0.046875 -0.171875,-0.21875 C 1.890625,0.921875 1.5625,-0.96875 1.5625,-2.5 c 0,-1.734375 0.375,-3.46875 1.609375,-4.703125 0.125,-0.125 0.125,-0.140625 0.125,-0.171875 0,-0.078125 -0.03125,-0.109375 -0.09375,-0.109375 -0.109375,0 -1,0.6875 -1.59375,1.953125 -0.5,1.09375 -0.625,2.203125 -0.625,3.03125 0,0.78125 0.109375,1.984375 0.65625,3.125 C 2.25,1.84375 3.09375,2.5 3.203125,2.5 c 0.0625,0 0.09375,-0.03125 0.09375,-0.109375 z m 0,0"
           id="path6243" />
      </symbol>
      <symbol
         overflow="visible"
         id="symbol1452">
        <path
           style="stroke:none"
           d="m 2.875,-2.5 c 0,-0.765625 -0.109375,-1.96875 -0.65625,-3.109375 -0.59375,-1.21875 -1.453125,-1.875 -1.546875,-1.875 -0.0625,0 -0.109375,0.046875 -0.109375,0.109375 0,0.03125 0,0.046875 0.1875,0.234375 0.984375,0.984375 1.546875,2.5625 1.546875,4.640625 0,1.71875 -0.359375,3.46875 -1.59375,4.71875 C 0.5625,2.34375 0.5625,2.359375 0.5625,2.390625 0.5625,2.453125 0.609375,2.5 0.671875,2.5 0.765625,2.5 1.671875,1.8125 2.25,0.546875 2.765625,-0.546875 2.875,-1.65625 2.875,-2.5 Z m 0,0"
           id="path9479" />
      </symbol>
      <symbol
         overflow="visible"
         id="symbol3518">
        <path
           style="stroke:none"
           d=""
           id="path2932" />
      </symbol>
      <symbol
         overflow="visible"
         id="symbol6208">
        <path
           style="stroke:none"
           d="m 2.828125,-6.15625 c 0,-0.390625 0.25,-1.03125 1.34375,-1.09375 C 4.21875,-7.265625 4.25,-7.3125 4.25,-7.359375 c 0,-0.125 -0.078125,-0.125 -0.1875,-0.125 -0.984375,0 -1.90625,0.515625 -1.90625,1.25 v 2.28125 c 0,0.390625 0,0.703125 -0.40625,1.03125 -0.34375,0.296875 -0.71875,0.3125 -0.9375,0.3125 C 0.75,-2.59375 0.71875,-2.546875 0.71875,-2.5 c 0,0.109375 0.0625,0.109375 0.15625,0.125 0.65625,0.03125 1.140625,0.390625 1.25,0.875 0.03125,0.109375 0.03125,0.140625 0.03125,0.5 v 1.96875 c 0,0.421875 0,0.734375 0.46875,1.109375 C 3.015625,2.375 3.671875,2.5 4.0625,2.5 4.171875,2.5 4.25,2.5 4.25,2.375 4.25,2.28125 4.203125,2.28125 4.09375,2.265625 3.46875,2.234375 2.984375,1.90625 2.84375,1.40625 2.828125,1.3125 2.828125,1.296875 2.828125,0.9375 v -2.09375 c 0,-0.453125 -0.09375,-0.625 -0.40625,-0.953125 C 2.21875,-2.3125 1.921875,-2.40625 1.640625,-2.5 c 0.828125,-0.21875 1.1875,-0.6875 1.1875,-1.265625 z m 0,0"
           id="path4659" />
      </symbol>
      <symbol
         overflow="visible"
         id="symbol7518">
        <path
           style="stroke:none"
           d="m 2.15625,1.171875 c 0,0.390625 -0.265625,1.03125 -1.34375,1.09375 C 0.75,2.28125 0.71875,2.328125 0.71875,2.375 0.71875,2.5 0.828125,2.5 0.921875,2.5 1.890625,2.5 2.8125,2 2.828125,1.25 v -2.28125 c 0,-0.390625 0,-0.703125 0.390625,-1.03125 C 3.5625,-2.359375 3.953125,-2.375 4.171875,-2.375 4.21875,-2.390625 4.25,-2.4375 4.25,-2.5 4.25,-2.59375 4.203125,-2.59375 4.09375,-2.609375 3.4375,-2.640625 2.953125,-3 2.84375,-3.484375 2.828125,-3.59375 2.828125,-3.625 2.828125,-3.984375 v -1.96875 c 0,-0.421875 0,-0.734375 -0.484375,-1.109375 C 1.9375,-7.375 1.25,-7.484375 0.921875,-7.484375 c -0.09375,0 -0.203125,0 -0.203125,0.125 0,0.09375 0.0625,0.09375 0.15625,0.109375 0.625,0.03125 1.125,0.359375 1.25,0.859375 0.03125,0.09375 0.03125,0.109375 0.03125,0.46875 v 2.09375 c 0,0.453125 0.078125,0.625 0.390625,0.953125 0.21875,0.203125 0.5,0.296875 0.78125,0.375 -0.8125,0.234375 -1.171875,0.703125 -1.171875,1.28125 z m 0,0"
           id="path521" />
      </symbol>
      <symbol
         overflow="visible"
         id="symbol9361">
        <path
           style="stroke:none"
           d=""
           id="path7785" />
      </symbol>
      <symbol
         overflow="visible"
         id="symbol2466">
        <path
           style="stroke:none"
           d="m 2.265625,-4.359375 c 0,-0.109375 -0.09375,-0.265625 -0.28125,-0.265625 -0.1875,0 -0.390625,0.1875 -0.390625,0.390625 0,0.109375 0.078125,0.265625 0.28125,0.265625 0.1875,0 0.390625,-0.203125 0.390625,-0.390625 z M 0.84375,-0.8125 c -0.03125,0.09375 -0.0625,0.171875 -0.0625,0.296875 0,0.328125 0.265625,0.578125 0.65625,0.578125 0.6875,0 1,-0.953125 1,-1.0625 0,-0.09375 -0.09375,-0.09375 -0.109375,-0.09375 -0.09375,0 -0.109375,0.046875 -0.140625,0.125 -0.15625,0.5625 -0.453125,0.84375 -0.734375,0.84375 -0.140625,0 -0.171875,-0.09375 -0.171875,-0.25 0,-0.15625 0.046875,-0.28125 0.109375,-0.4375 C 1.46875,-1 1.546875,-1.1875 1.609375,-1.375 1.671875,-1.546875 1.9375,-2.171875 1.953125,-2.265625 1.984375,-2.328125 2,-2.40625 2,-2.484375 2,-2.8125 1.71875,-3.078125 1.34375,-3.078125 0.640625,-3.078125 0.328125,-2.125 0.328125,-2 c 0,0.078125 0.09375,0.078125 0.125,0.078125 0.09375,0 0.09375,-0.03125 0.125,-0.109375 C 0.75,-2.625 1.0625,-2.875 1.3125,-2.875 c 0.109375,0 0.171875,0.046875 0.171875,0.234375 0,0.171875 -0.03125,0.265625 -0.203125,0.703125 z m 0,0"
           id="path767" />
      </symbol>
    </g>
    <g
       id="g8881">
      <symbol
         overflow="visible"
         id="symbol4329">
        <path
           style="stroke:none"
           d=""
           id="path4574" />
      </symbol>
      <symbol
         overflow="visible"
         id="symbol9981">
        <path
           style="stroke:none"
           d="m 2.140625,-2.359375 v -4.5625 L 0.375,-6.84375 V -6.375 c 0.609375,0 0.6875,0 0.6875,0.390625 V -0.46875 H 0.375 V 0 c 0.359375,-0.015625 0.828125,-0.03125 1.1875,-0.03125 0.375,0 0.84375,0.015625 1.203125,0.03125 v -0.46875 h -0.6875 V -1.734375 C 2.375,-1.96875 2.453125,-2.03125 2.65625,-2.15625 l 1,1.25 c 0.09375,0.125 0.25,0.3125 0.25,0.34375 0,0.09375 -0.171875,0.09375 -0.3125,0.09375 V 0 c 0.296875,-0.015625 1.171875,-0.03125 1.21875,-0.03125 0.359375,0 0.703125,0.015625 1.046875,0.03125 V -0.46875 H 5.6875 c -0.4375,0 -0.46875,-0.046875 -0.59375,-0.203125 L 3.40625,-2.765625 4.703125,-3.78125 C 4.84375,-3.890625 4.9375,-3.953125 5.609375,-3.953125 v -0.46875 c -0.28125,0.03125 -0.53125,0.03125 -0.78125,0.03125 -0.265625,0 -0.921875,-0.03125 -1.15625,-0.03125 v 0.46875 c 0.234375,0 0.265625,0.03125 0.34375,0.109375 z m 0,0"
           id="path4984" />
      </symbol>
      <symbol
         overflow="visible"
         id="symbol4223">
        <path
           style="stroke:none"
           d=""
           id="path4380" />
      </symbol>
      <symbol
         overflow="visible"
         id="symbol4017">
        <path
           style="stroke:none"
           d="m 2.78125,-4.328125 c 0,-0.25 -0.046875,-0.25 -0.34375,-0.25 C 2,-4.21875 1.4375,-4.125 0.875,-4.125 H 0.703125 v 0.390625 H 0.875 c 0.28125,0 0.703125,-0.046875 1,-0.140625 v 3.484375 H 0.78125 V 0 c 0.328125,-0.03125 1.171875,-0.03125 1.546875,-0.03125 0.25,0 0.5,0.015625 0.75,0.015625 0.21875,0 0.578125,0 0.78125,0.015625 V -0.390625 H 2.78125 Z m 0,0"
           id="path717" />
      </symbol>
    </g>
    <g
       id="g1178">
      <symbol
         overflow="visible"
         id="symbol2668">
        <path
           style="stroke:none"
           d=""
           id="path7650" />
      </symbol>
      <symbol
         overflow="visible"
         id="symbol2327">
        <path
           style="stroke:none"
           d="m 2.140625,-2.359375 v -4.5625 L 0.375,-6.84375 V -6.375 c 0.609375,0 0.6875,0 0.6875,0.390625 V -0.46875 H 0.375 V 0 c 0.359375,-0.015625 0.828125,-0.03125 1.1875,-0.03125 0.375,0 0.84375,0.015625 1.203125,0.03125 v -0.46875 h -0.6875 V -1.734375 C 2.375,-1.96875 2.453125,-2.03125 2.65625,-2.15625 l 1,1.25 c 0.09375,0.125 0.25,0.3125 0.25,0.34375 0,0.09375 -0.171875,0.09375 -0.3125,0.09375 V 0 c 0.296875,-0.015625 1.171875,-0.03125 1.21875,-0.03125 0.359375,0 0.703125,0.015625 1.046875,0.03125 V -0.46875 H 5.6875 c -0.4375,0 -0.46875,-0.046875 -0.59375,-0.203125 L 3.40625,-2.765625 4.703125,-3.78125 C 4.84375,-3.890625 4.9375,-3.953125 5.609375,-3.953125 v -0.46875 c -0.28125,0.03125 -0.53125,0.03125 -0.78125,0.03125 -0.265625,0 -0.921875,-0.03125 -1.15625,-0.03125 v 0.46875 c 0.234375,0 0.265625,0.03125 0.34375,0.109375 z m 0,0"
           id="path5953" />
      </symbol>
      <symbol
         overflow="visible"
         id="symbol9679">
        <path
           style="stroke:none"
           d=""
           id="path5392" />
      </symbol>
      <symbol
         overflow="visible"
         id="symbol1888">
        <path
           style="stroke:none"
           d="M 4.03125,-1.59375 H 3.59375 C 3.578125,-1.5 3.515625,-1.015625 3.390625,-0.984375 c -0.15625,0.03125 -0.5625,0.03125 -0.734375,0.03125 H 1.703125 c 0.390625,-0.28125 0.78125,-0.578125 1.1875,-0.828125 0.5625,-0.359375 1.140625,-0.734375 1.140625,-1.4375 0,-0.828125 -0.796875,-1.359375 -1.90625,-1.359375 -0.9375,0 -1.65625,0.375 -1.65625,1.03125 0,0.40625 0.328125,0.5625 0.546875,0.5625 0.25,0 0.53125,-0.171875 0.53125,-0.546875 0,-0.34375 -0.25,-0.46875 -0.265625,-0.484375 0.25,-0.15625 0.5625,-0.171875 0.65625,-0.171875 0.578125,0 1.046875,0.375 1.046875,0.984375 0,0.53125 -0.359375,0.984375 -0.765625,1.328125 L 0.5625,-0.390625 C 0.484375,-0.3125 0.46875,-0.3125 0.46875,-0.171875 V 0 h 3.328125 z m 0,0"
           id="path2149" />
      </symbol>
    </g>
    <g
       id="g8821">
      <symbol
         overflow="visible"
         id="symbol8001">
        <path
           style="stroke:none"
           d=""
           id="path4233" />
      </symbol>
      <symbol
         overflow="visible"
         id="symbol4544">
        <path
           style="stroke:none"
           d="m 2.140625,-2.359375 v -4.5625 L 0.375,-6.84375 V -6.375 c 0.609375,0 0.6875,0 0.6875,0.390625 V -0.46875 H 0.375 V 0 c 0.359375,-0.015625 0.828125,-0.03125 1.1875,-0.03125 0.375,0 0.84375,0.015625 1.203125,0.03125 v -0.46875 h -0.6875 V -1.734375 C 2.375,-1.96875 2.453125,-2.03125 2.65625,-2.15625 l 1,1.25 c 0.09375,0.125 0.25,0.3125 0.25,0.34375 0,0.09375 -0.171875,0.09375 -0.3125,0.09375 V 0 c 0.296875,-0.015625 1.171875,-0.03125 1.21875,-0.03125 0.359375,0 0.703125,0.015625 1.046875,0.03125 V -0.46875 H 5.6875 c -0.4375,0 -0.46875,-0.046875 -0.59375,-0.203125 L 3.40625,-2.765625 4.703125,-3.78125 C 4.84375,-3.890625 4.9375,-3.953125 5.609375,-3.953125 v -0.46875 c -0.28125,0.03125 -0.53125,0.03125 -0.78125,0.03125 -0.265625,0 -0.921875,-0.03125 -1.15625,-0.03125 v 0.46875 c 0.234375,0 0.265625,0.03125 0.34375,0.109375 z m 0,0"
           id="path6849" />
      </symbol>
      <symbol
         overflow="visible"
         id="symbol1366">
        <path
           style="stroke:none"
           d=""
           id="path1698" />
      </symbol>
      <symbol
         overflow="visible"
         id="symbol8555">
        <path
           style="stroke:none"
           d="m 2.109375,-2.265625 c 0.828125,0 0.859375,0.625 0.859375,1 0,0.296875 0,1 -0.84375,1 C 1.9375,-0.265625 1.5,-0.3125 1.203125,-0.5 1.359375,-0.5625 1.53125,-0.71875 1.53125,-1.015625 c 0,-0.328125 -0.234375,-0.5625 -0.5625,-0.5625 -0.34375,0 -0.578125,0.234375 -0.578125,0.5625 0,0.71875 0.78125,1.09375 1.765625,1.09375 1.453125,0 1.953125,-0.75 1.953125,-1.34375 0,-0.53125 -0.4375,-1.015625 -1.21875,-1.1875 0.5,-0.1875 0.96875,-0.546875 0.96875,-1.125 0,-0.546875 -0.5625,-1 -1.671875,-1 -0.953125,0 -1.546875,0.46875 -1.546875,1.046875 0,0.359375 0.265625,0.546875 0.53125,0.546875 0.34375,0 0.53125,-0.265625 0.53125,-0.53125 0,-0.359375 -0.28125,-0.484375 -0.34375,-0.5 C 1.640625,-4.21875 2,-4.25 2.140625,-4.25 c 0.6875,0 0.6875,0.453125 0.6875,0.640625 0,0.328125 -0.140625,0.96875 -0.828125,1 -0.1875,0.015625 -0.359375,0.015625 -0.390625,0.03125 -0.09375,0.03125 -0.09375,0.109375 -0.09375,0.15625 0,0.15625 0.09375,0.15625 0.21875,0.15625 z m 0,0"
           id="path150" />
      </symbol>
    </g>
    <g
       id="g9683">
      <symbol
         overflow="visible"
         id="symbol8724">
        <path
           style="stroke:none"
           d=""
           id="path4834" />
      </symbol>
      <symbol
         overflow="visible"
         id="symbol4130">
        <path
           style="stroke:none"
           d="m 2.140625,-2.359375 v -4.5625 L 0.375,-6.84375 V -6.375 c 0.609375,0 0.6875,0 0.6875,0.390625 V -0.46875 H 0.375 V 0 c 0.359375,-0.015625 0.828125,-0.03125 1.1875,-0.03125 0.375,0 0.84375,0.015625 1.203125,0.03125 v -0.46875 h -0.6875 V -1.734375 C 2.375,-1.96875 2.453125,-2.03125 2.65625,-2.15625 l 1,1.25 c 0.09375,0.125 0.25,0.3125 0.25,0.34375 0,0.09375 -0.171875,0.09375 -0.3125,0.09375 V 0 c 0.296875,-0.015625 1.171875,-0.03125 1.21875,-0.03125 0.359375,0 0.703125,0.015625 1.046875,0.03125 V -0.46875 H 5.6875 c -0.4375,0 -0.46875,-0.046875 -0.59375,-0.203125 L 3.40625,-2.765625 4.703125,-3.78125 C 4.84375,-3.890625 4.9375,-3.953125 5.609375,-3.953125 v -0.46875 c -0.28125,0.03125 -0.53125,0.03125 -0.78125,0.03125 -0.265625,0 -0.921875,-0.03125 -1.15625,-0.03125 v 0.46875 c 0.234375,0 0.265625,0.03125 0.34375,0.109375 z m 0,0"
           id="path1218" />
      </symbol>
      <symbol
         overflow="visible"
         id="symbol8131">
        <path
           style="stroke:none"
           d=""
           id="path7606" />
      </symbol>
      <symbol
         overflow="visible"
         id="symbol3620">
        <path
           style="stroke:none"
           d="M 4.21875,-1.078125 V -1.46875 h -0.75 V -4.375 c 0,-0.203125 -0.046875,-0.234375 -0.25,-0.234375 H 3.109375 c -0.125,0 -0.1875,0 -0.265625,0.09375 l -2.5625,3.046875 v 0.390625 h 2.234375 v 0.6875 h -0.875 V 0 c 0.34375,-0.03125 0.96875,-0.03125 1.328125,-0.03125 0.15625,0 1.078125,0.015625 1.25,0.03125 v -0.390625 h -0.75 v -0.6875 z m -1.625,-2.578125 v 2.1875 H 0.765625 Z m 0,0"
           id="path9363" />
      </symbol>
    </g>
    <g
       id="g3037">
      <symbol
         overflow="visible"
         id="symbol3682">
        <path
           style="stroke:none"
           d=""
           id="path5447" />
      </symbol>
      <symbol
         overflow="visible"
         id="symbol4195">
        <path
           style="stroke:none"
           d="M 6.265625,-5.671875 C 6.75,-6.453125 7.171875,-6.484375 7.53125,-6.5 c 0.125,-0.015625 0.140625,-0.171875 0.140625,-0.1875 0,-0.078125 -0.0625,-0.125 -0.140625,-0.125 -0.25,0 -0.546875,0.03125 -0.8125,0.03125 -0.328125,0 -0.671875,-0.03125 -0.984375,-0.03125 -0.0625,0 -0.1875,0 -0.1875,0.1875 0,0.109375 0.078125,0.125 0.15625,0.125 0.265625,0.015625 0.453125,0.125 0.453125,0.328125 0,0.15625 -0.140625,0.375 -0.140625,0.375 l -3.0625,4.875 -0.6875,-5.28125 C 2.265625,-6.375 2.5,-6.5 2.953125,-6.5 c 0.140625,0 0.25,0 0.25,-0.203125 0,-0.078125 -0.078125,-0.109375 -0.125,-0.109375 -0.40625,0 -0.828125,0.03125 -1.25,0.03125 -0.171875,0 -0.359375,0 -0.546875,0 -0.171875,0 -0.359375,-0.03125 -0.53125,-0.03125 -0.078125,0 -0.1875,0 -0.1875,0.1875 0,0.125 0.078125,0.125 0.25,0.125 0.546875,0 0.5625,0.09375 0.59375,0.34375 L 2.1875,-0.015625 C 2.21875,0.1875 2.265625,0.21875 2.390625,0.21875 c 0.15625,0 0.203125,-0.046875 0.28125,-0.171875 z m 0,0"
           id="path3575" />
      </symbol>
      <symbol
         overflow="visible"
         id="symbol1298">
        <path
           style="stroke:none"
           d=""
           id="path9679" />
      </symbol>
      <symbol
         overflow="visible"
         id="symbol1782">
        <path
           style="stroke:none"
           d="m 3.296875,2.390625 c 0,-0.03125 0,-0.046875 -0.171875,-0.21875 C 1.890625,0.921875 1.5625,-0.96875 1.5625,-2.5 c 0,-1.734375 0.375,-3.46875 1.609375,-4.703125 0.125,-0.125 0.125,-0.140625 0.125,-0.171875 0,-0.078125 -0.03125,-0.109375 -0.09375,-0.109375 -0.109375,0 -1,0.6875 -1.59375,1.953125 -0.5,1.09375 -0.625,2.203125 -0.625,3.03125 0,0.78125 0.109375,1.984375 0.65625,3.125 C 2.25,1.84375 3.09375,2.5 3.203125,2.5 c 0.0625,0 0.09375,-0.03125 0.09375,-0.109375 z m 0,0"
           id="path4665" />
      </symbol>
      <symbol
         overflow="visible"
         id="symbol1943">
        <path
           style="stroke:none"
           d=""
           id="path2408" />
      </symbol>
      <symbol
         overflow="visible"
         id="symbol1478">
        <path
           style="stroke:none"
           d="m 2.828125,-6.15625 c 0,-0.390625 0.25,-1.03125 1.34375,-1.09375 C 4.21875,-7.265625 4.25,-7.3125 4.25,-7.359375 c 0,-0.125 -0.078125,-0.125 -0.1875,-0.125 -0.984375,0 -1.90625,0.515625 -1.90625,1.25 v 2.28125 c 0,0.390625 0,0.703125 -0.40625,1.03125 -0.34375,0.296875 -0.71875,0.3125 -0.9375,0.3125 C 0.75,-2.59375 0.71875,-2.546875 0.71875,-2.5 c 0,0.109375 0.0625,0.109375 0.15625,0.125 0.65625,0.03125 1.140625,0.390625 1.25,0.875 0.03125,0.109375 0.03125,0.140625 0.03125,0.5 v 1.96875 c 0,0.421875 0,0.734375 0.46875,1.109375 C 3.015625,2.375 3.671875,2.5 4.0625,2.5 4.171875,2.5 4.25,2.5 4.25,2.375 4.25,2.28125 4.203125,2.28125 4.09375,2.265625 3.46875,2.234375 2.984375,1.90625 2.84375,1.40625 2.828125,1.3125 2.828125,1.296875 2.828125,0.9375 v -2.09375 c 0,-0.453125 -0.09375,-0.625 -0.40625,-0.953125 C 2.21875,-2.3125 1.921875,-2.40625 1.640625,-2.5 c 0.828125,-0.21875 1.1875,-0.6875 1.1875,-1.265625 z m 0,0"
           id="path4155" />
      </symbol>
      <symbol
         overflow="visible"
         id="symbol9102">
        <path
           style="stroke:none"
           d="m 2.15625,1.171875 c 0,0.390625 -0.265625,1.03125 -1.34375,1.09375 C 0.75,2.28125 0.71875,2.328125 0.71875,2.375 0.71875,2.5 0.828125,2.5 0.921875,2.5 1.890625,2.5 2.8125,2 2.828125,1.25 v -2.28125 c 0,-0.390625 0,-0.703125 0.390625,-1.03125 C 3.5625,-2.359375 3.953125,-2.375 4.171875,-2.375 4.21875,-2.390625 4.25,-2.4375 4.25,-2.5 4.25,-2.59375 4.203125,-2.59375 4.09375,-2.609375 3.4375,-2.640625 2.953125,-3 2.84375,-3.484375 2.828125,-3.59375 2.828125,-3.625 2.828125,-3.984375 v -1.96875 c 0,-0.421875 0,-0.734375 -0.484375,-1.109375 C 1.9375,-7.375 1.25,-7.484375 0.921875,-7.484375 c -0.09375,0 -0.203125,0 -0.203125,0.125 0,0.09375 0.0625,0.09375 0.15625,0.109375 0.625,0.03125 1.125,0.359375 1.25,0.859375 0.03125,0.09375 0.03125,0.109375 0.03125,0.46875 v 2.09375 c 0,0.453125 0.078125,0.625 0.390625,0.953125 0.21875,0.203125 0.5,0.296875 0.78125,0.375 -0.8125,0.234375 -1.171875,0.703125 -1.171875,1.28125 z m 0,0"
           id="path7583" />
      </symbol>
      <symbol
         overflow="visible"
         id="symbol972">
        <path
           style="stroke:none"
           d=""
           id="path6606" />
      </symbol>
      <symbol
         overflow="visible"
         id="symbol454">
        <path
           style="stroke:none"
           d="m 2.140625,-2.359375 v -4.5625 L 0.375,-6.84375 V -6.375 c 0.609375,0 0.6875,0 0.6875,0.390625 V -0.46875 H 0.375 V 0 c 0.359375,-0.015625 0.828125,-0.03125 1.1875,-0.03125 0.375,0 0.84375,0.015625 1.203125,0.03125 v -0.46875 h -0.6875 V -1.734375 C 2.375,-1.96875 2.453125,-2.03125 2.65625,-2.15625 l 1,1.25 c 0.09375,0.125 0.25,0.3125 0.25,0.34375 0,0.09375 -0.171875,0.09375 -0.3125,0.09375 V 0 c 0.296875,-0.015625 1.171875,-0.03125 1.21875,-0.03125 0.359375,0 0.703125,0.015625 1.046875,0.03125 V -0.46875 H 5.6875 c -0.4375,0 -0.46875,-0.046875 -0.59375,-0.203125 L 3.40625,-2.765625 4.703125,-3.78125 C 4.84375,-3.890625 4.9375,-3.953125 5.609375,-3.953125 v -0.46875 c -0.28125,0.03125 -0.53125,0.03125 -0.78125,0.03125 -0.265625,0 -0.921875,-0.03125 -1.15625,-0.03125 v 0.46875 c 0.234375,0 0.265625,0.03125 0.34375,0.109375 z m 0,0"
           id="path8742" />
      </symbol>
      <symbol
         overflow="visible"
         id="symbol4269">
        <path
           style="stroke:none"
           d=""
           id="path9086" />
      </symbol>
      <symbol
         overflow="visible"
         id="symbol5983">
        <path
           style="stroke:none"
           d="m 1.828125,-4.265625 c 0,-0.34375 -0.28125,-0.578125 -0.5625,-0.578125 -0.34375,0 -0.578125,0.265625 -0.578125,0.5625 0,0.34375 0.28125,0.578125 0.5625,0.578125 0.34375,0 0.578125,-0.28125 0.578125,-0.5625 z m -1.34375,1.1875 V -2.6875 c 0.40625,0 0.453125,0 0.453125,0.265625 v 2.03125 H 0.46875 V 0 c 0.015625,0 0.5625,-0.03125 0.875,-0.03125 0.28125,0 0.5625,0.015625 0.84375,0.03125 V -0.390625 H 1.765625 v -2.75 z m 0,0"
           id="path3769" />
      </symbol>
    </g>
    <g
       id="g9571">
      <symbol
         overflow="visible"
         id="symbol6789">
        <path
           style="stroke:none"
           d=""
           id="path6417" />
      </symbol>
      <symbol
         overflow="visible"
         id="symbol9473">
        <path
           style="stroke:none"
           d="M 6.265625,-5.671875 C 6.75,-6.453125 7.171875,-6.484375 7.53125,-6.5 c 0.125,-0.015625 0.140625,-0.171875 0.140625,-0.1875 0,-0.078125 -0.0625,-0.125 -0.140625,-0.125 -0.25,0 -0.546875,0.03125 -0.8125,0.03125 -0.328125,0 -0.671875,-0.03125 -0.984375,-0.03125 -0.0625,0 -0.1875,0 -0.1875,0.1875 0,0.109375 0.078125,0.125 0.15625,0.125 0.265625,0.015625 0.453125,0.125 0.453125,0.328125 0,0.15625 -0.140625,0.375 -0.140625,0.375 l -3.0625,4.875 -0.6875,-5.28125 C 2.265625,-6.375 2.5,-6.5 2.953125,-6.5 c 0.140625,0 0.25,0 0.25,-0.203125 0,-0.078125 -0.078125,-0.109375 -0.125,-0.109375 -0.40625,0 -0.828125,0.03125 -1.25,0.03125 -0.171875,0 -0.359375,0 -0.546875,0 -0.171875,0 -0.359375,-0.03125 -0.53125,-0.03125 -0.078125,0 -0.1875,0 -0.1875,0.1875 0,0.125 0.078125,0.125 0.25,0.125 0.546875,0 0.5625,0.09375 0.59375,0.34375 L 2.1875,-0.015625 C 2.21875,0.1875 2.265625,0.21875 2.390625,0.21875 c 0.15625,0 0.203125,-0.046875 0.28125,-0.171875 z m 0,0"
           id="path8555" />
      </symbol>
      <symbol
         overflow="visible"
         id="symbol96">
        <path
           style="stroke:none"
           d=""
           id="path4641" />
      </symbol>
      <symbol
         overflow="visible"
         id="symbol3419">
        <path
           style="stroke:none"
           d="m 3.296875,2.390625 c 0,-0.03125 0,-0.046875 -0.171875,-0.21875 C 1.890625,0.921875 1.5625,-0.96875 1.5625,-2.5 c 0,-1.734375 0.375,-3.46875 1.609375,-4.703125 0.125,-0.125 0.125,-0.140625 0.125,-0.171875 0,-0.078125 -0.03125,-0.109375 -0.09375,-0.109375 -0.109375,0 -1,0.6875 -1.59375,1.953125 -0.5,1.09375 -0.625,2.203125 -0.625,3.03125 0,0.78125 0.109375,1.984375 0.65625,3.125 C 2.25,1.84375 3.09375,2.5 3.203125,2.5 c 0.0625,0 0.09375,-0.03125 0.09375,-0.109375 z m 0,0"
           id="path6751" />
      </symbol>
      <symbol
         overflow="visible"
         id="symbol6948">
        <path
           style="stroke:none"
           d="m 2.875,-2.5 c 0,-0.765625 -0.109375,-1.96875 -0.65625,-3.109375 -0.59375,-1.21875 -1.453125,-1.875 -1.546875,-1.875 -0.0625,0 -0.109375,0.046875 -0.109375,0.109375 0,0.03125 0,0.046875 0.1875,0.234375 0.984375,0.984375 1.546875,2.5625 1.546875,4.640625 0,1.71875 -0.359375,3.46875 -1.59375,4.71875 C 0.5625,2.34375 0.5625,2.359375 0.5625,2.390625 0.5625,2.453125 0.609375,2.5 0.671875,2.5 0.765625,2.5 1.671875,1.8125 2.25,0.546875 2.765625,-0.546875 2.875,-1.65625 2.875,-2.5 Z m 0,0"
           id="path5960" />
      </symbol>
      <symbol
         overflow="visible"
         id="symbol5561">
        <path
           style="stroke:none"
           d=""
           id="path9492" />
      </symbol>
      <symbol
         overflow="visible"
         id="symbol6663">
        <path
           style="stroke:none"
           d="m 2.828125,-6.15625 c 0,-0.390625 0.25,-1.03125 1.34375,-1.09375 C 4.21875,-7.265625 4.25,-7.3125 4.25,-7.359375 c 0,-0.125 -0.078125,-0.125 -0.1875,-0.125 -0.984375,0 -1.90625,0.515625 -1.90625,1.25 v 2.28125 c 0,0.390625 0,0.703125 -0.40625,1.03125 -0.34375,0.296875 -0.71875,0.3125 -0.9375,0.3125 C 0.75,-2.59375 0.71875,-2.546875 0.71875,-2.5 c 0,0.109375 0.0625,0.109375 0.15625,0.125 0.65625,0.03125 1.140625,0.390625 1.25,0.875 0.03125,0.109375 0.03125,0.140625 0.03125,0.5 v 1.96875 c 0,0.421875 0,0.734375 0.46875,1.109375 C 3.015625,2.375 3.671875,2.5 4.0625,2.5 4.171875,2.5 4.25,2.5 4.25,2.375 4.25,2.28125 4.203125,2.28125 4.09375,2.265625 3.46875,2.234375 2.984375,1.90625 2.84375,1.40625 2.828125,1.3125 2.828125,1.296875 2.828125,0.9375 v -2.09375 c 0,-0.453125 -0.09375,-0.625 -0.40625,-0.953125 C 2.21875,-2.3125 1.921875,-2.40625 1.640625,-2.5 c 0.828125,-0.21875 1.1875,-0.6875 1.1875,-1.265625 z m 0,0"
           id="path2245" />
      </symbol>
      <symbol
         overflow="visible"
         id="symbol8159">
        <path
           style="stroke:none"
           d="m 2.15625,1.171875 c 0,0.390625 -0.265625,1.03125 -1.34375,1.09375 C 0.75,2.28125 0.71875,2.328125 0.71875,2.375 0.71875,2.5 0.828125,2.5 0.921875,2.5 1.890625,2.5 2.8125,2 2.828125,1.25 v -2.28125 c 0,-0.390625 0,-0.703125 0.390625,-1.03125 C 3.5625,-2.359375 3.953125,-2.375 4.171875,-2.375 4.21875,-2.390625 4.25,-2.4375 4.25,-2.5 4.25,-2.59375 4.203125,-2.59375 4.09375,-2.609375 3.4375,-2.640625 2.953125,-3 2.84375,-3.484375 2.828125,-3.59375 2.828125,-3.625 2.828125,-3.984375 v -1.96875 c 0,-0.421875 0,-0.734375 -0.484375,-1.109375 C 1.9375,-7.375 1.25,-7.484375 0.921875,-7.484375 c -0.09375,0 -0.203125,0 -0.203125,0.125 0,0.09375 0.0625,0.09375 0.15625,0.109375 0.625,0.03125 1.125,0.359375 1.25,0.859375 0.03125,0.09375 0.03125,0.109375 0.03125,0.46875 v 2.09375 c 0,0.453125 0.078125,0.625 0.390625,0.953125 0.21875,0.203125 0.5,0.296875 0.78125,0.375 -0.8125,0.234375 -1.171875,0.703125 -1.171875,1.28125 z m 0,0"
           id="path3553" />
      </symbol>
      <symbol
         overflow="visible"
         id="symbol8592">
        <path
           style="stroke:none"
           d=""
           id="path4443" />
      </symbol>
      <symbol
         overflow="visible"
         id="symbol4060">
        <path
           style="stroke:none"
           d="m 2.140625,-2.359375 v -4.5625 L 0.375,-6.84375 V -6.375 c 0.609375,0 0.6875,0 0.6875,0.390625 V -0.46875 H 0.375 V 0 c 0.359375,-0.015625 0.828125,-0.03125 1.1875,-0.03125 0.375,0 0.84375,0.015625 1.203125,0.03125 v -0.46875 h -0.6875 V -1.734375 C 2.375,-1.96875 2.453125,-2.03125 2.65625,-2.15625 l 1,1.25 c 0.09375,0.125 0.25,0.3125 0.25,0.34375 0,0.09375 -0.171875,0.09375 -0.3125,0.09375 V 0 c 0.296875,-0.015625 1.171875,-0.03125 1.21875,-0.03125 0.359375,0 0.703125,0.015625 1.046875,0.03125 V -0.46875 H 5.6875 c -0.4375,0 -0.46875,-0.046875 -0.59375,-0.203125 L 3.40625,-2.765625 4.703125,-3.78125 C 4.84375,-3.890625 4.9375,-3.953125 5.609375,-3.953125 v -0.46875 c -0.28125,0.03125 -0.53125,0.03125 -0.78125,0.03125 -0.265625,0 -0.921875,-0.03125 -1.15625,-0.03125 v 0.46875 c 0.234375,0 0.265625,0.03125 0.34375,0.109375 z m 0,0"
           id="path8609" />
      </symbol>
      <symbol
         overflow="visible"
         id="symbol3848">
        <path
           style="stroke:none"
           d=""
           id="path3293" />
      </symbol>
      <symbol
         overflow="visible"
         id="symbol4177">
        <path
           style="stroke:none"
           d="m 1.828125,-4.265625 c 0,-0.34375 -0.28125,-0.578125 -0.5625,-0.578125 -0.34375,0 -0.578125,0.265625 -0.578125,0.5625 0,0.34375 0.28125,0.578125 0.5625,0.578125 0.34375,0 0.578125,-0.28125 0.578125,-0.5625 z m -1.34375,1.1875 V -2.6875 c 0.40625,0 0.453125,0 0.453125,0.265625 v 2.03125 H 0.46875 V 0 c 0.015625,0 0.5625,-0.03125 0.875,-0.03125 0.28125,0 0.5625,0.015625 0.84375,0.03125 V -0.390625 H 1.765625 v -2.75 z m 0,0"
           id="path6216" />
      </symbol>
    </g>
    <g
       id="g8077">
      <symbol
         overflow="visible"
         id="symbol8522">
        <path
           style="stroke:none"
           d=""
           id="path2917" />
      </symbol>
      <symbol
         overflow="visible"
         id="symbol2717">
        <path
           style="stroke:none"
           d="M 5.078125,-4.03125 C 5.0625,-4.0625 5.03125,-4.140625 5.03125,-4.171875 c 0,0 0.171875,-0.140625 0.28125,-0.21875 l 1.75,-1.34375 C 8,-6.4375 8.390625,-6.46875 8.6875,-6.5 8.765625,-6.515625 8.859375,-6.515625 8.859375,-6.703125 8.859375,-6.734375 8.828125,-6.8125 8.75,-6.8125 c -0.21875,0 -0.46875,0.03125 -0.703125,0.03125 -0.359375,0 -0.75,-0.03125 -1.109375,-0.03125 -0.0625,0 -0.1875,0 -0.1875,0.203125 0,0.0625 0.046875,0.09375 0.125,0.109375 0.21875,0.015625 0.296875,0.0625 0.296875,0.203125 0,0.1875 -0.296875,0.421875 -0.359375,0.46875 L 2.9375,-2.84375 3.734375,-6.046875 C 3.8125,-6.40625 3.84375,-6.5 4.5625,-6.5 c 0.25,0 0.34375,0 0.34375,-0.203125 0,-0.078125 -0.078125,-0.109375 -0.140625,-0.109375 -0.28125,0 -1,0.03125 -1.28125,0.03125 C 3.203125,-6.78125 2.5,-6.8125 2.203125,-6.8125 2.140625,-6.8125 2,-6.8125 2,-6.625 2,-6.5 2.09375,-6.5 2.296875,-6.5 c 0.125,0 0.3125,0.015625 0.421875,0.015625 0.15625,0.03125 0.21875,0.046875 0.21875,0.171875 0,0.03125 0,0.0625 -0.03125,0.1875 L 1.5625,-0.78125 c -0.09375,0.390625 -0.109375,0.46875 -0.90625,0.46875 -0.171875,0 -0.28125,0 -0.28125,0.1875 C 0.375,0 0.5,0 0.53125,0 0.8125,0 1.515625,-0.03125 1.796875,-0.03125 2,-0.03125 2.21875,-0.015625 2.4375,-0.015625 2.65625,-0.015625 2.875,0 3.078125,0 3.15625,0 3.28125,0 3.28125,-0.203125 3.28125,-0.3125 3.1875,-0.3125 3,-0.3125 c -0.375,0 -0.640625,0 -0.640625,-0.171875 0,-0.078125 0.046875,-0.296875 0.078125,-0.4375 C 2.578125,-1.453125 2.71875,-1.96875 2.84375,-2.5 l 1.484375,-1.15625 1.15625,2.6875 c 0.125,0.265625 0.125,0.296875 0.125,0.34375 0,0.3125 -0.4375,0.3125 -0.53125,0.3125 -0.109375,0 -0.21875,0 -0.21875,0.203125 C 4.859375,0 4.984375,0 5,0 5.40625,0 5.828125,-0.03125 6.21875,-0.03125 6.4375,-0.03125 6.984375,0 7.203125,0 7.25,0 7.375,0 7.375,-0.203125 7.375,-0.3125 7.265625,-0.3125 7.171875,-0.3125 c -0.40625,0 -0.53125,-0.09375 -0.6875,-0.4375 z m 0,0"
           id="path6064" />
      </symbol>
      <symbol
         overflow="visible"
         id="symbol1541">
        <path
           style="stroke:none"
           d=""
           id="path2279" />
      </symbol>
      <symbol
         overflow="visible"
         id="symbol9194">
        <path
           style="stroke:none"
           d="m 2.328125,-4.4375 c 0,-0.1875 0,-0.1875 -0.203125,-0.1875 -0.453125,0.4375 -1.078125,0.4375 -1.359375,0.4375 v 0.25 c 0.15625,0 0.625,0 1,-0.1875 v 3.546875 c 0,0.234375 0,0.328125 -0.6875,0.328125 H 0.8125 V 0 c 0.125,0 0.984375,-0.03125 1.234375,-0.03125 0.21875,0 1.09375,0.03125 1.25,0.03125 V -0.25 H 3.03125 c -0.703125,0 -0.703125,-0.09375 -0.703125,-0.328125 z m 0,0"
           id="path663" />
      </symbol>
    </g>
    <g
       id="g3102">
      <symbol
         overflow="visible"
         id="symbol1079">
        <path
           style="stroke:none"
           d=""
           id="path6929" />
      </symbol>
      <symbol
         overflow="visible"
         id="symbol6665">
        <path
           style="stroke:none"
           d="M 5.078125,-4.03125 C 5.0625,-4.0625 5.03125,-4.140625 5.03125,-4.171875 c 0,0 0.171875,-0.140625 0.28125,-0.21875 l 1.75,-1.34375 C 8,-6.4375 8.390625,-6.46875 8.6875,-6.5 8.765625,-6.515625 8.859375,-6.515625 8.859375,-6.703125 8.859375,-6.734375 8.828125,-6.8125 8.75,-6.8125 c -0.21875,0 -0.46875,0.03125 -0.703125,0.03125 -0.359375,0 -0.75,-0.03125 -1.109375,-0.03125 -0.0625,0 -0.1875,0 -0.1875,0.203125 0,0.0625 0.046875,0.09375 0.125,0.109375 0.21875,0.015625 0.296875,0.0625 0.296875,0.203125 0,0.1875 -0.296875,0.421875 -0.359375,0.46875 L 2.9375,-2.84375 3.734375,-6.046875 C 3.8125,-6.40625 3.84375,-6.5 4.5625,-6.5 c 0.25,0 0.34375,0 0.34375,-0.203125 0,-0.078125 -0.078125,-0.109375 -0.140625,-0.109375 -0.28125,0 -1,0.03125 -1.28125,0.03125 C 3.203125,-6.78125 2.5,-6.8125 2.203125,-6.8125 2.140625,-6.8125 2,-6.8125 2,-6.625 2,-6.5 2.09375,-6.5 2.296875,-6.5 c 0.125,0 0.3125,0.015625 0.421875,0.015625 0.15625,0.03125 0.21875,0.046875 0.21875,0.171875 0,0.03125 0,0.0625 -0.03125,0.1875 L 1.5625,-0.78125 c -0.09375,0.390625 -0.109375,0.46875 -0.90625,0.46875 -0.171875,0 -0.28125,0 -0.28125,0.1875 C 0.375,0 0.5,0 0.53125,0 0.8125,0 1.515625,-0.03125 1.796875,-0.03125 2,-0.03125 2.21875,-0.015625 2.4375,-0.015625 2.65625,-0.015625 2.875,0 3.078125,0 3.15625,0 3.28125,0 3.28125,-0.203125 3.28125,-0.3125 3.1875,-0.3125 3,-0.3125 c -0.375,0 -0.640625,0 -0.640625,-0.171875 0,-0.078125 0.046875,-0.296875 0.078125,-0.4375 C 2.578125,-1.453125 2.71875,-1.96875 2.84375,-2.5 l 1.484375,-1.15625 1.15625,2.6875 c 0.125,0.265625 0.125,0.296875 0.125,0.34375 0,0.3125 -0.4375,0.3125 -0.53125,0.3125 -0.109375,0 -0.21875,0 -0.21875,0.203125 C 4.859375,0 4.984375,0 5,0 5.40625,0 5.828125,-0.03125 6.21875,-0.03125 6.4375,-0.03125 6.984375,0 7.203125,0 7.25,0 7.375,0 7.375,-0.203125 7.375,-0.3125 7.265625,-0.3125 7.171875,-0.3125 c -0.40625,0 -0.53125,-0.09375 -0.6875,-0.4375 z m 0,0"
           id="path6322" />
      </symbol>
      <symbol
         overflow="visible"
         id="symbol5291">
        <path
           style="stroke:none"
           d=""
           id="path4391" />
      </symbol>
      <symbol
         overflow="visible"
         id="symbol3201">
        <path
           style="stroke:none"
           d="M 3.515625,-1.265625 H 3.28125 c -0.015625,0.15625 -0.09375,0.5625 -0.1875,0.625 C 3.046875,-0.59375 2.515625,-0.59375 2.40625,-0.59375 H 1.125 c 0.734375,-0.640625 0.984375,-0.84375 1.390625,-1.171875 0.515625,-0.40625 1,-0.84375 1,-1.5 0,-0.84375 -0.734375,-1.359375 -1.625,-1.359375 -0.859375,0 -1.453125,0.609375 -1.453125,1.25 0,0.34375 0.296875,0.390625 0.375,0.390625 0.15625,0 0.359375,-0.125 0.359375,-0.375 0,-0.125 -0.046875,-0.375 -0.40625,-0.375 C 0.984375,-4.21875 1.453125,-4.375 1.78125,-4.375 c 0.703125,0 1.0625,0.546875 1.0625,1.109375 0,0.609375 -0.4375,1.078125 -0.65625,1.328125 L 0.515625,-0.265625 C 0.4375,-0.203125 0.4375,-0.1875 0.4375,0 h 2.875 z m 0,0"
           id="path2867" />
      </symbol>
    </g>
    <g
       id="g3629">
      <symbol
         overflow="visible"
         id="symbol368">
        <path
           style="stroke:none"
           d=""
           id="path9822" />
      </symbol>
      <symbol
         overflow="visible"
         id="symbol554">
        <path
           style="stroke:none"
           d="M 5.078125,-4.03125 C 5.0625,-4.0625 5.03125,-4.140625 5.03125,-4.171875 c 0,0 0.171875,-0.140625 0.28125,-0.21875 l 1.75,-1.34375 C 8,-6.4375 8.390625,-6.46875 8.6875,-6.5 8.765625,-6.515625 8.859375,-6.515625 8.859375,-6.703125 8.859375,-6.734375 8.828125,-6.8125 8.75,-6.8125 c -0.21875,0 -0.46875,0.03125 -0.703125,0.03125 -0.359375,0 -0.75,-0.03125 -1.109375,-0.03125 -0.0625,0 -0.1875,0 -0.1875,0.203125 0,0.0625 0.046875,0.09375 0.125,0.109375 0.21875,0.015625 0.296875,0.0625 0.296875,0.203125 0,0.1875 -0.296875,0.421875 -0.359375,0.46875 L 2.9375,-2.84375 3.734375,-6.046875 C 3.8125,-6.40625 3.84375,-6.5 4.5625,-6.5 c 0.25,0 0.34375,0 0.34375,-0.203125 0,-0.078125 -0.078125,-0.109375 -0.140625,-0.109375 -0.28125,0 -1,0.03125 -1.28125,0.03125 C 3.203125,-6.78125 2.5,-6.8125 2.203125,-6.8125 2.140625,-6.8125 2,-6.8125 2,-6.625 2,-6.5 2.09375,-6.5 2.296875,-6.5 c 0.125,0 0.3125,0.015625 0.421875,0.015625 0.15625,0.03125 0.21875,0.046875 0.21875,0.171875 0,0.03125 0,0.0625 -0.03125,0.1875 L 1.5625,-0.78125 c -0.09375,0.390625 -0.109375,0.46875 -0.90625,0.46875 -0.171875,0 -0.28125,0 -0.28125,0.1875 C 0.375,0 0.5,0 0.53125,0 0.8125,0 1.515625,-0.03125 1.796875,-0.03125 2,-0.03125 2.21875,-0.015625 2.4375,-0.015625 2.65625,-0.015625 2.875,0 3.078125,0 3.15625,0 3.28125,0 3.28125,-0.203125 3.28125,-0.3125 3.1875,-0.3125 3,-0.3125 c -0.375,0 -0.640625,0 -0.640625,-0.171875 0,-0.078125 0.046875,-0.296875 0.078125,-0.4375 C 2.578125,-1.453125 2.71875,-1.96875 2.84375,-2.5 l 1.484375,-1.15625 1.15625,2.6875 c 0.125,0.265625 0.125,0.296875 0.125,0.34375 0,0.3125 -0.4375,0.3125 -0.53125,0.3125 -0.109375,0 -0.21875,0 -0.21875,0.203125 C 4.859375,0 4.984375,0 5,0 5.40625,0 5.828125,-0.03125 6.21875,-0.03125 6.4375,-0.03125 6.984375,0 7.203125,0 7.25,0 7.375,0 7.375,-0.203125 7.375,-0.3125 7.265625,-0.3125 7.171875,-0.3125 c -0.40625,0 -0.53125,-0.09375 -0.6875,-0.4375 z m 0,0"
           id="path3952" />
      </symbol>
      <symbol
         overflow="visible"
         id="symbol3613">
        <path
           style="stroke:none"
           d=""
           id="path6506" />
      </symbol>
      <symbol
         overflow="visible"
         id="symbol1213">
        <path
           style="stroke:none"
           d="m 1.90625,-2.328125 c 0.546875,0 0.9375,0.375 0.9375,1.125 0,0.859375 -0.515625,1.125 -0.90625,1.125 -0.28125,0 -0.90625,-0.078125 -1.1875,-0.5 0.328125,0 0.40625,-0.234375 0.40625,-0.390625 0,-0.21875 -0.171875,-0.375 -0.390625,-0.375 -0.1875,0 -0.390625,0.125 -0.390625,0.40625 0,0.65625 0.71875,1.078125 1.5625,1.078125 0.96875,0 1.640625,-0.65625 1.640625,-1.34375 0,-0.546875 -0.4375,-1.09375 -1.203125,-1.25 0.71875,-0.265625 0.984375,-0.78125 0.984375,-1.21875 0,-0.546875 -0.625,-0.953125 -1.40625,-0.953125 -0.765625,0 -1.359375,0.375 -1.359375,0.9375 0,0.234375 0.15625,0.359375 0.359375,0.359375 0.21875,0 0.359375,-0.15625 0.359375,-0.34375 0,-0.203125 -0.140625,-0.359375 -0.359375,-0.375 0.25,-0.296875 0.71875,-0.375 0.984375,-0.375 0.3125,0 0.75,0.15625 0.75,0.75 0,0.296875 -0.09375,0.625 -0.28125,0.828125 -0.21875,0.265625 -0.421875,0.28125 -0.765625,0.3125 -0.171875,0.015625 -0.1875,0.015625 -0.21875,0.015625 -0.015625,0 -0.078125,0.015625 -0.078125,0.09375 0,0.09375 0.0625,0.09375 0.1875,0.09375 z m 0,0"
           id="path4083" />
      </symbol>
    </g>
    <g
       id="g2705">
      <symbol
         overflow="visible"
         id="symbol9190">
        <path
           style="stroke:none"
           d=""
           id="path9489" />
      </symbol>
      <symbol
         overflow="visible"
         id="symbol4432">
        <path
           style="stroke:none"
           d="M 5.078125,-4.03125 C 5.0625,-4.0625 5.03125,-4.140625 5.03125,-4.171875 c 0,0 0.171875,-0.140625 0.28125,-0.21875 l 1.75,-1.34375 C 8,-6.4375 8.390625,-6.46875 8.6875,-6.5 8.765625,-6.515625 8.859375,-6.515625 8.859375,-6.703125 8.859375,-6.734375 8.828125,-6.8125 8.75,-6.8125 c -0.21875,0 -0.46875,0.03125 -0.703125,0.03125 -0.359375,0 -0.75,-0.03125 -1.109375,-0.03125 -0.0625,0 -0.1875,0 -0.1875,0.203125 0,0.0625 0.046875,0.09375 0.125,0.109375 0.21875,0.015625 0.296875,0.0625 0.296875,0.203125 0,0.1875 -0.296875,0.421875 -0.359375,0.46875 L 2.9375,-2.84375 3.734375,-6.046875 C 3.8125,-6.40625 3.84375,-6.5 4.5625,-6.5 c 0.25,0 0.34375,0 0.34375,-0.203125 0,-0.078125 -0.078125,-0.109375 -0.140625,-0.109375 -0.28125,0 -1,0.03125 -1.28125,0.03125 C 3.203125,-6.78125 2.5,-6.8125 2.203125,-6.8125 2.140625,-6.8125 2,-6.8125 2,-6.625 2,-6.5 2.09375,-6.5 2.296875,-6.5 c 0.125,0 0.3125,0.015625 0.421875,0.015625 0.15625,0.03125 0.21875,0.046875 0.21875,0.171875 0,0.03125 0,0.0625 -0.03125,0.1875 L 1.5625,-0.78125 c -0.09375,0.390625 -0.109375,0.46875 -0.90625,0.46875 -0.171875,0 -0.28125,0 -0.28125,0.1875 C 0.375,0 0.5,0 0.53125,0 0.8125,0 1.515625,-0.03125 1.796875,-0.03125 2,-0.03125 2.21875,-0.015625 2.4375,-0.015625 2.65625,-0.015625 2.875,0 3.078125,0 3.15625,0 3.28125,0 3.28125,-0.203125 3.28125,-0.3125 3.1875,-0.3125 3,-0.3125 c -0.375,0 -0.640625,0 -0.640625,-0.171875 0,-0.078125 0.046875,-0.296875 0.078125,-0.4375 C 2.578125,-1.453125 2.71875,-1.96875 2.84375,-2.5 l 1.484375,-1.15625 1.15625,2.6875 c 0.125,0.265625 0.125,0.296875 0.125,0.34375 0,0.3125 -0.4375,0.3125 -0.53125,0.3125 -0.109375,0 -0.21875,0 -0.21875,0.203125 C 4.859375,0 4.984375,0 5,0 5.40625,0 5.828125,-0.03125 6.21875,-0.03125 6.4375,-0.03125 6.984375,0 7.203125,0 7.25,0 7.375,0 7.375,-0.203125 7.375,-0.3125 7.265625,-0.3125 7.171875,-0.3125 c -0.40625,0 -0.53125,-0.09375 -0.6875,-0.4375 z m 0,0"
           id="path413" />
      </symbol>
      <symbol
         overflow="visible"
         id="symbol5150">
        <path
           style="stroke:none"
           d=""
           id="path5041" />
      </symbol>
      <symbol
         overflow="visible"
         id="symbol3794">
        <path
           style="stroke:none"
           d="m 3.6875,-1.140625 v -0.25 H 2.90625 V -4.5 c 0,-0.140625 0,-0.203125 -0.140625,-0.203125 -0.09375,0 -0.125,0 -0.1875,0.109375 l -2.3125,3.203125 v 0.25 h 2.0625 v 0.5625 c 0,0.25 0,0.328125 -0.578125,0.328125 H 1.5625 V 0 C 1.921875,-0.015625 2.359375,-0.03125 2.609375,-0.03125 2.875,-0.03125 3.3125,-0.015625 3.671875,0 v -0.25 h -0.1875 C 2.90625,-0.25 2.90625,-0.328125 2.90625,-0.578125 v -0.5625 z M 2.375,-3.9375 v 2.546875 H 0.53125 Z m 0,0"
           id="path1201" />
      </symbol>
    </g>
    <marker
       style="overflow:visible"
       id="RoundedArrow-3"
       refX="0"
       refY="0"
       orient="auto-start-reverse"
       inkscape:stockid="RoundedArrow"
       markerWidth="6.1347523"
       markerHeight="5.9304953"
       viewBox="0 0 6.1347524 5.9304951"
       inkscape:isstock="true"
       inkscape:collect="always"
       preserveAspectRatio="xMidYMid">
      <path
         transform="scale(0.7)"
         d="m -0.21114562,-4.1055728 6.42229122,3.21114561 a 1,1 90 0 1 0,1.78885438 L -0.21114562,4.1055728 A 1.236068,1.236068 31.717474 0 1 -2,3 v -6 a 1.236068,1.236068 148.28253 0 1 1.78885438,-1.1055728 z"
         style="fill:context-stroke;fill-rule:evenodd;stroke:none"
         id="path1367-6" />
    </marker>
    <inkscape:path-effect
       effect="spiro"
       id="path-effect8280-7"
       is_visible="true"
       lpeversion="1" />
    <filter
       inkscape:collect="always"
       style="color-interpolation-filters:sRGB"
       id="filter11331"
       x="-0.093225588"
       y="-0.093225588"
       width="1.1864512"
       height="1.1864512">
      <feGaussianBlur
         inkscape:collect="always"
         stdDeviation="0.37746309"
         id="feGaussianBlur11333" />
    </filter>
  </defs>
  <sodipodi:namedview
     id="base"
     pagecolor="#ffffff"
     bordercolor="#666666"
     borderopacity="1.0"
     inkscape:pageopacity="0.0"
     inkscape:pageshadow="2"
     inkscape:zoom="0.5353194"
     inkscape:cx="-135.43316"
     inkscape:cy="336.24785"
     inkscape:document-units="mm"
     inkscape:current-layer="layer1"
     inkscape:document-rotation="0"
     showgrid="false"
     inkscape:snap-object-midpoints="true"
     inkscape:pagecheckerboard="0"
     inkscape:window-width="1920"
     inkscape:window-height="1019"
     inkscape:window-x="1920"
     inkscape:window-y="151"
     inkscape:window-maximized="1"
     inkscape:snap-center="true"
     inkscape:showpageshadow="0"
     inkscape:deskcolor="#d1d1d1" />
  <metadata
     id="metadata5">
    <rdf:RDF>
      <cc:Work
         rdf:about="">
        <dc:format>image/svg+xml</dc:format>
        <dc:type
           rdf:resource="http://purl.org/dc/dcmitype/StillImage" />
      </cc:Work>
    </rdf:RDF>
  </metadata>
  <g
     inkscape:label="Layer 1"
     inkscape:groupmode="layer"
     id="layer1"
     transform="translate(-22.5552,-73.406064)">
    <path
       style="fill:none;stroke:#606060;stroke-width:3;stroke-linecap:butt;stroke-linejoin:miter;stroke-miterlimit:4;stroke-dasharray:none;stroke-opacity:1"
       d="M 30.979036,184.70943 C 86.860597,128.82787 87.209783,129.17705 87.209783,129.17705"
       id="path833"
       inkscape:export-xdpi="248.64"
       inkscape:export-ydpi="248.64" />
    <path
       style="fill:none;stroke:#606060;stroke-width:3;stroke-linecap:butt;stroke-linejoin:miter;stroke-miterlimit:4;stroke-dasharray:none;stroke-opacity:1"
       d="M 141.36222,184.70943 C 85.480676,128.82787 85.131486,129.17705 85.131486,129.17705"
       id="path833-3"
       inkscape:export-xdpi="248.64"
       inkscape:export-ydpi="248.64" />
    <path
       style="fill:none;stroke:#606060;stroke-width:3;stroke-linecap:butt;stroke-linejoin:miter;stroke-miterlimit:4;stroke-dasharray:none;stroke-opacity:1"
       d="M 87.209774,130.42798 C 31.32823,74.546416 30.97904,74.895596 30.97904,74.895596"
       id="path833-3-5"
       inkscape:export-xdpi="248.64"
       inkscape:export-ydpi="248.64" />
    <path
       style="fill:none;stroke:#606060;stroke-width:3;stroke-linecap:butt;stroke-linejoin:miter;stroke-miterlimit:4;stroke-dasharray:none;stroke-opacity:1"
       d="M 85.223261,130.42968 C 141.0153,74.637625 141.36393,74.986246 141.36393,74.986246"
       id="path833-3-6"
       inkscape:export-xdpi="248.64"
       inkscape:export-ydpi="248.64" />
    <circle
       style="mix-blend-mode:normal;fill:#ffb000;fill-opacity:1;stroke:none;stroke-width:1;stroke-linecap:round;stroke-linejoin:round;stroke-miterlimit:4;stroke-dasharray:none;paint-order:markers stroke fill;filter:url(#filter11331)"
       id="path868"
       cx="86.403061"
       cy="129.38535"
       r="4.858706"
       inkscape:export-xdpi="248.64"
       inkscape:export-ydpi="248.64" />
    <g
       inkscape:label=""
       transform="matrix(2.2189447,0,0,2.2189447,-87.567646,9.1906244)"
       id="g1093">
      <g
         id="g2132">
        <g
           style="fill:#000000;fill-opacity:1"
           id="g5564" />
        <g
           style="fill:#000000;fill-opacity:1"
           id="g8003" />
      </g>
    </g>
    <g
       inkscape:label=""
       transform="matrix(2.2189447,0,0,2.2189447,-168.89387,-105.32471)"
       id="g1435">
      <g
         id="g2223">
        <g
           style="fill:#000000;fill-opacity:1"
           id="g2426" />
        <g
           style="fill:#000000;fill-opacity:1"
           id="g7331" />
      </g>
    </g>
    <path
       style="opacity:1;fill:#cbe3ad;stroke:#00adff;stroke-width:3;stroke-dasharray:none;stroke-opacity:1;marker-end:url(#RoundedArrow)"
       d="m 53.668737,162.81782 2.451165,-2.45116"
       id="path8278"
       inkscape:path-effect="#path-effect8280"
       inkscape:original-d="m 53.668737,162.81782 c 2.311387,-2.31101 0.139773,-0.1394 2.451165,-2.45116"
       sodipodi:nodetypes="cc" />
    <path
       style="fill:#cbe3ad;stroke:#00ad90;stroke-width:3;stroke-dasharray:none;stroke-opacity:1;marker-end:url(#RoundedArrow-3)"
       d="M 61.045185,103.96173 58.59402,101.51057"
       id="path8278-5"
       inkscape:path-effect="#path-effect8280-7"
       inkscape:original-d="m 61.045185,103.96173 c -2.311387,-2.31101 -0.139773,-0.1394 -2.451165,-2.45116"
       sodipodi:nodetypes="cc" />
    <g
       transform="matrix(1.76389,0,0,1.76389,23.3131,150.322)"
       ns3:version="1.8.1"
       ns3:texconverter="xelatex"
       ns3:pdfconverter="inkscape"
       ns3:text="$\\vec K_1$"
       ns3:preamble="/home/kirito/.config/textext/beamer_preamble.tex"
       ns3:scale="5.0"
       ns3:alignment="middle center"
       ns3:stroke-to-path="0"
       ns3:inkscapeversion="1.1.1"
       ns3:jacobian_sqrt="1.76389"
       id="g8890">
      <defs
         id="id-520da379-ae6c-4d6d-acbf-09e453c210a3">
        <g
           id="id-e6fb2f69-511d-4dc9-9ae3-7dd38b0b8150">
          <g
             id="id-d5ee397d-6dc7-430f-8ba3-83f0739dd066">
            <path
               d="m 5.4375,-6.4375 v 5.890625 H 1.34375 V -6.4375 Z m 0.546875,-0.546875 h -5.1875 V 0 h 5.1875 z m -2.75,4.953125 c -0.21875,0 -0.40625,0.1875 -0.40625,0.421875 0,0.21875 0.1875,0.40625 0.40625,0.40625 0.25,0 0.421875,-0.1875 0.421875,-0.40625 0,-0.234375 -0.171875,-0.421875 -0.421875,-0.421875 z M 3.4375,-5.453125 c -0.5,0 -0.90625,0.1875 -1.25,0.59375 l 0.390625,0.28125 C 2.828125,-4.875 3.09375,-5 3.40625,-5 3.765625,-5 4,-4.8125 4,-4.484375 4,-3.84375 2.953125,-3.953125 2.953125,-2.9375 v 0.296875 H 3.5 V -2.90625 c 0,-0.796875 1.078125,-0.65625 1.078125,-1.625 0,-0.46875 -0.375,-0.921875 -1.140625,-0.921875 z m 0,0"
               id="id-a7ef9986-3c5d-43ee-becf-fa96ff6ee5b4" />
          </g>
          <g
             id="id-b4da512b-81dc-4f74-a02f-b630c36ce9a3">
            <path
               d="m -1.421875,-8.203125 -0.375,0.34375 0.5,0.546875 h -2.59375 v 0.609375 h 2.59375 l -0.5,0.546875 0.375,0.34375 1.125,-1.1875 z m 0,0"
               id="id-486d7fdb-0912-4ad3-b25a-68906066973a" />
          </g>
          <g
             id="id-b73776da-3492-498f-aee8-621b635e0796">
            <path
               d="M 4.328125,0 H 5.4375 L 3.1875,-3.640625 6.234375,-6.875 H 5.140625 L 2.125,-3.671875 Z M 0.625,0 H 1.5625 L 2.53125,-6.875 H 1.578125 Z m 0,0"
               id="id-6d00bf9b-2ac3-483e-96d9-6447f5b897f4" />
          </g>
          <g
             id="id-80c42eb1-b955-418c-902f-4866bf36dc74">
            <path
               d="m 3.90625,-4.625 v 4.234375 H 0.96875 V -4.625 Z M 4.296875,-5.015625 H 0.578125 V 0 h 3.71875 z m -1.96875,3.5625 c -0.15625,0 -0.296875,0.125 -0.296875,0.296875 0,0.15625 0.140625,0.296875 0.296875,0.296875 C 2.5,-0.859375 2.625,-1 2.625,-1.15625 2.625,-1.328125 2.5,-1.453125 2.328125,-1.453125 Z m 0.140625,-2.46875 c -0.359375,0 -0.640625,0.140625 -0.890625,0.421875 L 1.84375,-3.296875 C 2.03125,-3.5 2.234375,-3.59375 2.453125,-3.59375 c 0.265625,0 0.4375,0.125 0.4375,0.359375 0,0.46875 -0.765625,0.390625 -0.765625,1.125 v 0.203125 h 0.390625 v -0.1875 c 0,-0.5625 0.78125,-0.46875 0.78125,-1.15625 0,-0.34375 -0.28125,-0.671875 -0.828125,-0.671875 z m 0,0"
               id="id-3f6e33e2-858b-4e0d-9bd5-4f60c3966631" />
          </g>
          <g
             id="id-a50c2d54-4193-45b4-ba73-c0e5bf09c93f">
            <path
               d="m 1.984375,0 h 0.65625 V -4.9375 H 2.0625 l -1.484375,0.921875 0.28125,0.453125 1.125,-0.671875 z m 0,0"
               id="id-a3a09c59-ed28-4571-ad00-952eb13b63f9" />
          </g>
        </g>
      </defs>
      <g
         fill="#000000"
         fill-opacity="1"
         id="id-af408db5-f9b5-458e-8180-020240ad42de"
         transform="translate(-149.337,-124.948)">
        <g
           transform="translate(154.63,133.151)"
           id="g8879">
          <path
             d="m -1.421875,-8.203125 -0.375,0.34375 0.5,0.546875 h -2.59375 v 0.609375 h 2.59375 l -0.5,0.546875 0.375,0.34375 1.125,-1.1875 z m 0,0"
             id="id-4ae9eea5-0a61-4e16-ac7f-740a80da5e9e" />
        </g>
      </g>
      <g
         fill="#000000"
         fill-opacity="1"
         id="id-a195259c-1189-492e-b15e-2ff51ba4a030"
         transform="translate(-149.337,-124.948)">
        <g
           transform="translate(148.712,134.765)"
           id="g8883">
          <path
             d="M 4.328125,0 H 5.4375 L 3.1875,-3.640625 6.234375,-6.875 H 5.140625 L 2.125,-3.671875 Z M 0.625,0 H 1.5625 L 2.53125,-6.875 H 1.578125 Z m 0,0"
             id="id-ccfad238-69f2-4926-9cec-5923e0d24ad8" />
        </g>
      </g>
      <g
         fill="#000000"
         fill-opacity="1"
         id="id-63cb57d2-8905-4a4f-9fe2-afa24f950cac"
         transform="translate(-149.337,-124.948)">
        <g
           transform="translate(154.521,138.252)"
           id="g8887">
          <path
             d="m 1.984375,0 h 0.65625 V -4.9375 H 2.0625 l -1.484375,0.921875 0.28125,0.453125 1.125,-0.671875 z m 0,0"
             id="id-73427ef5-a8bb-4378-b10e-e117fd34ee6d" />
        </g>
      </g>
    </g>
    <path
       style="opacity:1;fill:#cbe3ad;stroke:#00adff;stroke-width:3;stroke-dasharray:none;stroke-opacity:1;marker-end:url(#RoundedArrow)"
       d="m 115.99345,159.19957 -2.45117,-2.45116"
       id="path8957"
       inkscape:path-effect="#path-effect9005"
       inkscape:original-d="m 115.99345,159.19957 c -2.31139,-2.31101 -0.13978,-0.1394 -2.45117,-2.45116"
       sodipodi:nodetypes="cc" />
    <g
       transform="matrix(1.76389,0,0,1.76389,136.34,150.322)"
       ns3:version="1.8.1"
       ns3:texconverter="xelatex"
       ns3:pdfconverter="inkscape"
       ns3:text="$\\vec K_2$"
       ns3:preamble="/home/kirito/.config/textext/beamer_preamble.tex"
       ns3:scale="5.0"
       ns3:alignment="middle center"
       ns3:stroke-to-path="0"
       ns3:inkscapeversion="1.1.1"
       ns3:jacobian_sqrt="1.76389"
       id="g9001">
      <defs
         id="id-a657b710-bbd7-4437-8af5-12f6f5543d66">
        <g
           id="id-ec6f60fb-9045-46a6-961e-09057fd5bc6f">
          <g
             id="id-86925c7c-070d-4de1-b440-f910067ebc05">
            <path
               d="m 5.4375,-6.4375 v 5.890625 H 1.34375 V -6.4375 Z m 0.546875,-0.546875 h -5.1875 V 0 h 5.1875 z m -2.75,4.953125 c -0.21875,0 -0.40625,0.1875 -0.40625,0.421875 0,0.21875 0.1875,0.40625 0.40625,0.40625 0.25,0 0.421875,-0.1875 0.421875,-0.40625 0,-0.234375 -0.171875,-0.421875 -0.421875,-0.421875 z M 3.4375,-5.453125 c -0.5,0 -0.90625,0.1875 -1.25,0.59375 l 0.390625,0.28125 C 2.828125,-4.875 3.09375,-5 3.40625,-5 3.765625,-5 4,-4.8125 4,-4.484375 4,-3.84375 2.953125,-3.953125 2.953125,-2.9375 v 0.296875 H 3.5 V -2.90625 c 0,-0.796875 1.078125,-0.65625 1.078125,-1.625 0,-0.46875 -0.375,-0.921875 -1.140625,-0.921875 z m 0,0"
               id="id-74a09aa6-7441-4606-b618-277f98c2562c" />
          </g>
          <g
             id="id-5cd60892-9be8-4e73-a20f-03e942226046">
            <path
               d="m -1.421875,-8.203125 -0.375,0.34375 0.5,0.546875 h -2.59375 v 0.609375 h 2.59375 l -0.5,0.546875 0.375,0.34375 1.125,-1.1875 z m 0,0"
               id="id-54077422-9193-42ef-9699-51da8798dfe3" />
          </g>
          <g
             id="id-e08c5a62-459c-4a68-b63c-476f46a35fb3">
            <path
               d="M 4.328125,0 H 5.4375 L 3.1875,-3.640625 6.234375,-6.875 H 5.140625 L 2.125,-3.671875 Z M 0.625,0 H 1.5625 L 2.53125,-6.875 H 1.578125 Z m 0,0"
               id="id-93a2d080-47f8-453e-83ba-e85b31985bc9" />
          </g>
          <g
             id="id-7f7bd9f5-d90b-4aa0-abc2-1ed80f5150e2">
            <path
               d="m 3.90625,-4.625 v 4.234375 H 0.96875 V -4.625 Z M 4.296875,-5.015625 H 0.578125 V 0 h 3.71875 z m -1.96875,3.5625 c -0.15625,0 -0.296875,0.125 -0.296875,0.296875 0,0.15625 0.140625,0.296875 0.296875,0.296875 C 2.5,-0.859375 2.625,-1 2.625,-1.15625 2.625,-1.328125 2.5,-1.453125 2.328125,-1.453125 Z m 0.140625,-2.46875 c -0.359375,0 -0.640625,0.140625 -0.890625,0.421875 L 1.84375,-3.296875 C 2.03125,-3.5 2.234375,-3.59375 2.453125,-3.59375 c 0.265625,0 0.4375,0.125 0.4375,0.359375 0,0.46875 -0.765625,0.390625 -0.765625,1.125 v 0.203125 h 0.390625 v -0.1875 c 0,-0.5625 0.78125,-0.46875 0.78125,-1.15625 0,-0.34375 -0.28125,-0.671875 -0.828125,-0.671875 z m 0,0"
               id="id-f75856bb-c2ce-4c01-83cf-d13a2cf9b4a2" />
          </g>
          <g
             id="id-7ef1edbf-dc84-4a22-8b66-5f87e66212a8">
            <path
               d="m 1.84375,-5.03125 c -0.671875,0 -1.140625,0.25 -1.515625,0.734375 l 0.4375,0.34375 c 0.3125,-0.375 0.578125,-0.53125 1.046875,-0.53125 0.546875,0 0.859375,0.328125 0.859375,0.875 0,0.78125 -0.40625,1.328125 -2.25,3.078125 V 0 H 3.40625 l 0.078125,-0.546875 h -2.3125 c 1.625,-1.46875 2.1875,-2.203125 2.1875,-3.09375 0,-0.78125 -0.5625,-1.390625 -1.515625,-1.390625 z m 0,0"
               id="id-b9cc0e4d-92c8-4d98-a8a3-6872f36579a6" />
          </g>
        </g>
      </defs>
      <g
         fill="#000000"
         fill-opacity="1"
         id="id-f82ae133-2666-4f36-9a5e-6bfd1fbfc185"
         transform="translate(-149.337,-124.948)">
        <g
           transform="translate(154.63,133.151)"
           id="g9452">
          <path
             d="m -1.421875,-8.203125 -0.375,0.34375 0.5,0.546875 h -2.59375 v 0.609375 h 2.59375 l -0.5,0.546875 0.375,0.34375 1.125,-1.1875 z m 0,0"
             id="id-95f73f1f-f28d-4186-ac1d-c725a7cdeccc" />
        </g>
      </g>
      <g
         fill="#000000"
         fill-opacity="1"
         id="id-8bc8eb52-ca2f-4614-aa42-f8a9f429c47e"
         transform="translate(-149.337,-124.948)">
        <g
           transform="translate(148.712,134.765)"
           id="g9456">
          <path
             d="M 4.328125,0 H 5.4375 L 3.1875,-3.640625 6.234375,-6.875 H 5.140625 L 2.125,-3.671875 Z M 0.625,0 H 1.5625 L 2.53125,-6.875 H 1.578125 Z m 0,0"
             id="id-a3cf3641-a18f-4efc-8e11-386e50ee16ab" />
        </g>
      </g>
      <g
         fill="#000000"
         fill-opacity="1"
         id="id-234e35b5-581d-4424-84eb-b8e3c1899229"
         transform="translate(-149.337,-124.948)">
        <g
           transform="translate(154.521,138.252)"
           id="g9460">
          <path
             d="m 1.84375,-5.03125 c -0.671875,0 -1.140625,0.25 -1.515625,0.734375 l 0.4375,0.34375 c 0.3125,-0.375 0.578125,-0.53125 1.046875,-0.53125 0.546875,0 0.859375,0.328125 0.859375,0.875 0,0.78125 -0.40625,1.328125 -2.25,3.078125 V 0 H 3.40625 l 0.078125,-0.546875 h -2.3125 c 1.625,-1.46875 2.1875,-2.203125 2.1875,-3.09375 0,-0.78125 -0.5625,-1.390625 -1.515625,-1.390625 z m 0,0"
             id="id-70be6980-6cd8-4f5b-921b-41087f2bc8bf" />
        </g>
      </g>
    </g>
    <path
       style="fill:#cbe3ad;stroke:#00ad90;stroke-width:3;stroke-dasharray:none;stroke-opacity:1;marker-end:url(#RoundedArrow-3)"
       d="m 113.83009,101.92176 2.45116,-2.451162"
       id="path9651"
       inkscape:path-effect="#path-effect9655"
       inkscape:original-d="m 113.83009,101.92176 c 2.31139,-2.311012 0.13977,-0.1394 2.45116,-2.451162"
       sodipodi:nodetypes="cc" />
    <g
       transform="matrix(1.76389,0,0,1.76389,22.5552,92.0307)"
       ns3:version="1.8.1"
       ns3:texconverter="xelatex"
       ns3:pdfconverter="inkscape"
       ns3:text="$\\vec K_3$"
       ns3:preamble="/home/kirito/.config/textext/beamer_preamble.tex"
       ns3:scale="5.0"
       ns3:alignment="middle center"
       ns3:stroke-to-path="0"
       ns3:inkscapeversion="1.1.1"
       ns3:jacobian_sqrt="1.76389"
       id="g10197">
      <defs
         id="id-591487cd-81ac-42b4-9b16-b7fd2478f88d">
        <g
           id="id-5bb31834-cd4a-4b19-b75e-cc7dd2dcbe52">
          <g
             id="id-989a1e6e-6084-4363-a144-6905faab6861">
            <path
               d="m 5.4375,-6.4375 v 5.890625 H 1.34375 V -6.4375 Z m 0.546875,-0.546875 h -5.1875 V 0 h 5.1875 z m -2.75,4.953125 c -0.21875,0 -0.40625,0.1875 -0.40625,0.421875 0,0.21875 0.1875,0.40625 0.40625,0.40625 0.25,0 0.421875,-0.1875 0.421875,-0.40625 0,-0.234375 -0.171875,-0.421875 -0.421875,-0.421875 z M 3.4375,-5.453125 c -0.5,0 -0.90625,0.1875 -1.25,0.59375 l 0.390625,0.28125 C 2.828125,-4.875 3.09375,-5 3.40625,-5 3.765625,-5 4,-4.8125 4,-4.484375 4,-3.84375 2.953125,-3.953125 2.953125,-2.9375 v 0.296875 H 3.5 V -2.90625 c 0,-0.796875 1.078125,-0.65625 1.078125,-1.625 0,-0.46875 -0.375,-0.921875 -1.140625,-0.921875 z m 0,0"
               id="id-5e1578d6-10ad-485c-acce-71c9136455ae" />
          </g>
          <g
             id="id-0fcf32ee-fbb8-4005-8391-842ee190ae6e">
            <path
               d="m -1.421875,-8.203125 -0.375,0.34375 0.5,0.546875 h -2.59375 v 0.609375 h 2.59375 l -0.5,0.546875 0.375,0.34375 1.125,-1.1875 z m 0,0"
               id="id-f4377533-c91a-402d-9c34-a15bf8da1354" />
          </g>
          <g
             id="id-569edcd6-0c07-4513-9031-7e1ec1ba8e07">
            <path
               d="M 4.328125,0 H 5.4375 L 3.1875,-3.640625 6.234375,-6.875 H 5.140625 L 2.125,-3.671875 Z M 0.625,0 H 1.5625 L 2.53125,-6.875 H 1.578125 Z m 0,0"
               id="id-3d22c6de-bd29-4bee-9a6f-936b75e2836c" />
          </g>
          <g
             id="id-edaed60e-a760-4de5-bef3-256dbbfbacd8">
            <path
               d="m 3.90625,-4.625 v 4.234375 H 0.96875 V -4.625 Z M 4.296875,-5.015625 H 0.578125 V 0 h 3.71875 z m -1.96875,3.5625 c -0.15625,0 -0.296875,0.125 -0.296875,0.296875 0,0.15625 0.140625,0.296875 0.296875,0.296875 C 2.5,-0.859375 2.625,-1 2.625,-1.15625 2.625,-1.328125 2.5,-1.453125 2.328125,-1.453125 Z m 0.140625,-2.46875 c -0.359375,0 -0.640625,0.140625 -0.890625,0.421875 L 1.84375,-3.296875 C 2.03125,-3.5 2.234375,-3.59375 2.453125,-3.59375 c 0.265625,0 0.4375,0.125 0.4375,0.359375 0,0.46875 -0.765625,0.390625 -0.765625,1.125 v 0.203125 h 0.390625 v -0.1875 c 0,-0.5625 0.78125,-0.46875 0.78125,-1.15625 0,-0.34375 -0.28125,-0.671875 -0.828125,-0.671875 z m 0,0"
               id="id-c604de1f-1f16-4c9e-a20b-8f365d2ae332" />
          </g>
          <g
             id="id-7e477a4a-5511-49d8-9596-f8a48d67b30e">
            <path
               d="m 1.796875,-5.03125 c -0.515625,0 -1.015625,0.1875 -1.4375,0.578125 l 0.359375,0.40625 C 1.046875,-4.359375 1.34375,-4.5 1.765625,-4.5 c 0.515625,0 0.90625,0.28125 0.90625,0.8125 0,0.5625 -0.4375,0.828125 -0.921875,0.828125 H 1.46875 L 1.390625,-2.34375 h 0.40625 c 0.578125,0 1,0.234375 1,0.921875 0,0.59375 -0.390625,0.96875 -1.0625,0.96875 -0.40625,0 -0.796875,-0.15625 -1.109375,-0.484375 L 0.21875,-0.578125 C 0.59375,-0.125 1.1875,0.09375 1.75,0.09375 c 1.046875,0 1.75,-0.65625 1.75,-1.515625 0,-0.75 -0.5625,-1.1875 -1.140625,-1.21875 0.546875,-0.125 0.96875,-0.53125 0.96875,-1.140625 0,-0.671875 -0.578125,-1.25 -1.53125,-1.25 z m 0,0"
               id="id-19b23589-ab2b-4e3b-9397-86bec6c6e65c" />
          </g>
        </g>
      </defs>
      <g
         fill="#000000"
         fill-opacity="1"
         id="id-91c29674-56a6-4d1f-b602-80caf77ba4b2"
         transform="translate(-149.337,-124.948)">
        <g
           transform="translate(154.63,133.151)"
           id="g10666">
          <path
             d="m -1.421875,-8.203125 -0.375,0.34375 0.5,0.546875 h -2.59375 v 0.609375 h 2.59375 l -0.5,0.546875 0.375,0.34375 1.125,-1.1875 z m 0,0"
             id="id-d08b809c-d685-42e8-97f6-1aa17ec7f290" />
        </g>
      </g>
      <g
         fill="#000000"
         fill-opacity="1"
         id="id-8954dd64-8ac7-481a-b7e5-5f5a90892a4e"
         transform="translate(-149.337,-124.948)">
        <g
           transform="translate(148.712,134.765)"
           id="g10670">
          <path
             d="M 4.328125,0 H 5.4375 L 3.1875,-3.640625 6.234375,-6.875 H 5.140625 L 2.125,-3.671875 Z M 0.625,0 H 1.5625 L 2.53125,-6.875 H 1.578125 Z m 0,0"
             id="id-6d7fe5bd-497b-4757-b804-429d8841c47a" />
        </g>
      </g>
      <g
         fill="#000000"
         fill-opacity="1"
         id="id-b5d45b10-8d26-4e8b-a47d-4071148ff48d"
         transform="translate(-149.337,-124.948)">
        <g
           transform="translate(154.521,138.252)"
           id="g10674">
          <path
             d="m 1.796875,-5.03125 c -0.515625,0 -1.015625,0.1875 -1.4375,0.578125 l 0.359375,0.40625 C 1.046875,-4.359375 1.34375,-4.5 1.765625,-4.5 c 0.515625,0 0.90625,0.28125 0.90625,0.8125 0,0.5625 -0.4375,0.828125 -0.921875,0.828125 H 1.46875 L 1.390625,-2.34375 h 0.40625 c 0.578125,0 1,0.234375 1,0.921875 0,0.59375 -0.390625,0.96875 -1.0625,0.96875 -0.40625,0 -0.796875,-0.15625 -1.109375,-0.484375 L 0.21875,-0.578125 C 0.59375,-0.125 1.1875,0.09375 1.75,0.09375 c 1.046875,0 1.75,-0.65625 1.75,-1.515625 0,-0.75 -0.5625,-1.1875 -1.140625,-1.21875 0.546875,-0.125 0.96875,-0.53125 0.96875,-1.140625 0,-0.671875 -0.578125,-1.25 -1.53125,-1.25 z m 0,0"
             id="id-f7c961bc-0aae-488b-9340-5c1be6aa8d19" />
        </g>
      </g>
    </g>
    <g
       transform="matrix(1.76389,0,0,1.76389,136.175,92.1134)"
       ns3:version="1.8.1"
       ns3:texconverter="xelatex"
       ns3:pdfconverter="inkscape"
       ns3:text="$\\vec K_4$"
       ns3:preamble="/home/kirito/.config/textext/beamer_preamble.tex"
       ns3:scale="5.0"
       ns3:alignment="middle center"
       ns3:stroke-to-path="0"
       ns3:inkscapeversion="1.1.1"
       ns3:jacobian_sqrt="1.76389"
       id="g10756">
      <defs
         id="id-db23a02e-88c1-4976-8baf-e7956ee4cb9d">
        <g
           id="id-fa8b81c5-282f-48fc-a2c0-95c89913e1c2">
          <g
             id="id-a7750a83-161c-41dc-ba9a-f04d3a7c7017">
            <path
               d="m 5.4375,-6.4375 v 5.890625 H 1.34375 V -6.4375 Z m 0.546875,-0.546875 h -5.1875 V 0 h 5.1875 z m -2.75,4.953125 c -0.21875,0 -0.40625,0.1875 -0.40625,0.421875 0,0.21875 0.1875,0.40625 0.40625,0.40625 0.25,0 0.421875,-0.1875 0.421875,-0.40625 0,-0.234375 -0.171875,-0.421875 -0.421875,-0.421875 z M 3.4375,-5.453125 c -0.5,0 -0.90625,0.1875 -1.25,0.59375 l 0.390625,0.28125 C 2.828125,-4.875 3.09375,-5 3.40625,-5 3.765625,-5 4,-4.8125 4,-4.484375 4,-3.84375 2.953125,-3.953125 2.953125,-2.9375 v 0.296875 H 3.5 V -2.90625 c 0,-0.796875 1.078125,-0.65625 1.078125,-1.625 0,-0.46875 -0.375,-0.921875 -1.140625,-0.921875 z m 0,0"
               id="id-d352072d-16b2-4fd7-b2d5-53fa0e18d721" />
          </g>
          <g
             id="id-f5b32bcd-e350-45aa-a106-85ee0f6a198e">
            <path
               d="m -1.421875,-8.203125 -0.375,0.34375 0.5,0.546875 h -2.59375 v 0.609375 h 2.59375 l -0.5,0.546875 0.375,0.34375 1.125,-1.1875 z m 0,0"
               id="id-84bb839f-5347-4f25-ac8f-e4ba05306c50" />
          </g>
          <g
             id="id-a0dc99ed-3c77-4047-b808-e708ae2b8681">
            <path
               d="M 4.328125,0 H 5.4375 L 3.1875,-3.640625 6.234375,-6.875 H 5.140625 L 2.125,-3.671875 Z M 0.625,0 H 1.5625 L 2.53125,-6.875 H 1.578125 Z m 0,0"
               id="id-2a969f1c-cef4-411c-bc24-f6b86fe9f56b" />
          </g>
          <g
             id="id-bee5a74c-b996-41f2-ac72-634bb8026001">
            <path
               d="m 3.90625,-4.625 v 4.234375 H 0.96875 V -4.625 Z M 4.296875,-5.015625 H 0.578125 V 0 h 3.71875 z m -1.96875,3.5625 c -0.15625,0 -0.296875,0.125 -0.296875,0.296875 0,0.15625 0.140625,0.296875 0.296875,0.296875 C 2.5,-0.859375 2.625,-1 2.625,-1.15625 2.625,-1.328125 2.5,-1.453125 2.328125,-1.453125 Z m 0.140625,-2.46875 c -0.359375,0 -0.640625,0.140625 -0.890625,0.421875 L 1.84375,-3.296875 C 2.03125,-3.5 2.234375,-3.59375 2.453125,-3.59375 c 0.265625,0 0.4375,0.125 0.4375,0.359375 0,0.46875 -0.765625,0.390625 -0.765625,1.125 v 0.203125 h 0.390625 v -0.1875 c 0,-0.5625 0.78125,-0.46875 0.78125,-1.15625 0,-0.34375 -0.28125,-0.671875 -0.828125,-0.671875 z m 0,0"
               id="id-c84c4553-a04d-4564-bef0-6d25b02c244e" />
          </g>
          <g
             id="id-77e1af2f-0f8e-491b-aa6b-07d7e27fa1df">
            <path
               d="m 3.671875,-1.703125 h -0.625 v -1.375 H 2.46875 l -0.0625,1.375 H 1.046875 L 2.34375,-4.796875 1.796875,-5.03125 0.34375,-1.65625 v 0.46875 h 2.0625 V 0 h 0.640625 v -1.1875 h 0.625 z m 0,0"
               id="id-54a9f8fc-9703-4bee-8620-4af5b55798d7" />
          </g>
        </g>
      </defs>
      <g
         fill="#000000"
         fill-opacity="1"
         id="id-e0c97121-3b08-49a7-b829-8c017080c1fc"
         transform="translate(-149.337,-124.948)">
        <g
           transform="translate(154.63,133.151)"
           id="g11269">
          <path
             d="m -1.421875,-8.203125 -0.375,0.34375 0.5,0.546875 h -2.59375 v 0.609375 h 2.59375 l -0.5,0.546875 0.375,0.34375 1.125,-1.1875 z m 0,0"
             id="id-c61508d0-5839-414a-8cb4-a63e89e0337f" />
        </g>
      </g>
      <g
         fill="#000000"
         fill-opacity="1"
         id="id-d8312f0b-2c62-4147-aa46-28d2541c6770"
         transform="translate(-149.337,-124.948)">
        <g
           transform="translate(148.712,134.765)"
           id="g11273">
          <path
             d="M 4.328125,0 H 5.4375 L 3.1875,-3.640625 6.234375,-6.875 H 5.140625 L 2.125,-3.671875 Z M 0.625,0 H 1.5625 L 2.53125,-6.875 H 1.578125 Z m 0,0"
             id="id-71cb1c5d-369b-403d-83c9-bb101359a2d4" />
        </g>
      </g>
      <g
         fill="#000000"
         fill-opacity="1"
         id="id-6f542760-f333-4ad0-8fad-9c6b9a295299"
         transform="translate(-149.337,-124.948)">
        <g
           transform="translate(154.521,138.252)"
           id="g11277">
          <path
             d="m 3.671875,-1.703125 h -0.625 v -1.375 H 2.46875 l -0.0625,1.375 H 1.046875 L 2.34375,-4.796875 1.796875,-5.03125 0.34375,-1.65625 v 0.46875 h 2.0625 V 0 h 0.640625 v -1.1875 h 0.625 z m 0,0"
             id="id-9d8e3716-335b-4f0a-b470-cf303181fa86" />
        </g>
      </g>
    </g>
  </g>
</svg>
