<?xml version="1.0" encoding="UTF-8" standalone="no"?>
<svg
   width="139.89383mm"
   height="245.65463mm"
   viewBox="0 0 139.89384 245.65463"
   version="1.1"
   id="svg8"
   sodipodi:docname="term8.svg"
   inkscape:version="1.2.1 (9c6d41e410, 2022-07-14, custom)"
   inkscape:export-filename="/home/kirito/storage/iiserk/acm/solutions/term8.png"
   inkscape:export-xdpi="248.64"
   inkscape:export-ydpi="248.64"
   xmlns:inkscape="http://www.inkscape.org/namespaces/inkscape"
   xmlns:sodipodi="http://sodipodi.sourceforge.net/DTD/sodipodi-0.dtd"
   xmlns="http://www.w3.org/2000/svg"
   xmlns:svg="http://www.w3.org/2000/svg"
   xmlns:rdf="http://www.w3.org/1999/02/22-rdf-syntax-ns#"
   xmlns:cc="http://creativecommons.org/ns#"
   xmlns:dc="http://purl.org/dc/elements/1.1/"
   xmlns:ns3="http://www.iki.fi/pav/software/textext/">
  <defs
     id="defs2">
    <inkscape:path-effect
       effect="spiro"
       id="path-effect46337"
       is_visible="true"
       lpeversion="1" />
    <inkscape:path-effect
       effect="spiro"
       id="path-effect46313"
       is_visible="true"
       lpeversion="1" />
    <marker
       style="overflow:visible"
       id="marker2444"
       refX="0"
       refY="0"
       orient="auto"
       inkscape:stockid="EmptyTriangleOutL"
       inkscape:isstock="true">
      <path
         transform="matrix(0.8,0,0,0.8,-4.8,0)"
         style="fill:#ffffff;fill-rule:evenodd;stroke:#000000;stroke-width:1pt;stroke-opacity:1"
         d="M 5.77,0 -2.88,5 V -5 Z"
         id="path2442" />
    </marker>
    <inkscape:path-effect
       effect="spiro"
       id="path-effect2440"
       is_visible="true"
       lpeversion="1" />
    <marker
       style="overflow:visible"
       id="EmptyTriangleOutL-3"
       refX="0"
       refY="0"
       orient="auto"
       inkscape:stockid="EmptyTriangleOutL"
       inkscape:isstock="true">
      <path
         transform="matrix(0.8,0,0,0.8,-4.8,0)"
         style="fill:#ffffff;fill-rule:evenodd;stroke:#000000;stroke-width:1pt;stroke-opacity:1"
         d="M 5.77,0 -2.88,5 V -5 Z"
         id="path997-6" />
    </marker>
    <marker
       style="overflow:visible"
       id="EmptyTriangleOutL-5"
       refX="0"
       refY="0"
       orient="auto"
       inkscape:stockid="EmptyTriangleOutL"
       inkscape:isstock="true">
      <path
         transform="matrix(0.8,0,0,0.8,-4.8,0)"
         style="fill:#ffffff;fill-rule:evenodd;stroke:#000000;stroke-width:1pt;stroke-opacity:1"
         d="M 5.77,0 -2.88,5 V -5 Z"
         id="path997-3" />
    </marker>
    <g
       id="g8670">
      <symbol
         overflow="visible"
         id="symbol1253">
        <path
           style="stroke:none"
           d=""
           id="path7717" />
      </symbol>
      <symbol
         overflow="visible"
         id="symbol1401">
        <path
           style="stroke:none"
           d="M 4.828125,-4.203125 7.234375,-6.1875 c 0.21875,-0.1875 0.625,-0.1875 0.9375,-0.1875 h 0.15625 V -6.84375 C 7.9375,-6.8125 7.359375,-6.8125 7.3125,-6.8125 c -0.375,0 -1.09375,0 -1.453125,-0.03125 V -6.375 c 0.125,0 0.328125,0 0.578125,0.0625 0.15625,0.03125 0.046875,0.015625 0.125,0.046875 L 2.875,-3.1875 V -6.375 h 1.078125 v -0.46875 c -0.375,0.03125 -1.34375,0.03125 -1.78125,0.03125 -0.421875,0 -1.40625,0 -1.78125,-0.03125 V -6.375 H 1.46875 v 5.90625 H 0.390625 V 0 c 0.375,-0.03125 1.359375,-0.03125 1.78125,-0.03125 0.4375,0 1.40625,0 1.78125,0.03125 V -0.46875 H 2.875 V -2.5625 l 1,-0.828125 2.0625,2.703125 C 5.984375,-0.625 5.984375,-0.609375 6.015625,-0.546875 5.828125,-0.46875 5.625,-0.46875 5.28125,-0.46875 V 0 c 0.40625,-0.03125 1.3125,-0.03125 1.75,-0.03125 0.40625,0 1.09375,0 1.46875,0.03125 V -0.46875 H 8.203125 c -0.53125,0 -0.5625,-0.046875 -0.671875,-0.203125 z m 0,0"
           id="path4678" />
      </symbol>
    </g>
    <g
       id="g8799">
      <symbol
         overflow="visible"
         id="symbol4531">
        <path
           style="stroke:none"
           d=""
           id="path1667" />
      </symbol>
      <symbol
         overflow="visible"
         id="symbol4478">
        <path
           style="stroke:none"
           d="m 5.90625,-0.171875 c 1.625,-0.640625 2.0625,-2.125 2.0625,-3.203125 0,-2.15625 -1.453125,-3.578125 -3.65625,-3.578125 -2.28125,0 -3.671875,1.484375 -3.671875,3.578125 0,2.03125 1.359375,3.484375 3.671875,3.484375 0.21875,0 0.546875,-0.015625 0.9375,-0.09375 0.28125,1.125 0.484375,1.921875 1.40625,1.921875 1.015625,0 1.375,-1.1875 1.375,-1.859375 0,-0.078125 0,-0.25 -0.1875,-0.25 -0.140625,0 -0.171875,0.125 -0.171875,0.1875 -0.0625,0.390625 -0.6875,0.390625 -0.859375,0.390625 -0.21875,0 -0.515625,0 -0.90625,-0.578125 z m -2.546875,-0.34375 c -1.21875,-0.578125 -1.25,-2.09375 -1.25,-2.875 0,-0.390625 0,-1.34375 0.359375,-2.046875 0.515625,-0.96875 1.375,-1.109375 1.828125,-1.109375 0.53125,0 1.3125,0.203125 1.796875,1.046875 0.375,0.671875 0.40625,1.515625 0.40625,2.109375 0,0.5625 0,2.046875 -0.953125,2.703125 -0.21875,-0.328125 -0.578125,-0.859375 -1.25,-0.859375 -0.515625,0 -0.96875,0.34375 -0.96875,0.8125 0,0.0625 0.015625,0.171875 0.03125,0.21875 z m 1.765625,0.0625 c -0.25,0.109375 -0.546875,0.15625 -0.8125,0.15625 -0.546875,0 -0.625,-0.3125 -0.625,-0.4375 C 3.6875,-1 3.984375,-1.1875 4.3125,-1.1875 c 0.265625,0 0.609375,0.109375 0.8125,0.734375 z m 0,0"
           id="path6449" />
      </symbol>
    </g>
    <g
       id="g5236">
      <symbol
         overflow="visible"
         id="symbol4530">
        <path
           style="stroke:none"
           d=""
           id="path2804" />
      </symbol>
      <symbol
         overflow="visible"
         id="symbol8289">
        <path
           style="stroke:none"
           d="M 4.828125,-4.203125 7.234375,-6.1875 c 0.21875,-0.1875 0.625,-0.1875 0.9375,-0.1875 h 0.15625 V -6.84375 C 7.9375,-6.8125 7.359375,-6.8125 7.3125,-6.8125 c -0.375,0 -1.09375,0 -1.453125,-0.03125 V -6.375 c 0.125,0 0.328125,0 0.578125,0.0625 0.15625,0.03125 0.046875,0.015625 0.125,0.046875 L 2.875,-3.1875 V -6.375 h 1.078125 v -0.46875 c -0.375,0.03125 -1.34375,0.03125 -1.78125,0.03125 -0.421875,0 -1.40625,0 -1.78125,-0.03125 V -6.375 H 1.46875 v 5.90625 H 0.390625 V 0 c 0.375,-0.03125 1.359375,-0.03125 1.78125,-0.03125 0.4375,0 1.40625,0 1.78125,0.03125 V -0.46875 H 2.875 V -2.5625 l 1,-0.828125 2.0625,2.703125 C 5.984375,-0.625 5.984375,-0.609375 6.015625,-0.546875 5.828125,-0.46875 5.625,-0.46875 5.28125,-0.46875 V 0 c 0.40625,-0.03125 1.3125,-0.03125 1.75,-0.03125 0.40625,0 1.09375,0 1.46875,0.03125 V -0.46875 H 8.203125 c -0.53125,0 -0.5625,-0.046875 -0.671875,-0.203125 z m 0,0"
           id="path2909" />
      </symbol>
      <symbol
         overflow="visible"
         id="symbol7527">
        <path
           style="stroke:none"
           d="m 5.90625,-0.171875 c 1.625,-0.640625 2.0625,-2.125 2.0625,-3.203125 0,-2.15625 -1.453125,-3.578125 -3.65625,-3.578125 -2.28125,0 -3.671875,1.484375 -3.671875,3.578125 0,2.03125 1.359375,3.484375 3.671875,3.484375 0.21875,0 0.546875,-0.015625 0.9375,-0.09375 0.28125,1.125 0.484375,1.921875 1.40625,1.921875 1.015625,0 1.375,-1.1875 1.375,-1.859375 0,-0.078125 0,-0.25 -0.1875,-0.25 -0.140625,0 -0.171875,0.125 -0.171875,0.1875 -0.0625,0.390625 -0.6875,0.390625 -0.859375,0.390625 -0.21875,0 -0.515625,0 -0.90625,-0.578125 z m -2.546875,-0.34375 c -1.21875,-0.578125 -1.25,-2.09375 -1.25,-2.875 0,-0.390625 0,-1.34375 0.359375,-2.046875 0.515625,-0.96875 1.375,-1.109375 1.828125,-1.109375 0.53125,0 1.3125,0.203125 1.796875,1.046875 0.375,0.671875 0.40625,1.515625 0.40625,2.109375 0,0.5625 0,2.046875 -0.953125,2.703125 -0.21875,-0.328125 -0.578125,-0.859375 -1.25,-0.859375 -0.515625,0 -0.96875,0.34375 -0.96875,0.8125 0,0.0625 0.015625,0.171875 0.03125,0.21875 z m 1.765625,0.0625 c -0.25,0.109375 -0.546875,0.15625 -0.8125,0.15625 -0.546875,0 -0.625,-0.3125 -0.625,-0.4375 C 3.6875,-1 3.984375,-1.1875 4.3125,-1.1875 c 0.265625,0 0.609375,0.109375 0.8125,0.734375 z m 0,0"
           id="path6241" />
      </symbol>
      <symbol
         overflow="visible"
         id="symbol4597">
        <path
           style="stroke:none"
           d=""
           id="path3753" />
      </symbol>
      <symbol
         overflow="visible"
         id="symbol3886">
        <path
           style="stroke:none"
           d="m 4.078125,-2.296875 h 2.78125 C 7,-2.296875 7.1875,-2.296875 7.1875,-2.5 7.1875,-2.6875 7,-2.6875 6.859375,-2.6875 h -2.78125 v -2.796875 c 0,-0.140625 0,-0.328125 -0.203125,-0.328125 -0.203125,0 -0.203125,0.1875 -0.203125,0.328125 V -2.6875 h -2.78125 c -0.140625,0 -0.328125,0 -0.328125,0.1875 0,0.203125 0.1875,0.203125 0.328125,0.203125 h 2.78125 V 0.5 c 0,0.140625 0,0.328125 0.203125,0.328125 0.203125,0 0.203125,-0.1875 0.203125,-0.328125 z m 0,0"
           id="path2560" />
      </symbol>
    </g>
    <g
       id="g5186">
      <symbol
         overflow="visible"
         id="symbol3220">
        <path
           style="stroke:none"
           d=""
           id="path4416" />
      </symbol>
      <symbol
         overflow="visible"
         id="symbol8126">
        <path
           style="stroke:none"
           d="m 2.859375,-6.8125 c 0,0 0,-0.109375 -0.125,-0.109375 -0.234375,0 -0.953125,0.078125 -1.21875,0.109375 -0.078125,0 -0.1875,0.015625 -0.1875,0.1875 0,0.125 0.09375,0.125 0.234375,0.125 0.484375,0 0.5,0.0625 0.5,0.171875 L 2.03125,-6.125 0.59375,-0.390625 c -0.046875,0.140625 -0.046875,0.15625 -0.046875,0.21875 0,0.234375 0.203125,0.28125 0.296875,0.28125 0.125,0 0.265625,-0.09375 0.328125,-0.203125 0.046875,-0.09375 0.5,-1.9375 0.5625,-2.1875 0.34375,0.03125 1.15625,0.1875 1.15625,0.84375 0,0.078125 0,0.109375 -0.03125,0.21875 -0.015625,0.109375 -0.03125,0.234375 -0.03125,0.34375 0,0.578125 0.390625,0.984375 0.90625,0.984375 0.296875,0 0.578125,-0.15625 0.796875,-0.53125 0.25,-0.4375 0.359375,-0.984375 0.359375,-1 0,-0.109375 -0.09375,-0.109375 -0.125,-0.109375 -0.09375,0 -0.109375,0.046875 -0.140625,0.1875 -0.203125,0.71875 -0.421875,1.234375 -0.859375,1.234375 -0.203125,0 -0.328125,-0.109375 -0.328125,-0.46875 0,-0.171875 0.046875,-0.40625 0.078125,-0.5625 C 3.5625,-1.3125 3.5625,-1.34375 3.5625,-1.453125 3.5625,-2.09375 2.9375,-2.375 2.078125,-2.5 2.390625,-2.671875 2.71875,-2.984375 2.9375,-3.234375 3.421875,-3.765625 3.875,-4.1875 4.359375,-4.1875 c 0.0625,0 0.078125,0 0.09375,0.015625 0.125,0.015625 0.125,0.015625 0.21875,0.078125 0.015625,0 0.015625,0.015625 0.03125,0.03125 -0.46875,0.03125 -0.5625,0.421875 -0.5625,0.546875 0,0.15625 0.109375,0.34375 0.375,0.34375 0.265625,0 0.546875,-0.21875 0.546875,-0.609375 0,-0.296875 -0.234375,-0.625 -0.671875,-0.625 -0.28125,0 -0.734375,0.078125 -1.453125,0.875 -0.34375,0.375 -0.734375,0.78125 -1.109375,0.921875 z m 0,0"
           id="path6791" />
      </symbol>
      <symbol
         overflow="visible"
         id="symbol8366">
        <path
           style="stroke:none"
           d=""
           id="path4011" />
      </symbol>
      <symbol
         overflow="visible"
         id="symbol5320">
        <path
           style="stroke:none"
           d="M 2.390625,-2.25 H 3.125 c 0.53125,0 0.625,0.09375 0.625,0.3125 0,0.109375 0,0.125 -0.046875,0.328125 -0.015625,0.03125 -0.03125,0.0625 -0.03125,0.078125 0,0.0625 0.0625,0.109375 0.125,0.109375 0.09375,0 0.09375,-0.046875 0.140625,-0.171875 l 0.375,-1.46875 c 0,-0.03125 0.015625,-0.125 0.015625,-0.140625 0,-0.078125 -0.046875,-0.109375 -0.109375,-0.109375 -0.09375,0 -0.109375,0.046875 -0.140625,0.171875 C 3.9375,-2.59375 3.734375,-2.5 3.140625,-2.5 h -0.6875 l 0.4375,-1.75 c 0.046875,-0.203125 0.0625,-0.234375 0.34375,-0.234375 H 4.3125 c 0.921875,0 1.09375,0.21875 1.09375,0.8125 0,0.21875 -0.03125,0.375 -0.03125,0.421875 0,0.0625 0.03125,0.125 0.125,0.125 0.109375,0 0.109375,-0.0625 0.125,-0.1875 L 5.75,-4.515625 c 0.015625,-0.21875 -0.03125,-0.21875 -0.203125,-0.21875 h -3.71875 c -0.140625,0 -0.21875,0 -0.21875,0.15625 0,0.09375 0.078125,0.09375 0.21875,0.09375 0,0 0.140625,0 0.265625,0.015625 C 2.234375,-4.453125 2.25,-4.4375 2.25,-4.375 c 0,0.046875 -0.015625,0.125 -0.03125,0.15625 L 1.3125,-0.578125 C 1.234375,-0.296875 1.234375,-0.25 0.6875,-0.25 c -0.109375,0 -0.203125,0 -0.203125,0.140625 C 0.484375,-0.03125 0.53125,0 0.59375,0 0.796875,0 1.3125,-0.03125 1.515625,-0.03125 l 0.53125,0.015625 C 2.234375,-0.015625 2.421875,0 2.59375,0 2.640625,0 2.75,0 2.75,-0.15625 2.75,-0.25 2.671875,-0.25 2.515625,-0.25 c -0.015625,0 -0.1875,0 -0.375,-0.015625 C 2,-0.28125 1.9375,-0.28125 1.9375,-0.390625 c 0,-0.015625 0,-0.046875 0.015625,-0.125 z m 0,0"
           id="path1357" />
      </symbol>
    </g>
    <g
       id="g4108">
      <symbol
         overflow="visible"
         id="symbol3653">
        <path
           style="stroke:none"
           d=""
           id="path2034" />
      </symbol>
      <symbol
         overflow="visible"
         id="symbol7750">
        <path
           style="stroke:none"
           d="M 3.6875,-6.921875 C 3.625,-7.125 3.5625,-7.140625 3.453125,-7.140625 c -0.15625,0 -0.171875,0.046875 -0.21875,0.21875 L 1.3125,-1 c -0.09375,0.296875 -0.296875,0.6875 -1,0.6875 V 0 c 0.328125,-0.015625 0.84375,-0.03125 0.9375,-0.03125 0.28125,0 0.8125,0.015625 1.125,0.03125 v -0.3125 c -0.546875,0 -0.765625,-0.28125 -0.765625,-0.515625 0,-0.046875 0,-0.078125 0.046875,-0.21875 l 1.5,-4.640625 1.5625,4.90625 c 0.0625,0.140625 0.0625,0.15625 0.0625,0.171875 0,0.296875 -0.59375,0.296875 -0.859375,0.296875 V 0 c 0.359375,-0.03125 1.0625,-0.03125 1.4375,-0.03125 0.390625,0 0.84375,0.015625 1.234375,0.03125 v -0.3125 c -0.765625,0 -0.796875,-0.0625 -0.90625,-0.421875 z m 0,0"
           id="path980" />
      </symbol>
    </g>
    <g
       id="g3543">
      <symbol
         overflow="visible"
         id="symbol2524">
        <path
           style="stroke:none"
           d=""
           id="path674" />
      </symbol>
      <symbol
         overflow="visible"
         id="symbol6146">
        <path
           style="stroke:none"
           d="m 6.5625,-2.296875 c 0.171875,0 0.359375,0 0.359375,-0.203125 0,-0.1875 -0.1875,-0.1875 -0.359375,-0.1875 H 1.171875 c -0.171875,0 -0.34375,0 -0.34375,0.1875 0,0.203125 0.171875,0.203125 0.34375,0.203125 z m 0,0"
           id="path8408" />
      </symbol>
      <symbol
         overflow="visible"
         id="symbol5331">
        <path
           style="stroke:none"
           d=""
           id="path3046" />
      </symbol>
      <symbol
         overflow="visible"
         id="symbol4517">
        <path
           style="stroke:none"
           d="M 3.6875,-6.921875 C 3.625,-7.125 3.5625,-7.140625 3.453125,-7.140625 c -0.15625,0 -0.171875,0.046875 -0.21875,0.21875 L 1.3125,-1 c -0.09375,0.296875 -0.296875,0.6875 -1,0.6875 V 0 c 0.328125,-0.015625 0.84375,-0.03125 0.9375,-0.03125 0.28125,0 0.8125,0.015625 1.125,0.03125 v -0.3125 c -0.546875,0 -0.765625,-0.28125 -0.765625,-0.515625 0,-0.046875 0,-0.078125 0.046875,-0.21875 l 1.5,-4.640625 1.5625,4.90625 c 0.0625,0.140625 0.0625,0.15625 0.0625,0.171875 0,0.296875 -0.59375,0.296875 -0.859375,0.296875 V 0 c 0.359375,-0.03125 1.0625,-0.03125 1.4375,-0.03125 0.390625,0 0.84375,0.015625 1.234375,0.03125 v -0.3125 c -0.765625,0 -0.796875,-0.0625 -0.90625,-0.421875 z m 0,0"
           id="path6138" />
      </symbol>
    </g>
    <g
       id="g2050">
      <symbol
         overflow="visible"
         id="symbol3454">
        <path
           style="stroke:none"
           d=""
           id="path9575" />
      </symbol>
      <symbol
         overflow="visible"
         id="symbol9069">
        <path
           style="stroke:none"
           d="m 4.75,-2.359375 c 0,-1.5625 -0.921875,-2.046875 -1.65625,-2.046875 -1.375,0 -2.6875,1.421875 -2.6875,2.828125 0,0.9375 0.59375,1.6875 1.625,1.6875 0.625,0 1.34375,-0.234375 2.09375,-0.84375 0.125,0.53125 0.453125,0.84375 0.90625,0.84375 0.53125,0 0.84375,-0.546875 0.84375,-0.703125 0,-0.078125 -0.0625,-0.109375 -0.125,-0.109375 -0.0625,0 -0.09375,0.03125 -0.125,0.109375 -0.1875,0.484375 -0.546875,0.484375 -0.5625,0.484375 -0.3125,0 -0.3125,-0.78125 -0.3125,-1.015625 0,-0.203125 0,-0.234375 0.109375,-0.34375 C 5.796875,-2.65625 6,-3.8125 6,-3.8125 6,-3.84375 5.984375,-3.921875 5.875,-3.921875 c -0.09375,0 -0.09375,0.03125 -0.140625,0.21875 -0.1875,0.625 -0.515625,1.375 -0.984375,1.96875 z m -0.65625,1.375 c -0.890625,0.765625 -1.65625,0.875 -2.046875,0.875 -0.59375,0 -0.90625,-0.453125 -0.90625,-1.09375 0,-0.484375 0.265625,-1.5625 0.578125,-2.0625 C 2.1875,-4 2.734375,-4.1875 3.078125,-4.1875 c 0.984375,0 0.984375,1.3125 0.984375,2.078125 0,0.375 0,0.953125 0.03125,1.125 z m 0,0"
           id="path607" />
      </symbol>
    </g>
    <inkscape:path-effect
       effect="spiro"
       id="path-effect6986"
       is_visible="true"
       lpeversion="1" />
    <inkscape:path-effect
       effect="spiro"
       id="path-effect6984"
       is_visible="true"
       lpeversion="1" />
    <inkscape:path-effect
       effect="spiro"
       id="path-effect7165"
       is_visible="true"
       lpeversion="1" />
    <inkscape:path-effect
       effect="spiro"
       id="path-effect7163"
       is_visible="true"
       lpeversion="1" />
    <g
       id="g8409">
      <symbol
         overflow="visible"
         id="symbol6962">
        <path
           style="stroke:none"
           d=""
           id="path1856" />
      </symbol>
      <symbol
         overflow="visible"
         id="symbol6095">
        <path
           style="stroke:none"
           d="m 2.140625,-2.359375 v -4.5625 L 0.375,-6.84375 V -6.375 c 0.609375,0 0.6875,0 0.6875,0.390625 V -0.46875 H 0.375 V 0 c 0.359375,-0.015625 0.828125,-0.03125 1.1875,-0.03125 0.375,0 0.84375,0.015625 1.203125,0.03125 v -0.46875 h -0.6875 V -1.734375 C 2.375,-1.96875 2.453125,-2.03125 2.65625,-2.15625 l 1,1.25 c 0.09375,0.125 0.25,0.3125 0.25,0.34375 0,0.09375 -0.171875,0.09375 -0.3125,0.09375 V 0 c 0.296875,-0.015625 1.171875,-0.03125 1.21875,-0.03125 0.359375,0 0.703125,0.015625 1.046875,0.03125 V -0.46875 H 5.6875 c -0.4375,0 -0.46875,-0.046875 -0.59375,-0.203125 L 3.40625,-2.765625 4.703125,-3.78125 C 4.84375,-3.890625 4.9375,-3.953125 5.609375,-3.953125 v -0.46875 c -0.28125,0.03125 -0.53125,0.03125 -0.78125,0.03125 -0.265625,0 -0.921875,-0.03125 -1.15625,-0.03125 v 0.46875 c 0.234375,0 0.265625,0.03125 0.34375,0.109375 z m 0,0"
           id="path6005" />
      </symbol>
      <symbol
         overflow="visible"
         id="symbol6959">
        <path
           style="stroke:none"
           d=""
           id="path488" />
      </symbol>
      <symbol
         overflow="visible"
         id="symbol6133">
        <path
           style="stroke:none"
           d="m 2.78125,-4.328125 c 0,-0.25 -0.046875,-0.25 -0.34375,-0.25 C 2,-4.21875 1.4375,-4.125 0.875,-4.125 H 0.703125 v 0.390625 H 0.875 c 0.28125,0 0.703125,-0.046875 1,-0.140625 v 3.484375 H 0.78125 V 0 c 0.328125,-0.03125 1.171875,-0.03125 1.546875,-0.03125 0.25,0 0.5,0.015625 0.75,0.015625 0.21875,0 0.578125,0 0.78125,0.015625 V -0.390625 H 2.78125 Z m 0,0"
           id="path3162" />
      </symbol>
    </g>
    <g
       id="g4941">
      <symbol
         overflow="visible"
         id="symbol4235">
        <path
           style="stroke:none"
           d=""
           id="path65" />
      </symbol>
      <symbol
         overflow="visible"
         id="symbol5237">
        <path
           style="stroke:none"
           d="m 2.140625,-2.359375 v -4.5625 L 0.375,-6.84375 V -6.375 c 0.609375,0 0.6875,0 0.6875,0.390625 V -0.46875 H 0.375 V 0 c 0.359375,-0.015625 0.828125,-0.03125 1.1875,-0.03125 0.375,0 0.84375,0.015625 1.203125,0.03125 v -0.46875 h -0.6875 V -1.734375 C 2.375,-1.96875 2.453125,-2.03125 2.65625,-2.15625 l 1,1.25 c 0.09375,0.125 0.25,0.3125 0.25,0.34375 0,0.09375 -0.171875,0.09375 -0.3125,0.09375 V 0 c 0.296875,-0.015625 1.171875,-0.03125 1.21875,-0.03125 0.359375,0 0.703125,0.015625 1.046875,0.03125 V -0.46875 H 5.6875 c -0.4375,0 -0.46875,-0.046875 -0.59375,-0.203125 L 3.40625,-2.765625 4.703125,-3.78125 C 4.84375,-3.890625 4.9375,-3.953125 5.609375,-3.953125 v -0.46875 c -0.28125,0.03125 -0.53125,0.03125 -0.78125,0.03125 -0.265625,0 -0.921875,-0.03125 -1.15625,-0.03125 v 0.46875 c 0.234375,0 0.265625,0.03125 0.34375,0.109375 z m 0,0"
           id="path4256" />
      </symbol>
      <symbol
         overflow="visible"
         id="symbol9610">
        <path
           style="stroke:none"
           d=""
           id="path7527" />
      </symbol>
      <symbol
         overflow="visible"
         id="symbol8358">
        <path
           style="stroke:none"
           d="M 4.03125,-1.59375 H 3.59375 C 3.578125,-1.5 3.515625,-1.015625 3.390625,-0.984375 c -0.15625,0.03125 -0.5625,0.03125 -0.734375,0.03125 H 1.703125 c 0.390625,-0.28125 0.78125,-0.578125 1.1875,-0.828125 0.5625,-0.359375 1.140625,-0.734375 1.140625,-1.4375 0,-0.828125 -0.796875,-1.359375 -1.90625,-1.359375 -0.9375,0 -1.65625,0.375 -1.65625,1.03125 0,0.40625 0.328125,0.5625 0.546875,0.5625 0.25,0 0.53125,-0.171875 0.53125,-0.546875 0,-0.34375 -0.25,-0.46875 -0.265625,-0.484375 0.25,-0.15625 0.5625,-0.171875 0.65625,-0.171875 0.578125,0 1.046875,0.375 1.046875,0.984375 0,0.53125 -0.359375,0.984375 -0.765625,1.328125 L 0.5625,-0.390625 C 0.484375,-0.3125 0.46875,-0.3125 0.46875,-0.171875 V 0 h 3.328125 z m 0,0"
           id="path8067" />
      </symbol>
    </g>
    <g
       id="g2551">
      <symbol
         overflow="visible"
         id="symbol381">
        <path
           style="stroke:none"
           d=""
           id="path8030" />
      </symbol>
      <symbol
         overflow="visible"
         id="symbol6622">
        <path
           style="stroke:none"
           d="m 2.140625,-2.359375 v -4.5625 L 0.375,-6.84375 V -6.375 c 0.609375,0 0.6875,0 0.6875,0.390625 V -0.46875 H 0.375 V 0 c 0.359375,-0.015625 0.828125,-0.03125 1.1875,-0.03125 0.375,0 0.84375,0.015625 1.203125,0.03125 v -0.46875 h -0.6875 V -1.734375 C 2.375,-1.96875 2.453125,-2.03125 2.65625,-2.15625 l 1,1.25 c 0.09375,0.125 0.25,0.3125 0.25,0.34375 0,0.09375 -0.171875,0.09375 -0.3125,0.09375 V 0 c 0.296875,-0.015625 1.171875,-0.03125 1.21875,-0.03125 0.359375,0 0.703125,0.015625 1.046875,0.03125 V -0.46875 H 5.6875 c -0.4375,0 -0.46875,-0.046875 -0.59375,-0.203125 L 3.40625,-2.765625 4.703125,-3.78125 C 4.84375,-3.890625 4.9375,-3.953125 5.609375,-3.953125 v -0.46875 c -0.28125,0.03125 -0.53125,0.03125 -0.78125,0.03125 -0.265625,0 -0.921875,-0.03125 -1.15625,-0.03125 v 0.46875 c 0.234375,0 0.265625,0.03125 0.34375,0.109375 z m 0,0"
           id="path6012" />
      </symbol>
      <symbol
         overflow="visible"
         id="symbol3385">
        <path
           style="stroke:none"
           d=""
           id="path3897" />
      </symbol>
      <symbol
         overflow="visible"
         id="symbol2949">
        <path
           style="stroke:none"
           d="m 2.109375,-2.265625 c 0.828125,0 0.859375,0.625 0.859375,1 0,0.296875 0,1 -0.84375,1 C 1.9375,-0.265625 1.5,-0.3125 1.203125,-0.5 1.359375,-0.5625 1.53125,-0.71875 1.53125,-1.015625 c 0,-0.328125 -0.234375,-0.5625 -0.5625,-0.5625 -0.34375,0 -0.578125,0.234375 -0.578125,0.5625 0,0.71875 0.78125,1.09375 1.765625,1.09375 1.453125,0 1.953125,-0.75 1.953125,-1.34375 0,-0.53125 -0.4375,-1.015625 -1.21875,-1.1875 0.5,-0.1875 0.96875,-0.546875 0.96875,-1.125 0,-0.546875 -0.5625,-1 -1.671875,-1 -0.953125,0 -1.546875,0.46875 -1.546875,1.046875 0,0.359375 0.265625,0.546875 0.53125,0.546875 0.34375,0 0.53125,-0.265625 0.53125,-0.53125 0,-0.359375 -0.28125,-0.484375 -0.34375,-0.5 C 1.640625,-4.21875 2,-4.25 2.140625,-4.25 c 0.6875,0 0.6875,0.453125 0.6875,0.640625 0,0.328125 -0.140625,0.96875 -0.828125,1 -0.1875,0.015625 -0.359375,0.015625 -0.390625,0.03125 -0.09375,0.03125 -0.09375,0.109375 -0.09375,0.15625 0,0.15625 0.09375,0.15625 0.21875,0.15625 z m 0,0"
           id="path592" />
      </symbol>
    </g>
    <g
       id="g8254">
      <symbol
         overflow="visible"
         id="symbol3910">
        <path
           style="stroke:none"
           d=""
           id="path6059" />
      </symbol>
      <symbol
         overflow="visible"
         id="symbol8668">
        <path
           style="stroke:none"
           d="m 2.140625,-2.359375 v -4.5625 L 0.375,-6.84375 V -6.375 c 0.609375,0 0.6875,0 0.6875,0.390625 V -0.46875 H 0.375 V 0 c 0.359375,-0.015625 0.828125,-0.03125 1.1875,-0.03125 0.375,0 0.84375,0.015625 1.203125,0.03125 v -0.46875 h -0.6875 V -1.734375 C 2.375,-1.96875 2.453125,-2.03125 2.65625,-2.15625 l 1,1.25 c 0.09375,0.125 0.25,0.3125 0.25,0.34375 0,0.09375 -0.171875,0.09375 -0.3125,0.09375 V 0 c 0.296875,-0.015625 1.171875,-0.03125 1.21875,-0.03125 0.359375,0 0.703125,0.015625 1.046875,0.03125 V -0.46875 H 5.6875 c -0.4375,0 -0.46875,-0.046875 -0.59375,-0.203125 L 3.40625,-2.765625 4.703125,-3.78125 C 4.84375,-3.890625 4.9375,-3.953125 5.609375,-3.953125 v -0.46875 c -0.28125,0.03125 -0.53125,0.03125 -0.78125,0.03125 -0.265625,0 -0.921875,-0.03125 -1.15625,-0.03125 v 0.46875 c 0.234375,0 0.265625,0.03125 0.34375,0.109375 z m 0,0"
           id="path7348" />
      </symbol>
      <symbol
         overflow="visible"
         id="symbol8634">
        <path
           style="stroke:none"
           d=""
           id="path4596" />
      </symbol>
      <symbol
         overflow="visible"
         id="symbol7960">
        <path
           style="stroke:none"
           d="M 4.21875,-1.078125 V -1.46875 h -0.75 V -4.375 c 0,-0.203125 -0.046875,-0.234375 -0.25,-0.234375 H 3.109375 c -0.125,0 -0.1875,0 -0.265625,0.09375 l -2.5625,3.046875 v 0.390625 h 2.234375 v 0.6875 h -0.875 V 0 c 0.34375,-0.03125 0.96875,-0.03125 1.328125,-0.03125 0.15625,0 1.078125,0.015625 1.25,0.03125 v -0.390625 h -0.75 v -0.6875 z m -1.625,-2.578125 v 2.1875 H 0.765625 Z m 0,0"
           id="path1459" />
      </symbol>
    </g>
    <g
       id="g4464">
      <symbol
         overflow="visible"
         id="symbol9896">
        <path
           style="stroke:none"
           d=""
           id="path6863" />
      </symbol>
      <symbol
         overflow="visible"
         id="symbol1841">
        <path
           style="stroke:none"
           d="M 4.828125,-4.203125 7.234375,-6.1875 c 0.21875,-0.1875 0.625,-0.1875 0.9375,-0.1875 h 0.15625 V -6.84375 C 7.9375,-6.8125 7.359375,-6.8125 7.3125,-6.8125 c -0.375,0 -1.09375,0 -1.453125,-0.03125 V -6.375 c 0.125,0 0.328125,0 0.578125,0.0625 0.15625,0.03125 0.046875,0.015625 0.125,0.046875 L 2.875,-3.1875 V -6.375 h 1.078125 v -0.46875 c -0.375,0.03125 -1.34375,0.03125 -1.78125,0.03125 -0.421875,0 -1.40625,0 -1.78125,-0.03125 V -6.375 H 1.46875 v 5.90625 H 0.390625 V 0 c 0.375,-0.03125 1.359375,-0.03125 1.78125,-0.03125 0.4375,0 1.40625,0 1.78125,0.03125 V -0.46875 H 2.875 V -2.5625 l 1,-0.828125 2.0625,2.703125 C 5.984375,-0.625 5.984375,-0.609375 6.015625,-0.546875 5.828125,-0.46875 5.625,-0.46875 5.28125,-0.46875 V 0 c 0.40625,-0.03125 1.3125,-0.03125 1.75,-0.03125 0.40625,0 1.09375,0 1.46875,0.03125 V -0.46875 H 8.203125 c -0.53125,0 -0.5625,-0.046875 -0.671875,-0.203125 z m 0,0"
           id="path5678" />
      </symbol>
    </g>
    <g
       id="g1413">
      <symbol
         overflow="visible"
         id="symbol3494">
        <path
           style="stroke:none"
           d=""
           id="path2669" />
      </symbol>
      <symbol
         overflow="visible"
         id="symbol5886">
        <path
           style="stroke:none"
           d="m 2.875,-3.015625 h 1.765625 c 1.390625,0 2.546875,-0.71875 2.546875,-1.875 0,-1.09375 -0.984375,-1.953125 -2.640625,-1.953125 H 0.390625 V -6.375 H 1.46875 v 5.90625 H 0.390625 V 0 c 0.375,-0.03125 1.359375,-0.03125 1.78125,-0.03125 0.4375,0 1.40625,0 1.78125,0.03125 V -0.46875 H 2.875 Z m 1.28125,-0.40625 H 2.828125 V -6.375 h 1.34375 c 1.484375,0 1.484375,0.765625 1.484375,1.484375 0,0.703125 0,1.46875 -1.5,1.46875 z m 0,0"
           id="path7356" />
      </symbol>
      <symbol
         overflow="visible"
         id="symbol8938">
        <path
           style="stroke:none"
           d="M 4.828125,-4.203125 7.234375,-6.1875 c 0.21875,-0.1875 0.625,-0.1875 0.9375,-0.1875 h 0.15625 V -6.84375 C 7.9375,-6.8125 7.359375,-6.8125 7.3125,-6.8125 c -0.375,0 -1.09375,0 -1.453125,-0.03125 V -6.375 c 0.125,0 0.328125,0 0.578125,0.0625 0.15625,0.03125 0.046875,0.015625 0.125,0.046875 L 2.875,-3.1875 V -6.375 h 1.078125 v -0.46875 c -0.375,0.03125 -1.34375,0.03125 -1.78125,0.03125 -0.421875,0 -1.40625,0 -1.78125,-0.03125 V -6.375 H 1.46875 v 5.90625 H 0.390625 V 0 c 0.375,-0.03125 1.359375,-0.03125 1.78125,-0.03125 0.4375,0 1.40625,0 1.78125,0.03125 V -0.46875 H 2.875 V -2.5625 l 1,-0.828125 2.0625,2.703125 C 5.984375,-0.625 5.984375,-0.609375 6.015625,-0.546875 5.828125,-0.46875 5.625,-0.46875 5.28125,-0.46875 V 0 c 0.40625,-0.03125 1.3125,-0.03125 1.75,-0.03125 0.40625,0 1.09375,0 1.46875,0.03125 V -0.46875 H 8.203125 c -0.53125,0 -0.5625,-0.046875 -0.671875,-0.203125 z m 0,0"
           id="path7892" />
      </symbol>
      <symbol
         overflow="visible"
         id="symbol5948">
        <path
           style="stroke:none"
           d=""
           id="path9624" />
      </symbol>
      <symbol
         overflow="visible"
         id="symbol2462">
        <path
           style="stroke:none"
           d="m 6.5625,-2.296875 c 0.171875,0 0.359375,0 0.359375,-0.203125 0,-0.1875 -0.1875,-0.1875 -0.359375,-0.1875 H 1.171875 c -0.171875,0 -0.34375,0 -0.34375,0.1875 0,0.203125 0.171875,0.203125 0.34375,0.203125 z m 0,0"
           id="path3738" />
      </symbol>
    </g>
    <g
       id="g6288">
      <symbol
         overflow="visible"
         id="symbol1026">
        <path
           style="stroke:none"
           d=""
           id="path6073" />
      </symbol>
      <symbol
         overflow="visible"
         id="symbol4002">
        <path
           style="stroke:none"
           d="m 6.03125,-3.703125 c 0,-0.453125 -0.171875,-0.703125 -0.40625,-0.703125 -0.25,0 -0.515625,0.234375 -0.515625,0.46875 0,0.09375 0.046875,0.203125 0.140625,0.296875 0.171875,0.15625 0.359375,0.421875 0.359375,0.84375 0,0.390625 -0.203125,0.96875 -0.5,1.421875 C 4.8125,-0.953125 4.4375,-0.609375 3.96875,-0.609375 3.40625,-0.609375 3.09375,-0.96875 3,-1.5 c 0.109375,-0.265625 0.34375,-0.90625 0.34375,-1.1875 0,-0.109375 -0.046875,-0.21875 -0.1875,-0.21875 -0.078125,0 -0.1875,0.03125 -0.265625,0.171875 C 2.78125,-2.53125 2.65625,-1.890625 2.65625,-1.53125 2.328125,-1.0625 1.9375,-0.609375 1.3125,-0.609375 c -0.671875,0 -0.875,-0.59375 -0.875,-1.140625 0,-1.25 1.015625,-2.296875 1.015625,-2.421875 0,-0.109375 -0.078125,-0.1875 -0.1875,-0.1875 -0.125,0 -0.203125,0.125 -0.265625,0.21875 -0.5,0.734375 -0.875,1.921875 -0.875,2.828125 0,0.6875 0.21875,1.421875 1.046875,1.421875 0.703125,0 1.171875,-0.5 1.53125,-1.046875 0.09375,0.578125 0.484375,1.046875 1.09375,1.046875 0.78125,0 1.25,-0.609375 1.609375,-1.359375 0.25,-0.484375 0.625,-1.84375 0.625,-2.453125 z m 0,0"
           id="path9810" />
      </symbol>
    </g>
    <g
       id="g4783">
      <symbol
         overflow="visible"
         id="symbol283">
        <path
           style="stroke:none"
           d=""
           id="path6843" />
      </symbol>
      <symbol
         overflow="visible"
         id="symbol307">
        <path
           style="stroke:none"
           d="m 6.5625,-2.296875 c 0.171875,0 0.359375,0 0.359375,-0.203125 0,-0.1875 -0.1875,-0.1875 -0.359375,-0.1875 H 1.171875 c -0.171875,0 -0.34375,0 -0.34375,0.1875 0,0.203125 0.171875,0.203125 0.34375,0.203125 z m 0,0"
           id="path9132" />
      </symbol>
      <symbol
         overflow="visible"
         id="symbol7617">
        <path
           style="stroke:none"
           d=""
           id="path9330" />
      </symbol>
      <symbol
         overflow="visible"
         id="symbol1538">
        <path
           style="stroke:none"
           d="m 6.03125,-3.703125 c 0,-0.453125 -0.171875,-0.703125 -0.40625,-0.703125 -0.25,0 -0.515625,0.234375 -0.515625,0.46875 0,0.09375 0.046875,0.203125 0.140625,0.296875 0.171875,0.15625 0.359375,0.421875 0.359375,0.84375 0,0.390625 -0.203125,0.96875 -0.5,1.421875 C 4.8125,-0.953125 4.4375,-0.609375 3.96875,-0.609375 3.40625,-0.609375 3.09375,-0.96875 3,-1.5 c 0.109375,-0.265625 0.34375,-0.90625 0.34375,-1.1875 0,-0.109375 -0.046875,-0.21875 -0.1875,-0.21875 -0.078125,0 -0.1875,0.03125 -0.265625,0.171875 C 2.78125,-2.53125 2.65625,-1.890625 2.65625,-1.53125 2.328125,-1.0625 1.9375,-0.609375 1.3125,-0.609375 c -0.671875,0 -0.875,-0.59375 -0.875,-1.140625 0,-1.25 1.015625,-2.296875 1.015625,-2.421875 0,-0.109375 -0.078125,-0.1875 -0.1875,-0.1875 -0.125,0 -0.203125,0.125 -0.265625,0.21875 -0.5,0.734375 -0.875,1.921875 -0.875,2.828125 0,0.6875 0.21875,1.421875 1.046875,1.421875 0.703125,0 1.171875,-0.5 1.53125,-1.046875 0.09375,0.578125 0.484375,1.046875 1.09375,1.046875 0.78125,0 1.25,-0.609375 1.609375,-1.359375 0.25,-0.484375 0.625,-1.84375 0.625,-2.453125 z m 0,0"
           id="path8611" />
      </symbol>
    </g>
    <g
       id="g2041">
      <symbol
         overflow="visible"
         id="symbol5359">
        <path
           style="stroke:none"
           d=""
           id="path7733" />
      </symbol>
      <symbol
         overflow="visible"
         id="symbol9495">
        <path
           style="stroke:none"
           d="m 5.90625,-0.171875 c 1.625,-0.640625 2.0625,-2.125 2.0625,-3.203125 0,-2.15625 -1.453125,-3.578125 -3.65625,-3.578125 -2.28125,0 -3.671875,1.484375 -3.671875,3.578125 0,2.03125 1.359375,3.484375 3.671875,3.484375 0.21875,0 0.546875,-0.015625 0.9375,-0.09375 0.28125,1.125 0.484375,1.921875 1.40625,1.921875 1.015625,0 1.375,-1.1875 1.375,-1.859375 0,-0.078125 0,-0.25 -0.1875,-0.25 -0.140625,0 -0.171875,0.125 -0.171875,0.1875 -0.0625,0.390625 -0.6875,0.390625 -0.859375,0.390625 -0.21875,0 -0.515625,0 -0.90625,-0.578125 z m -2.546875,-0.34375 c -1.21875,-0.578125 -1.25,-2.09375 -1.25,-2.875 0,-0.390625 0,-1.34375 0.359375,-2.046875 0.515625,-0.96875 1.375,-1.109375 1.828125,-1.109375 0.53125,0 1.3125,0.203125 1.796875,1.046875 0.375,0.671875 0.40625,1.515625 0.40625,2.109375 0,0.5625 0,2.046875 -0.953125,2.703125 -0.21875,-0.328125 -0.578125,-0.859375 -1.25,-0.859375 -0.515625,0 -0.96875,0.34375 -0.96875,0.8125 0,0.0625 0.015625,0.171875 0.03125,0.21875 z m 1.765625,0.0625 c -0.25,0.109375 -0.546875,0.15625 -0.8125,0.15625 -0.546875,0 -0.625,-0.3125 -0.625,-0.4375 C 3.6875,-1 3.984375,-1.1875 4.3125,-1.1875 c 0.265625,0 0.609375,0.109375 0.8125,0.734375 z m 0,0"
           id="path2057" />
      </symbol>
      <symbol
         overflow="visible"
         id="symbol1211">
        <path
           style="stroke:none"
           d="M 4.828125,-4.203125 7.234375,-6.1875 c 0.21875,-0.1875 0.625,-0.1875 0.9375,-0.1875 h 0.15625 V -6.84375 C 7.9375,-6.8125 7.359375,-6.8125 7.3125,-6.8125 c -0.375,0 -1.09375,0 -1.453125,-0.03125 V -6.375 c 0.125,0 0.328125,0 0.578125,0.0625 0.15625,0.03125 0.046875,0.015625 0.125,0.046875 L 2.875,-3.1875 V -6.375 h 1.078125 v -0.46875 c -0.375,0.03125 -1.34375,0.03125 -1.78125,0.03125 -0.421875,0 -1.40625,0 -1.78125,-0.03125 V -6.375 H 1.46875 v 5.90625 H 0.390625 V 0 c 0.375,-0.03125 1.359375,-0.03125 1.78125,-0.03125 0.4375,0 1.40625,0 1.78125,0.03125 V -0.46875 H 2.875 V -2.5625 l 1,-0.828125 2.0625,2.703125 C 5.984375,-0.625 5.984375,-0.609375 6.015625,-0.546875 5.828125,-0.46875 5.625,-0.46875 5.28125,-0.46875 V 0 c 0.40625,-0.03125 1.3125,-0.03125 1.75,-0.03125 0.40625,0 1.09375,0 1.46875,0.03125 V -0.46875 H 8.203125 c -0.53125,0 -0.5625,-0.046875 -0.671875,-0.203125 z m 0,0"
           id="path2456" />
      </symbol>
      <symbol
         overflow="visible"
         id="symbol5155">
        <path
           style="stroke:none"
           d=""
           id="path6828" />
      </symbol>
      <symbol
         overflow="visible"
         id="symbol1815">
        <path
           style="stroke:none"
           d="m 6.5625,-2.296875 c 0.171875,0 0.359375,0 0.359375,-0.203125 0,-0.1875 -0.1875,-0.1875 -0.359375,-0.1875 H 1.171875 c -0.171875,0 -0.34375,0 -0.34375,0.1875 0,0.203125 0.171875,0.203125 0.34375,0.203125 z m 0,0"
           id="path8563" />
      </symbol>
    </g>
    <g
       id="g3416">
      <symbol
         overflow="visible"
         id="symbol6498">
        <path
           style="stroke:none"
           d=""
           id="path8555" />
      </symbol>
      <symbol
         overflow="visible"
         id="symbol421">
        <path
           style="stroke:none"
           d="m 6.5625,-2.296875 c 0.171875,0 0.359375,0 0.359375,-0.203125 0,-0.1875 -0.1875,-0.1875 -0.359375,-0.1875 H 1.171875 c -0.171875,0 -0.34375,0 -0.34375,0.1875 0,0.203125 0.171875,0.203125 0.34375,0.203125 z m 0,0"
           id="path2370" />
      </symbol>
      <symbol
         overflow="visible"
         id="symbol8808">
        <path
           style="stroke:none"
           d=""
           id="path4769" />
      </symbol>
      <symbol
         overflow="visible"
         id="symbol6248">
        <path
           style="stroke:none"
           d="M 4.828125,-4.203125 7.234375,-6.1875 c 0.21875,-0.1875 0.625,-0.1875 0.9375,-0.1875 h 0.15625 V -6.84375 C 7.9375,-6.8125 7.359375,-6.8125 7.3125,-6.8125 c -0.375,0 -1.09375,0 -1.453125,-0.03125 V -6.375 c 0.125,0 0.328125,0 0.578125,0.0625 0.15625,0.03125 0.046875,0.015625 0.125,0.046875 L 2.875,-3.1875 V -6.375 h 1.078125 v -0.46875 c -0.375,0.03125 -1.34375,0.03125 -1.78125,0.03125 -0.421875,0 -1.40625,0 -1.78125,-0.03125 V -6.375 H 1.46875 v 5.90625 H 0.390625 V 0 c 0.375,-0.03125 1.359375,-0.03125 1.78125,-0.03125 0.4375,0 1.40625,0 1.78125,0.03125 V -0.46875 H 2.875 V -2.5625 l 1,-0.828125 2.0625,2.703125 C 5.984375,-0.625 5.984375,-0.609375 6.015625,-0.546875 5.828125,-0.46875 5.625,-0.46875 5.28125,-0.46875 V 0 c 0.40625,-0.03125 1.3125,-0.03125 1.75,-0.03125 0.40625,0 1.09375,0 1.46875,0.03125 V -0.46875 H 8.203125 c -0.53125,0 -0.5625,-0.046875 -0.671875,-0.203125 z m 0,0"
           id="path2766" />
      </symbol>
    </g>
    <g
       id="g2468">
      <symbol
         overflow="visible"
         id="symbol2754">
        <path
           style="stroke:none"
           d=""
           id="path1723" />
      </symbol>
      <symbol
         overflow="visible"
         id="symbol3107">
        <path
           style="stroke:none"
           d="m 6.5625,-2.296875 c 0.171875,0 0.359375,0 0.359375,-0.203125 0,-0.1875 -0.1875,-0.1875 -0.359375,-0.1875 H 1.171875 c -0.171875,0 -0.34375,0 -0.34375,0.1875 0,0.203125 0.171875,0.203125 0.34375,0.203125 z m 0,0"
           id="path6008" />
      </symbol>
      <symbol
         overflow="visible"
         id="symbol7847">
        <path
           style="stroke:none"
           d=""
           id="path9838" />
      </symbol>
      <symbol
         overflow="visible"
         id="symbol1487">
        <path
           style="stroke:none"
           d="m 2.140625,-2.359375 v -4.5625 L 0.375,-6.84375 V -6.375 c 0.609375,0 0.6875,0 0.6875,0.390625 V -0.46875 H 0.375 V 0 c 0.359375,-0.015625 0.828125,-0.03125 1.1875,-0.03125 0.375,0 0.84375,0.015625 1.203125,0.03125 v -0.46875 h -0.6875 V -1.734375 C 2.375,-1.96875 2.453125,-2.03125 2.65625,-2.15625 l 1,1.25 c 0.09375,0.125 0.25,0.3125 0.25,0.34375 0,0.09375 -0.171875,0.09375 -0.3125,0.09375 V 0 c 0.296875,-0.015625 1.171875,-0.03125 1.21875,-0.03125 0.359375,0 0.703125,0.015625 1.046875,0.03125 V -0.46875 H 5.6875 c -0.4375,0 -0.46875,-0.046875 -0.59375,-0.203125 L 3.40625,-2.765625 4.703125,-3.78125 C 4.84375,-3.890625 4.9375,-3.953125 5.609375,-3.953125 v -0.46875 c -0.28125,0.03125 -0.53125,0.03125 -0.78125,0.03125 -0.265625,0 -0.921875,-0.03125 -1.15625,-0.03125 v 0.46875 c 0.234375,0 0.265625,0.03125 0.34375,0.109375 z m 0,0"
           id="path6176" />
      </symbol>
      <symbol
         overflow="visible"
         id="symbol803">
        <path
           style="stroke:none"
           d=""
           id="path8483" />
      </symbol>
      <symbol
         overflow="visible"
         id="symbol5779">
        <path
           style="stroke:none"
           d="m 2.78125,-4.328125 c 0,-0.25 -0.046875,-0.25 -0.34375,-0.25 C 2,-4.21875 1.4375,-4.125 0.875,-4.125 H 0.703125 v 0.390625 H 0.875 c 0.28125,0 0.703125,-0.046875 1,-0.140625 v 3.484375 H 0.78125 V 0 c 0.328125,-0.03125 1.171875,-0.03125 1.546875,-0.03125 0.25,0 0.5,0.015625 0.75,0.015625 0.21875,0 0.578125,0 0.78125,0.015625 V -0.390625 H 2.78125 Z m 0,0"
           id="path166" />
      </symbol>
    </g>
    <g
       id="g362">
      <symbol
         overflow="visible"
         id="symbol7722">
        <path
           style="stroke:none"
           d=""
           id="path9597" />
      </symbol>
      <symbol
         overflow="visible"
         id="symbol7597">
        <path
           style="stroke:none"
           d="m 6.5625,-2.296875 c 0.171875,0 0.359375,0 0.359375,-0.203125 0,-0.1875 -0.1875,-0.1875 -0.359375,-0.1875 H 1.171875 c -0.171875,0 -0.34375,0 -0.34375,0.1875 0,0.203125 0.171875,0.203125 0.34375,0.203125 z m 0,0"
           id="path157" />
      </symbol>
      <symbol
         overflow="visible"
         id="symbol5862">
        <path
           style="stroke:none"
           d=""
           id="path4814" />
      </symbol>
      <symbol
         overflow="visible"
         id="symbol483">
        <path
           style="stroke:none"
           d="m 2.140625,-2.359375 v -4.5625 L 0.375,-6.84375 V -6.375 c 0.609375,0 0.6875,0 0.6875,0.390625 V -0.46875 H 0.375 V 0 c 0.359375,-0.015625 0.828125,-0.03125 1.1875,-0.03125 0.375,0 0.84375,0.015625 1.203125,0.03125 v -0.46875 h -0.6875 V -1.734375 C 2.375,-1.96875 2.453125,-2.03125 2.65625,-2.15625 l 1,1.25 c 0.09375,0.125 0.25,0.3125 0.25,0.34375 0,0.09375 -0.171875,0.09375 -0.3125,0.09375 V 0 c 0.296875,-0.015625 1.171875,-0.03125 1.21875,-0.03125 0.359375,0 0.703125,0.015625 1.046875,0.03125 V -0.46875 H 5.6875 c -0.4375,0 -0.46875,-0.046875 -0.59375,-0.203125 L 3.40625,-2.765625 4.703125,-3.78125 C 4.84375,-3.890625 4.9375,-3.953125 5.609375,-3.953125 v -0.46875 c -0.28125,0.03125 -0.53125,0.03125 -0.78125,0.03125 -0.265625,0 -0.921875,-0.03125 -1.15625,-0.03125 v 0.46875 c 0.234375,0 0.265625,0.03125 0.34375,0.109375 z m 0,0"
           id="path3126" />
      </symbol>
      <symbol
         overflow="visible"
         id="symbol13405">
        <path
           style="stroke:none"
           d=""
           id="path7626" />
      </symbol>
      <symbol
         overflow="visible"
         id="symbol2251">
        <path
           style="stroke:none"
           d="m 2.109375,-2.265625 c 0.828125,0 0.859375,0.625 0.859375,1 0,0.296875 0,1 -0.84375,1 C 1.9375,-0.265625 1.5,-0.3125 1.203125,-0.5 1.359375,-0.5625 1.53125,-0.71875 1.53125,-1.015625 c 0,-0.328125 -0.234375,-0.5625 -0.5625,-0.5625 -0.34375,0 -0.578125,0.234375 -0.578125,0.5625 0,0.71875 0.78125,1.09375 1.765625,1.09375 1.453125,0 1.953125,-0.75 1.953125,-1.34375 0,-0.53125 -0.4375,-1.015625 -1.21875,-1.1875 0.5,-0.1875 0.96875,-0.546875 0.96875,-1.125 0,-0.546875 -0.5625,-1 -1.671875,-1 -0.953125,0 -1.546875,0.46875 -1.546875,1.046875 0,0.359375 0.265625,0.546875 0.53125,0.546875 0.34375,0 0.53125,-0.265625 0.53125,-0.53125 0,-0.359375 -0.28125,-0.484375 -0.34375,-0.5 C 1.640625,-4.21875 2,-4.25 2.140625,-4.25 c 0.6875,0 0.6875,0.453125 0.6875,0.640625 0,0.328125 -0.140625,0.96875 -0.828125,1 -0.1875,0.015625 -0.359375,0.015625 -0.390625,0.03125 -0.09375,0.03125 -0.09375,0.109375 -0.09375,0.15625 0,0.15625 0.09375,0.15625 0.21875,0.15625 z m 0,0"
           id="path600" />
      </symbol>
    </g>
    <g
       id="g4068">
      <symbol
         overflow="visible"
         id="symbol3924">
        <path
           style="stroke:none"
           d=""
           id="path9902" />
      </symbol>
      <symbol
         overflow="visible"
         id="symbol4214">
        <path
           style="stroke:none"
           d="m 6.03125,-3.703125 c 0,-0.453125 -0.171875,-0.703125 -0.40625,-0.703125 -0.25,0 -0.515625,0.234375 -0.515625,0.46875 0,0.09375 0.046875,0.203125 0.140625,0.296875 0.171875,0.15625 0.359375,0.421875 0.359375,0.84375 0,0.390625 -0.203125,0.96875 -0.5,1.421875 C 4.8125,-0.953125 4.4375,-0.609375 3.96875,-0.609375 3.40625,-0.609375 3.09375,-0.96875 3,-1.5 c 0.109375,-0.265625 0.34375,-0.90625 0.34375,-1.1875 0,-0.109375 -0.046875,-0.21875 -0.1875,-0.21875 -0.078125,0 -0.1875,0.03125 -0.265625,0.171875 C 2.78125,-2.53125 2.65625,-1.890625 2.65625,-1.53125 2.328125,-1.0625 1.9375,-0.609375 1.3125,-0.609375 c -0.671875,0 -0.875,-0.59375 -0.875,-1.140625 0,-1.25 1.015625,-2.296875 1.015625,-2.421875 0,-0.109375 -0.078125,-0.1875 -0.1875,-0.1875 -0.125,0 -0.203125,0.125 -0.265625,0.21875 -0.5,0.734375 -0.875,1.921875 -0.875,2.828125 0,0.6875 0.21875,1.421875 1.046875,1.421875 0.703125,0 1.171875,-0.5 1.53125,-1.046875 0.09375,0.578125 0.484375,1.046875 1.09375,1.046875 0.78125,0 1.25,-0.609375 1.609375,-1.359375 0.25,-0.484375 0.625,-1.84375 0.625,-2.453125 z m 0,0"
           id="path957" />
      </symbol>
    </g>
    <g
       id="g2171">
      <symbol
         overflow="visible"
         id="symbol9885">
        <path
           style="stroke:none"
           d=""
           id="path6593" />
      </symbol>
      <symbol
         overflow="visible"
         id="symbol3110">
        <path
           style="stroke:none"
           d="m 6.5625,-2.296875 c 0.171875,0 0.359375,0 0.359375,-0.203125 0,-0.1875 -0.1875,-0.1875 -0.359375,-0.1875 H 1.171875 c -0.171875,0 -0.34375,0 -0.34375,0.1875 0,0.203125 0.171875,0.203125 0.34375,0.203125 z m 0,0"
           id="path1770" />
      </symbol>
      <symbol
         overflow="visible"
         id="symbol4981">
        <path
           style="stroke:none"
           d=""
           id="path609" />
      </symbol>
      <symbol
         overflow="visible"
         id="symbol2752">
        <path
           style="stroke:none"
           d="m 6.03125,-3.703125 c 0,-0.453125 -0.171875,-0.703125 -0.40625,-0.703125 -0.25,0 -0.515625,0.234375 -0.515625,0.46875 0,0.09375 0.046875,0.203125 0.140625,0.296875 0.171875,0.15625 0.359375,0.421875 0.359375,0.84375 0,0.390625 -0.203125,0.96875 -0.5,1.421875 C 4.8125,-0.953125 4.4375,-0.609375 3.96875,-0.609375 3.40625,-0.609375 3.09375,-0.96875 3,-1.5 c 0.109375,-0.265625 0.34375,-0.90625 0.34375,-1.1875 0,-0.109375 -0.046875,-0.21875 -0.1875,-0.21875 -0.078125,0 -0.1875,0.03125 -0.265625,0.171875 C 2.78125,-2.53125 2.65625,-1.890625 2.65625,-1.53125 2.328125,-1.0625 1.9375,-0.609375 1.3125,-0.609375 c -0.671875,0 -0.875,-0.59375 -0.875,-1.140625 0,-1.25 1.015625,-2.296875 1.015625,-2.421875 0,-0.109375 -0.078125,-0.1875 -0.1875,-0.1875 -0.125,0 -0.203125,0.125 -0.265625,0.21875 -0.5,0.734375 -0.875,1.921875 -0.875,2.828125 0,0.6875 0.21875,1.421875 1.046875,1.421875 0.703125,0 1.171875,-0.5 1.53125,-1.046875 0.09375,0.578125 0.484375,1.046875 1.09375,1.046875 0.78125,0 1.25,-0.609375 1.609375,-1.359375 0.25,-0.484375 0.625,-1.84375 0.625,-2.453125 z m 0,0"
           id="path8502" />
      </symbol>
    </g>
    <filter
       inkscape:collect="always"
       style="color-interpolation-filters:sRGB"
       id="filter46072"
       x="-0.020148681"
       y="-0.020148681"
       width="1.0402974"
       height="1.0402974">
      <feGaussianBlur
         inkscape:collect="always"
         stdDeviation="0.081580427"
         id="feGaussianBlur46074" />
    </filter>
    <filter
       inkscape:collect="always"
       style="color-interpolation-filters:sRGB"
       id="filter46072-7"
       x="-0.020148681"
       y="-0.020148681"
       width="1.0402974"
       height="1.0402974">
      <feGaussianBlur
         inkscape:collect="always"
         stdDeviation="0.081580427"
         id="feGaussianBlur46074-5" />
    </filter>
    <marker
       style="overflow:visible"
       id="RoundedArrow"
       refX="0"
       refY="0"
       orient="auto-start-reverse"
       inkscape:stockid="RoundedArrow"
       markerWidth="6.1347523"
       markerHeight="5.9304953"
       viewBox="0 0 6.1347524 5.9304951"
       inkscape:isstock="true"
       inkscape:collect="always"
       preserveAspectRatio="xMidYMid">
      <path
         transform="scale(0.7)"
         d="m -0.21114562,-4.1055728 6.42229122,3.21114561 a 1,1 90 0 1 0,1.78885438 L -0.21114562,4.1055728 A 1.236068,1.236068 31.717474 0 1 -2,3 v -6 a 1.236068,1.236068 148.28253 0 1 1.78885438,-1.1055728 z"
         style="fill:context-stroke;fill-rule:evenodd;stroke:none"
         id="path1367" />
    </marker>
    <inkscape:path-effect
       effect="spiro"
       id="path-effect8280"
       is_visible="true"
       lpeversion="1" />
    <marker
       style="overflow:visible"
       id="RoundedArrow-8"
       refX="0"
       refY="0"
       orient="auto-start-reverse"
       inkscape:stockid="RoundedArrow"
       markerWidth="6.1347523"
       markerHeight="5.9304953"
       viewBox="0 0 6.1347524 5.9304951"
       inkscape:isstock="true"
       inkscape:collect="always"
       preserveAspectRatio="xMidYMid">
      <path
         transform="scale(0.7)"
         d="m -0.21114562,-4.1055728 6.42229122,3.21114561 a 1,1 90 0 1 0,1.78885438 L -0.21114562,4.1055728 A 1.236068,1.236068 31.717474 0 1 -2,3 v -6 a 1.236068,1.236068 148.28253 0 1 1.78885438,-1.1055728 z"
         style="fill:context-stroke;fill-rule:evenodd;stroke:none"
         id="path1367-9" />
    </marker>
    <inkscape:path-effect
       effect="spiro"
       id="path-effect8280-7"
       is_visible="true"
       lpeversion="1" />
    <marker
       style="overflow:visible"
       id="RoundedArrow-3"
       refX="0"
       refY="0"
       orient="auto-start-reverse"
       inkscape:stockid="RoundedArrow"
       markerWidth="6.1347523"
       markerHeight="5.9304953"
       viewBox="0 0 6.1347524 5.9304951"
       inkscape:isstock="true"
       inkscape:collect="always"
       preserveAspectRatio="xMidYMid">
      <path
         transform="scale(0.7)"
         d="m -0.21114562,-4.1055728 6.42229122,3.21114561 a 1,1 90 0 1 0,1.78885438 L -0.21114562,4.1055728 A 1.236068,1.236068 31.717474 0 1 -2,3 v -6 a 1.236068,1.236068 148.28253 0 1 1.78885438,-1.1055728 z"
         style="fill:context-stroke;fill-rule:evenodd;stroke:none"
         id="path1367-6" />
    </marker>
    <inkscape:path-effect
       effect="spiro"
       id="path-effect8280-7-6"
       is_visible="true"
       lpeversion="1" />
    <marker
       style="overflow:visible"
       id="RoundedArrow-3-1"
       refX="0"
       refY="0"
       orient="auto-start-reverse"
       inkscape:stockid="RoundedArrow"
       markerWidth="6.1347523"
       markerHeight="5.9304953"
       viewBox="0 0 6.1347524 5.9304951"
       inkscape:isstock="true"
       inkscape:collect="always"
       preserveAspectRatio="xMidYMid">
      <path
         transform="scale(0.7)"
         d="m -0.21114562,-4.1055728 6.42229122,3.21114561 a 1,1 90 0 1 0,1.78885438 L -0.21114562,4.1055728 A 1.236068,1.236068 31.717474 0 1 -2,3 v -6 a 1.236068,1.236068 148.28253 0 1 1.78885438,-1.1055728 z"
         style="fill:context-stroke;fill-rule:evenodd;stroke:none"
         id="path1367-6-2" />
    </marker>
    <inkscape:path-effect
       effect="spiro"
       id="path-effect8280-7-6-9"
       is_visible="true"
       lpeversion="1" />
    <marker
       style="overflow:visible"
       id="RoundedArrow-1"
       refX="0"
       refY="0"
       orient="auto-start-reverse"
       inkscape:stockid="RoundedArrow"
       markerWidth="6.1347523"
       markerHeight="5.9304953"
       viewBox="0 0 6.1347524 5.9304951"
       inkscape:isstock="true"
       inkscape:collect="always"
       preserveAspectRatio="xMidYMid">
      <path
         transform="scale(0.7)"
         d="m -0.21114562,-4.1055728 6.42229122,3.21114561 a 1,1 90 0 1 0,1.78885438 L -0.21114562,4.1055728 A 1.236068,1.236068 31.717474 0 1 -2,3 v -6 a 1.236068,1.236068 148.28253 0 1 1.78885438,-1.1055728 z"
         style="fill:context-stroke;fill-rule:evenodd;stroke:none"
         id="path1367-94" />
    </marker>
    <inkscape:path-effect
       effect="spiro"
       id="path-effect8280-78"
       is_visible="true"
       lpeversion="1" />
    <marker
       style="overflow:visible"
       id="RoundedArrow-1-5"
       refX="0"
       refY="0"
       orient="auto-start-reverse"
       inkscape:stockid="RoundedArrow"
       markerWidth="6.1347523"
       markerHeight="5.9304953"
       viewBox="0 0 6.1347524 5.9304951"
       inkscape:isstock="true"
       inkscape:collect="always"
       preserveAspectRatio="xMidYMid">
      <path
         transform="scale(0.7)"
         d="m -0.21114562,-4.1055728 6.42229122,3.21114561 a 1,1 90 0 1 0,1.78885438 L -0.21114562,4.1055728 A 1.236068,1.236068 31.717474 0 1 -2,3 v -6 a 1.236068,1.236068 148.28253 0 1 1.78885438,-1.1055728 z"
         style="fill:context-stroke;fill-rule:evenodd;stroke:none"
         id="path1367-94-0" />
    </marker>
    <inkscape:path-effect
       effect="spiro"
       id="path-effect8280-78-3"
       is_visible="true"
       lpeversion="1" />
  </defs>
  <sodipodi:namedview
     id="base"
     pagecolor="#ffffff"
     bordercolor="#666666"
     borderopacity="1.0"
     inkscape:pageopacity="0.0"
     inkscape:pageshadow="2"
     inkscape:zoom="0.5353194"
     inkscape:cx="215.75904"
     inkscape:cy="511.84395"
     inkscape:document-units="mm"
     inkscape:current-layer="layer1"
     inkscape:document-rotation="0"
     showgrid="false"
     inkscape:snap-object-midpoints="true"
     inkscape:showpageshadow="0"
     inkscape:pagecheckerboard="0"
     inkscape:deskcolor="#d1d1d1"
     inkscape:window-width="1920"
     inkscape:window-height="1019"
     inkscape:window-x="1920"
     inkscape:window-y="151"
     inkscape:window-maximized="1" />
  <metadata
     id="metadata5">
    <rdf:RDF>
      <cc:Work
         rdf:about="">
        <dc:format>image/svg+xml</dc:format>
        <dc:type
           rdf:resource="http://purl.org/dc/dcmitype/StillImage" />
        <dc:title />
      </cc:Work>
    </rdf:RDF>
  </metadata>
  <g
     inkscape:label="Layer 1"
     inkscape:groupmode="layer"
     id="layer1"
     transform="translate(-198.32031,-289.9801)">
    <path
       style="fill:none;fill-opacity:1;stroke:#606060;stroke-width:3;stroke-dasharray:none;stroke-opacity:1"
       d="m 266.22482,468.70754 c 12.61765,-2.8776 24.18932,-10.14647 32.25916,-20.26394 8.06985,-10.11747 12.58376,-23.01572 12.58376,-35.95734 0,-12.94162 -4.51392,-25.83986 -12.58376,-35.95733 -8.06984,-10.11746 -19.64152,-17.38633 -32.25916,-20.26393"
       id="path46333"
       inkscape:path-effect="#path-effect46337"
       inkscape:original-d="m 266.22482,468.70754 c 14.9479,-18.74023 29.89554,-37.48065 44.84292,-56.22128 14.94737,-18.74062 -29.89502,-37.48064 -44.84292,-56.22126" />
    <path
       style="fill:none;fill-opacity:1;stroke:#606060;stroke-width:3;stroke-dasharray:none;stroke-opacity:1"
       d="m 263.90229,468.30694 c -12.61764,-2.8776 -24.18932,-10.14647 -32.25916,-20.26394 -8.06984,-10.11747 -12.58376,-23.01571 -12.58376,-35.95733 0,-12.94162 4.51392,-25.83986 12.58376,-35.95733 8.06984,-10.11747 19.64152,-17.38634 32.25916,-20.26394"
       id="path46311"
       inkscape:path-effect="#path-effect46313"
       inkscape:original-d="M 263.90229,468.30694 C 248.95439,449.56672 234.00675,430.82629 219.05937,412.08567 204.112,393.34505 248.95439,374.60503 263.90229,355.8644" />
    <path
       style="fill:none;stroke:#606060;stroke-width:3;stroke-linecap:butt;stroke-linejoin:miter;stroke-miterlimit:4;stroke-dasharray:none;stroke-opacity:1"
       d="m 199.38097,534.57407 c 67.05701,-67.05704 66.638,-67.47606 66.638,-67.47606"
       id="path833-9"
       inkscape:export-xdpi="248.64"
       inkscape:export-ydpi="248.64" />
    <path
       style="fill:none;stroke:#606060;stroke-width:3;stroke-linecap:butt;stroke-linejoin:miter;stroke-miterlimit:4;stroke-dasharray:none;stroke-opacity:1"
       d="M 332.65699,534.57407 C 265.59996,467.51703 266.01897,467.09801 266.01897,467.09801"
       id="path833-6-2"
       inkscape:export-xdpi="248.64"
       inkscape:export-ydpi="248.64" />
    <path
       style="fill:none;stroke:#606060;stroke-width:3;stroke-linecap:butt;stroke-linejoin:miter;stroke-miterlimit:4;stroke-dasharray:none;stroke-opacity:1"
       d="m 199.38097,291.04076 c 67.05701,67.05704 66.638,67.47606 66.638,67.47606"
       id="path833-9-2"
       inkscape:export-xdpi="248.64"
       inkscape:export-ydpi="248.64" />
    <path
       style="fill:none;stroke:#606060;stroke-width:3;stroke-linecap:butt;stroke-linejoin:miter;stroke-miterlimit:4;stroke-dasharray:none;stroke-opacity:1"
       d="m 332.65699,291.04076 c -67.05703,67.05704 -66.63802,67.47606 -66.63802,67.47606"
       id="path833-6-2-2"
       inkscape:export-xdpi="248.64"
       inkscape:export-ydpi="248.64" />
    <circle
       style="fill:#ff5000;fill-opacity:1;stroke:none;stroke-width:1;stroke-linecap:round;stroke-linejoin:round;stroke-miterlimit:4;stroke-dasharray:none;paint-order:markers stroke fill;filter:url(#filter46072)"
       id="path868-0"
       cx="-486.27261"
       cy="-264.10916"
       r="4.858706"
       inkscape:export-xdpi="248.64"
       inkscape:export-ydpi="248.64"
       transform="matrix(0,-1.5153815,-1.5153815,0,-134.00031,-270.19519)" />
    <circle
       style="fill:#ff5000;fill-opacity:1;stroke:none;stroke-width:1;stroke-linecap:round;stroke-linejoin:round;stroke-miterlimit:4;stroke-dasharray:none;paint-order:markers stroke fill;filter:url(#filter46072-7)"
       id="path868-0-9"
       cx="-486.27261"
       cy="-264.10916"
       r="4.858706"
       inkscape:export-xdpi="248.64"
       inkscape:export-ydpi="248.64"
       transform="matrix(0,-1.5153815,-1.5153815,0,-133.88118,-380.78961)" />
    <g
       transform="matrix(1.76389,0,0,1.76389,205.138,480.821)"
       ns3:version="1.8.1"
       ns3:texconverter="xelatex"
       ns3:pdfconverter="inkscape"
       ns3:text="$\\vec K_1$"
       ns3:preamble="/home/kirito/.config/textext/beamer_preamble.tex"
       ns3:scale="5.0"
       ns3:alignment="middle center"
       ns3:stroke-to-path="0"
       ns3:inkscapeversion="1.0.1"
       ns3:jacobian_sqrt="1.76389"
       id="g49855">
      <defs
         id="id-e4a59604-0339-43c4-b5fc-7d24b6e4eb48">
        <g
           id="id-a12418c4-976e-475a-ae1c-9ea2ec293783">
          <g
             id="id-5add6d98-27fc-4e98-88c9-2b31df2d808e">
            <path
               d="m 5.4375,-6.4375 v 5.890625 H 1.34375 V -6.4375 Z m 0.546875,-0.546875 h -5.1875 V 0 h 5.1875 z m -2.75,4.953125 c -0.21875,0 -0.40625,0.1875 -0.40625,0.421875 0,0.21875 0.1875,0.40625 0.40625,0.40625 0.25,0 0.421875,-0.1875 0.421875,-0.40625 0,-0.234375 -0.171875,-0.421875 -0.421875,-0.421875 z M 3.4375,-5.453125 c -0.5,0 -0.90625,0.1875 -1.25,0.59375 l 0.390625,0.28125 C 2.828125,-4.875 3.09375,-5 3.40625,-5 3.765625,-5 4,-4.8125 4,-4.484375 4,-3.84375 2.953125,-3.953125 2.953125,-2.9375 v 0.296875 H 3.5 V -2.90625 c 0,-0.796875 1.078125,-0.65625 1.078125,-1.625 0,-0.46875 -0.375,-0.921875 -1.140625,-0.921875 z m 0,0"
               id="id-7445f82f-bf11-434a-bff7-412b50fee38f" />
          </g>
          <g
             id="id-faee61fb-32db-43c7-bb3e-6d2c8cdbe6b8">
            <path
               d="m -1.421875,-8.203125 -0.375,0.34375 0.5,0.546875 h -2.59375 v 0.609375 h 2.59375 l -0.5,0.546875 0.375,0.34375 1.125,-1.1875 z m 0,0"
               id="id-daaac7e0-8f4c-439c-a110-ad30ebb74d9d" />
          </g>
          <g
             id="id-0d3f3f2a-07a0-4e76-a8a6-95e302e340d2">
            <path
               d="M 4.328125,0 H 5.4375 L 3.1875,-3.640625 6.234375,-6.875 H 5.140625 L 2.125,-3.671875 Z M 0.625,0 H 1.5625 L 2.53125,-6.875 H 1.578125 Z m 0,0"
               id="id-c12e7978-f3de-49df-8d99-673de07251db" />
          </g>
          <g
             id="id-1f8e39ab-283a-4792-9b97-5b481abb2735">
            <path
               d="m 3.90625,-4.625 v 4.234375 H 0.96875 V -4.625 Z M 4.296875,-5.015625 H 0.578125 V 0 h 3.71875 z m -1.96875,3.5625 c -0.15625,0 -0.296875,0.125 -0.296875,0.296875 0,0.15625 0.140625,0.296875 0.296875,0.296875 C 2.5,-0.859375 2.625,-1 2.625,-1.15625 2.625,-1.328125 2.5,-1.453125 2.328125,-1.453125 Z m 0.140625,-2.46875 c -0.359375,0 -0.640625,0.140625 -0.890625,0.421875 L 1.84375,-3.296875 C 2.03125,-3.5 2.234375,-3.59375 2.453125,-3.59375 c 0.265625,0 0.4375,0.125 0.4375,0.359375 0,0.46875 -0.765625,0.390625 -0.765625,1.125 v 0.203125 h 0.390625 v -0.1875 c 0,-0.5625 0.78125,-0.46875 0.78125,-1.15625 0,-0.34375 -0.28125,-0.671875 -0.828125,-0.671875 z m 0,0"
               id="id-08832123-5565-4f51-88ac-ba2b9ecc4554" />
          </g>
          <g
             id="id-d491d2e1-0dd5-4d31-b7ee-e2a55090d28b">
            <path
               d="m 1.984375,0 h 0.65625 V -4.9375 H 2.0625 l -1.484375,0.921875 0.28125,0.453125 1.125,-0.671875 z m 0,0"
               id="id-9a0321e6-c95b-4aba-a3d0-de1fe41fa390" />
          </g>
        </g>
      </defs>
      <g
         fill="#000000"
         fill-opacity="1"
         id="id-d5e5b1d0-efe1-4022-bc86-94c188a64b66"
         transform="translate(-149.337,-124.948)">
        <g
           transform="translate(154.63,133.151)"
           id="g50420">
          <path
             d="m -1.421875,-8.203125 -0.375,0.34375 0.5,0.546875 h -2.59375 v 0.609375 h 2.59375 l -0.5,0.546875 0.375,0.34375 1.125,-1.1875 z m 0,0"
             id="id-a590a9b0-25a6-4f12-8928-8d83353048d0" />
        </g>
      </g>
      <g
         fill="#000000"
         fill-opacity="1"
         id="id-26a209cc-0754-40bb-8482-41303a4963dd"
         transform="translate(-149.337,-124.948)">
        <g
           transform="translate(148.712,134.765)"
           id="g50424">
          <path
             d="M 4.328125,0 H 5.4375 L 3.1875,-3.640625 6.234375,-6.875 H 5.140625 L 2.125,-3.671875 Z M 0.625,0 H 1.5625 L 2.53125,-6.875 H 1.578125 Z m 0,0"
             id="id-43368812-66ee-44dd-88fb-98440589484c" />
        </g>
      </g>
      <g
         fill="#000000"
         fill-opacity="1"
         id="id-f517497e-93e3-4ba7-8d5d-28fbfb979f08"
         transform="translate(-149.337,-124.948)">
        <g
           transform="translate(154.521,138.252)"
           id="g50428">
          <path
             d="m 1.984375,0 h 0.65625 V -4.9375 H 2.0625 l -1.484375,0.921875 0.28125,0.453125 1.125,-0.671875 z m 0,0"
             id="id-d8829665-120e-407a-ab24-d28c1ad2866b" />
        </g>
      </g>
    </g>
    <g
       transform="matrix(1.76389,0,0,1.76389,304.936,480.821)"
       ns3:version="1.8.1"
       ns3:texconverter="xelatex"
       ns3:pdfconverter="inkscape"
       ns3:text="$\\vec K_2$"
       ns3:preamble="/home/kirito/.config/textext/beamer_preamble.tex"
       ns3:scale="5.0"
       ns3:alignment="middle center"
       ns3:stroke-to-path="0"
       ns3:inkscapeversion="1.0.1"
       ns3:jacobian_sqrt="1.76389"
       id="g50516">
      <defs
         id="id-ba7b5d20-8bb8-4d2c-bead-0454df2002bf">
        <g
           id="id-d852df6a-702b-472d-b9fa-d84aa0e19a95">
          <g
             id="id-7b604e25-81b4-421f-9be5-76cb210d16a5">
            <path
               d="m 5.4375,-6.4375 v 5.890625 H 1.34375 V -6.4375 Z m 0.546875,-0.546875 h -5.1875 V 0 h 5.1875 z m -2.75,4.953125 c -0.21875,0 -0.40625,0.1875 -0.40625,0.421875 0,0.21875 0.1875,0.40625 0.40625,0.40625 0.25,0 0.421875,-0.1875 0.421875,-0.40625 0,-0.234375 -0.171875,-0.421875 -0.421875,-0.421875 z M 3.4375,-5.453125 c -0.5,0 -0.90625,0.1875 -1.25,0.59375 l 0.390625,0.28125 C 2.828125,-4.875 3.09375,-5 3.40625,-5 3.765625,-5 4,-4.8125 4,-4.484375 4,-3.84375 2.953125,-3.953125 2.953125,-2.9375 v 0.296875 H 3.5 V -2.90625 c 0,-0.796875 1.078125,-0.65625 1.078125,-1.625 0,-0.46875 -0.375,-0.921875 -1.140625,-0.921875 z m 0,0"
               id="id-1a8ce23c-8fb2-44a4-8365-48b60e74a3c5" />
          </g>
          <g
             id="id-276fb393-aa89-474a-bc06-438931b672f8">
            <path
               d="m -1.421875,-8.203125 -0.375,0.34375 0.5,0.546875 h -2.59375 v 0.609375 h 2.59375 l -0.5,0.546875 0.375,0.34375 1.125,-1.1875 z m 0,0"
               id="id-733190f6-4e45-45d4-a073-aec1ce0ca0fd" />
          </g>
          <g
             id="id-94d2e58d-ae0d-4ddd-b7ca-f9974349bb0b">
            <path
               d="M 4.328125,0 H 5.4375 L 3.1875,-3.640625 6.234375,-6.875 H 5.140625 L 2.125,-3.671875 Z M 0.625,0 H 1.5625 L 2.53125,-6.875 H 1.578125 Z m 0,0"
               id="id-90655ccd-e98b-404c-ad1e-9a5d8a3b8161" />
          </g>
          <g
             id="id-f5cc470a-c990-41fb-9d13-ff577e721e9f">
            <path
               d="m 3.90625,-4.625 v 4.234375 H 0.96875 V -4.625 Z M 4.296875,-5.015625 H 0.578125 V 0 h 3.71875 z m -1.96875,3.5625 c -0.15625,0 -0.296875,0.125 -0.296875,0.296875 0,0.15625 0.140625,0.296875 0.296875,0.296875 C 2.5,-0.859375 2.625,-1 2.625,-1.15625 2.625,-1.328125 2.5,-1.453125 2.328125,-1.453125 Z m 0.140625,-2.46875 c -0.359375,0 -0.640625,0.140625 -0.890625,0.421875 L 1.84375,-3.296875 C 2.03125,-3.5 2.234375,-3.59375 2.453125,-3.59375 c 0.265625,0 0.4375,0.125 0.4375,0.359375 0,0.46875 -0.765625,0.390625 -0.765625,1.125 v 0.203125 h 0.390625 v -0.1875 c 0,-0.5625 0.78125,-0.46875 0.78125,-1.15625 0,-0.34375 -0.28125,-0.671875 -0.828125,-0.671875 z m 0,0"
               id="id-c033b8ce-047b-4345-9dac-94d208e83c79" />
          </g>
          <g
             id="id-8f599602-e7f1-4136-a2ef-b6be2bb44a0b">
            <path
               d="m 1.84375,-5.03125 c -0.671875,0 -1.140625,0.25 -1.515625,0.734375 l 0.4375,0.34375 c 0.3125,-0.375 0.578125,-0.53125 1.046875,-0.53125 0.546875,0 0.859375,0.328125 0.859375,0.875 0,0.78125 -0.40625,1.328125 -2.25,3.078125 V 0 H 3.40625 l 0.078125,-0.546875 h -2.3125 c 1.625,-1.46875 2.1875,-2.203125 2.1875,-3.09375 0,-0.78125 -0.5625,-1.390625 -1.515625,-1.390625 z m 0,0"
               id="id-00f875d7-49f6-4602-b413-e67ce117478a" />
          </g>
        </g>
      </defs>
      <g
         fill="#000000"
         fill-opacity="1"
         id="id-39e2de62-8993-476e-b7d4-edc3472ffb1f"
         transform="translate(-149.337,-124.948)">
        <g
           transform="translate(154.63,133.151)"
           id="g51005">
          <path
             d="m -1.421875,-8.203125 -0.375,0.34375 0.5,0.546875 h -2.59375 v 0.609375 h 2.59375 l -0.5,0.546875 0.375,0.34375 1.125,-1.1875 z m 0,0"
             id="id-d6dc7ca3-669b-47dd-9534-38a14bf3d657" />
        </g>
      </g>
      <g
         fill="#000000"
         fill-opacity="1"
         id="id-6a26f6d7-b915-4d58-9281-d2dd9cc414b2"
         transform="translate(-149.337,-124.948)">
        <g
           transform="translate(148.712,134.765)"
           id="g51009">
          <path
             d="M 4.328125,0 H 5.4375 L 3.1875,-3.640625 6.234375,-6.875 H 5.140625 L 2.125,-3.671875 Z M 0.625,0 H 1.5625 L 2.53125,-6.875 H 1.578125 Z m 0,0"
             id="id-bcfdb8b1-2458-4138-b411-8ee50171e1b9" />
        </g>
      </g>
      <g
         fill="#000000"
         fill-opacity="1"
         id="id-3d8f27ce-c5d5-4bb4-8a57-5d63de3a7e4c"
         transform="translate(-149.337,-124.948)">
        <g
           transform="translate(154.521,138.252)"
           id="g51013">
          <path
             d="m 1.84375,-5.03125 c -0.671875,0 -1.140625,0.25 -1.515625,0.734375 l 0.4375,0.34375 c 0.3125,-0.375 0.578125,-0.53125 1.046875,-0.53125 0.546875,0 0.859375,0.328125 0.859375,0.875 0,0.78125 -0.40625,1.328125 -2.25,3.078125 V 0 H 3.40625 l 0.078125,-0.546875 h -2.3125 c 1.625,-1.46875 2.1875,-2.203125 2.1875,-3.09375 0,-0.78125 -0.5625,-1.390625 -1.515625,-1.390625 z m 0,0"
             id="id-11cab11c-7a98-453f-bd5d-9a6090c34c36" />
        </g>
      </g>
    </g>
    <g
       transform="matrix(1.76389,0,0,1.76389,304.771,322.071)"
       ns3:version="1.8.1"
       ns3:texconverter="xelatex"
       ns3:pdfconverter="inkscape"
       ns3:text="$\\vec K_4$"
       ns3:preamble="/home/kirito/.config/textext/beamer_preamble.tex"
       ns3:scale="5.0"
       ns3:alignment="middle center"
       ns3:stroke-to-path="0"
       ns3:inkscapeversion="1.0.1"
       ns3:jacobian_sqrt="1.76389"
       id="g51101">
      <defs
         id="id-fa88ec74-5b0e-4684-b698-488fa1e1608f">
        <g
           id="id-d0b38bc1-2e1d-4709-bcee-6fd675de630f">
          <g
             id="id-5b7d92c2-568d-421d-bd3e-16a87665cf2f">
            <path
               d="m 5.4375,-6.4375 v 5.890625 H 1.34375 V -6.4375 Z m 0.546875,-0.546875 h -5.1875 V 0 h 5.1875 z m -2.75,4.953125 c -0.21875,0 -0.40625,0.1875 -0.40625,0.421875 0,0.21875 0.1875,0.40625 0.40625,0.40625 0.25,0 0.421875,-0.1875 0.421875,-0.40625 0,-0.234375 -0.171875,-0.421875 -0.421875,-0.421875 z M 3.4375,-5.453125 c -0.5,0 -0.90625,0.1875 -1.25,0.59375 l 0.390625,0.28125 C 2.828125,-4.875 3.09375,-5 3.40625,-5 3.765625,-5 4,-4.8125 4,-4.484375 4,-3.84375 2.953125,-3.953125 2.953125,-2.9375 v 0.296875 H 3.5 V -2.90625 c 0,-0.796875 1.078125,-0.65625 1.078125,-1.625 0,-0.46875 -0.375,-0.921875 -1.140625,-0.921875 z m 0,0"
               id="id-65c437ec-92ed-44f8-92e7-291989c4c177" />
          </g>
          <g
             id="id-65a20e34-3368-47c8-b7b4-d8c4b697a0cf">
            <path
               d="m -1.421875,-8.203125 -0.375,0.34375 0.5,0.546875 h -2.59375 v 0.609375 h 2.59375 l -0.5,0.546875 0.375,0.34375 1.125,-1.1875 z m 0,0"
               id="id-27b4d3e8-6897-4cc4-acc6-c4d8a266f6df" />
          </g>
          <g
             id="id-d2ff87cf-f1f2-4fe0-b7de-5ffb169f7927">
            <path
               d="M 4.328125,0 H 5.4375 L 3.1875,-3.640625 6.234375,-6.875 H 5.140625 L 2.125,-3.671875 Z M 0.625,0 H 1.5625 L 2.53125,-6.875 H 1.578125 Z m 0,0"
               id="id-6aa9b493-a2de-4978-9357-334e22d80e7a" />
          </g>
          <g
             id="id-30640664-14e3-4e64-a60b-dc897f2fb694">
            <path
               d="m 3.90625,-4.625 v 4.234375 H 0.96875 V -4.625 Z M 4.296875,-5.015625 H 0.578125 V 0 h 3.71875 z m -1.96875,3.5625 c -0.15625,0 -0.296875,0.125 -0.296875,0.296875 0,0.15625 0.140625,0.296875 0.296875,0.296875 C 2.5,-0.859375 2.625,-1 2.625,-1.15625 2.625,-1.328125 2.5,-1.453125 2.328125,-1.453125 Z m 0.140625,-2.46875 c -0.359375,0 -0.640625,0.140625 -0.890625,0.421875 L 1.84375,-3.296875 C 2.03125,-3.5 2.234375,-3.59375 2.453125,-3.59375 c 0.265625,0 0.4375,0.125 0.4375,0.359375 0,0.46875 -0.765625,0.390625 -0.765625,1.125 v 0.203125 h 0.390625 v -0.1875 c 0,-0.5625 0.78125,-0.46875 0.78125,-1.15625 0,-0.34375 -0.28125,-0.671875 -0.828125,-0.671875 z m 0,0"
               id="id-7eb3b588-f67a-4ecf-9b23-9a8374e3610a" />
          </g>
          <g
             id="id-e1b825ee-3950-48ba-8b0d-a7229b3e8a09">
            <path
               d="m 3.671875,-1.703125 h -0.625 v -1.375 H 2.46875 l -0.0625,1.375 H 1.046875 L 2.34375,-4.796875 1.796875,-5.03125 0.34375,-1.65625 v 0.46875 h 2.0625 V 0 h 0.640625 v -1.1875 h 0.625 z m 0,0"
               id="id-644447b3-b02b-4e1f-8271-47e8d019d7bf" />
          </g>
        </g>
      </defs>
      <g
         fill="#000000"
         fill-opacity="1"
         id="id-d4d2157c-f0bd-455c-a2dd-fa3894239f4c"
         transform="translate(-149.337,-124.948)">
        <g
           transform="translate(154.63,133.151)"
           id="g51634">
          <path
             d="m -1.421875,-8.203125 -0.375,0.34375 0.5,0.546875 h -2.59375 v 0.609375 h 2.59375 l -0.5,0.546875 0.375,0.34375 1.125,-1.1875 z m 0,0"
             id="id-ba4797cc-c010-4ffb-bda6-d86a766e4868" />
        </g>
      </g>
      <g
         fill="#000000"
         fill-opacity="1"
         id="id-777f27ea-9a44-4ec2-8fca-7cc2eef71039"
         transform="translate(-149.337,-124.948)">
        <g
           transform="translate(148.712,134.765)"
           id="g51638">
          <path
             d="M 4.328125,0 H 5.4375 L 3.1875,-3.640625 6.234375,-6.875 H 5.140625 L 2.125,-3.671875 Z M 0.625,0 H 1.5625 L 2.53125,-6.875 H 1.578125 Z m 0,0"
             id="id-fa63ded7-d69b-4e2a-b4af-ae19fdcdf0e1" />
        </g>
      </g>
      <g
         fill="#000000"
         fill-opacity="1"
         id="id-49ed9dd3-491d-480d-8c31-0269585af936"
         transform="translate(-149.337,-124.948)">
        <g
           transform="translate(154.521,138.252)"
           id="g51642">
          <path
             d="m 3.671875,-1.703125 h -0.625 v -1.375 H 2.46875 l -0.0625,1.375 H 1.046875 L 2.34375,-4.796875 1.796875,-5.03125 0.34375,-1.65625 v 0.46875 h 2.0625 V 0 h 0.640625 v -1.1875 h 0.625 z m 0,0"
             id="id-66ee0bf9-b6d9-4c22-aed7-49a4b33bd810" />
        </g>
      </g>
    </g>
    <g
       transform="matrix(1.76389,0,0,1.76389,220.256,321.988)"
       ns3:version="1.8.1"
       ns3:texconverter="xelatex"
       ns3:pdfconverter="inkscape"
       ns3:text="$\\vec K_3$"
       ns3:preamble="/home/kirito/.config/textext/beamer_preamble.tex"
       ns3:scale="5.0"
       ns3:alignment="middle center"
       ns3:stroke-to-path="0"
       ns3:inkscapeversion="1.0.1"
       ns3:jacobian_sqrt="1.76389"
       id="g51730">
      <defs
         id="id-3f59c9e8-07e0-4f7b-a3ac-2164f13ac4c6">
        <g
           id="id-a8ddeeba-223d-46e6-9da5-3a9eb43c526c">
          <g
             id="id-e87451b5-0d76-4ed1-8ff1-10114844fe71">
            <path
               d="m 5.4375,-6.4375 v 5.890625 H 1.34375 V -6.4375 Z m 0.546875,-0.546875 h -5.1875 V 0 h 5.1875 z m -2.75,4.953125 c -0.21875,0 -0.40625,0.1875 -0.40625,0.421875 0,0.21875 0.1875,0.40625 0.40625,0.40625 0.25,0 0.421875,-0.1875 0.421875,-0.40625 0,-0.234375 -0.171875,-0.421875 -0.421875,-0.421875 z M 3.4375,-5.453125 c -0.5,0 -0.90625,0.1875 -1.25,0.59375 l 0.390625,0.28125 C 2.828125,-4.875 3.09375,-5 3.40625,-5 3.765625,-5 4,-4.8125 4,-4.484375 4,-3.84375 2.953125,-3.953125 2.953125,-2.9375 v 0.296875 H 3.5 V -2.90625 c 0,-0.796875 1.078125,-0.65625 1.078125,-1.625 0,-0.46875 -0.375,-0.921875 -1.140625,-0.921875 z m 0,0"
               id="id-6af877d0-97ea-40ba-89bd-922f523bd42f" />
          </g>
          <g
             id="id-baaf63fb-4185-47a8-8cc4-f83ab78c762a">
            <path
               d="m -1.421875,-8.203125 -0.375,0.34375 0.5,0.546875 h -2.59375 v 0.609375 h 2.59375 l -0.5,0.546875 0.375,0.34375 1.125,-1.1875 z m 0,0"
               id="id-84e4bb7b-4fc8-43b0-86b1-87c68711c208" />
          </g>
          <g
             id="id-20538094-299e-4aa5-b5c1-c9389da578db">
            <path
               d="M 4.328125,0 H 5.4375 L 3.1875,-3.640625 6.234375,-6.875 H 5.140625 L 2.125,-3.671875 Z M 0.625,0 H 1.5625 L 2.53125,-6.875 H 1.578125 Z m 0,0"
               id="id-866db8e3-3cd2-482a-a7bb-e8271aa1f38c" />
          </g>
          <g
             id="id-ad458dfe-2370-426a-8d0e-f317d774b147">
            <path
               d="m 3.90625,-4.625 v 4.234375 H 0.96875 V -4.625 Z M 4.296875,-5.015625 H 0.578125 V 0 h 3.71875 z m -1.96875,3.5625 c -0.15625,0 -0.296875,0.125 -0.296875,0.296875 0,0.15625 0.140625,0.296875 0.296875,0.296875 C 2.5,-0.859375 2.625,-1 2.625,-1.15625 2.625,-1.328125 2.5,-1.453125 2.328125,-1.453125 Z m 0.140625,-2.46875 c -0.359375,0 -0.640625,0.140625 -0.890625,0.421875 L 1.84375,-3.296875 C 2.03125,-3.5 2.234375,-3.59375 2.453125,-3.59375 c 0.265625,0 0.4375,0.125 0.4375,0.359375 0,0.46875 -0.765625,0.390625 -0.765625,1.125 v 0.203125 h 0.390625 v -0.1875 c 0,-0.5625 0.78125,-0.46875 0.78125,-1.15625 0,-0.34375 -0.28125,-0.671875 -0.828125,-0.671875 z m 0,0"
               id="id-55bda35d-e84d-445e-ae42-83b3f7526a55" />
          </g>
          <g
             id="id-bdf76d6c-4b9e-4feb-8486-d841c1ffd78c">
            <path
               d="m 1.796875,-5.03125 c -0.515625,0 -1.015625,0.1875 -1.4375,0.578125 l 0.359375,0.40625 C 1.046875,-4.359375 1.34375,-4.5 1.765625,-4.5 c 0.515625,0 0.90625,0.28125 0.90625,0.8125 0,0.5625 -0.4375,0.828125 -0.921875,0.828125 H 1.46875 L 1.390625,-2.34375 h 0.40625 c 0.578125,0 1,0.234375 1,0.921875 0,0.59375 -0.390625,0.96875 -1.0625,0.96875 -0.40625,0 -0.796875,-0.15625 -1.109375,-0.484375 L 0.21875,-0.578125 C 0.59375,-0.125 1.1875,0.09375 1.75,0.09375 c 1.046875,0 1.75,-0.65625 1.75,-1.515625 0,-0.75 -0.5625,-1.1875 -1.140625,-1.21875 0.546875,-0.125 0.96875,-0.53125 0.96875,-1.140625 0,-0.671875 -0.578125,-1.25 -1.53125,-1.25 z m 0,0"
               id="id-e0231def-bebe-44ef-aeac-43a41d99a4e0" />
          </g>
        </g>
      </defs>
      <g
         fill="#000000"
         fill-opacity="1"
         id="id-e1f372aa-ca7f-45ab-b0c4-743ac0172b48"
         transform="translate(-149.337,-124.948)">
        <g
           transform="translate(154.63,133.151)"
           id="g52307">
          <path
             d="m -1.421875,-8.203125 -0.375,0.34375 0.5,0.546875 h -2.59375 v 0.609375 h 2.59375 l -0.5,0.546875 0.375,0.34375 1.125,-1.1875 z m 0,0"
             id="id-a595144b-2b30-457d-9a39-ad055091ad5c" />
        </g>
      </g>
      <g
         fill="#000000"
         fill-opacity="1"
         id="id-757a8e9d-2857-4ec1-a5fd-bdd653eed760"
         transform="translate(-149.337,-124.948)">
        <g
           transform="translate(148.712,134.765)"
           id="g52311">
          <path
             d="M 4.328125,0 H 5.4375 L 3.1875,-3.640625 6.234375,-6.875 H 5.140625 L 2.125,-3.671875 Z M 0.625,0 H 1.5625 L 2.53125,-6.875 H 1.578125 Z m 0,0"
             id="id-276cea52-a816-4702-b404-53d973b7270f" />
        </g>
      </g>
      <g
         fill="#000000"
         fill-opacity="1"
         id="id-87391b6e-18f3-44c1-ae6e-4bbb51a2a7a9"
         transform="translate(-149.337,-124.948)">
        <g
           transform="translate(154.521,138.252)"
           id="g52315">
          <path
             d="m 1.796875,-5.03125 c -0.515625,0 -1.015625,0.1875 -1.4375,0.578125 l 0.359375,0.40625 C 1.046875,-4.359375 1.34375,-4.5 1.765625,-4.5 c 0.515625,0 0.90625,0.28125 0.90625,0.8125 0,0.5625 -0.4375,0.828125 -0.921875,0.828125 H 1.46875 L 1.390625,-2.34375 h 0.40625 c 0.578125,0 1,0.234375 1,0.921875 0,0.59375 -0.390625,0.96875 -1.0625,0.96875 -0.40625,0 -0.796875,-0.15625 -1.109375,-0.484375 L 0.21875,-0.578125 C 0.59375,-0.125 1.1875,0.09375 1.75,0.09375 c 1.046875,0 1.75,-0.65625 1.75,-1.515625 0,-0.75 -0.5625,-1.1875 -1.140625,-1.21875 0.546875,-0.125 0.96875,-0.53125 0.96875,-1.140625 0,-0.671875 -0.578125,-1.25 -1.53125,-1.25 z m 0,0"
             id="id-cf099858-52a5-4fdd-a29f-c8562fe9e8fc" />
        </g>
      </g>
    </g>
    <g
       transform="matrix(1.76389,0,0,1.76389,207.845,369.32115)"
       ns3:version="1.8.1"
       ns3:texconverter="xelatex"
       ns3:pdfconverter="inkscape"
       ns3:text="\\[-\\omega\\]\n\\\\\n\\[\\vec K\\]"
       ns3:preamble="/home/kirito/.config/textext/beamer_preamble.tex"
       ns3:scale="5.0"
       ns3:alignment="middle center"
       ns3:stroke-to-path="0"
       ns3:inkscapeversion="1.0.1"
       ns3:jacobian_sqrt="1.76389"
       id="g52972">
      <defs
         id="id-eb6b512d-d6a7-4e11-a9cb-e0bf867576c2">
        <g
           id="id-32c079a1-40ef-4de2-89ff-f0ab417bb1b6">
          <g
             id="id-bca988f3-83fc-4b74-8296-bdba88d013d7">
            <path
               d="m 5.4375,-6.4375 v 5.890625 H 1.34375 V -6.4375 Z m 0.546875,-0.546875 h -5.1875 V 0 h 5.1875 z m -2.75,4.953125 c -0.21875,0 -0.40625,0.1875 -0.40625,0.421875 0,0.21875 0.1875,0.40625 0.40625,0.40625 0.25,0 0.421875,-0.1875 0.421875,-0.40625 0,-0.234375 -0.171875,-0.421875 -0.421875,-0.421875 z M 3.4375,-5.453125 c -0.5,0 -0.90625,0.1875 -1.25,0.59375 l 0.390625,0.28125 C 2.828125,-4.875 3.09375,-5 3.40625,-5 3.765625,-5 4,-4.8125 4,-4.484375 4,-3.84375 2.953125,-3.953125 2.953125,-2.9375 v 0.296875 H 3.5 V -2.90625 c 0,-0.796875 1.078125,-0.65625 1.078125,-1.625 0,-0.46875 -0.375,-0.921875 -1.140625,-0.921875 z m 0,0"
               id="id-7633a387-b580-4567-93f7-34bfba9b419c" />
          </g>
          <g
             id="id-0c8220cb-bc94-4eac-9e4e-88e3bbf25c34">
            <path
               d="M 0.625,-2.40625 H 4.359375 V -3.171875 H 0.625 Z m 0,0"
               id="id-8b4dd46c-4c29-4f79-af82-cec79a0b9d0b" />
          </g>
          <g
             id="id-91dee28c-138a-4ec0-a9bf-e3d3943ffac7">
            <path
               d="m 2.0625,0.125 c 0.78125,0 1.28125,-0.375 1.578125,-1.21875 0.015625,0.796875 0.46875,1.21875 1.21875,1.21875 1.625,0 2.203125,-1.765625 2.203125,-3.390625 C 7.0625,-4.0625 6.921875,-4.71875 6.78125,-5.25 H 5.890625 c 0.1875,0.734375 0.265625,1.3125 0.265625,1.90625 0,1.09375 -0.25,2.71875 -1.375,2.71875 -0.609375,0 -0.71875,-0.46875 -0.625,-1.15625 l 0.265625,-1.875 -0.890625,0.125 -0.234375,1.703125 C 3.15625,-0.84375 2.734375,-0.625 2.21875,-0.625 c -0.484375,0 -0.75,-0.296875 -0.75,-1.0625 0,-0.96875 0.265625,-2.015625 1.046875,-3.5625 H 1.59375 c -0.609375,1.109375 -1.03125,2.375 -1.03125,3.5 0,1.328125 0.65625,1.875 1.5,1.875 z m 0,0"
               id="id-48500230-9a2f-488d-9b76-e2cc54af5abf" />
          </g>
          <g
             id="id-10fac0ad-fb16-4e5f-aa6b-4028eab7f1fd">
            <path
               d="m -1.421875,-8.203125 -0.375,0.34375 0.5,0.546875 h -2.59375 v 0.609375 h 2.59375 l -0.5,0.546875 0.375,0.34375 1.125,-1.1875 z m 0,0"
               id="id-089c6220-adb6-4014-b2cf-24448f1a2a2f" />
          </g>
          <g
             id="id-b7edb700-e9c6-4c26-97a9-e832964ff739">
            <path
               d="M 4.328125,0 H 5.4375 L 3.1875,-3.640625 6.234375,-6.875 H 5.140625 L 2.125,-3.671875 Z M 0.625,0 H 1.5625 L 2.53125,-6.875 H 1.578125 Z m 0,0"
               id="id-db045683-03fc-4402-a183-f90379afba25" />
          </g>
        </g>
      </defs>
      <g
         fill="#000000"
         fill-opacity="1"
         id="id-9fb9a5d8-0bac-4e8c-99bd-013334d350bf"
         transform="translate(-299.848,-141.47)">
        <g
           transform="translate(299.223,146.72)"
           id="g55096">
          <path
             d="M 0.625,-2.40625 H 4.359375 V -3.171875 H 0.625 Z m 0,0"
             id="id-c71dd8f8-23fe-4405-a1ef-b169941e8695" />
        </g>
        <g
           transform="translate(304.204,146.72)"
           id="g55099">
          <path
             d="m 2.0625,0.125 c 0.78125,0 1.28125,-0.375 1.578125,-1.21875 0.015625,0.796875 0.46875,1.21875 1.21875,1.21875 1.625,0 2.203125,-1.765625 2.203125,-3.390625 C 7.0625,-4.0625 6.921875,-4.71875 6.78125,-5.25 H 5.890625 c 0.1875,0.734375 0.265625,1.3125 0.265625,1.90625 0,1.09375 -0.25,2.71875 -1.375,2.71875 -0.609375,0 -0.71875,-0.46875 -0.625,-1.15625 l 0.265625,-1.875 -0.890625,0.125 -0.234375,1.703125 C 3.15625,-0.84375 2.734375,-0.625 2.21875,-0.625 c -0.484375,0 -0.75,-0.296875 -0.75,-1.0625 0,-0.96875 0.265625,-2.015625 1.046875,-3.5625 H 1.59375 c -0.609375,1.109375 -1.03125,2.375 -1.03125,3.5 0,1.328125 0.65625,1.875 1.5,1.875 z m 0,0"
             id="id-994ad1f5-52b8-4049-a148-83ef22ae8926" />
        </g>
      </g>
      <g
         fill="#000000"
         fill-opacity="1"
         id="id-469ef9d0-7e96-4b45-9b32-02117ef20b44"
         transform="translate(-299.848,-141.47)">
        <g
           transform="translate(308.239,186.949)"
           id="g55103">
          <path
             d="m -1.421875,-8.203125 -0.375,0.34375 0.5,0.546875 h -2.59375 v 0.609375 h 2.59375 l -0.5,0.546875 0.375,0.34375 1.125,-1.1875 z m 0,0"
             id="id-ff4ee5f7-3158-4950-bb9b-a192b3a1528a" />
        </g>
      </g>
      <g
         fill="#000000"
         fill-opacity="1"
         id="id-05e9e245-72dc-4d90-865d-9bca1ec23a63"
         transform="translate(-299.848,-141.47)">
        <g
           transform="translate(302.321,188.563)"
           id="g55107">
          <path
             d="M 4.328125,0 H 5.4375 L 3.1875,-3.640625 6.234375,-6.875 H 5.140625 L 2.125,-3.671875 Z M 0.625,0 H 1.5625 L 2.53125,-6.875 H 1.578125 Z m 0,0"
             id="id-9eead591-c9a9-49bb-be65-0759ee29a170" />
        </g>
      </g>
    </g>
    <g
       transform="matrix(1.76389,0,0,1.76389,288.119,369.73236)"
       ns3:version="1.8.1"
       ns3:texconverter="xelatex"
       ns3:pdfconverter="inkscape"
       ns3:text="\\centering\n\\(\\omega\\)\n\\\\[20pt]\n\\(\\vec K_1 + \\vec K_2 \\)\\\\\n\\( - \\vec K\\)"
       ns3:preamble="/home/kirito/.config/textext/beamer_preamble.tex"
       ns3:scale="5.0"
       ns3:alignment="middle center"
       ns3:stroke-to-path="0"
       ns3:inkscapeversion="1.0.1"
       ns3:jacobian_sqrt="1.76389"
       id="g55201">
      <defs
         id="id-18bda252-c36a-4b76-96e3-7e6b2afa3dfa">
        <g
           id="id-6090a9e8-0d35-4140-bb6e-d30e2b09ed51">
          <g
             id="id-d0f8c88f-ce5a-4a8d-acfa-90b3ec3f0a91">
            <path
               d="m 5.4375,-6.4375 v 5.890625 H 1.34375 V -6.4375 Z m 0.546875,-0.546875 h -5.1875 V 0 h 5.1875 z m -2.75,4.953125 c -0.21875,0 -0.40625,0.1875 -0.40625,0.421875 0,0.21875 0.1875,0.40625 0.40625,0.40625 0.25,0 0.421875,-0.1875 0.421875,-0.40625 0,-0.234375 -0.171875,-0.421875 -0.421875,-0.421875 z M 3.4375,-5.453125 c -0.5,0 -0.90625,0.1875 -1.25,0.59375 l 0.390625,0.28125 C 2.828125,-4.875 3.09375,-5 3.40625,-5 3.765625,-5 4,-4.8125 4,-4.484375 4,-3.84375 2.953125,-3.953125 2.953125,-2.9375 v 0.296875 H 3.5 V -2.90625 c 0,-0.796875 1.078125,-0.65625 1.078125,-1.625 0,-0.46875 -0.375,-0.921875 -1.140625,-0.921875 z m 0,0"
               id="id-7a281b46-3ce8-4867-bb0b-2d5f2cd7dc04" />
          </g>
          <g
             id="id-59d2d833-91db-4d77-8d5f-af93de01e21b">
            <path
               d="m 2.0625,0.125 c 0.78125,0 1.28125,-0.375 1.578125,-1.21875 0.015625,0.796875 0.46875,1.21875 1.21875,1.21875 1.625,0 2.203125,-1.765625 2.203125,-3.390625 C 7.0625,-4.0625 6.921875,-4.71875 6.78125,-5.25 H 5.890625 c 0.1875,0.734375 0.265625,1.3125 0.265625,1.90625 0,1.09375 -0.25,2.71875 -1.375,2.71875 -0.609375,0 -0.71875,-0.46875 -0.625,-1.15625 l 0.265625,-1.875 -0.890625,0.125 -0.234375,1.703125 C 3.15625,-0.84375 2.734375,-0.625 2.21875,-0.625 c -0.484375,0 -0.75,-0.296875 -0.75,-1.0625 0,-0.96875 0.265625,-2.015625 1.046875,-3.5625 H 1.59375 c -0.609375,1.109375 -1.03125,2.375 -1.03125,3.5 0,1.328125 0.65625,1.875 1.5,1.875 z m 0,0"
               id="id-ffc49e3d-d918-4c90-8c95-e5eeb9fa3161" />
          </g>
          <g
             id="id-d24ffe2a-0e79-460e-a6dd-b8f182a21d95">
            <path
               d="m -1.421875,-8.203125 -0.375,0.34375 0.5,0.546875 h -2.59375 v 0.609375 h 2.59375 l -0.5,0.546875 0.375,0.34375 1.125,-1.1875 z m 0,0"
               id="id-a458f0a9-9c3c-464a-8ea4-dd7a485abc8d" />
          </g>
          <g
             id="id-160e0018-fa50-4d0b-8df1-3ac0e2571b54">
            <path
               d="M 4.328125,0 H 5.4375 L 3.1875,-3.640625 6.234375,-6.875 H 5.140625 L 2.125,-3.671875 Z M 0.625,0 H 1.5625 L 2.53125,-6.875 H 1.578125 Z m 0,0"
               id="id-060b1027-d6ae-426f-a870-fd7f3c88ce16" />
          </g>
          <g
             id="id-44b97d6a-ed70-49db-baa2-7592bffc6597">
            <path
               d="M 2.90625,-4.671875 H 2.078125 v 1.5 H 0.625 v 0.765625 h 1.453125 v 1.484375 H 2.90625 V -2.40625 H 4.359375 V -3.171875 H 2.90625 Z m 0,0"
               id="id-f78be20a-8a8a-4f28-9e40-d5f23f23a456" />
          </g>
          <g
             id="id-916f5079-8378-495f-b641-c95a47c302cb">
            <path
               d="M 0.625,-2.40625 H 4.359375 V -3.171875 H 0.625 Z m 0,0"
               id="id-d884192d-691b-4e1f-94f6-9d2db4dd1076" />
          </g>
          <g
             id="id-1a345d82-05aa-4bff-8705-9c5c0c90fc70">
            <path
               d="m 3.90625,-4.625 v 4.234375 H 0.96875 V -4.625 Z M 4.296875,-5.015625 H 0.578125 V 0 h 3.71875 z m -1.96875,3.5625 c -0.15625,0 -0.296875,0.125 -0.296875,0.296875 0,0.15625 0.140625,0.296875 0.296875,0.296875 C 2.5,-0.859375 2.625,-1 2.625,-1.15625 2.625,-1.328125 2.5,-1.453125 2.328125,-1.453125 Z m 0.140625,-2.46875 c -0.359375,0 -0.640625,0.140625 -0.890625,0.421875 L 1.84375,-3.296875 C 2.03125,-3.5 2.234375,-3.59375 2.453125,-3.59375 c 0.265625,0 0.4375,0.125 0.4375,0.359375 0,0.46875 -0.765625,0.390625 -0.765625,1.125 v 0.203125 h 0.390625 v -0.1875 c 0,-0.5625 0.78125,-0.46875 0.78125,-1.15625 0,-0.34375 -0.28125,-0.671875 -0.828125,-0.671875 z m 0,0"
               id="id-ebf25b5f-ba47-401c-9138-c43154d86a32" />
          </g>
          <g
             id="id-2f71d5c4-fd4f-4c55-bfaf-649649a12a48">
            <path
               d="m 1.984375,0 h 0.65625 V -4.9375 H 2.0625 l -1.484375,0.921875 0.28125,0.453125 1.125,-0.671875 z m 0,0"
               id="id-240e8b08-a45e-4e08-aff8-f87856ca38e4" />
          </g>
          <g
             id="id-cd4b799d-5cce-450f-9600-7a2a039fd129">
            <path
               d="m 1.84375,-5.03125 c -0.671875,0 -1.140625,0.25 -1.515625,0.734375 l 0.4375,0.34375 c 0.3125,-0.375 0.578125,-0.53125 1.046875,-0.53125 0.546875,0 0.859375,0.328125 0.859375,0.875 0,0.78125 -0.40625,1.328125 -2.25,3.078125 V 0 H 3.40625 l 0.078125,-0.546875 h -2.3125 c 1.625,-1.46875 2.1875,-2.203125 2.1875,-3.09375 0,-0.78125 -0.5625,-1.390625 -1.515625,-1.390625 z m 0,0"
               id="id-dba6228f-b44f-4308-8c3e-b91b660aa5e6" />
          </g>
        </g>
      </defs>
      <g
         fill="#000000"
         fill-opacity="1"
         id="id-86066070-c7f4-4d31-bfff-3ca727178f78"
         transform="translate(-291.221,-129.515)">
        <g
           transform="translate(301.714,134.765)"
           id="g62026">
          <path
             d="m 2.0625,0.125 c 0.78125,0 1.28125,-0.375 1.578125,-1.21875 0.015625,0.796875 0.46875,1.21875 1.21875,1.21875 1.625,0 2.203125,-1.765625 2.203125,-3.390625 C 7.0625,-4.0625 6.921875,-4.71875 6.78125,-5.25 H 5.890625 c 0.1875,0.734375 0.265625,1.3125 0.265625,1.90625 0,1.09375 -0.25,2.71875 -1.375,2.71875 -0.609375,0 -0.71875,-0.46875 -0.625,-1.15625 l 0.265625,-1.875 -0.890625,0.125 -0.234375,1.703125 C 3.15625,-0.84375 2.734375,-0.625 2.21875,-0.625 c -0.484375,0 -0.75,-0.296875 -0.75,-1.0625 0,-0.96875 0.265625,-2.015625 1.046875,-3.5625 H 1.59375 c -0.609375,1.109375 -1.03125,2.375 -1.03125,3.5 0,1.328125 0.65625,1.875 1.5,1.875 z m 0,0"
             id="id-daef9fae-8f30-4b64-9bd7-6e34fadac328" />
        </g>
      </g>
      <g
         fill="#000000"
         fill-opacity="1"
         id="id-5de77b8b-d476-4ba9-8333-e9b76f91f728"
         transform="translate(-291.221,-129.515)">
        <g
           transform="translate(296.514,165.031)"
           id="g62030">
          <path
             d="m -1.421875,-8.203125 -0.375,0.34375 0.5,0.546875 h -2.59375 v 0.609375 h 2.59375 l -0.5,0.546875 0.375,0.34375 1.125,-1.1875 z m 0,0"
             id="id-7e13dabf-ecbe-4f3d-82ce-c18cadee12d0" />
        </g>
      </g>
      <g
         fill="#000000"
         fill-opacity="1"
         id="id-42dc92ce-bd3c-4356-b595-89e805d89b96"
         transform="translate(-291.221,-129.515)">
        <g
           transform="translate(290.596,166.645)"
           id="g62034">
          <path
             d="M 4.328125,0 H 5.4375 L 3.1875,-3.640625 6.234375,-6.875 H 5.140625 L 2.125,-3.671875 Z M 0.625,0 H 1.5625 L 2.53125,-6.875 H 1.578125 Z m 0,0"
             id="id-2b1403d2-1545-499f-83d6-c5781e6aabbe" />
        </g>
      </g>
      <g
         fill="#000000"
         fill-opacity="1"
         id="id-cf17ed16-64b8-44e4-9cdb-5f3be3a87ed7"
         transform="translate(-291.221,-129.515)">
        <g
           transform="translate(296.404,170.132)"
           id="g62038">
          <path
             d="m 1.984375,0 h 0.65625 V -4.9375 H 2.0625 l -1.484375,0.921875 0.28125,0.453125 1.125,-0.671875 z m 0,0"
             id="id-8b34d0e5-cd97-4b0b-b223-73f09a76c109" />
        </g>
      </g>
      <g
         fill="#000000"
         fill-opacity="1"
         id="id-a670d15b-ec54-4219-9467-45acb867b5a7"
         transform="translate(-291.221,-129.515)">
        <g
           transform="translate(303.133,166.645)"
           id="g62042">
          <path
             d="M 2.90625,-4.671875 H 2.078125 v 1.5 H 0.625 v 0.765625 h 1.453125 v 1.484375 H 2.90625 V -2.40625 H 4.359375 V -3.171875 H 2.90625 Z m 0,0"
             id="id-d1b9c09f-59a6-4696-a070-7323712d966c" />
        </g>
      </g>
      <g
         fill="#000000"
         fill-opacity="1"
         id="id-bf5787f1-b300-49b7-9292-af0083cad5c5"
         transform="translate(-291.221,-129.515)">
        <g
           transform="translate(316.246,165.031)"
           id="g62046">
          <path
             d="m -1.421875,-8.203125 -0.375,0.34375 0.5,0.546875 h -2.59375 v 0.609375 h 2.59375 l -0.5,0.546875 0.375,0.34375 1.125,-1.1875 z m 0,0"
             id="id-acb13592-7a8f-4754-b44b-a5d1216cb346" />
        </g>
      </g>
      <g
         fill="#000000"
         fill-opacity="1"
         id="id-d1f37ad4-982d-48b5-958d-cd509241b280"
         transform="translate(-291.221,-129.515)">
        <g
           transform="translate(310.329,166.645)"
           id="g62050">
          <path
             d="M 4.328125,0 H 5.4375 L 3.1875,-3.640625 6.234375,-6.875 H 5.140625 L 2.125,-3.671875 Z M 0.625,0 H 1.5625 L 2.53125,-6.875 H 1.578125 Z m 0,0"
             id="id-a288c96d-7445-4cf4-8f1b-69fa308f9479" />
        </g>
      </g>
      <g
         fill="#000000"
         fill-opacity="1"
         id="id-f2039d30-beef-47fa-9822-adb831e5d20d"
         transform="translate(-291.221,-129.515)">
        <g
           transform="translate(316.137,170.132)"
           id="g62054">
          <path
             d="m 1.84375,-5.03125 c -0.671875,0 -1.140625,0.25 -1.515625,0.734375 l 0.4375,0.34375 c 0.3125,-0.375 0.578125,-0.53125 1.046875,-0.53125 0.546875,0 0.859375,0.328125 0.859375,0.875 0,0.78125 -0.40625,1.328125 -2.25,3.078125 V 0 H 3.40625 l 0.078125,-0.546875 h -2.3125 c 1.625,-1.46875 2.1875,-2.203125 2.1875,-3.09375 0,-0.78125 -0.5625,-1.390625 -1.515625,-1.390625 z m 0,0"
             id="id-0921faf9-6967-46c1-8eb2-2ba3e8cf492a" />
        </g>
      </g>
      <g
         fill="#000000"
         fill-opacity="1"
         id="id-777eda8f-2122-4203-b28f-2a32ec393699"
         transform="translate(-291.221,-129.515)">
        <g
           transform="translate(299.831,180.942)"
           id="g62058">
          <path
             d="M 0.625,-2.40625 H 4.359375 V -3.171875 H 0.625 Z m 0,0"
             id="id-adfadd29-8ae5-4a42-9337-76f34f957574" />
        </g>
      </g>
      <g
         fill="#000000"
         fill-opacity="1"
         id="id-08db7192-e154-4073-b83d-8f83cc37fb22"
         transform="translate(-291.221,-129.515)">
        <g
           transform="translate(310.73,179.328)"
           id="g62062">
          <path
             d="m -1.421875,-8.203125 -0.375,0.34375 0.5,0.546875 h -2.59375 v 0.609375 h 2.59375 l -0.5,0.546875 0.375,0.34375 1.125,-1.1875 z m 0,0"
             id="id-9f855aa7-c995-4449-8549-41e90d7ca402" />
        </g>
      </g>
      <g
         fill="#000000"
         fill-opacity="1"
         id="id-2f9b1704-f356-4e74-b55b-9bc2f4727061"
         transform="translate(-291.221,-129.515)">
        <g
           transform="translate(304.812,180.942)"
           id="g62066">
          <path
             d="M 4.328125,0 H 5.4375 L 3.1875,-3.640625 6.234375,-6.875 H 5.140625 L 2.125,-3.671875 Z M 0.625,0 H 1.5625 L 2.53125,-6.875 H 1.578125 Z m 0,0"
             id="id-425da3e7-1ccb-4237-8a5c-ab2b400fadeb" />
        </g>
      </g>
    </g>
    <path
       style="fill:#cbe3ad;stroke:#00adff;stroke-width:3;stroke-dasharray:none;stroke-opacity:1;marker-end:url(#RoundedArrow)"
       d="m 229.2262,504.52426 2.45116,-2.45116"
       id="path8278"
       inkscape:path-effect="#path-effect8280"
       inkscape:original-d="m 229.2262,504.52426 c 2.31138,-2.31101 0.13977,-0.1394 2.45116,-2.45116"
       sodipodi:nodetypes="cc" />
    <path
       style="fill:#cbe3ad;stroke:#00adff;stroke-width:3;stroke-dasharray:none;stroke-opacity:1;marker-end:url(#RoundedArrow-1)"
       d="m 223.94421,315.28126 -2.45116,-2.45116"
       id="path8278-4"
       inkscape:path-effect="#path-effect8280-78"
       inkscape:original-d="m 223.94421,315.28126 c -2.31101,-2.31138 -0.1394,-0.13977 -2.45116,-2.45116"
       sodipodi:nodetypes="cc" />
    <path
       style="fill:#cbe3ad;stroke:#00adff;stroke-width:3;stroke-dasharray:none;stroke-opacity:1;marker-end:url(#RoundedArrow-1-5)"
       d="m 310.42368,315.82583 2.10007,-2.75792"
       id="path8278-4-6"
       inkscape:path-effect="#path-effect8280-78-3"
       inkscape:original-d="m 310.42368,315.82583 c 1.97994,-2.6006 0.11938,-0.15722 2.10007,-2.75792"
       sodipodi:nodetypes="cc" />
    <path
       style="fill:#cbe3ad;stroke:#00adff;stroke-width:3;stroke-dasharray:none;stroke-opacity:1;marker-end:url(#RoundedArrow-8)"
       d="m 296.75437,499.10143 -2.45116,-2.45116"
       id="path8278-3"
       inkscape:path-effect="#path-effect8280-7"
       inkscape:original-d="m 296.75437,499.10143 c -2.31138,-2.31101 -0.13977,-0.1394 -2.45116,-2.45116"
       sodipodi:nodetypes="cc" />
    <path
       style="fill:#cbe3ad;stroke:#00ad90;stroke-width:3;stroke-dasharray:none;stroke-opacity:1;marker-end:url(#RoundedArrow-3)"
       d="m 218.95266,426.48983 v -3.46647"
       id="path8278-5"
       inkscape:path-effect="#path-effect8280-7-6"
       inkscape:original-d="m 218.95266,426.48983 c -2.6e-4,-3.26853 -2.6e-4,-0.19741 0,-3.46647"
       sodipodi:nodetypes="cc" />
    <path
       style="fill:#cbe3ad;stroke:#00ad90;stroke-width:3;stroke-dasharray:none;stroke-opacity:1;marker-end:url(#RoundedArrow-3-1)"
       d="m 310.0094,415.95273 v -3.46647"
       id="path8278-5-3"
       inkscape:path-effect="#path-effect8280-7-6-9"
       inkscape:original-d="m 310.0094,415.95273 c -2.6e-4,-3.26853 -2.6e-4,-0.19741 0,-3.46647"
       sodipodi:nodetypes="cc" />
  </g>
</svg>
