<?xml version="1.0" encoding="UTF-8" standalone="no"?>
<!-- Created with Inkscape (http://www.inkscape.org/) -->

<svg
   width="118.23117mm"
   height="28.333626mm"
   viewBox="0 0 118.23117 28.333626"
   version="1.1"
   id="svg42575"
   sodipodi:docname="tree_quadratic.svg"
   inkscape:version="1.2.1 (9c6d41e410, 2022-07-14, custom)"
   xmlns:inkscape="http://www.inkscape.org/namespaces/inkscape"
   xmlns:sodipodi="http://sodipodi.sourceforge.net/DTD/sodipodi-0.dtd"
   xmlns="http://www.w3.org/2000/svg"
   xmlns:svg="http://www.w3.org/2000/svg"
   xmlns:ns3="http://www.iki.fi/pav/software/textext/">
  <sodipodi:namedview
     id="namedview42577"
     pagecolor="#505050"
     bordercolor="#eeeeee"
     borderopacity="1"
     inkscape:pageshadow="0"
     inkscape:pageopacity="0"
     inkscape:pagecheckerboard="0"
     inkscape:document-units="mm"
     showgrid="false"
     inkscape:object-paths="false"
     inkscape:snap-intersection-paths="true"
     inkscape:snap-smooth-nodes="true"
     inkscape:zoom="1.0469406"
     inkscape:cx="308.04039"
     inkscape:cy="-9.55164"
     inkscape:window-width="1920"
     inkscape:window-height="1019"
     inkscape:window-x="1920"
     inkscape:window-y="151"
     inkscape:window-maximized="1"
     inkscape:current-layer="layer1"
     inkscape:showpageshadow="0"
     inkscape:deskcolor="#505050" />
  <defs
     id="defs42572">
    <inkscape:path-effect
       effect="spiro"
       id="path-effect152216"
       is_visible="true"
       lpeversion="1" />
    <marker
       style="overflow:visible"
       id="RoundedArrow"
       refX="0"
       refY="0"
       orient="auto-start-reverse"
       inkscape:stockid="RoundedArrow"
       markerWidth="6.1347523"
       markerHeight="5.9304953"
       viewBox="0 0 6.1347524 5.9304951"
       inkscape:isstock="true"
       inkscape:collect="always"
       preserveAspectRatio="xMidYMid">
      <path
         transform="scale(0.7)"
         d="m -0.21114562,-4.1055728 6.42229122,3.21114561 a 1,1 90 0 1 0,1.78885438 L -0.21114562,4.1055728 A 1.236068,1.236068 31.717474 0 1 -2,3 v -6 a 1.236068,1.236068 148.28253 0 1 1.78885438,-1.1055728 z"
         style="fill:context-stroke;fill-rule:evenodd;stroke:none"
         id="path1367" />
    </marker>
    <inkscape:path-effect
       effect="spiro"
       id="path-effect152064"
       is_visible="true"
       lpeversion="1" />
    <inkscape:path-effect
       effect="spiro"
       id="path-effect150548"
       is_visible="true"
       lpeversion="1" />
    <inkscape:path-effect
       effect="spiro"
       id="path-effect148766"
       is_visible="true"
       lpeversion="1" />
    <marker
       style="overflow:visible"
       id="TriangleOutL"
       refX="0"
       refY="0"
       orient="auto"
       inkscape:stockid="TriangleOutL"
       inkscape:isstock="true">
      <path
         transform="scale(0.8)"
         style="fill:context-stroke;fill-rule:evenodd;stroke:context-stroke;stroke-width:1pt"
         d="M 5.77,0 -2.88,5 V -5 Z"
         id="path22770" />
    </marker>
    <inkscape:path-effect
       effect="spiro"
       id="path-effect42802"
       is_visible="true"
       lpeversion="1" />
    <inkscape:path-effect
       effect="spiro"
       id="path-effect42694"
       is_visible="true"
       lpeversion="1" />
    <marker
       style="overflow:visible"
       id="TriangleOutL-3"
       refX="0"
       refY="0"
       orient="auto"
       inkscape:stockid="TriangleOutL"
       inkscape:isstock="true">
      <path
         transform="scale(0.8)"
         style="fill:context-stroke;fill-rule:evenodd;stroke:context-stroke;stroke-width:1pt"
         d="M 5.77,0 -2.88,5 V -5 Z"
         id="path22770-6" />
    </marker>
    <g
       id="g7633">
      <symbol
         overflow="visible"
         id="symbol8675">
        <path
           style="stroke:none"
           d=""
           id="path766" />
      </symbol>
      <symbol
         overflow="visible"
         id="symbol5360">
        <path
           style="stroke:none"
           d="M 5.078125,-4.03125 C 5.0625,-4.0625 5.03125,-4.140625 5.03125,-4.171875 c 0,0 0.171875,-0.140625 0.28125,-0.21875 l 1.75,-1.34375 C 8,-6.4375 8.390625,-6.46875 8.6875,-6.5 8.765625,-6.515625 8.859375,-6.515625 8.859375,-6.703125 8.859375,-6.734375 8.828125,-6.8125 8.75,-6.8125 c -0.21875,0 -0.46875,0.03125 -0.703125,0.03125 -0.359375,0 -0.75,-0.03125 -1.109375,-0.03125 -0.0625,0 -0.1875,0 -0.1875,0.203125 0,0.0625 0.046875,0.09375 0.125,0.109375 0.21875,0.015625 0.296875,0.0625 0.296875,0.203125 0,0.1875 -0.296875,0.421875 -0.359375,0.46875 L 2.9375,-2.84375 3.734375,-6.046875 C 3.8125,-6.40625 3.84375,-6.5 4.5625,-6.5 c 0.25,0 0.34375,0 0.34375,-0.203125 0,-0.078125 -0.078125,-0.109375 -0.140625,-0.109375 -0.28125,0 -1,0.03125 -1.28125,0.03125 C 3.203125,-6.78125 2.5,-6.8125 2.203125,-6.8125 2.140625,-6.8125 2,-6.8125 2,-6.625 2,-6.5 2.09375,-6.5 2.296875,-6.5 c 0.125,0 0.3125,0.015625 0.421875,0.015625 0.15625,0.03125 0.21875,0.046875 0.21875,0.171875 0,0.03125 0,0.0625 -0.03125,0.1875 L 1.5625,-0.78125 c -0.09375,0.390625 -0.109375,0.46875 -0.90625,0.46875 -0.171875,0 -0.28125,0 -0.28125,0.1875 C 0.375,0 0.5,0 0.53125,0 0.8125,0 1.515625,-0.03125 1.796875,-0.03125 2,-0.03125 2.21875,-0.015625 2.4375,-0.015625 2.65625,-0.015625 2.875,0 3.078125,0 3.15625,0 3.28125,0 3.28125,-0.203125 3.28125,-0.3125 3.1875,-0.3125 3,-0.3125 c -0.375,0 -0.640625,0 -0.640625,-0.171875 0,-0.078125 0.046875,-0.296875 0.078125,-0.4375 C 2.578125,-1.453125 2.71875,-1.96875 2.84375,-2.5 l 1.484375,-1.15625 1.15625,2.6875 c 0.125,0.265625 0.125,0.296875 0.125,0.34375 0,0.3125 -0.4375,0.3125 -0.53125,0.3125 -0.109375,0 -0.21875,0 -0.21875,0.203125 C 4.859375,0 4.984375,0 5,0 5.40625,0 5.828125,-0.03125 6.21875,-0.03125 6.4375,-0.03125 6.984375,0 7.203125,0 7.25,0 7.375,0 7.375,-0.203125 7.375,-0.3125 7.265625,-0.3125 7.171875,-0.3125 c -0.40625,0 -0.53125,-0.09375 -0.6875,-0.4375 z m 0,0"
           id="path8774" />
      </symbol>
    </g>
    <g
       id="g6125">
      <symbol
         overflow="visible"
         id="symbol6647">
        <path
           style="stroke:none"
           d=""
           id="path222" />
      </symbol>
      <symbol
         overflow="visible"
         id="symbol7534">
        <path
           style="stroke:none"
           d="M 3.484375,-0.5625 C 3.59375,-0.15625 3.953125,0.109375 4.375,0.109375 4.71875,0.109375 4.953125,-0.125 5.109375,-0.4375 5.28125,-0.796875 5.40625,-1.40625 5.40625,-1.421875 c 0,-0.109375 -0.078125,-0.109375 -0.109375,-0.109375 -0.109375,0 -0.109375,0.046875 -0.140625,0.1875 -0.140625,0.5625 -0.328125,1.234375 -0.75,1.234375 -0.203125,0 -0.3125,-0.125 -0.3125,-0.453125 0,-0.21875 0.125,-0.6875 0.203125,-1.046875 L 4.578125,-2.6875 C 4.609375,-2.828125 4.703125,-3.203125 4.75,-3.359375 4.796875,-3.59375 4.890625,-3.96875 4.890625,-4.03125 c 0,-0.171875 -0.140625,-0.265625 -0.28125,-0.265625 -0.046875,0 -0.3125,0.015625 -0.390625,0.34375 -0.1875,0.734375 -0.625,2.484375 -0.75,3 -0.015625,0.046875 -0.40625,0.84375 -1.140625,0.84375 -0.515625,0 -0.609375,-0.453125 -0.609375,-0.8125 0,-0.5625 0.28125,-1.34375 0.53125,-2.03125 0.125,-0.3125 0.171875,-0.453125 0.171875,-0.640625 0,-0.4375 -0.3125,-0.8125 -0.8125,-0.8125 -0.953125,0 -1.3125,1.453125 -1.3125,1.53125 0,0.109375 0.09375,0.109375 0.109375,0.109375 0.109375,0 0.109375,-0.03125 0.15625,-0.1875 0.25,-0.859375 0.640625,-1.234375 1.015625,-1.234375 0.09375,0 0.25,0.015625 0.25,0.328125 0,0.234375 -0.109375,0.53125 -0.171875,0.671875 -0.375,1 -0.578125,1.609375 -0.578125,2.09375 0,0.953125 0.6875,1.203125 1.21875,1.203125 0.65625,0 1.015625,-0.453125 1.1875,-0.671875 z m 0,0"
           id="path3673" />
      </symbol>
      <symbol
         overflow="visible"
         id="symbol323">
        <path
           style="stroke:none"
           d="M 5.078125,-4.03125 C 5.0625,-4.0625 5.03125,-4.140625 5.03125,-4.171875 c 0,0 0.171875,-0.140625 0.28125,-0.21875 l 1.75,-1.34375 C 8,-6.4375 8.390625,-6.46875 8.6875,-6.5 8.765625,-6.515625 8.859375,-6.515625 8.859375,-6.703125 8.859375,-6.734375 8.828125,-6.8125 8.75,-6.8125 c -0.21875,0 -0.46875,0.03125 -0.703125,0.03125 -0.359375,0 -0.75,-0.03125 -1.109375,-0.03125 -0.0625,0 -0.1875,0 -0.1875,0.203125 0,0.0625 0.046875,0.09375 0.125,0.109375 0.21875,0.015625 0.296875,0.0625 0.296875,0.203125 0,0.1875 -0.296875,0.421875 -0.359375,0.46875 L 2.9375,-2.84375 3.734375,-6.046875 C 3.8125,-6.40625 3.84375,-6.5 4.5625,-6.5 c 0.25,0 0.34375,0 0.34375,-0.203125 0,-0.078125 -0.078125,-0.109375 -0.140625,-0.109375 -0.28125,0 -1,0.03125 -1.28125,0.03125 C 3.203125,-6.78125 2.5,-6.8125 2.203125,-6.8125 2.140625,-6.8125 2,-6.8125 2,-6.625 2,-6.5 2.09375,-6.5 2.296875,-6.5 c 0.125,0 0.3125,0.015625 0.421875,0.015625 0.15625,0.03125 0.21875,0.046875 0.21875,0.171875 0,0.03125 0,0.0625 -0.03125,0.1875 L 1.5625,-0.78125 c -0.09375,0.390625 -0.109375,0.46875 -0.90625,0.46875 -0.171875,0 -0.28125,0 -0.28125,0.1875 C 0.375,0 0.5,0 0.53125,0 0.8125,0 1.515625,-0.03125 1.796875,-0.03125 2,-0.03125 2.21875,-0.015625 2.4375,-0.015625 2.65625,-0.015625 2.875,0 3.078125,0 3.15625,0 3.28125,0 3.28125,-0.203125 3.28125,-0.3125 3.1875,-0.3125 3,-0.3125 c -0.375,0 -0.640625,0 -0.640625,-0.171875 0,-0.078125 0.046875,-0.296875 0.078125,-0.4375 C 2.578125,-1.453125 2.71875,-1.96875 2.84375,-2.5 l 1.484375,-1.15625 1.15625,2.6875 c 0.125,0.265625 0.125,0.296875 0.125,0.34375 0,0.3125 -0.4375,0.3125 -0.53125,0.3125 -0.109375,0 -0.21875,0 -0.21875,0.203125 C 4.859375,0 4.984375,0 5,0 5.40625,0 5.828125,-0.03125 6.21875,-0.03125 6.4375,-0.03125 6.984375,0 7.203125,0 7.25,0 7.375,0 7.375,-0.203125 7.375,-0.3125 7.265625,-0.3125 7.171875,-0.3125 c -0.40625,0 -0.53125,-0.09375 -0.6875,-0.4375 z m 0,0"
           id="path3774" />
      </symbol>
      <symbol
         overflow="visible"
         id="symbol5284">
        <path
           style="stroke:none"
           d="m 2.03125,-0.015625 c 0,-0.65625 -0.25,-1.046875 -0.640625,-1.046875 -0.328125,0 -0.53125,0.25 -0.53125,0.53125 C 0.859375,-0.265625 1.0625,0 1.390625,0 1.5,0 1.640625,-0.046875 1.734375,-0.125 1.765625,-0.15625 1.78125,-0.15625 1.78125,-0.15625 c 0.015625,0 0.015625,0 0.015625,0.140625 0,0.75 -0.34375,1.34375 -0.671875,1.671875 -0.109375,0.109375 -0.109375,0.125 -0.109375,0.15625 0,0.078125 0.046875,0.109375 0.09375,0.109375 0.109375,0 0.921875,-0.765625 0.921875,-1.9375 z m 0,0"
           id="path9909" />
      </symbol>
      <symbol
         overflow="visible"
         id="symbol7009">
        <path
           style="stroke:none"
           d="m 6.03125,-3.703125 c 0,-0.453125 -0.171875,-0.703125 -0.40625,-0.703125 -0.25,0 -0.515625,0.234375 -0.515625,0.46875 0,0.09375 0.046875,0.203125 0.140625,0.296875 0.171875,0.15625 0.359375,0.421875 0.359375,0.84375 0,0.390625 -0.203125,0.96875 -0.5,1.421875 C 4.8125,-0.953125 4.4375,-0.609375 3.96875,-0.609375 3.40625,-0.609375 3.09375,-0.96875 3,-1.5 c 0.109375,-0.265625 0.34375,-0.90625 0.34375,-1.1875 0,-0.109375 -0.046875,-0.21875 -0.1875,-0.21875 -0.078125,0 -0.1875,0.03125 -0.265625,0.171875 C 2.78125,-2.53125 2.65625,-1.890625 2.65625,-1.53125 2.328125,-1.0625 1.9375,-0.609375 1.3125,-0.609375 c -0.671875,0 -0.875,-0.59375 -0.875,-1.140625 0,-1.25 1.015625,-2.296875 1.015625,-2.421875 0,-0.109375 -0.078125,-0.1875 -0.1875,-0.1875 -0.125,0 -0.203125,0.125 -0.265625,0.21875 -0.5,0.734375 -0.875,1.921875 -0.875,2.828125 0,0.6875 0.21875,1.421875 1.046875,1.421875 0.703125,0 1.171875,-0.5 1.53125,-1.046875 0.09375,0.578125 0.484375,1.046875 1.09375,1.046875 0.78125,0 1.25,-0.609375 1.609375,-1.359375 0.25,-0.484375 0.625,-1.84375 0.625,-2.453125 z m 0,0"
           id="path3825" />
      </symbol>
      <symbol
         overflow="visible"
         id="symbol6454">
        <path
           style="stroke:none"
           d=""
           id="path5527" />
      </symbol>
      <symbol
         overflow="visible"
         id="symbol9767">
        <path
           style="stroke:none"
           d="m 3.296875,2.390625 c 0,-0.03125 0,-0.046875 -0.171875,-0.21875 C 1.890625,0.921875 1.5625,-0.96875 1.5625,-2.5 c 0,-1.734375 0.375,-3.46875 1.609375,-4.703125 0.125,-0.125 0.125,-0.140625 0.125,-0.171875 0,-0.078125 -0.03125,-0.109375 -0.09375,-0.109375 -0.109375,0 -1,0.6875 -1.59375,1.953125 -0.5,1.09375 -0.625,2.203125 -0.625,3.03125 0,0.78125 0.109375,1.984375 0.65625,3.125 C 2.25,1.84375 3.09375,2.5 3.203125,2.5 c 0.0625,0 0.09375,-0.03125 0.09375,-0.109375 z m 0,0"
           id="path1204" />
      </symbol>
      <symbol
         overflow="visible"
         id="symbol5031">
        <path
           style="stroke:none"
           d="m 2.875,-2.5 c 0,-0.765625 -0.109375,-1.96875 -0.65625,-3.109375 -0.59375,-1.21875 -1.453125,-1.875 -1.546875,-1.875 -0.0625,0 -0.109375,0.046875 -0.109375,0.109375 0,0.03125 0,0.046875 0.1875,0.234375 0.984375,0.984375 1.546875,2.5625 1.546875,4.640625 0,1.71875 -0.359375,3.46875 -1.59375,4.71875 C 0.5625,2.34375 0.5625,2.359375 0.5625,2.390625 0.5625,2.453125 0.609375,2.5 0.671875,2.5 0.765625,2.5 1.671875,1.8125 2.25,0.546875 2.765625,-0.546875 2.875,-1.65625 2.875,-2.5 Z m 0,0"
           id="path9637" />
      </symbol>
    </g>
    <filter
       inkscape:collect="always"
       style="color-interpolation-filters:sRGB"
       id="filter148784"
       x="-0.043732792"
       y="-0.043732792"
       width="1.0874656"
       height="1.0874656">
      <feGaussianBlur
         inkscape:collect="always"
         stdDeviation="0.15391475"
         id="feGaussianBlur148786" />
    </filter>
  </defs>
  <g
     inkscape:label="Layer 1"
     inkscape:groupmode="layer"
     id="layer1"
     transform="translate(-53.842503,-112.11689)">
    <path
       style="fill:none;fill-opacity:1;stroke:#404040;stroke-width:3;stroke-dasharray:none;stroke-dashoffset:0;stroke-opacity:1"
       d="M 53.842503,124.75376 H 172.07367"
       id="path148764"
       inkscape:path-effect="#path-effect148766"
       inkscape:original-d="m 53.842503,124.75376 c 39.410652,2.6e-4 78.821037,2.6e-4 118.231167,0" />
    <circle
       style="mix-blend-mode:normal;fill:#ff7000;fill-opacity:1;stroke:none;stroke-width:1;stroke-miterlimit:4;stroke-dasharray:none;filter:url(#filter148784)"
       id="path42827"
       cx="112.95808"
       cy="124.75376"
       r="4.2233229" />
    <g
       transform="matrix(1.05833,0,0,1.05833,73.892041,112.11702)"
       ns3:version="1.8.1"
       ns3:texconverter="xelatex"
       ns3:pdfconverter="inkscape"
       ns3:text="$\\vec K$"
       ns3:preamble="/home/kirito/.config/textext/beamer_preamble.tex"
       ns3:scale="3.0"
       ns3:alignment="middle center"
       ns3:stroke-to-path="0"
       ns3:inkscapeversion="1.1.1"
       ns3:jacobian_sqrt="1.05833"
       id="g148037">
      <defs
         id="id-566a47b3-3fdc-41fe-95da-f241cf35ee19">
        <g
           id="id-18a706a3-e468-45f0-9806-4d3ffc2fa629">
          <g
             id="id-38dc151e-ebfb-4564-8f1c-70c2e34c1eaf">
            <path
               d="m 5.4375,-6.4375 v 5.890625 H 1.34375 V -6.4375 Z m 0.546875,-0.546875 h -5.1875 V 0 h 5.1875 z m -2.75,4.953125 c -0.21875,0 -0.40625,0.1875 -0.40625,0.421875 0,0.21875 0.1875,0.40625 0.40625,0.40625 0.25,0 0.421875,-0.1875 0.421875,-0.40625 0,-0.234375 -0.171875,-0.421875 -0.421875,-0.421875 z M 3.4375,-5.453125 c -0.5,0 -0.90625,0.1875 -1.25,0.59375 l 0.390625,0.28125 C 2.828125,-4.875 3.09375,-5 3.40625,-5 3.765625,-5 4,-4.8125 4,-4.484375 4,-3.84375 2.953125,-3.953125 2.953125,-2.9375 v 0.296875 H 3.5 V -2.90625 c 0,-0.796875 1.078125,-0.65625 1.078125,-1.625 0,-0.46875 -0.375,-0.921875 -1.140625,-0.921875 z m 0,0"
               id="id-6d7fc778-a396-4214-ab9a-c5200cad10d0" />
          </g>
          <g
             id="id-45825661-db41-412f-9503-bcac23dfce53">
            <path
               d="m -1.421875,-8.203125 -0.375,0.34375 0.5,0.546875 h -2.59375 v 0.609375 h 2.59375 l -0.5,0.546875 0.375,0.34375 1.125,-1.1875 z m 0,0"
               id="id-90e1581c-298a-490d-9672-acf8fe654ca3" />
          </g>
          <g
             id="id-7c33a43a-b1dc-4928-9c3b-3266cfa87352">
            <path
               d="M 4.328125,0 H 5.4375 L 3.1875,-3.640625 6.234375,-6.875 H 5.140625 L 2.125,-3.671875 Z M 0.625,0 H 1.5625 L 2.53125,-6.875 H 1.578125 Z m 0,0"
               id="id-e7aa753d-d155-4372-abdb-4e9a3376c00f" />
          </g>
        </g>
      </defs>
      <g
         fill="#000000"
         fill-opacity="1"
         id="id-a37edcb3-4766-4f22-b890-088560c47231"
         transform="translate(-149.337,-124.948)">
        <g
           transform="translate(154.63,133.151)"
           id="g148381">
          <path
             d="m -1.421875,-8.203125 -0.375,0.34375 0.5,0.546875 h -2.59375 v 0.609375 h 2.59375 l -0.5,0.546875 0.375,0.34375 1.125,-1.1875 z m 0,0"
             id="id-e37f0ee4-6a21-4300-b94a-1652598eda1e" />
        </g>
      </g>
      <g
         fill="#000000"
         fill-opacity="1"
         id="id-7e19b5e4-b486-4d93-a765-ef712a83662a"
         transform="translate(-149.337,-124.948)">
        <g
           transform="translate(148.712,134.765)"
           id="g148385">
          <path
             d="M 4.328125,0 H 5.4375 L 3.1875,-3.640625 6.234375,-6.875 H 5.140625 L 2.125,-3.671875 Z M 0.625,0 H 1.5625 L 2.53125,-6.875 H 1.578125 Z m 0,0"
             id="id-e8c0577d-aedf-4a08-b101-834d53636be9" />
        </g>
      </g>
    </g>
    <g
       transform="matrix(1.05833,0,0,1.05833,147.97541,112.11702)"
       ns3:version="1.8.1"
       ns3:texconverter="xelatex"
       ns3:pdfconverter="inkscape"
       ns3:text="$\\vec K$"
       ns3:preamble="/home/kirito/.config/textext/beamer_preamble.tex"
       ns3:scale="3.0"
       ns3:alignment="middle center"
       ns3:stroke-to-path="0"
       ns3:inkscapeversion="1.1.1"
       ns3:jacobian_sqrt="1.05833"
       id="g148446">
      <defs
         id="defs148432">
        <g
           id="g148430">
          <g
             id="g148420">
            <path
               d="m 5.4375,-6.4375 v 5.890625 H 1.34375 V -6.4375 Z m 0.546875,-0.546875 h -5.1875 V 0 h 5.1875 z m -2.75,4.953125 c -0.21875,0 -0.40625,0.1875 -0.40625,0.421875 0,0.21875 0.1875,0.40625 0.40625,0.40625 0.25,0 0.421875,-0.1875 0.421875,-0.40625 0,-0.234375 -0.171875,-0.421875 -0.421875,-0.421875 z M 3.4375,-5.453125 c -0.5,0 -0.90625,0.1875 -1.25,0.59375 l 0.390625,0.28125 C 2.828125,-4.875 3.09375,-5 3.40625,-5 3.765625,-5 4,-4.8125 4,-4.484375 4,-3.84375 2.953125,-3.953125 2.953125,-2.9375 v 0.296875 H 3.5 V -2.90625 c 0,-0.796875 1.078125,-0.65625 1.078125,-1.625 0,-0.46875 -0.375,-0.921875 -1.140625,-0.921875 z m 0,0"
               id="path148418" />
          </g>
          <g
             id="g148424">
            <path
               d="m -1.421875,-8.203125 -0.375,0.34375 0.5,0.546875 h -2.59375 v 0.609375 h 2.59375 l -0.5,0.546875 0.375,0.34375 1.125,-1.1875 z m 0,0"
               id="path148422" />
          </g>
          <g
             id="g148428">
            <path
               d="M 4.328125,0 H 5.4375 L 3.1875,-3.640625 6.234375,-6.875 H 5.140625 L 2.125,-3.671875 Z M 0.625,0 H 1.5625 L 2.53125,-6.875 H 1.578125 Z m 0,0"
               id="path148426" />
          </g>
        </g>
      </defs>
      <g
         fill="#000000"
         fill-opacity="1"
         id="g148438"
         transform="translate(-149.337,-124.948)">
        <g
           transform="translate(154.63,133.151)"
           id="g148436">
          <path
             d="m -1.421875,-8.203125 -0.375,0.34375 0.5,0.546875 h -2.59375 v 0.609375 h 2.59375 l -0.5,0.546875 0.375,0.34375 1.125,-1.1875 z m 0,0"
             id="path148434" />
        </g>
      </g>
      <g
         fill="#000000"
         fill-opacity="1"
         id="g148444"
         transform="translate(-149.337,-124.948)">
        <g
           transform="translate(148.712,134.765)"
           id="g148442">
          <path
             d="M 4.328125,0 H 5.4375 L 3.1875,-3.640625 6.234375,-6.875 H 5.140625 L 2.125,-3.671875 Z M 0.625,0 H 1.5625 L 2.53125,-6.875 H 1.578125 Z m 0,0"
             id="path148440" />
        </g>
      </g>
    </g>
    <g
       transform="matrix(1.05833,0,0,1.05833,93.987112,127.7954)"
       ns3:version="1.8.1"
       ns3:texconverter="xelatex"
       ns3:pdfconverter="inkscape"
       ns3:text="$u(\\vec K, \\omega)$"
       ns3:preamble="/home/kirito/.config/textext/beamer_preamble.tex"
       ns3:scale="3.0"
       ns3:alignment="middle center"
       ns3:stroke-to-path="0"
       ns3:inkscapeversion="1.1.1"
       ns3:jacobian_sqrt="1.05833"
       id="g148654">
      <defs
         id="id-3c927b66-13c5-489b-a23e-c8969da19990">
        <g
           id="id-e88b7cc0-a526-471e-bff9-5bf7498e29b3">
          <g
             id="id-960c640b-58dd-4ce9-a379-bf25da087921">
            <path
               d="m 5.4375,-6.4375 v 5.890625 H 1.34375 V -6.4375 Z m 0.546875,-0.546875 h -5.1875 V 0 h 5.1875 z m -2.75,4.953125 c -0.21875,0 -0.40625,0.1875 -0.40625,0.421875 0,0.21875 0.1875,0.40625 0.40625,0.40625 0.25,0 0.421875,-0.1875 0.421875,-0.40625 0,-0.234375 -0.171875,-0.421875 -0.421875,-0.421875 z M 3.4375,-5.453125 c -0.5,0 -0.90625,0.1875 -1.25,0.59375 l 0.390625,0.28125 C 2.828125,-4.875 3.09375,-5 3.40625,-5 3.765625,-5 4,-4.8125 4,-4.484375 4,-3.84375 2.953125,-3.953125 2.953125,-2.9375 v 0.296875 H 3.5 V -2.90625 c 0,-0.796875 1.078125,-0.65625 1.078125,-1.625 0,-0.46875 -0.375,-0.921875 -1.140625,-0.921875 z m 0,0"
               id="id-914ad35b-7a00-47d8-8cdb-ef066d8be74f" />
          </g>
          <g
             id="id-82f0b12b-e266-48eb-8a92-0ea181b5ee49">
            <path
               d="m 2,0.125 c 0.71875,0 1.234375,-0.421875 1.734375,-1.09375 L 3.65625,0 H 4.4375 L 5.171875,-5.25 H 4.265625 L 3.78125,-1.828125 C 3.375,-1.21875 2.84375,-0.59375 2.1875,-0.59375 c -0.453125,0 -0.640625,-0.25 -0.546875,-0.96875 L 2.15625,-5.25 H 1.25 L 0.734375,-1.53125 C 0.578125,-0.5 1.0625,0.125 2,0.125 Z m 0,0"
               id="id-e87b7315-f48e-4f5d-9d64-c65ac7c60861" />
          </g>
          <g
             id="id-cd35362a-bc68-49c2-9732-3b6fe4cba425">
            <path
               d="m 2.25,-7.71875 c -0.96875,1.375 -1.84375,2.5625 -1.84375,4.921875 0,2.375 0.875,3.546875 1.84375,4.9375 L 2.828125,1.75 C 1.9375,0.421875 1.359375,-0.65625 1.359375,-2.796875 1.359375,-4.9375 1.9375,-6 2.828125,-7.328125 Z m 0,0"
               id="id-662c06df-5ff2-4125-953e-2d799486e9bc" />
          </g>
          <g
             id="id-dfcecdc9-17fc-43ed-875b-2df1a31f13a3">
            <path
               d="m -1.421875,-8.203125 -0.375,0.34375 0.5,0.546875 h -2.59375 v 0.609375 h 2.59375 l -0.5,0.546875 0.375,0.34375 1.125,-1.1875 z m 0,0"
               id="id-aa835ec3-ffb7-4701-9e3d-55b2e3d6bce4" />
          </g>
          <g
             id="id-694b1200-9065-436b-b426-fea031e1a34f">
            <path
               d="M 4.328125,0 H 5.4375 L 3.1875,-3.640625 6.234375,-6.875 H 5.140625 L 2.125,-3.671875 Z M 0.625,0 H 1.5625 L 2.53125,-6.875 H 1.578125 Z m 0,0"
               id="id-3f116941-3d0c-44f8-a021-b7c303192362" />
          </g>
          <g
             id="id-4a3359f0-d573-4a36-b15c-d55af328af40">
            <path
               d="m 1.1875,-1.265625 c -0.390625,0 -0.6875,0.3125 -0.6875,0.6875 C 0.5,-0.34375 0.609375,-0.125 0.78125,0 L 0.375,1.65625 H 1.03125 L 1.703125,0.125 c 0.125,-0.28125 0.1875,-0.484375 0.1875,-0.703125 0,-0.375 -0.3125,-0.6875 -0.703125,-0.6875 z m 0,0"
               id="id-43e54fe8-99a9-40d9-a23b-8f38f53fcd0c" />
          </g>
          <g
             id="id-aba4cd94-d18c-401a-a97d-f4ed2aba3f69">
            <path
               d="m 2.0625,0.125 c 0.78125,0 1.28125,-0.375 1.578125,-1.21875 0.015625,0.796875 0.46875,1.21875 1.21875,1.21875 1.625,0 2.203125,-1.765625 2.203125,-3.390625 C 7.0625,-4.0625 6.921875,-4.71875 6.78125,-5.25 H 5.890625 c 0.1875,0.734375 0.265625,1.3125 0.265625,1.90625 0,1.09375 -0.25,2.71875 -1.375,2.71875 -0.609375,0 -0.71875,-0.46875 -0.625,-1.15625 l 0.265625,-1.875 -0.890625,0.125 -0.234375,1.703125 C 3.15625,-0.84375 2.734375,-0.625 2.21875,-0.625 c -0.484375,0 -0.75,-0.296875 -0.75,-1.0625 0,-0.96875 0.265625,-2.015625 1.046875,-3.5625 H 1.59375 c -0.609375,1.109375 -1.03125,2.375 -1.03125,3.5 0,1.328125 0.65625,1.875 1.5,1.875 z m 0,0"
               id="id-41871a43-dacb-44e1-87f3-62a65af7b5f7" />
          </g>
          <g
             id="id-249ec230-494d-46fe-aaee-39659f49e46d">
            <path
               d="M 0.984375,-7.71875 0.40625,-7.328125 C 1.296875,-6 1.875,-4.9375 1.875,-2.796875 1.875,-0.65625 1.296875,0.421875 0.40625,1.75 l 0.578125,0.390625 c 0.96875,-1.390625 1.84375,-2.5625 1.84375,-4.9375 0,-2.359375 -0.875,-3.546875 -1.84375,-4.921875 z m 0,0"
               id="id-2ab27e9e-e5fb-4f24-8f25-1c4f2a85de94" />
          </g>
        </g>
      </defs>
      <g
         fill="#000000"
         fill-opacity="1"
         id="id-3fc1349a-3c39-46d5-a4ce-2f2bd23d01d8"
         transform="translate(-149.417,-124.948)">
        <g
           transform="translate(148.712,134.765)"
           id="g148627">
          <path
             d="m 2,0.125 c 0.71875,0 1.234375,-0.421875 1.734375,-1.09375 L 3.65625,0 H 4.4375 L 5.171875,-5.25 H 4.265625 L 3.78125,-1.828125 C 3.375,-1.21875 2.84375,-0.59375 2.1875,-0.59375 c -0.453125,0 -0.640625,-0.25 -0.546875,-0.96875 L 2.15625,-5.25 H 1.25 L 0.734375,-1.53125 C 0.578125,-0.5 1.0625,0.125 2,0.125 Z m 0,0"
             id="id-bc2dd68d-2142-4b9a-aae5-26d0132c5f6f" />
        </g>
      </g>
      <g
         fill="#000000"
         fill-opacity="1"
         id="id-ec0c25d8-48ae-4f43-aabd-81ae400dfc2c"
         transform="translate(-149.417,-124.948)">
        <g
           transform="translate(154.65,134.765)"
           id="g148631">
          <path
             d="m 2.25,-7.71875 c -0.96875,1.375 -1.84375,2.5625 -1.84375,4.921875 0,2.375 0.875,3.546875 1.84375,4.9375 L 2.828125,1.75 C 1.9375,0.421875 1.359375,-0.65625 1.359375,-2.796875 1.359375,-4.9375 1.9375,-6 2.828125,-7.328125 Z m 0,0"
             id="id-13129804-7117-42cc-9ca0-3ef88ed6a86a" />
        </g>
      </g>
      <g
         fill="#000000"
         fill-opacity="1"
         id="id-ece18b47-955b-4760-8db8-66d2dc906f1e"
         transform="translate(-149.417,-124.948)">
        <g
           transform="translate(163.796,133.151)"
           id="g148635">
          <path
             d="m -1.421875,-8.203125 -0.375,0.34375 0.5,0.546875 h -2.59375 v 0.609375 h 2.59375 l -0.5,0.546875 0.375,0.34375 1.125,-1.1875 z m 0,0"
             id="id-e6cae2cd-d596-4afa-87af-872d72cc272f" />
        </g>
      </g>
      <g
         fill="#000000"
         fill-opacity="1"
         id="id-d973ae26-0a78-441d-b6c7-996de006d272"
         transform="translate(-149.417,-124.948)">
        <g
           transform="translate(157.878,134.765)"
           id="g148639">
          <path
             d="M 4.328125,0 H 5.4375 L 3.1875,-3.640625 6.234375,-6.875 H 5.140625 L 2.125,-3.671875 Z M 0.625,0 H 1.5625 L 2.53125,-6.875 H 1.578125 Z m 0,0"
             id="id-33939d64-fb84-4b9e-8b97-a24cad372e75" />
        </g>
      </g>
      <g
         fill="#000000"
         fill-opacity="1"
         id="id-29eb8bdf-f953-43ff-89d3-2ab3da4c233c"
         transform="translate(-149.417,-124.948)">
        <g
           transform="translate(164.473,134.765)"
           id="g148643">
          <path
             d="m 1.1875,-1.265625 c -0.390625,0 -0.6875,0.3125 -0.6875,0.6875 C 0.5,-0.34375 0.609375,-0.125 0.78125,0 L 0.375,1.65625 H 1.03125 L 1.703125,0.125 c 0.125,-0.28125 0.1875,-0.484375 0.1875,-0.703125 0,-0.375 -0.3125,-0.6875 -0.703125,-0.6875 z m 0,0"
             id="id-bb78635e-27ab-46a6-bfcd-74f249204cfb" />
        </g>
      </g>
      <g
         fill="#000000"
         fill-opacity="1"
         id="id-9f8aefb3-cfb1-4256-9b30-b3119b86df20"
         transform="translate(-149.417,-124.948)">
        <g
           transform="translate(168.528,134.765)"
           id="g148647">
          <path
             d="m 2.0625,0.125 c 0.78125,0 1.28125,-0.375 1.578125,-1.21875 0.015625,0.796875 0.46875,1.21875 1.21875,1.21875 1.625,0 2.203125,-1.765625 2.203125,-3.390625 C 7.0625,-4.0625 6.921875,-4.71875 6.78125,-5.25 H 5.890625 c 0.1875,0.734375 0.265625,1.3125 0.265625,1.90625 0,1.09375 -0.25,2.71875 -1.375,2.71875 -0.609375,0 -0.71875,-0.46875 -0.625,-1.15625 l 0.265625,-1.875 -0.890625,0.125 -0.234375,1.703125 C 3.15625,-0.84375 2.734375,-0.625 2.21875,-0.625 c -0.484375,0 -0.75,-0.296875 -0.75,-1.0625 0,-0.96875 0.265625,-2.015625 1.046875,-3.5625 H 1.59375 c -0.609375,1.109375 -1.03125,2.375 -1.03125,3.5 0,1.328125 0.65625,1.875 1.5,1.875 z m 0,0"
             id="id-72d0a7e6-2d25-456d-a904-48620090a782" />
        </g>
      </g>
      <g
         fill="#000000"
         fill-opacity="1"
         id="id-dd4b42e0-31c1-4065-9863-e8b984c1934d"
         transform="translate(-149.417,-124.948)">
        <g
           transform="translate(176.349,134.765)"
           id="g148651">
          <path
             d="M 0.984375,-7.71875 0.40625,-7.328125 C 1.296875,-6 1.875,-4.9375 1.875,-2.796875 1.875,-0.65625 1.296875,0.421875 0.40625,1.75 l 0.578125,0.390625 c 0.96875,-1.390625 1.84375,-2.5625 1.84375,-4.9375 0,-2.359375 -0.875,-3.546875 -1.84375,-4.921875 z m 0,0"
             id="id-12b25cff-ff2c-43f1-9be6-2683097c51f2" />
        </g>
      </g>
    </g>
    <path
       style="fill:#ff7000;fill-opacity:1;stroke:#10c0ff;stroke-width:1.5;stroke-dasharray:none;stroke-dashoffset:0;stroke-opacity:1;marker-end:url(#RoundedArrow)"
       d="m 82.524832,124.75376 h 1.40611"
       id="path152062"
       inkscape:path-effect="#path-effect152064"
       inkscape:original-d="m 82.524832,124.75376 c 5.19438,2.6e-4 -3.7888,2.6e-4 1.40611,0"
       sodipodi:nodetypes="cc" />
    <path
       style="fill:#ff7000;fill-opacity:1;stroke:#10c0ff;stroke-width:1.5;stroke-dasharray:none;stroke-dashoffset:0;stroke-opacity:1;marker-end:url(#RoundedArrow)"
       d="m 135.44152,124.75376 h 1.40611"
       id="path152212"
       inkscape:path-effect="#path-effect152216"
       inkscape:original-d="m 135.44152,124.75376 c 5.19438,2.6e-4 -3.7888,2.6e-4 1.40611,0"
       sodipodi:nodetypes="cc" />
  </g>
</svg>
